<svg width="133" height="31" viewBox="0 0 133 31" fill="none" xmlns="http://www.w3.org/2000/svg">
<path d="M21.0128 17.6972C21.8927 17.6972 22.6059 18.4105 22.6059 19.2904V19.8932C22.6059 21.106 21.6228 22.0892 20.4099 22.0892H20.1946C18.013 22.0892 16.4772 21.2568 15.5873 19.5918C14.152 21.6299 11.9847 22.649 9.08544 22.649C7.09278 22.649 4.65037 24.0853 4.65037 26.078V28.3758C4.65037 29.66 3.60935 30.701 2.32518 30.701C1.04102 30.701 0 29.66 0 28.3758V2.88495C0 1.60079 1.04102 0.559766 2.32518 0.559766C3.60935 0.559766 4.65037 1.60079 4.65037 2.88495V13.3052C4.65037 14.884 5.08096 16.1184 5.94213 17.0083C6.80331 17.8695 7.9659 18.3 9.42991 18.3C11.0949 18.3 12.4297 17.7977 13.4344 16.793C14.4391 15.7596 14.9415 14.1807 14.9415 12.0565V2.88495C14.9415 1.60079 15.9825 0.559766 17.2666 0.559766C18.5508 0.559766 19.5918 1.60078 19.5918 2.88495V16.2763C19.5918 16.7069 19.721 17.0513 19.9793 17.3097C20.2377 17.568 20.5822 17.6972 21.0128 17.6972Z" fill="#456FF6"/>
<path d="M31.6604 12.9285C31.6604 15.3719 33.6412 17.3528 36.0847 17.3528H41.564C42.8719 17.3528 43.9322 18.413 43.9322 19.721C43.9322 21.0289 42.8719 22.0892 41.564 22.0892H35.3204C30.5643 22.0892 26.7087 18.2336 26.7087 13.4774V3.03559C26.7087 1.6682 27.8171 0.559707 29.1845 0.559707C30.5519 0.559707 31.6604 1.6682 31.6604 3.0356V12.9285Z" fill="#456FF6"/>
<path d="M52.068 13.3052C51.1533 13.3052 50.4566 14.1619 50.8644 14.9806C51.2885 15.8319 51.8875 16.5365 52.6614 17.0944C53.8958 17.9556 55.4028 18.3862 57.1826 18.3862C58.8362 18.3862 60.2128 17.9869 61.3126 17.1885C62.2526 16.506 63.5113 16.1688 64.5143 16.7548C65.6261 17.4044 65.9719 18.885 65.0402 19.7739C63.0309 21.6906 60.3974 22.649 57.1396 22.649C53.6374 22.649 50.8099 21.5869 48.6569 19.4626C46.504 17.3097 45.4275 14.597 45.4275 11.3245C45.4275 8.10943 46.4896 5.42542 48.6139 3.27248C50.7381 1.09083 53.4652 0 56.7951 0C59.9527 0 62.5363 1.10518 64.5457 3.31554C66.5838 5.5259 67.6029 8.2099 67.6029 11.3676C67.6029 12.4846 66.6009 13.3052 65.4839 13.3052H52.068ZM50.2501 9.51602H62.9095C62.5937 7.76496 61.8617 6.44449 60.7134 5.5546C59.5939 4.66472 58.2734 4.21977 56.752 4.21977C55.0297 4.21977 53.5944 4.69342 52.4461 5.64072C51.2979 6.58802 50.5659 7.87978 50.2501 9.51602Z" fill="#456FF6"/>
<path d="M88.62 2.88495C88.62 1.60079 89.661 0.559766 90.9452 0.559766C92.2294 0.559766 93.2704 1.60079 93.2704 2.88495V19.764C93.2704 21.0482 92.2294 22.0892 90.9452 22.0892C89.661 22.0892 88.62 21.0482 88.62 19.764V18.989C86.869 21.429 84.3572 22.649 81.0847 22.649C78.128 22.649 75.6019 21.5582 73.5063 19.3765C71.4108 17.1662 70.363 14.4822 70.363 11.3245C70.363 8.13814 71.4108 5.45413 73.5063 3.27248C75.6019 1.09083 78.128 0 81.0847 0C84.3572 0 86.869 1.20565 88.62 3.61695V2.88495ZM76.951 16.2763C78.2428 17.568 79.8647 18.2139 81.8167 18.2139C83.7687 18.2139 85.3906 17.568 86.6824 16.2763C87.9741 14.9558 88.62 13.3052 88.62 11.3245C88.62 9.34379 87.9741 7.70755 86.6824 6.41578C85.3906 5.09531 83.7687 4.43507 81.8167 4.43507C79.8647 4.43507 78.2428 5.09531 76.951 6.41578C75.6593 7.70755 75.0134 9.34379 75.0134 11.3245C75.0134 13.3052 75.6593 14.9558 76.951 16.2763Z" fill="#456FF6"/>
<path d="M103.341 4.17672C104.199 2.23178 105.605 0.995323 107.559 0.46734C108.859 0.116217 109.972 1.26366 109.972 2.61001C109.972 4.01811 108.75 5.07552 107.398 5.46875C106.652 5.68565 105.96 6.03003 105.322 6.5019C104.001 7.44919 103.341 9.02802 103.341 11.2384V19.764C103.341 21.0482 102.3 22.0892 101.016 22.0892C99.7318 22.0892 98.6908 21.0482 98.6908 19.764V2.88495C98.6908 1.60079 99.7318 0.559766 101.016 0.559766C102.3 0.559766 103.341 1.60079 103.341 2.88495V4.17672Z" fill="#456FF6"/>
<path d="M124.733 0C127.201 0 129.196 0.789413 130.718 2.36824C132.239 3.94707 133 6.11437 133 8.87014V19.764C133 21.0482 131.959 22.0892 130.675 22.0892C129.391 22.0892 128.35 21.0482 128.35 19.7641V9.34379C128.35 7.73625 127.919 6.5019 127.058 5.64072C126.197 4.77954 125.02 4.34895 123.527 4.34895C121.891 4.34895 120.57 4.86566 119.566 5.89907C118.561 6.90378 118.059 8.4539 118.059 10.5494V19.7641C118.059 21.0482 117.018 22.0892 115.733 22.0892C114.449 22.0892 113.408 21.0482 113.408 19.7641V2.88494C113.408 1.60078 114.449 0.559766 115.733 0.559766C117.018 0.559766 118.059 1.60078 118.059 2.88495V3.31554C119.465 1.10518 121.69 0 124.733 0Z" fill="#456FF6"/>
</svg>
