<svg width="640" height="592" viewBox="0 0 640 592" fill="none" xmlns="http://www.w3.org/2000/svg">
<path fill-rule="evenodd" clip-rule="evenodd" d="M324.914 0.00112436C380.858 0.321376 409.152 69.2229 452.574 104.497C488.607 133.768 532.733 152.208 559.217 190.336C586.917 230.216 595.68 278.198 606.159 325.611C619.053 383.946 659.307 449.723 627.761 500.459C595.932 551.65 519.788 550.255 460.328 560.153C414.925 567.711 370.798 547.229 324.914 550.873C273.598 554.948 217.609 613.662 176.485 582.697C132.955 549.919 186.188 468.459 155.587 423.372C120.916 372.287 18.3501 385.145 1.9997 325.611C-12.5306 272.703 55.6777 232.328 91.7707 191.005C122.267 156.09 160.547 132.409 196.408 103.031C239.614 67.6337 269.061 -0.318613 324.914 0.00112436Z" fill="#C0D7F9"/>
</svg>
