<svg width="331" height="228" viewBox="0 0 331 228" fill="none" xmlns="http://www.w3.org/2000/svg">
<path fill-rule="evenodd" clip-rule="evenodd" d="M227.216 66.646H102.842C67.838 66.646 39.4617 94.4336 39.4617 128.711C39.4617 162.989 67.838 190.777 102.842 190.777H312.076V149.746C312.076 103.851 274.083 66.646 227.216 66.646Z" fill="#FEEBD2"/>
<path fill-rule="evenodd" clip-rule="evenodd" d="M92.5061 35.3706H179.832C183.276 35.3706 186.146 37.9527 186.438 41.313L189.321 74.528C189.631 78.1006 186.925 81.243 183.276 81.5466C183.089 81.5621 182.902 81.5699 182.715 81.5699H95.3887C91.9448 81.5699 89.0744 78.9878 88.7828 75.6275L85.9002 42.4125C85.5901 38.8399 88.2963 35.6976 91.9447 35.3939C92.1314 35.3784 92.3187 35.3706 92.5061 35.3706Z" fill="white" stroke="#18233D" stroke-width="1.02916" stroke-linecap="round"/>
<path fill-rule="evenodd" clip-rule="evenodd" d="M97.6398 26.0371H184.966C188.272 26.0371 191.028 28.5159 191.308 31.7418L194.19 64.9568C194.488 68.3865 191.89 71.4032 188.387 71.6947C188.208 71.7096 188.028 71.717 187.848 71.717H100.522C97.2163 71.717 94.4607 69.2382 94.1807 66.0123L91.2981 32.7974C91.0005 29.3676 93.5984 26.351 97.1009 26.0595C97.2801 26.0446 97.4599 26.0371 97.6398 26.0371Z" fill="#D7E3FF"/>
<path d="M146.709 39.5132H178.909" stroke="#18233D" stroke-width="1.02916" stroke-linecap="round"/>
<path d="M147.641 46.3652H168.641" stroke="#18233D" stroke-width="1.02916" stroke-linecap="round"/>
<path d="M148.108 52.7603H176.575" stroke="#18233D" stroke-width="1.02916" stroke-linecap="round"/>
<path fill-rule="evenodd" clip-rule="evenodd" d="M104.746 50.4127C108.094 49.3892 111.978 48.8774 116.398 48.8774C122.183 48.8774 127.585 49.7538 132.605 51.5064C136.104 52.728 138.562 55.8266 138.905 59.449L139.667 67.4968H98.7241L98.0788 60.1365C97.6954 55.7648 100.468 51.7203 104.746 50.4127Z" fill="white"/>
<path d="M120.67 15.443C125 15.443 128.511 11.986 128.511 7.72151C128.511 3.45704 125 0 120.67 0C116.339 0 112.828 3.45704 112.828 7.72151C112.828 11.986 116.339 15.443 120.67 15.443Z" fill="#18233D"/>
<path d="M119.713 21.0931C123.093 21.0931 125.834 18.395 125.834 15.0666C125.834 11.7382 123.093 9.04004 119.713 9.04004C116.333 9.04004 113.593 11.7382 113.593 15.0666C113.593 18.395 116.333 21.0931 119.713 21.0931Z" fill="#E5E9F3"/>
<path fill-rule="evenodd" clip-rule="evenodd" d="M110.732 32.7286C111.68 36.2324 111.917 39.7181 111.443 43.1856C110.732 48.3869 109.752 49.599 108.239 50.2341L116.4 64.4086L125.069 49.8574C122.217 49.6632 120.79 47.5908 120.79 43.6403C120.79 39.6898 121.075 35.3128 121.643 30.5093L110.732 32.7286Z" fill="#FFD1AB"/>
<path fill-rule="evenodd" clip-rule="evenodd" d="M110.459 53.9619C113.376 56.062 117.465 56.062 122.724 53.9619L116.398 64.4084L110.459 53.9619Z" fill="#D7E3FF"/>
<path fill-rule="evenodd" clip-rule="evenodd" d="M107.589 30.8745C104.63 26.3765 103.396 16.6892 109.84 14.8202C116.72 6.80195 126.007 10.2159 127.873 17.0297C129.738 23.8434 127.431 32.1922 122.03 33.3475C116.629 34.5028 110.549 35.3725 107.589 30.8745Z" fill="#18233D"/>
<path fill-rule="evenodd" clip-rule="evenodd" d="M121.296 34.7915C121.197 35.566 121.077 37.3186 120.878 40.4134C120.712 43.011 120.767 44.885 121.043 46.0354C115.431 43.5422 112.298 41.5732 111.643 40.1285C111.688 38.6273 111.64 37.2623 111.499 36.0334L121.296 34.7915Z" fill="#CF8B54"/>
<path fill-rule="evenodd" clip-rule="evenodd" d="M108.244 25.7872C110.013 24.7766 111.489 22.5842 112.671 19.21C111.981 22.544 119.495 25.8948 125.1 26.4932C125.285 26.4384 125.48 26.4091 125.682 26.4091C126.822 26.4091 127.746 27.344 127.746 28.4974C127.746 29.6507 126.822 30.5857 125.682 30.5857C125.151 30.5857 124.666 30.3824 124.301 30.0485C122.629 34.9448 119.112 41.2292 115.163 40.6411C112.308 40.216 110.067 36.6369 108.441 29.9037C108.301 29.9341 108.156 29.9501 108.007 29.9501C106.867 29.9501 105.943 29.0151 105.943 27.8618C105.943 26.7084 106.867 25.7735 108.007 25.7735C108.087 25.7735 108.166 25.7781 108.244 25.7872Z" fill="#FFD1AB"/>
<path d="M115.623 27.3032C115.893 28.3107 115.511 30.1507 114.477 32.8232L116.107 33.3928" stroke="#18233D" stroke-width="1.02916" stroke-linecap="round"/>
<path d="M117.92 25.6008C119.122 25.0345 120.343 25.1425 121.581 25.9249" stroke="#18233D" stroke-width="1.02916" stroke-linecap="round"/>
<path d="M110.545 25.7814C111.68 25.0944 112.905 25.0762 114.22 25.7268" stroke="#18233D" stroke-width="1.02916" stroke-linecap="round"/>
<path d="M119.522 27.8727C119.839 27.8727 120.096 27.6197 120.096 27.3077C120.096 26.9956 119.839 26.7427 119.522 26.7427C119.205 26.7427 118.948 26.9956 118.948 27.3077C118.948 27.6197 119.205 27.8727 119.522 27.8727Z" fill="#18233D"/>
<path d="M112.637 27.8727C112.954 27.8727 113.211 27.6197 113.211 27.3077C113.211 26.9956 112.954 26.7427 112.637 26.7427C112.32 26.7427 112.063 26.9956 112.063 27.3077C112.063 27.6197 112.32 27.8727 112.637 27.8727Z" fill="#18233D"/>
<path fill-rule="evenodd" clip-rule="evenodd" d="M113.976 34.9129L117.476 34.6523C117.145 35.8084 116.561 36.3864 115.726 36.3864C114.891 36.3864 114.307 35.8952 113.976 34.9129Z" fill="white"/>
<path d="M125.068 29.0026L126.216 28.626" stroke="#18233D" stroke-width="1.02916" stroke-linecap="round"/>
<path d="M108.239 28.2492L107.091 27.8726" stroke="#18233D" stroke-width="1.02916" stroke-linecap="round"/>
<path d="M114.741 18.0796C116.77 21.549 119.958 23.6834 124.303 24.4828" stroke="white" stroke-width="1.02916" stroke-linecap="round"/>
<path d="M110.88 46.0352C108.962 47.3737 108.144 49.7701 108.853 51.9694L110.151 55.9933C110.954 58.4806 113.31 60.1715 115.974 60.1715C118.625 60.1715 120.956 58.4559 121.694 55.9627L122.932 51.7743C123.557 49.663 122.809 47.3919 121.043 46.0352" stroke="#18233D" stroke-width="1.02916" stroke-linecap="round"/>
<path fill-rule="evenodd" clip-rule="evenodd" d="M204.972 38.5684H292.298C295.742 38.5684 298.612 41.1505 298.904 44.5108L301.786 77.7257C302.097 81.2984 299.39 84.4407 295.742 84.7443C295.555 84.7599 295.368 84.7677 295.181 84.7677H207.855C204.411 84.7677 201.54 82.1856 201.249 78.8252L198.366 45.6103C198.056 42.0377 200.762 38.8953 204.41 38.5917C204.597 38.5761 204.785 38.5684 204.972 38.5684Z" fill="white" stroke="#18233D" stroke-width="1.02916" stroke-linecap="round"/>
<path d="M250.437 54.2485H282.636" stroke="#18233D" stroke-width="1.02916" stroke-linecap="round"/>
<path d="M251.369 61.1006H272.369" stroke="#18233D" stroke-width="1.02916" stroke-linecap="round"/>
<path d="M251.836 67.4961H280.302" stroke="#18233D" stroke-width="1.02916" stroke-linecap="round"/>
<path fill-rule="evenodd" clip-rule="evenodd" d="M214.971 65.0633C217.001 64.444 219.357 64.1343 222.04 64.1343C225.544 64.1343 228.816 64.6625 231.856 65.7188C233.958 66.4493 235.436 68.3085 235.644 70.4834L236.104 75.3059H211.358L210.969 70.9019C210.737 68.2767 212.402 65.8474 214.971 65.0633Z" fill="#18233D"/>
<path fill-rule="evenodd" clip-rule="evenodd" d="M227.068 64.1343L228.022 64.7631L225.914 75.3059H219.221L217.503 64.7631L219.009 64.1343H227.068Z" fill="white"/>
<path fill-rule="evenodd" clip-rule="evenodd" d="M218.469 71.198L222.375 69.2121L226.694 70.8198L228.022 64.7631L227.068 64.1343H218.108L217.503 64.7631L218.469 71.198Z" fill="#D7E3FF"/>
<path fill-rule="evenodd" clip-rule="evenodd" d="M218.546 54.1195C219.119 56.2218 219.262 58.3131 218.975 60.3937C218.546 63.5145 218.546 64.7241 217.851 65.2229L221.485 69.6504L224.482 70.0236L228.023 65.2229C227.004 64.7764 226.494 63.368 226.494 60.9977C226.494 58.6274 226.563 55.9999 226.702 53.1152L218.546 54.1195Z" fill="#FFD1AB"/>
<path fill-rule="evenodd" clip-rule="evenodd" d="M217.458 53.6072C215.67 50.9084 215.115 45.8195 219.009 44.6981C219.274 40.8613 228.137 42.5198 229.265 46.608C230.393 50.6962 228.072 56.4847 224.808 57.1779C221.544 57.871 219.247 56.306 217.458 53.6072Z" fill="#18233D"/>
<path fill-rule="evenodd" clip-rule="evenodd" d="M226.696 55.6445C226.629 56.162 226.41 58.6309 226.479 61.1276C226.495 61.6935 226.567 62.3527 226.696 63.1055C222.042 60.9724 219.517 59.4724 219.122 58.6056C219.149 57.7049 219.096 56.8392 219.011 56.1018L226.696 55.6445Z" fill="#CF8B54"/>
<path fill-rule="evenodd" clip-rule="evenodd" d="M218.441 50.4329C219.51 49.8265 219.815 48.6325 220.53 46.6079C222.376 49.4739 224.135 49.7156 227.155 50.4278C226.959 55.6166 227.495 50.9198 228.042 50.9779C228.154 50.945 228.272 50.9274 228.394 50.9274C229.083 50.9274 229.641 51.4883 229.641 52.1803C229.641 52.8724 229.083 53.4333 228.394 53.4333C228.073 53.4333 227.78 53.3114 227.559 53.1111C226.548 56.0488 224.423 59.8194 222.036 59.4666C220.31 59.2116 218.956 57.0641 217.973 53.0241C217.889 53.0424 217.801 53.052 217.711 53.052C217.022 53.052 216.463 52.491 216.463 51.799C216.463 51.107 217.022 50.546 217.711 50.546C217.759 50.546 217.749 52.5612 217.973 52.4838C218.123 52.4322 218.279 51.7485 218.441 50.4329Z" fill="#FFD1AB"/>
<path fill-rule="evenodd" clip-rule="evenodd" d="M218.199 52.0317C218.288 53.7989 218.481 54.9677 218.777 55.5382C219.222 56.3939 220.197 57.9376 220.681 58.0829C221.042 57.2092 221.549 57.3416 222.821 57.3416C223.668 57.3416 224.17 57.5469 224.324 57.9576C224.876 57.5895 225.452 56.9393 226.053 56.0069C226.654 55.0746 227.029 53.934 227.176 52.5853L227.456 52.0317L227.561 53.2909C227.293 55.9838 226.745 57.7562 225.915 58.6082C224.671 59.8861 221.154 61.023 219.431 58.6082C218.283 56.9983 217.756 54.837 217.851 52.1243L218.199 52.0317Z" fill="#18233D"/>
<path fill-rule="evenodd" clip-rule="evenodd" d="M222.282 55.0443C221.965 54.8091 221.572 54.7787 221.101 54.9532C220.395 55.2149 219.929 55.5954 220.162 55.7543C220.317 55.8602 221.055 55.7455 222.376 55.4102C223.674 55.6631 224.439 55.7263 224.67 55.5999C225.017 55.4102 223.71 54.9366 223.323 54.844C223.065 54.7823 222.718 54.8491 222.282 55.0443Z" fill="#18233D"/>
<path d="M222.314 51.4639C222.477 52.0684 222.246 53.1723 221.621 54.7758L222.606 55.1176" stroke="#18233D" stroke-width="0.617496" stroke-linecap="round"/>
<path d="M223.702 50.4425C224.428 50.1027 225.166 50.1676 225.914 50.637" stroke="#18233D" stroke-width="0.617496" stroke-linecap="round"/>
<path d="M219.245 50.5506C219.931 50.1384 220.671 50.1275 221.466 50.5179" stroke="#18233D" stroke-width="0.617496" stroke-linecap="round"/>
<path d="M224.671 51.8993C224.915 51.8993 225.113 51.7055 225.113 51.4665C225.113 51.2275 224.915 51.0337 224.671 51.0337C224.427 51.0337 224.229 51.2275 224.229 51.4665C224.229 51.7055 224.427 51.8993 224.671 51.8993Z" fill="#18233D"/>
<path d="M220.509 51.8993C220.753 51.8993 220.951 51.7055 220.951 51.4665C220.951 51.2275 220.753 51.0337 220.509 51.0337C220.265 51.0337 220.067 51.2275 220.067 51.4665C220.067 51.7055 220.265 51.8993 220.509 51.8993Z" fill="#18233D"/>
<path fill-rule="evenodd" clip-rule="evenodd" d="M221.318 56.0304L223.434 55.874C223.234 56.5676 222.881 56.9144 222.376 56.9144C221.871 56.9144 221.519 56.6197 221.318 56.0304Z" fill="white"/>
<path d="M228.023 52.4838L228.717 52.2578" stroke="#18233D" stroke-width="0.617496" stroke-linecap="round"/>
<path d="M217.851 52.0317L217.158 51.8057" stroke="#18233D" stroke-width="0.617496" stroke-linecap="round"/>
<path d="M221.781 45.9302C223.008 48.0118 224.935 49.2925 227.561 49.7721" stroke="white" stroke-width="0.617496" stroke-linecap="round"/>
<path fill-rule="evenodd" clip-rule="evenodd" d="M221.484 69.6499L224.742 69.7202L225.666 70.3469L224.213 72.1008H222.195L220.338 70.3469L221.484 69.6499Z" fill="#18233D"/>
<path fill-rule="evenodd" clip-rule="evenodd" d="M222.196 72.1011L221.331 75.3063H224.645L224.214 72.1011H222.196Z" fill="#18233D"/>
<path d="M230.337 65.3394L231.219 70.3471L228.717 71.1983L230.767 73.7036L229.554 75.3062" stroke="white" stroke-width="0.617496" stroke-linecap="round"/>
<path d="M215.599 64.8828L214.717 70.1201L217.219 71.0103L215.169 73.6304L216.382 75.3065" stroke="white" stroke-width="0.617496" stroke-linecap="round"/>
<path fill-rule="evenodd" clip-rule="evenodd" d="M283.435 16.1006H303.324C311.965 16.1006 318.97 22.9603 318.97 31.4221C318.97 39.884 311.965 46.7437 303.324 46.7437H252.143C252.143 29.82 266.153 16.1006 283.435 16.1006Z" stroke="#18233D" stroke-width="0.823328" stroke-linecap="round"/>
<path d="M272.094 34.2786C273.74 34.2786 275.074 32.9996 275.074 31.422C275.074 29.8444 273.74 28.5654 272.094 28.5654C270.448 28.5654 269.114 29.8444 269.114 31.422C269.114 32.9996 270.448 34.2786 272.094 34.2786Z" fill="#18233D"/>
<path d="M285.291 34.2786C286.937 34.2786 288.271 32.9996 288.271 31.422C288.271 29.8444 286.937 28.5654 285.291 28.5654C283.645 28.5654 282.311 29.8444 282.311 31.422C282.311 32.9996 283.645 34.2786 285.291 34.2786Z" fill="#18233D"/>
<path d="M298.489 34.2786C300.134 34.2786 301.469 32.9996 301.469 31.422C301.469 29.8444 300.134 28.5654 298.489 28.5654C296.843 28.5654 295.509 29.8444 295.509 31.422C295.509 32.9996 296.843 34.2786 298.489 34.2786Z" fill="#18233D"/>
<path fill-rule="evenodd" clip-rule="evenodd" d="M98.573 90.187H185.899C189.343 90.187 192.213 92.7691 192.505 96.1294L195.388 129.344C195.698 132.917 192.991 136.059 189.343 136.363C189.156 136.379 188.969 136.386 188.782 136.386H101.456C98.0117 136.386 95.1413 133.804 94.8497 130.444L91.9671 97.229C91.657 93.6563 94.3632 90.514 98.0116 90.2103C98.1983 90.1948 98.3856 90.187 98.573 90.187Z" fill="white" stroke="#18233D" stroke-width="1.02916" stroke-linecap="round"/>
<path d="M146.709 103.915H178.909" stroke="#18233D" stroke-width="1.02916" stroke-linecap="round"/>
<path d="M147.642 110.767H168.642" stroke="#18233D" stroke-width="1.02916" stroke-linecap="round"/>
<path d="M148.108 117.163H176.575" stroke="#18233D" stroke-width="1.02916" stroke-linecap="round"/>
<path fill-rule="evenodd" clip-rule="evenodd" d="M108.834 119.542C110.688 118.792 112.926 118.417 115.547 118.417C118.643 118.417 121.516 118.94 124.166 119.986C125.495 120.51 126.413 121.719 126.542 123.117L126.973 127.766H106.869L106.487 123.311C106.348 121.688 107.297 120.164 108.834 119.542Z" fill="#18233D"/>
<path fill-rule="evenodd" clip-rule="evenodd" d="M109.871 115.701C108.458 113.47 109.15 102.805 112.226 101.878C115.509 97.9005 119.942 99.5939 120.832 102.973C121.723 106.353 121.969 116.59 119.391 117.163C116.813 117.736 111.283 117.932 109.871 115.701Z" fill="#18233D"/>
<path fill-rule="evenodd" clip-rule="evenodd" d="M112.651 110.76C113.104 112.498 113.217 114.227 112.99 115.947C112.651 118.526 112.183 119.128 111.461 119.443L115.356 126.473L119.494 119.256C118.132 119.16 117.452 118.132 117.452 116.172C117.452 114.213 117.587 112.042 117.858 109.659L112.651 110.76Z" fill="#FFD1AB"/>
<path fill-rule="evenodd" clip-rule="evenodd" d="M112.522 121.292C113.914 122.334 115.866 122.334 118.376 121.292L115.356 126.473L112.522 121.292Z" fill="#D7E3FF"/>
<path fill-rule="evenodd" clip-rule="evenodd" d="M117.695 111.783C117.647 112.167 117.59 113.036 117.495 114.571C117.416 115.86 117.442 116.789 117.574 117.36C114.895 116.123 113.4 115.146 113.087 114.43C113.109 113.685 113.086 113.008 113.019 112.399L117.695 111.783Z" fill="#CF8B54"/>
<path fill-rule="evenodd" clip-rule="evenodd" d="M111.465 107.317C112.309 106.815 113.014 105.728 113.578 104.054C113.249 105.708 116.835 107.37 119.51 107.667C119.598 107.64 119.691 107.625 119.788 107.625C120.332 107.625 120.773 108.089 120.773 108.661C120.773 109.233 120.332 109.697 119.788 109.697C119.534 109.697 119.303 109.596 119.128 109.43C118.33 111.859 116.652 114.976 114.767 114.684C113.404 114.473 112.335 112.698 111.559 109.358C111.492 109.373 111.423 109.381 111.352 109.381C110.808 109.381 110.367 108.918 110.367 108.346C110.367 107.773 110.808 107.31 111.352 107.31C111.39 107.31 111.428 107.312 111.465 107.317Z" fill="#FFD1AB"/>
<path d="M114.986 108.069C115.115 108.569 114.933 109.481 114.439 110.807L115.217 111.089" stroke="#18233D" stroke-width="0.51458" stroke-linecap="round"/>
<path d="M116.083 107.224C116.657 106.943 117.239 106.997 117.83 107.385" stroke="#18233D" stroke-width="0.51458" stroke-linecap="round"/>
<path d="M112.562 107.314C113.104 106.973 113.689 106.964 114.316 107.287" stroke="#18233D" stroke-width="0.51458" stroke-linecap="round"/>
<path d="M116.847 108.504C117.091 108.504 117.289 108.311 117.289 108.071C117.289 107.832 117.091 107.639 116.847 107.639C116.603 107.639 116.405 107.832 116.405 108.071C116.405 108.311 116.603 108.504 116.847 108.504Z" fill="#18233D"/>
<path d="M113.561 108.504C113.805 108.504 114.003 108.311 114.003 108.071C114.003 107.832 113.805 107.639 113.561 107.639C113.317 107.639 113.119 107.832 113.119 108.071C113.119 108.311 113.317 108.504 113.561 108.504Z" fill="#18233D"/>
<path fill-rule="evenodd" clip-rule="evenodd" d="M114.201 111.843L115.872 111.714C115.713 112.287 115.435 112.574 115.036 112.574C114.637 112.574 114.359 112.33 114.201 111.843Z" fill="white"/>
<path d="M119.495 108.912L120.042 108.725" stroke="#18233D" stroke-width="0.51458" stroke-linecap="round"/>
<path d="M111.461 108.538L110.913 108.351" stroke="#18233D" stroke-width="0.51458" stroke-linecap="round"/>
<path d="M114.565 103.494C115.534 105.214 117.055 106.273 119.129 106.67" stroke="white" stroke-width="0.51458" stroke-linecap="round"/>
<path fill-rule="evenodd" clip-rule="evenodd" d="M211.507 112.566H298.833C302.276 112.566 305.147 115.148 305.439 118.508L308.321 151.723C308.631 155.296 305.925 158.438 302.277 158.742C302.09 158.757 301.903 158.765 301.715 158.765H214.389C210.945 158.765 208.075 156.183 207.783 152.823L204.901 119.608C204.591 116.035 207.297 112.893 210.945 112.589C211.132 112.574 211.319 112.566 211.507 112.566Z" fill="white" stroke="#18233D" stroke-width="1.02916" stroke-linecap="round"/>
<path fill-rule="evenodd" clip-rule="evenodd" d="M218.038 103.693H305.364C308.67 103.693 311.426 106.172 311.705 109.398L314.588 142.613C314.886 146.043 312.288 149.059 308.785 149.351C308.606 149.366 308.426 149.373 308.246 149.373H220.92C217.614 149.373 214.859 146.894 214.579 143.669L211.696 110.454C211.398 107.024 213.996 104.007 217.499 103.716C217.678 103.701 217.858 103.693 218.038 103.693Z" fill="#0ACC94"/>
<path d="M265.836 114.546H298.036" stroke="white" stroke-width="1.02916" stroke-linecap="round"/>
<path d="M266.768 121.398H287.768" stroke="white" stroke-width="1.02916" stroke-linecap="round"/>
<path d="M267.235 127.793H295.702" stroke="white" stroke-width="1.02916" stroke-linecap="round"/>
<path fill-rule="evenodd" clip-rule="evenodd" d="M223.915 128.526C227.263 127.502 231.147 126.99 235.567 126.99C241.351 126.99 246.754 127.867 251.774 129.619C255.273 130.841 257.731 133.939 258.074 137.562L258.836 145.61H217.893L217.248 138.249C216.864 133.878 219.637 129.833 223.915 128.526Z" fill="white"/>
<path fill-rule="evenodd" clip-rule="evenodd" d="M232.118 110.755C233.066 114.259 233.303 117.744 232.829 121.212C232.118 126.413 232.118 128.429 230.969 129.261C233.851 132.315 236.72 133.842 239.576 133.842C242.431 133.842 245.172 132.315 247.8 129.261C246.113 128.516 245.269 126.169 245.269 122.219C245.269 118.268 245.384 113.889 245.613 109.081L232.118 110.755Z" fill="#FFD1AB"/>
<path fill-rule="evenodd" clip-rule="evenodd" d="M230.32 109.901C227.361 105.403 226.443 96.922 232.887 95.053C233.324 88.6584 247.989 91.4224 249.855 98.2362C251.721 105.05 247.882 114.697 242.481 115.853C237.08 117.008 233.28 114.399 230.32 109.901Z" fill="#18233D"/>
<path fill-rule="evenodd" clip-rule="evenodd" d="M245.603 113.297C245.492 114.159 245.129 118.274 245.244 122.435C245.27 123.378 245.39 124.477 245.603 125.732C237.903 122.177 233.726 119.677 233.071 118.232C233.116 116.731 233.028 115.288 232.887 114.059L245.603 113.297Z" fill="#CF8B54"/>
<path fill-rule="evenodd" clip-rule="evenodd" d="M231.948 104.611C233.717 103.6 234.221 101.61 235.403 98.2358C238.458 103.012 241.369 103.415 246.365 104.602C246.04 113.25 246.927 105.422 247.833 105.519C248.017 105.464 248.213 105.435 248.415 105.435C249.554 105.435 250.478 106.37 250.478 107.523C250.478 108.677 249.554 109.612 248.415 109.612C247.883 109.612 247.399 109.408 247.033 109.074C245.361 113.971 241.845 120.255 237.895 119.667C235.04 119.242 232.8 115.663 231.174 108.93C231.033 108.96 230.888 108.976 230.739 108.976C229.599 108.976 228.675 108.041 228.675 106.888C228.675 105.734 229.599 104.799 230.739 104.799C230.819 104.799 230.802 108.158 231.174 108.029C231.421 107.943 231.679 106.804 231.948 104.611Z" fill="#FFD1AB"/>
<path d="M238.356 106.33C238.626 107.337 238.244 109.177 237.209 111.85L238.839 112.419" stroke="#18233D" stroke-width="1.02916" stroke-linecap="round"/>
<path d="M240.651 104.627C241.854 104.061 243.074 104.169 244.312 104.951" stroke="#18233D" stroke-width="1.02916" stroke-linecap="round"/>
<path d="M233.277 104.808C234.413 104.121 235.638 104.103 236.952 104.753" stroke="#18233D" stroke-width="1.02916" stroke-linecap="round"/>
<path d="M242.253 106.9C242.57 106.9 242.827 106.647 242.827 106.335C242.827 106.022 242.57 105.77 242.253 105.77C241.937 105.77 241.68 106.022 241.68 106.335C241.68 106.647 241.937 106.9 242.253 106.9Z" fill="#18233D"/>
<path d="M235.368 106.9C235.685 106.9 235.942 106.647 235.942 106.335C235.942 106.022 235.685 105.77 235.368 105.77C235.051 105.77 234.794 106.022 234.794 106.335C234.794 106.647 235.051 106.9 235.368 106.9Z" fill="#18233D"/>
<path fill-rule="evenodd" clip-rule="evenodd" d="M236.707 113.94L240.208 113.679C239.876 114.835 239.293 115.413 238.457 115.413C237.622 115.413 237.039 114.922 236.707 113.94Z" fill="white"/>
<path d="M247.8 108.029L248.947 107.652" stroke="#18233D" stroke-width="1.02916" stroke-linecap="round"/>
<path d="M230.969 107.276L229.822 106.899" stroke="#18233D" stroke-width="1.02916" stroke-linecap="round"/>
<path d="M237.472 97.106C239.502 100.575 242.689 102.71 247.035 103.509" stroke="white" stroke-width="1.02916" stroke-linecap="round"/>
<path d="M237.82 89.455L237.531 87.6677L236.208 87.873L236.497 89.6594C224.282 91.7331 225.093 96.7537 225.093 96.7537C225.592 99.8384 228 99.7823 229.593 99.4083C231.832 98.8827 236.264 99.7478 238.457 99.4078C240.649 99.0677 245.167 96.8144 247.462 96.6368C249.096 96.5103 251.548 96.7283 251.049 93.6436C251.049 93.6436 250.096 87.761 237.82 89.455Z" fill="#FFB0AA"/>
<path d="M238.457 98.2359C244.602 97.2827 249.664 95.7932 249.664 95.7932L249.974 98.7724C249.974 98.7724 244.117 101.332 238.837 102.151C233.558 102.97 228.185 102.152 228.185 102.152L227.54 99.2246C227.54 99.2246 232.311 99.189 238.457 98.2359Z" fill="#FF7B7B"/>
<path fill-rule="evenodd" clip-rule="evenodd" d="M237.276 145.579L237.274 145.581C237.248 145.613 237.2 145.686 237.15 145.796C236.76 146.649 237.067 147.699 238.697 148.896C240.312 150.08 240.701 152.106 239.712 153.863C238.65 155.748 236.268 156.942 233.081 156.942C228.719 156.942 223.946 156.329 220.189 155.032C215.15 153.293 212.245 150.472 212.245 146.441C212.245 142.327 216.398 139.266 222.99 137.733C228.848 136.37 235.773 136.476 240.098 138.004C243.804 139.313 243.281 142.616 239.677 144.023C239.657 144.03 239.616 144.045 239.557 144.068C239.457 144.108 239.346 144.155 239.225 144.209C238.882 144.366 238.538 144.55 238.219 144.761C237.835 145.014 237.514 145.288 237.276 145.579Z" fill="white" stroke="#18233D" stroke-width="1.02916" stroke-linecap="round"/>
<path d="M231.176 139.78C231.176 140.537 231.851 141.15 232.683 141.15H233.76C233.76 141.921 234.461 142.544 235.314 142.52C236.139 142.498 236.776 141.843 236.776 141.093V139.976C236.776 139.111 236.004 138.41 235.053 138.41H232.683C231.851 138.41 231.176 139.023 231.176 139.78Z" fill="#FFD3B3"/>
<path d="M226.277 141.151C227.695 141.151 228.844 140.639 228.844 140.009C228.844 139.378 227.695 138.867 226.277 138.867C224.86 138.867 223.71 139.378 223.71 140.009C223.71 140.639 224.86 141.151 226.277 141.151Z" fill="#FFE352"/>
<path d="M220.676 142.978C222.093 142.978 223.242 142.467 223.242 141.836C223.242 141.205 222.093 140.694 220.676 140.694C219.258 140.694 218.109 141.205 218.109 141.836C218.109 142.467 219.258 142.978 220.676 142.978Z" fill="#FFB0AA"/>
<path d="M216.478 147.089C217.895 147.089 219.044 146.578 219.044 145.947C219.044 145.316 217.895 144.805 216.478 144.805C215.06 144.805 213.911 145.316 213.911 145.947C213.911 146.578 215.06 147.089 216.478 147.089Z" fill="#98CA69"/>
<path d="M221.143 151.201C222.56 151.201 223.709 150.689 223.709 150.059C223.709 149.428 222.56 148.917 221.143 148.917C219.725 148.917 218.576 149.428 218.576 150.059C218.576 150.689 219.725 151.201 221.143 151.201Z" fill="#80D6FB"/>
<path d="M229.076 153.941C230.494 153.941 231.643 153.43 231.643 152.799C231.643 152.169 230.494 151.657 229.076 151.657C227.659 151.657 226.51 152.169 226.51 152.799C226.51 153.43 227.659 153.941 229.076 153.941Z" fill="#FF7B7B"/>
<path fill-rule="evenodd" clip-rule="evenodd" d="M301.952 227.482C294.16 227.482 287.34 222.245 285.329 214.717L284.027 209.844C282.371 203.645 279.402 197.856 275.312 192.853L268.092 184.019C264.522 179.651 263.205 173.917 264.521 168.472L266.11 161.899L250.137 125.83C249.447 124.27 250.015 122.451 251.478 121.536C252.901 120.647 254.787 121.004 255.768 122.349L274.278 147.72C275.652 144.668 279.292 143.284 282.409 144.629C283.295 145.011 284.076 145.591 284.689 146.323L287.372 149.523C288.827 147.035 292.066 146.173 294.607 147.598C295.191 147.925 295.707 148.359 296.125 148.876L299.886 153.517C303.001 152.804 306.214 154.246 307.697 157.022L308.07 157.719C309.975 161.284 311.055 165.215 311.236 169.234L312.29 192.724L317.264 202.425C323.134 213.875 314.82 227.482 301.952 227.482Z" fill="#FFB391"/>
<path fill-rule="evenodd" clip-rule="evenodd" d="M271.029 173.373L274.112 178.605L271.249 177.107C269.121 175.994 267.678 173.937 267.38 171.593L266.179 162.16L271.029 173.373Z" fill="#FF9B6F"/>
<path d="M266.179 162.16L271.312 173.58" stroke="#18233D" stroke-width="1.02916" stroke-linecap="round"/>
<path fill-rule="evenodd" clip-rule="evenodd" d="M269.445 168.556V170.633C269.445 171.854 269.994 173.013 270.945 173.803L271.778 174.494L269.445 168.556Z" fill="#18233D"/>
<path d="M274.111 147.542L279.244 156.678" stroke="#18233D" stroke-width="1.02916" stroke-linecap="round"/>
<path d="M287.178 149.37L289.701 153.801" stroke="#18233D" stroke-width="1.02916" stroke-linecap="round"/>
<path d="M299.311 153.024L301.834 157.456" stroke="#18233D" stroke-width="1.02916" stroke-linecap="round"/>
<path fill-rule="evenodd" clip-rule="evenodd" d="M102.774 148.653H190.1C193.544 148.653 196.414 151.235 196.706 154.595L199.588 187.81C199.898 191.383 197.192 194.525 193.544 194.829C193.357 194.844 193.17 194.852 192.982 194.852H105.656C102.212 194.852 99.342 192.27 99.0504 188.91L96.1677 155.695C95.8577 152.122 98.5639 148.98 102.212 148.676C102.399 148.661 102.586 148.653 102.774 148.653Z" fill="white" stroke="#18233D" stroke-width="1.02916" stroke-linecap="round"/>
<path d="M149.666 163.313H181.866" stroke="#18233D" stroke-width="1.02916" stroke-linecap="round"/>
<path d="M150.599 170.165H171.599" stroke="#18233D" stroke-width="1.02916" stroke-linecap="round"/>
<path d="M151.065 176.56H179.531" stroke="#18233D" stroke-width="1.02916" stroke-linecap="round"/>
<path fill-rule="evenodd" clip-rule="evenodd" d="M114.202 174.128C116.231 173.509 118.587 173.199 121.27 173.199C124.774 173.199 128.046 173.727 131.086 174.784C133.189 175.514 134.667 177.373 134.874 179.548L135.334 184.371H110.588L110.199 179.967C109.967 177.342 111.633 174.912 114.202 174.128Z" fill="#18233D"/>
<path fill-rule="evenodd" clip-rule="evenodd" d="M126.299 173.199L127.253 173.828L125.145 184.371H118.452L116.734 173.828L118.24 173.199H126.299Z" fill="white"/>
<path fill-rule="evenodd" clip-rule="evenodd" d="M117.7 180.263L121.606 178.277L125.925 179.885L127.253 173.828L126.299 173.199H117.339L116.734 173.828L117.7 180.263Z" fill="#D7E3FF"/>
<path fill-rule="evenodd" clip-rule="evenodd" d="M117.775 163.184C118.348 165.286 118.491 167.378 118.205 169.458C117.775 172.579 117.775 173.789 117.081 174.287L120.714 178.715L123.711 179.088L127.253 174.287C126.233 173.841 125.723 172.432 125.723 170.062C125.723 167.692 125.793 165.064 125.931 162.18L117.775 163.184Z" fill="#FFD1AB"/>
<path fill-rule="evenodd" clip-rule="evenodd" d="M116.688 162.672C114.9 159.973 114.345 154.884 118.239 153.763C118.504 149.926 127.367 151.584 128.495 155.672C129.623 159.761 127.302 165.549 124.038 166.242C120.774 166.935 118.477 165.37 116.688 162.672Z" fill="#18233D"/>
<path fill-rule="evenodd" clip-rule="evenodd" d="M125.925 164.709C125.858 165.226 125.639 167.695 125.708 170.192C125.724 170.758 125.796 171.417 125.925 172.17C121.271 170.037 118.746 168.537 118.351 167.67C118.378 166.769 118.325 165.904 118.24 165.166L125.925 164.709Z" fill="#CF8B54"/>
<path fill-rule="evenodd" clip-rule="evenodd" d="M117.671 159.497C118.74 158.891 119.045 157.697 119.759 155.672C121.606 158.538 123.365 158.78 126.384 159.492C126.188 164.681 126.724 159.984 127.272 160.042C127.383 160.009 127.501 159.992 127.623 159.992C128.312 159.992 128.871 160.553 128.871 161.245C128.871 161.937 128.312 162.498 127.623 162.498C127.302 162.498 127.009 162.376 126.788 162.176C125.778 165.113 123.652 168.884 121.265 168.531C119.54 168.276 118.186 166.129 117.203 162.089C117.118 162.107 117.03 162.116 116.94 162.116C116.251 162.116 115.693 161.555 115.693 160.863C115.693 160.171 116.251 159.61 116.94 159.61C116.989 159.61 116.978 161.626 117.203 161.548C117.353 161.497 117.508 160.813 117.671 159.497Z" fill="#FFD1AB"/>
<path fill-rule="evenodd" clip-rule="evenodd" d="M121.512 164.109C121.195 163.874 120.801 163.843 120.33 164.018C119.624 164.279 119.159 164.66 119.392 164.819C119.547 164.925 120.285 164.81 121.605 164.475C122.904 164.728 123.668 164.791 123.9 164.664C124.246 164.475 122.939 164.001 122.552 163.908C122.295 163.847 121.948 163.914 121.512 164.109Z" fill="#18233D"/>
<path d="M121.543 160.529C121.706 161.133 121.475 162.237 120.85 163.841L121.835 164.183" stroke="#18233D" stroke-width="0.617496" stroke-linecap="round"/>
<path d="M122.931 159.507C123.658 159.168 124.396 159.232 125.144 159.702" stroke="#18233D" stroke-width="0.617496" stroke-linecap="round"/>
<path d="M118.474 159.616C119.161 159.203 119.901 159.192 120.696 159.583" stroke="#18233D" stroke-width="0.617496" stroke-linecap="round"/>
<path d="M123.9 160.964C124.144 160.964 124.342 160.77 124.342 160.531C124.342 160.292 124.144 160.099 123.9 160.099C123.656 160.099 123.458 160.292 123.458 160.531C123.458 160.77 123.656 160.964 123.9 160.964Z" fill="#18233D"/>
<path d="M119.738 160.964C119.982 160.964 120.18 160.77 120.18 160.531C120.18 160.292 119.982 160.099 119.738 160.099C119.494 160.099 119.296 160.292 119.296 160.531C119.296 160.77 119.494 160.964 119.738 160.964Z" fill="#18233D"/>
<path fill-rule="evenodd" clip-rule="evenodd" d="M120.548 165.095L122.664 164.938C122.464 165.632 122.111 165.979 121.606 165.979C121.101 165.979 120.749 165.684 120.548 165.095Z" fill="white"/>
<path d="M127.252 161.548L127.946 161.322" stroke="#18233D" stroke-width="0.617496" stroke-linecap="round"/>
<path d="M117.081 161.096L116.387 160.87" stroke="#18233D" stroke-width="0.617496" stroke-linecap="round"/>
<path d="M121.01 154.995C122.236 157.076 124.163 158.357 126.789 158.837" stroke="white" stroke-width="0.617496" stroke-linecap="round"/>
<path fill-rule="evenodd" clip-rule="evenodd" d="M120.715 178.715L123.972 178.785L124.896 179.412L123.444 181.166H121.426L119.569 179.412L120.715 178.715Z" fill="#18233D"/>
<path fill-rule="evenodd" clip-rule="evenodd" d="M121.426 181.166L120.562 184.371H123.876L123.444 181.166H121.426Z" fill="#18233D"/>
<path d="M129.568 174.404L130.45 179.412L127.948 180.263L129.999 182.769L128.786 184.371" stroke="white" stroke-width="0.617496" stroke-linecap="round"/>
<path d="M114.829 173.948L113.947 179.185L116.449 180.075L114.398 182.695L115.611 184.371" stroke="white" stroke-width="0.617496" stroke-linecap="round"/>
<path fill-rule="evenodd" clip-rule="evenodd" d="M39.9268 217.436L70.758 141.882C72.463 137.703 74.7889 133.794 77.6602 130.281L86.7521 119.158C90.3223 114.79 91.6395 109.055 90.3232 103.61L88.7339 97.0372L104.707 60.9677C105.397 59.4084 104.829 57.5889 103.366 56.6745C101.943 55.7849 100.058 56.1422 99.0761 57.4876L80.566 82.8582C79.1923 79.8058 75.5518 78.4218 72.4348 79.767C71.5497 80.1489 70.7687 80.7294 70.155 81.4615L67.4725 84.6611C66.0175 82.173 62.7781 81.311 60.2372 82.7359C59.6527 83.0637 59.1374 83.4975 58.7188 84.0141L54.9581 88.6552C51.8429 87.9426 48.63 89.3842 47.1469 92.1599L46.7743 92.8573C44.8665 96.4278 43.7259 100.343 43.4226 104.362L41.0667 135.58L3.19541 197.089L1.77329 217.436H39.9268Z" fill="#FFB391"/>
<path fill-rule="evenodd" clip-rule="evenodd" d="M10.0938 177.17C12.9108 172.074 17.9247 168.335 23.7477 168.311C37.7044 168.251 47.5678 173.997 53.3378 185.548C54.9904 188.856 55.0507 192.688 54.1462 196.274L49.8844 213.169C47.763 221.579 40.1814 227.459 31.5082 227.422L20.6186 227.375C9.53904 227.327 0.88522 217.788 1.9134 206.756L3.20517 192.896C3.44651 190.307 4.22051 187.795 5.47859 185.519L10.0938 177.17Z" fill="#D7E3FF"/>
<path fill-rule="evenodd" clip-rule="evenodd" d="M83.8172 108.511L80.7342 113.743L83.5975 112.244C85.7251 111.131 87.1679 109.075 87.4664 106.731L88.6675 97.2979L83.8172 108.511Z" fill="#FF9B6F"/>
<path d="M88.6675 97.2979L83.5342 108.718" stroke="#18233D" stroke-width="1.02916" stroke-linecap="round"/>
<path fill-rule="evenodd" clip-rule="evenodd" d="M85.3989 103.693V105.77C85.3989 106.991 84.8502 108.151 83.8987 108.94L83.0656 109.631L85.3989 103.693Z" fill="#18233D"/>
<path d="M80.7324 82.6802L75.5991 91.8162" stroke="#18233D" stroke-width="1.02916" stroke-linecap="round"/>
<path d="M67.6655 84.5073L65.1423 88.9391" stroke="#18233D" stroke-width="1.02916" stroke-linecap="round"/>
<path d="M55.5337 88.1616L53.0105 92.5934" stroke="#18233D" stroke-width="1.02916" stroke-linecap="round"/>
</svg>
