<svg width="26" height="29" viewBox="0 0 26 29" fill="none" xmlns="http://www.w3.org/2000/svg">
<g id="Lead icon">
<mask id="mask0_3685_37179" style="mask-type:alpha" maskUnits="userSpaceOnUse" x="0" y="0" width="26" height="29">
<path id="Vector" d="M14.569 13.2522C14.9239 13.3922 15.2694 13.5463 15.6056 13.7144C15.9418 13.8825 16.2687 14.074 16.5862 14.2888C16.3807 14.5129 16.194 14.7464 16.0259 14.9892C15.8578 15.232 15.7037 15.4935 15.5636 15.7737C14.8445 15.3068 14.0787 14.9519 13.2662 14.7091C12.4537 14.4662 11.6178 14.3448 10.7586 14.3448C9.93678 14.3448 9.14296 14.4522 8.37716 14.667C7.61135 14.8818 6.89691 15.1807 6.23384 15.5636C5.57076 15.9465 4.96839 16.4134 4.42672 16.9644C3.88506 17.5154 3.4181 18.1225 3.02586 18.7856C2.63362 19.4486 2.3301 20.1631 2.1153 20.9289C1.9005 21.6947 1.7931 22.4885 1.7931 23.3103H0C0 22.1897 0.163434 21.111 0.490302 20.0744C0.81717 19.0377 1.28879 18.0805 1.90517 17.2026C2.52155 16.3247 3.25 15.5449 4.09052 14.8631C4.93103 14.1814 5.88362 13.6444 6.94828 13.2522C5.89296 12.5611 5.07112 11.6925 4.48276 10.6466C3.8944 9.60057 3.59555 8.44253 3.58621 7.17241C3.58621 6.18247 3.77299 5.25323 4.14655 4.3847C4.52011 3.51616 5.02909 2.75503 5.67349 2.10129C6.31789 1.44756 7.07902 0.933908 7.9569 0.560345C8.83477 0.186782 9.76868 0 10.7586 0C11.7486 0 12.6778 0.186782 13.5463 0.560345C14.4149 0.933908 15.176 1.44289 15.8297 2.08728C16.4835 2.73168 16.9971 3.49282 17.3707 4.37069C17.7443 5.24856 17.931 6.18247 17.931 7.17241C17.931 7.78879 17.8563 8.39116 17.7069 8.97953C17.5575 9.56789 17.3333 10.1236 17.0345 10.6466C16.7356 11.1695 16.3854 11.6505 15.9838 12.0894C15.5823 12.5284 15.1106 12.9159 14.569 13.2522ZM5.37931 7.17241C5.37931 7.91954 5.5194 8.6153 5.79957 9.2597C6.07974 9.90409 6.46264 10.4738 6.94828 10.9687C7.43391 11.4637 8.00359 11.8513 8.65733 12.1315C9.31106 12.4116 10.0115 12.5517 10.7586 12.5517C11.4964 12.5517 12.1922 12.4116 12.8459 12.1315C13.4996 11.8513 14.0693 11.4684 14.555 10.9828C15.0406 10.4971 15.4282 9.92744 15.7177 9.27371C16.0072 8.61997 16.1473 7.91954 16.1379 7.17241C16.1379 6.43463 15.9978 5.73886 15.7177 5.08513C15.4375 4.43139 15.0546 3.86171 14.569 3.37608C14.0833 2.89045 13.509 2.50287 12.8459 2.21336C12.1828 1.92385 11.4871 1.78376 10.7586 1.7931C10.0115 1.7931 9.31573 1.93319 8.67134 2.21336C8.02694 2.49353 7.45726 2.87644 6.96228 3.36207C6.46731 3.8477 6.07974 4.42205 5.79957 5.08513C5.5194 5.7482 5.37931 6.44396 5.37931 7.17241ZM26 18.8276C26 19.3132 25.9253 19.7848 25.7759 20.2425C25.6264 20.7001 25.4023 21.125 25.1034 21.5172V28.6897L21.5172 26.8965L17.931 28.6897V21.5172C17.6415 21.125 17.4221 20.7001 17.2726 20.2425C17.1232 19.7848 17.0438 19.3132 17.0345 18.8276C17.0345 18.2112 17.1512 17.6322 17.3847 17.0905C17.6182 16.5488 17.9357 16.0772 18.3373 15.6756C18.7389 15.2741 19.2152 14.9519 19.7662 14.7091C20.3172 14.4662 20.9009 14.3448 21.5172 14.3448C22.1336 14.3448 22.7126 14.4616 23.2543 14.695C23.796 14.9285 24.2676 15.2507 24.6692 15.6616C25.0708 16.0726 25.393 16.5488 25.6358 17.0905C25.8786 17.6322 26 18.2112 26 18.8276ZM21.5172 16.1379C21.1437 16.1379 20.7935 16.208 20.4666 16.3481C20.1397 16.4881 19.8549 16.6796 19.6121 16.9224C19.3693 17.1652 19.1778 17.4501 19.0377 17.7769C18.8976 18.1038 18.8276 18.454 18.8276 18.8276C18.8276 19.2011 18.8976 19.5514 19.0377 19.8782C19.1778 20.2051 19.3693 20.4899 19.6121 20.7328C19.8549 20.9756 20.1397 21.167 20.4666 21.3071C20.7935 21.4472 21.1437 21.5172 21.5172 21.5172C21.8908 21.5172 22.241 21.4472 22.5679 21.3071C22.8948 21.167 23.1796 20.9756 23.4224 20.7328C23.6652 20.4899 23.8567 20.2051 23.9968 19.8782C24.1369 19.5514 24.2069 19.2011 24.2069 18.8276C24.2069 18.454 24.1369 18.1038 23.9968 17.7769C23.8567 17.4501 23.6652 17.1652 23.4224 16.9224C23.1796 16.6796 22.8948 16.4881 22.5679 16.3481C22.241 16.208 21.8908 16.1379 21.5172 16.1379ZM23.3103 25.7899V22.9321C22.75 23.1843 22.1523 23.3103 21.5172 23.3103C20.8822 23.3103 20.2845 23.1843 19.7241 22.9321V25.7899C20.023 25.6404 20.3218 25.4957 20.6207 25.3556C20.9195 25.2155 21.2184 25.0614 21.5172 24.8933C21.8161 25.0521 22.1149 25.2015 22.4138 25.3416C22.7126 25.4817 23.0115 25.6311 23.3103 25.7899Z" fill="#444444"/>
</mask>
<g mask="url(#mask0_3685_37179)">
<rect id="Rectangle 214" x="16.7305" y="13.5127" width="10.9389" height="18.6605" rx="3.86079" fill="#FCA004"/>
<rect id="Rectangle 215" x="5.50781" y="-5.79102" width="19.9474" height="30.2428" rx="3.86079" transform="rotate(25.9417 5.50781 -5.79102)" fill="#444444"/>
</g>
</g>
</svg>
