<svg width="100" height="100" viewBox="0 0 109 109" fill="none" xmlns="http://www.w3.org/2000/svg">
<g filter="url(#filter0_d_3340_441)">
<circle cx="74" cy="59" r="30" fill="#FBFBFB"/>
</g>
<path d="M63.5 57.375C65.1547 57.375 66.5 55.9176 66.5 54.125C66.5 52.3324 65.1547 50.875 63.5 50.875C61.8453 50.875 60.5 52.3324 60.5 54.125C60.5 55.9176 61.8453 57.375 63.5 57.375ZM84.5 57.375C86.1547 57.375 87.5 55.9176 87.5 54.125C87.5 52.3324 86.1547 50.875 84.5 50.875C82.8453 50.875 81.5 52.3324 81.5 54.125C81.5 55.9176 82.8453 57.375 84.5 57.375ZM86 59H83C82.175 59 81.4297 59.3605 80.8859 59.9445C82.775 61.0668 84.1156 63.093 84.4062 65.5H87.5C88.3297 65.5 89 64.7738 89 63.875V62.25C89 60.4574 87.6547 59 86 59ZM74 59C76.9016 59 79.25 56.4559 79.25 53.3125C79.25 50.1691 76.9016 47.625 74 47.625C71.0984 47.625 68.75 50.1691 68.75 53.3125C68.75 56.4559 71.0984 59 74 59ZM77.6 60.625H77.2109C76.2359 61.1328 75.1531 61.4375 74 61.4375C72.8469 61.4375 71.7688 61.1328 70.7891 60.625H70.4C67.4187 60.625 65 63.2453 65 66.475V67.9375C65 69.2832 66.0078 70.375 67.25 70.375H80.75C81.9922 70.375 83 69.2832 83 67.9375V66.475C83 63.2453 80.5812 60.625 77.6 60.625ZM67.1141 59.9445C66.5703 59.3605 65.825 59 65 59H62C60.3453 59 59 60.4574 59 62.25V63.875C59 64.7738 59.6703 65.5 60.5 65.5H63.5891C63.8844 63.093 65.225 61.0668 67.1141 59.9445Z" fill="#9765FF"/>
<defs>
<filter id="filter0_d_3340_441" x="0" y="0" width="148" height="148" filterUnits="userSpaceOnUse" color-interpolation-filters="sRGB">
<feFlood flood-opacity="0" result="BackgroundImageFix"/>
<feColorMatrix in="SourceAlpha" type="matrix" values="0 0 0 0 0 0 0 0 0 0 0 0 0 0 0 0 0 0 127 0" result="hardAlpha"/>
<feOffset dy="15"/>
<feGaussianBlur stdDeviation="22"/>
<feColorMatrix type="matrix" values="0 0 0 0 0.0509804 0 0 0 0 0.0588235 0 0 0 0 0.109804 0 0 0 0.12 0"/>
<feBlend mode="normal" in2="BackgroundImageFix" result="effect1_dropShadow_3340_441"/>
<feBlend mode="normal" in="SourceGraphic" in2="effect1_dropShadow_3340_441" result="shape"/>
</filter>
</defs>
</svg>
