<?xml version="1.0" encoding="iso-8859-1"?>
<!-- Uploaded to: SVG Repo, www.svgrepo.com, Generator: SVG Repo Mixer Tools -->
<svg version="1.1" id="Layer_1" xmlns="http://www.w3.org/2000/svg" xmlns:xlink="http://www.w3.org/1999/xlink" 
	 viewBox="0 0 285.334 285.334" xml:space="preserve">
<g>
	<g>
		
			<rect x="166.686" y="6.537" transform="matrix(0.5547 -0.8321 0.8321 0.5547 62.2534 163.1956)" style="fill:#F9BA48;" width="33.804" height="33.804"/>
		<path style="fill:#333333;" d="M168.385,238.191c1.847-0.67,3.563-1.702,5.016-3.127c3.169-3.113,4.65-7.42,4.064-11.827
			l-7.931-59.48v-42.258l34.589-12.352c4.341-1.552,7.552-5.33,8.377-9.867l5.259-28.936l43.008,27.366l5.034-7.912l-46.528-29.606
			c-0.108-3.033-1.205-5.972-3.192-8.353c-2.63-3.15-6.492-4.959-10.598-4.959c-1.913,0-3.717,0.417-5.377,1.111l-37.43-23.817
			l-5.034,7.913l35.466,22.566c-0.591,1.223-1.05,2.527-1.27,3.933l-4.35,28.27l-27.516,9.314
			c-5.133-4.547-11.742-7.102-18.563-7.102c-6.038,0-11.845,1.959-16.973,5.803l-1.448,1.2c-0.352,0.305-8.03,7.28-14.391,13.059
			V94.257c0-7.106-5.044-13.284-11.733-14.372c-4.12-0.68-8.288,0.483-11.433,3.159c-3.155,2.677-4.959,6.581-4.959,10.711v38.217
			c0,9.942,8.091,18.033,18.033,18.033c4.467,0,8.752-1.645,12.061-4.631l2.719-2.442v20.827l-7.884,59.137
			c-0.9,6.75,2.963,13.111,9.042,15.291c-7.477,2.109-14.756,5.072-21.642,8.977l-52.964,30.014l4.622,8.156l52.964-30.014
			c27.136-15.37,60.849-15.375,87.98,0l52.964,30.014l4.622-8.156l-52.964-30.014C183.136,243.263,175.857,240.301,168.385,238.191z
			 M104.292,138.408c-1.589,1.434-3.647,2.222-5.789,2.222c-4.772,0-8.658-3.886-8.658-8.658V93.755c0-1.378,0.6-2.681,1.655-3.572
			c1.069-0.905,2.433-1.27,3.858-1.05c2.166,0.356,3.863,2.606,3.863,5.123v36.061l7.838-7.125c0,0,21.281-19.341,21.994-19.973
			l1.177-0.98c7.716-5.775,18.652-4.613,25.027,2.442l2.062,2.283l38.564-13.055l5.213-33.9c0.014-0.08,0.061-0.141,0.075-0.22
			l8.044,5.119l-5.944,32.695c-0.23,1.247-1.111,2.287-2.306,2.714l-40.807,14.579v49.172l8.011,60.408
			c0.192,1.453-0.295,2.873-1.341,3.9c-0.609,0.605-1.945,1.58-3.994,1.256c-1.936-0.295-3.553-2.119-3.848-4.341l-8.789-65.911
			h-17.583l-8.841,66.314c-0.178,1.322-0.914,2.498-2.03,3.234c-1.13,0.75-2.512,0.952-3.895,0.577
			c-2.095-0.581-3.488-2.934-3.164-5.367l7.927-59.452l0.047-42.806L104.292,138.408z M128.761,235.229
			c2.32-2.189,3.881-5.086,4.308-8.292l7.753-58.181h1.167l7.706,57.778c0.459,3.436,2.1,6.473,4.448,8.709
			C145.721,234.155,137.185,234.151,128.761,235.229z"/>
		<path style="fill:#333333;" d="M169.533,60.943c0-15.511-12.614-28.125-28.125-28.125s-28.125,12.614-28.125,28.125
			s12.614,28.125,28.125,28.125S169.533,76.454,169.533,60.943z M141.408,79.693c-10.341,0-18.75-8.409-18.75-18.75
			s8.409-18.75,18.75-18.75s18.75,8.409,18.75,18.75S151.749,79.693,141.408,79.693z"/>
		<polygon style="fill:#333333;" points="253.908,126.568 244.533,126.568 244.533,135.943 235.158,135.943 235.158,145.318 
			244.533,145.318 244.533,154.693 253.908,154.693 253.908,145.318 263.283,145.318 263.283,135.943 253.908,135.943 		"/>
		<polygon style="fill:#333333;" points="216.408,173.443 216.408,168.755 221.096,168.755 221.096,159.38 216.408,159.38 
			216.408,154.693 207.033,154.693 207.033,159.38 202.346,159.38 202.346,168.755 207.033,168.755 207.033,173.443 		"/>
		<polygon style="fill:#333333;" points="244.533,168.755 235.158,168.755 235.158,178.13 225.783,178.13 225.783,187.505 
			235.158,187.505 235.158,196.88 244.533,196.88 244.533,187.505 253.908,187.505 253.908,178.13 244.533,178.13 		"/>
		<polygon style="fill:#333333;" points="71.095,42.193 80.47,42.193 80.47,32.818 89.845,32.818 89.845,23.443 80.47,23.443 
			80.47,14.068 71.095,14.068 71.095,23.443 61.72,23.443 61.72,32.818 71.095,32.818 		"/>
		<polygon style="fill:#333333;" points="33.595,28.13 33.595,23.443 38.283,23.443 38.283,14.068 33.595,14.068 33.595,9.38 
			24.22,9.38 24.22,14.068 19.533,14.068 19.533,23.443 24.22,23.443 24.22,28.13 		"/>
		<polygon style="fill:#333333;" points="47.658,70.318 47.658,60.943 57.033,60.943 57.033,51.568 47.658,51.568 47.658,42.193 
			38.283,42.193 38.283,51.568 28.908,51.568 28.908,60.943 38.283,60.943 38.283,70.318 		"/>
	</g>
</g>
</svg>