<svg width="500" height="500" viewBox="0 0 500 500" fill="none" xmlns="http://www.w3.org/2000/svg">
<path d="M229.415 437.2C231.708 440.531 234.777 443.254 238.357 445.136C241.938 447.017 245.922 448 249.966 448C254.011 448 257.995 447.017 261.575 445.136C265.155 443.254 268.224 440.531 270.518 437.2L495.535 112.222C498.14 108.474 499.667 104.084 499.952 99.5283C500.236 94.973 499.266 90.4269 497.148 86.3839C495.029 82.341 491.843 78.9558 487.936 76.5962C484.028 74.2366 479.549 72.9928 474.984 73H24.9485C20.3942 73.0188 15.9312 74.2786 12.0395 76.6439C8.14775 79.0091 4.9745 82.3903 2.86098 86.4239C0.747463 90.4575 -0.226347 94.9909 0.0442734 99.5365C0.314894 104.082 1.8197 108.468 4.39688 112.222L229.415 437.2Z" fill="black"/>
</svg>
