<svg width="129" height="131" viewBox="0 0 129 131" fill="none" xmlns="http://www.w3.org/2000/svg">
<g id="Group 48095845">
<path id="Vector" d="M89.2345 84.9702C79.3061 88.2752 95.8697 103.912 95.8697 103.912C95.8697 103.912 99.1629 81.6644 89.2345 84.9702Z" fill="white"/>
<path id="Vector_2" d="M95.8696 104.217C95.8311 104.218 95.7926 104.211 95.757 104.197C95.7215 104.182 95.6889 104.16 95.6623 104.132C95.2106 103.706 84.5996 93.6064 85.8678 87.8736C86.1973 86.3736 87.2953 85.3001 89.1366 84.69C90.9787 84.0799 92.552 84.2628 93.7477 85.2757C98.3091 89.1056 96.2598 103.352 96.1746 103.961C96.1672 104.016 96.145 104.068 96.1102 104.111C96.0761 104.154 96.031 104.186 95.9792 104.206L95.8696 104.217ZM91.1127 84.9462C90.5056 84.9528 89.9036 85.0602 89.3321 85.2631C87.6855 85.8124 86.7459 86.7024 86.4535 87.9958C85.4044 92.7771 93.6499 101.291 95.6497 103.279C95.9917 100.498 97.1623 88.9346 93.3567 85.751C92.7326 85.2172 91.9345 84.9306 91.1127 84.9462Z" fill="#494752"/>
<path id="Vector_3" d="M106.115 79.8965C91.7837 74.3466 95.9061 107.547 95.9061 107.547C95.9061 107.547 120.435 85.4456 106.115 79.8965Z" fill="white"/>
<path id="Vector_4" d="M95.9061 107.852L95.8091 107.828C95.7566 107.808 95.7099 107.775 95.6736 107.732C95.6374 107.69 95.6122 107.638 95.6018 107.583C95.6018 107.523 94.9185 101.997 95.0769 95.9106C95.2842 87.6658 96.8338 82.3595 99.6754 80.1398C101.42 78.7857 103.615 78.6028 106.225 79.6157C108.848 80.6278 110.384 82.2743 110.8 84.494C111.458 88.0922 109.177 93.1053 104.018 99.4111C101.57 102.367 98.9298 105.159 96.1142 107.766C96.0564 107.817 95.9831 107.848 95.9061 107.852ZM103.127 79.5786C102.015 79.5653 100.931 79.9311 100.054 80.6152C94.187 85.1892 95.7721 103.375 96.1504 106.913C98.7121 104.497 111.555 92.0199 110.201 84.6043C109.836 82.6038 108.421 81.1157 106.006 80.1887C104.969 79.7859 104.005 79.5786 103.127 79.5786Z" fill="#494752"/>
<path id="Vector_5" d="M95.9064 107.852L95.8094 107.828C95.7331 107.8 95.6709 107.743 95.6369 107.67C95.6028 107.597 95.5984 107.513 95.6265 107.437L105.823 79.7985C105.852 79.7245 105.909 79.6653 105.981 79.6319C106.053 79.5994 106.136 79.5964 106.21 79.6231C106.285 79.6505 106.346 79.7053 106.381 79.7771C106.416 79.8481 106.421 79.9303 106.396 80.0058L96.1996 107.645C96.1759 107.703 96.1359 107.754 96.0841 107.791C96.0315 107.828 95.9701 107.849 95.9064 107.852Z" fill="#494752"/>
<path id="Vector_6" d="M91.8083 102.985L92.5406 109.559L92.9426 113.28H101.663L102.078 109.559L102.798 102.985H91.8083Z" fill="#D7E3FF"/>
<path id="Vector_7" d="M101.932 113.585H92.6747L91.4671 102.681H103.14L101.932 113.585ZM93.2233 112.975H101.383L102.456 103.29H92.1497L93.2233 112.975Z" fill="#D7E3FF"/>
<path id="Vector_8" d="M54.9731 109.023H51.1432V105.462H42.4466V109.023H38.6166C37.5329 109.023 36.4937 109.453 35.7274 110.22C34.9611 110.986 34.5306 112.025 34.5306 113.109V113.28H59.0591V113.109C59.0591 112.025 58.6286 110.986 57.8623 110.22C57.096 109.453 56.0568 109.023 54.9731 109.023Z" fill="#494752"/>
<path id="Vector_9" d="M59.3638 113.585H34.2257V113.109C34.2257 111.945 34.6883 110.828 35.5118 110.004C36.3353 109.181 37.4521 108.718 38.6167 108.718H42.1417V105.157H51.4481V108.718H54.9731C56.1377 108.718 57.2545 109.181 58.0781 110.004C58.9015 110.828 59.3638 111.945 59.3638 113.109V113.585ZM34.8356 112.975H58.7542C58.7165 111.997 58.3019 111.071 57.5972 110.392C56.8924 109.712 55.9522 109.331 54.9731 109.328H50.8383V105.766H42.7515V109.328H38.6167C37.6358 109.325 36.6921 109.704 35.9861 110.384C35.28 111.065 34.8673 111.994 34.8356 112.975Z" fill="#494752"/>
<path id="Vector_10" d="M82.6481 96.9978V98.0217C82.6481 100.18 81.7907 102.249 80.2648 103.774C78.7396 105.3 76.6703 106.158 74.5128 106.158H19.0763C16.9186 106.158 14.8494 105.3 13.3237 103.774C11.798 102.249 10.9409 100.18 10.9409 98.0217V96.9978H82.6481Z" fill="#0ACC94"/>
<path id="Vector_11" d="M74.5129 106.462H19.0764C16.8388 106.458 14.6939 105.568 13.1117 103.986C11.5295 102.404 10.6392 100.259 10.636 98.0215V96.6918H82.9532V98.0215C82.9465 100.257 82.0551 102.401 80.4737 103.982C78.8923 105.564 76.7489 106.455 74.5129 106.462ZM11.2458 97.3019V98.0215C11.2491 100.097 12.0751 102.087 13.5429 103.554C15.0107 105.023 17.0006 105.849 19.0764 105.852H74.5129C76.5882 105.849 78.5783 105.023 80.0458 103.554C81.5139 102.087 82.3402 100.097 82.3431 98.0215V97.3019H11.2458Z" fill="#0ACC94"/>
<path id="Vector_12" d="M82.6481 65.235V96.9964H10.9409V65.235C10.9392 64.1667 11.1485 63.1079 11.5569 62.1203C11.9651 61.1319 12.5643 60.2345 13.3201 59.4786C14.0758 58.7234 14.9733 58.1237 15.9611 57.7158C16.9489 57.3071 18.0075 57.0983 19.0763 57.0998H74.5129C76.6703 57.0998 78.7397 57.9571 80.2648 59.4823C81.7907 61.0082 82.6481 63.0776 82.6481 65.235Z" fill="white"/>
<path id="Vector_13" d="M82.6482 97.3016H10.9409C10.86 97.3016 10.7825 97.2698 10.7253 97.2127C10.6681 97.155 10.636 97.078 10.636 96.9965V65.2352C10.636 62.997 11.5252 60.8499 13.1081 59.267C14.691 57.6841 16.8379 56.7949 19.0764 56.7949H74.5129C76.7503 56.7979 78.8952 57.6885 80.4774 59.2707C82.0596 60.8529 82.9495 62.9978 82.9532 65.2352V96.9965C82.9532 97.078 82.9206 97.155 82.8636 97.2127C82.8066 97.2698 82.7289 97.3016 82.6482 97.3016ZM11.2458 96.6923H82.3431V65.2352C82.3402 63.1599 81.5139 61.1698 80.0458 59.7016C78.5783 58.2342 76.5882 57.4079 74.5129 57.405H19.0764C17.0006 57.4079 15.0107 58.2342 13.5429 59.7016C12.0751 61.1698 11.2491 63.1599 11.2458 65.2352V96.6923Z" fill="#494752"/>
<path id="Vector_14" d="M17.4298 36.9132V82.8357C17.4329 84.5578 18.1193 86.2081 19.3382 87.4245C20.557 88.641 22.2087 89.3243 23.9309 89.3243H95.2841C97.0055 89.3243 98.6558 88.641 99.873 87.4238C101.089 86.2066 101.774 84.5563 101.774 82.8357V36.9132H17.4298Z" fill="white"/>
<path id="Vector_15" d="M95.2842 89.6295H23.9309C22.128 89.6295 20.3987 88.9143 19.1226 87.6401C17.8466 86.3667 17.1281 84.6387 17.1249 82.8358V36.6083H102.078V82.8358C102.075 84.6364 101.358 86.363 100.085 87.6357C98.8113 88.9092 97.0855 89.6266 95.2842 89.6295ZM17.7347 37.2183V82.8358C17.7412 84.4758 18.3965 86.0469 19.5575 87.2055C20.7184 88.3642 22.2907 89.0165 23.9309 89.0195H95.2842C96.9234 89.0165 98.4945 88.3635 99.6539 87.2048C100.813 86.0461 101.465 84.475 101.469 82.8358V37.2183H17.7347Z" fill="#D7E3FF"/>
<path id="Vector_16" d="M17.4298 36.4252V36.9131H101.774V36.4252C101.774 34.7046 101.089 33.0535 99.873 31.8371C98.6558 30.6199 97.0055 29.9365 95.2841 29.9365H23.9309C22.2087 29.9365 20.557 30.6199 19.3382 31.8363C18.1193 33.0528 17.4329 34.7031 17.4298 36.4252Z" fill="#D7E3FF"/>
<path id="Vector_17" d="M102.078 37.2183H17.1249V36.4253C17.1281 34.6225 17.8466 32.8945 19.1226 31.6203C20.3987 30.3469 22.128 29.6317 23.9309 29.6317H95.2842C97.0855 29.6346 98.8113 30.3513 100.085 31.6247C101.358 32.8982 102.075 34.6247 102.078 36.4253V37.2183ZM17.7347 36.6082H101.469V36.4253C101.465 34.7861 100.813 33.2151 99.6539 32.0564C98.4945 30.897 96.9234 30.2447 95.2842 30.2417H23.9309C22.2907 30.2447 20.7184 30.897 19.5575 32.0556C18.3965 33.2143 17.7412 34.7854 17.7347 36.4253V36.6082Z" fill="#D7E3FF"/>
<path id="Vector_18" d="M95.4918 34.9135C95.1972 34.9157 94.9084 34.8306 94.6619 34.6684C94.4161 34.507 94.2228 34.2753 94.1088 34.0036C93.9941 33.7319 93.963 33.432 94.0192 33.1425C94.0748 32.853 94.2154 32.5872 94.4235 32.3777C94.6308 32.1682 94.8958 32.0253 95.1853 31.9668C95.4741 31.9083 95.7739 31.9372 96.0464 32.0497C96.3188 32.1623 96.5521 32.3525 96.7164 32.5976C96.88 32.8427 96.9681 33.1307 96.9681 33.4253C96.9681 33.8185 96.8127 34.1946 96.5365 34.4737C96.2596 34.7521 95.885 34.9105 95.4918 34.9135ZM95.4918 32.5473C95.3179 32.545 95.1468 32.5946 95.001 32.6894C94.8551 32.7842 94.7404 32.9204 94.6722 33.0811C94.6034 33.241 94.5849 33.4179 94.6175 33.589C94.6493 33.7607 94.7322 33.9184 94.8544 34.0421C94.9765 34.1665 95.1335 34.2509 95.3038 34.2857C95.4748 34.3205 95.6518 34.3042 95.8132 34.2383C95.9746 34.1716 96.1123 34.0591 96.2093 33.9147C96.3063 33.7704 96.3581 33.6001 96.3581 33.4253C96.3581 33.1951 96.267 32.973 96.1049 32.8086C95.9435 32.6442 95.7228 32.551 95.4918 32.5473Z" fill="white"/>
<path id="Vector_19" d="M90.7228 34.9132C90.4281 34.9132 90.1408 34.8258 89.8958 34.6629C89.6514 34.4993 89.4604 34.2668 89.3479 33.9951C89.2354 33.7226 89.2057 33.4235 89.2635 33.1348C89.3205 32.846 89.4626 32.581 89.6707 32.3729C89.8787 32.1649 90.1438 32.0235 90.4325 31.9657C90.7213 31.9087 91.0204 31.9376 91.2921 32.0509C91.5638 32.1634 91.7963 32.3537 91.9599 32.5988C92.1236 32.8431 92.2109 33.1311 92.2109 33.425C92.2109 33.8196 92.054 34.1987 91.7748 34.4778C91.4957 34.7569 91.1174 34.9132 90.7228 34.9132ZM90.7228 32.5469C90.5488 32.5469 90.3792 32.5987 90.2349 32.695C90.0905 32.7912 89.978 32.929 89.9113 33.0889C89.8447 33.2495 89.8277 33.4265 89.8617 33.5968C89.895 33.7671 89.9787 33.9233 90.1016 34.0462C90.2245 34.1691 90.3807 34.2527 90.551 34.2868C90.722 34.3209 90.8982 34.3031 91.0589 34.2365C91.2196 34.1698 91.3565 34.0573 91.4528 33.9129C91.549 33.7685 91.6008 33.599 91.6008 33.425C91.6008 33.3102 91.5779 33.1955 91.5342 33.0889C91.4898 32.983 91.4254 32.886 91.3439 32.8046C91.2618 32.7231 91.1655 32.658 91.0589 32.6143C90.9523 32.5699 90.8383 32.5469 90.7228 32.5469Z" fill="white"/>
<path id="Vector_20" d="M85.966 34.9135C85.6714 34.9157 85.3819 34.8306 85.1361 34.6684C84.8895 34.507 84.697 34.2753 84.5823 34.0036C84.4683 33.7319 84.4364 33.432 84.4927 33.1425C84.5489 32.853 84.6896 32.5872 84.8969 32.3777C85.105 32.1682 85.37 32.0253 85.6588 31.9668C85.9483 31.9083 86.2474 31.9372 86.5206 32.0497C86.793 32.1623 87.0262 32.3525 87.1899 32.5976C87.3542 32.8427 87.4416 33.1307 87.4416 33.4253C87.4416 33.8185 87.2869 34.1946 87.01 34.4737C86.7338 34.7521 86.3584 34.9105 85.966 34.9135ZM85.966 32.5473C85.792 32.545 85.621 32.5946 85.4744 32.6894C85.3286 32.7842 85.2145 32.9204 85.1457 33.0811C85.0776 33.241 85.0583 33.4179 85.0909 33.589C85.1235 33.7607 85.2064 33.9184 85.3286 34.0421C85.4507 34.1665 85.6069 34.2509 85.778 34.2857C85.9483 34.3205 86.1259 34.3042 86.2866 34.2383C86.448 34.1716 86.5857 34.0591 86.6827 33.9147C86.7804 33.7704 86.8323 33.6001 86.8323 33.4253C86.8323 33.1951 86.7412 32.973 86.5791 32.8086C86.4169 32.6442 86.197 32.551 85.966 32.5473Z" fill="white"/>
<path id="Vector_21" d="M61.7667 32.95L48.7888 31.852C43.1781 31.3885 39.153 24.2168 39.6287 18.6061C40.5435 7.65302 50.2647 -0.543459 61.2181 0.371349C66.8286 0.847041 71.0362 5.82348 70.5609 11.4342L69.4629 24.4119C69.146 28.2175 65.5722 33.2668 61.7667 32.95Z" fill="#0ACC94"/>
<path id="Vector_22" d="M62.1081 33.2665H61.7424L48.7645 32.1693C42.9464 31.6814 38.836 24.3506 39.3239 18.5936C39.7897 13.2366 42.3561 8.28154 46.4627 4.81021C50.5693 1.33896 55.8825 -0.366565 61.2419 0.0660361C64.0272 0.305103 66.6037 1.63837 68.408 3.77376C70.2115 5.90908 71.0955 8.67238 70.866 11.4582L69.768 24.436C69.6096 26.3875 68.6093 28.6807 67.1582 30.425C65.7063 32.1693 63.8524 33.2665 62.1081 33.2665ZM61.7912 32.6446C64.0109 32.8275 65.8159 31.0832 66.694 30.0348C68.0607 28.3756 69.0121 26.2168 69.158 24.375L70.2559 11.4094C70.4758 8.7847 69.6444 6.1802 67.9452 4.16771C66.2461 2.1553 63.8176 0.899403 61.1937 0.675883C55.9975 0.256609 50.8465 1.90883 46.8639 5.27221C42.8814 8.63559 40.3901 13.4373 39.9338 18.6301C39.702 21.3379 40.5436 24.4604 42.178 26.9974C43.9466 29.7172 46.3006 31.3394 48.8133 31.5467L61.7912 32.6446Z" fill="#0ACC94"/>
<path id="Vector_23" d="M78.5738 88.7146C78.5738 88.7146 75.8788 57.0509 76.537 49.5132V49.4643C76.537 41.8658 74.3537 38.4749 72.1096 36.6455C63.425 30.1686 51.5452 32.6563 47.8983 34.0593C42.3851 36.182 41.2386 50.9643 41.2386 50.9643L37.1037 88.7146H78.5738Z" fill="#494752"/>
<path id="Vector_24" d="M37.104 89.0192H36.7625L40.934 50.9276C40.9828 50.3301 42.1659 35.9498 47.7888 33.7783C51.6309 32.2901 63.5356 29.8632 72.2927 36.4007H72.3053C75.3668 38.9135 76.8424 43.1826 76.8424 49.4639V49.5498C76.1842 56.9654 78.8547 88.3729 78.8791 88.6905L78.9161 89.0192H37.104ZM58.0344 32.6929C53.7776 32.6929 49.972 33.5836 48.0083 34.3395C42.7392 36.3763 41.556 50.8425 41.5438 50.9891L37.4456 88.4099H78.2454C77.9648 85.0064 75.6104 56.5508 76.2323 49.4883V49.4639C76.2323 40.4261 73.0005 37.7549 71.927 36.8768C68.2681 34.1566 63.4986 32.7173 58.1076 32.6929H58.0344Z" fill="#494752"/>
<path id="Vector_25" d="M54.6312 31.2914L55.8143 19.3013L62.852 19.4843L62.5225 31.7793C63.2148 32.3775 63.9914 32.8706 64.8281 33.2423C64.0721 35.5234 62.5351 43.1833 62.5351 43.1833C62.5351 43.1833 54.8995 33.1572 52.2039 32.9254C51.6185 32.9743 54.4604 32.2302 54.6312 31.2914Z" fill="white"/>
<path id="Vector_26" d="M62.5354 43.4884C62.488 43.4855 62.4428 43.4736 62.4006 43.4529C62.3584 43.4314 62.3214 43.4026 62.291 43.3663C60.2054 40.6217 54.3143 33.4497 52.192 33.2305C51.9114 33.2424 51.8383 33.0595 51.8261 32.9862C51.7529 32.7064 51.9602 32.6331 52.375 32.462C52.7897 32.291 54.2167 31.7179 54.3265 31.2426L55.5097 19.2769C55.5211 19.2003 55.5591 19.1302 55.6172 19.0789C55.6751 19.0276 55.7493 18.9984 55.8268 18.9964L62.8523 19.1793C62.9344 19.1825 63.0122 19.2173 63.0684 19.2765C63.1255 19.3355 63.1573 19.4145 63.1573 19.4965L62.8278 31.6447C63.4756 32.174 64.1886 32.6168 64.9505 32.9618C65.0208 32.9921 65.0778 33.0477 65.1097 33.118C65.1415 33.1876 65.1452 33.2676 65.1208 33.3401C64.3767 35.5724 62.8523 43.1708 62.8404 43.2441C62.8263 43.3004 62.7975 43.3515 62.7567 43.3922C62.716 43.4337 62.6642 43.4625 62.6087 43.4759L62.5354 43.4884ZM53.0092 32.8522C54.2777 33.4497 56.1195 35.1207 58.6077 37.9386C60.2298 39.7681 61.6936 41.5975 62.3769 42.4638C62.7427 40.6343 63.8036 35.5116 64.4626 33.4134C63.683 33.0462 62.9604 32.5694 62.3155 31.9985C62.254 31.9371 62.2185 31.8542 62.2178 31.7668L62.5354 19.7892L56.0951 19.6184L54.9364 31.3152V31.3396C54.8144 31.9867 53.9362 32.462 53.0092 32.8522Z" fill="#494752"/>
<path id="Vector_27" d="M57.4486 25.1803C58.8147 26.5708 60.5219 27.449 62.4128 27.5465C67.3163 27.8271 71.5853 22.8994 71.9385 16.5447C72.2924 10.19 68.6334 4.81101 63.7299 4.53048C58.8269 4.24995 54.57 9.17759 54.2041 15.5323C54.0455 18.4475 54.7408 21.265 56.0093 23.363" fill="white"/>
<path id="Vector_28" d="M62.8157 27.863H62.401C60.4857 27.7532 58.7049 26.9116 57.2291 25.4113C57.1741 25.3508 57.1446 25.2712 57.1469 25.1894C57.1491 25.1075 57.1829 25.0298 57.2413 24.9723C57.2998 24.918 57.3774 24.8889 57.4573 24.8912C57.5371 24.8935 57.6128 24.9269 57.6682 24.9844C59.0343 26.3749 60.6811 27.1556 62.4373 27.2532C64.7058 27.3873 66.9136 26.3506 68.6454 24.3502C70.3778 22.3499 71.4632 19.5445 71.6343 16.544C71.8046 13.5435 71.0731 10.6528 69.5605 8.43291C68.0479 6.21304 65.9867 4.96891 63.7182 4.84697C58.9855 4.57858 54.8628 9.38429 54.5092 15.5683C54.3506 18.3004 54.997 21.0935 56.2655 23.2159C56.3072 23.2859 56.3204 23.3694 56.3023 23.4489C56.2841 23.5283 56.236 23.5978 56.168 23.6428C56.0964 23.6834 56.012 23.6946 55.9323 23.6742C55.8526 23.6537 55.7841 23.6031 55.7411 23.533C54.4116 21.3009 53.7407 18.3858 53.8992 15.5317C54.2774 9.00618 58.6928 3.94438 63.7426 4.23712C66.2184 4.37128 68.4506 5.74956 70.0602 8.09137C71.6705 10.4332 72.4265 13.4338 72.2436 16.5684C72.0607 19.7031 70.9509 22.6182 69.1088 24.7527C67.2675 26.8872 65.133 27.863 62.8157 27.863Z" fill="#494752"/>
<path id="Vector_29" d="M66.3408 21.1063C66.2927 21.1085 66.2453 21.0983 66.2031 21.077C66.1602 21.0557 66.1239 21.0238 66.0965 20.9844C66.0713 20.9523 66.0536 20.9152 66.0432 20.8757C66.0336 20.8362 66.0321 20.7949 66.0387 20.7547C66.0454 20.7146 66.061 20.6762 66.0832 20.6423C66.1061 20.6083 66.1357 20.5794 66.1698 20.5575C66.7799 20.1184 67.6579 19.3256 67.6942 18.923C67.7068 18.7401 67.6217 18.6547 67.2678 18.362C66.5326 17.8221 65.9832 17.068 65.6945 16.2031C65.3524 15.264 65.6212 14.4101 65.767 13.9588L65.8403 13.7271C65.8374 13.6482 65.8648 13.571 65.9166 13.5119C65.9692 13.4527 66.0424 13.4162 66.1209 13.41C66.2016 13.4063 66.2801 13.4333 66.3408 13.4853C66.4023 13.5374 66.4415 13.6107 66.4504 13.6905C66.44 13.8449 66.4075 13.9969 66.3527 14.1418C66.2187 14.5564 65.9988 15.2517 66.2675 15.9957C66.5311 16.7509 67.0101 17.4124 67.6454 17.8985C67.9993 18.179 68.3413 18.4473 68.2925 18.9718C68.231 19.8013 66.8043 20.8502 66.5237 21.0575C66.4682 21.0908 66.4052 21.1077 66.3408 21.1063Z" fill="#494752"/>
<path id="Vector_30" d="M62.413 27.5461C61.9369 27.5045 61.4646 27.4312 60.9981 27.3265C60.4243 27.1373 59.8661 26.9049 59.3271 26.6313C59.0588 26.4727 57.4488 25.1798 57.4488 25.1798C57.9191 26.1682 58.6755 26.9926 59.6195 27.5461C61.1566 28.3999 62.3034 28.5583 62.3034 28.5583L62.413 27.5461Z" fill="#494752"/>
<path id="Vector_31" d="M62.3033 28.8636H62.2662C62.2174 28.8636 61.0342 28.6808 59.4735 27.8025C58.4667 27.225 57.6619 26.3521 57.1681 25.3021C57.1428 25.2387 57.1386 25.1689 57.1562 25.103C57.1738 25.037 57.2121 24.9785 57.2657 24.9362C57.3199 24.8932 57.3877 24.8707 57.4569 24.8729C57.5261 24.8752 57.5923 24.9019 57.6438 24.9484C58.2536 25.4362 59.3025 26.2657 59.4735 26.3632C59.9977 26.6248 60.5397 26.8489 61.0957 27.0341C61.5222 27.1683 62.4373 27.2414 62.4491 27.2536C62.4906 27.2541 62.5306 27.2643 62.5661 27.2834C62.6024 27.3025 62.6335 27.3299 62.6564 27.3634C62.6816 27.3937 62.7001 27.4289 62.7105 27.4667C62.7208 27.5045 62.7238 27.5441 62.7179 27.5829L62.6083 28.5956C62.5994 28.6756 62.5602 28.7504 62.498 28.8029C62.4424 28.8459 62.3736 28.8673 62.3033 28.8636ZM59.2662 26.9487C59.4269 27.0668 59.5942 27.1767 59.766 27.278C60.4775 27.6844 61.2408 27.9921 62.0345 28.1929L62.0834 27.8269C61.6887 27.7874 61.2971 27.7181 60.9128 27.6195C60.3524 27.4246 59.803 27.2006 59.2662 26.9487Z" fill="#494752"/>
<path id="Vector_32" d="M56.1073 18.838C56.0161 19.1961 55.8415 19.5275 55.5977 19.8052C55.3539 20.0829 55.0479 20.299 54.7046 20.4358L54.5095 19.9235C55.1071 19.9235 55.6804 19.7039 56.1073 18.838Z" fill="#494752"/>
<path id="Vector_33" d="M54.7043 20.74L54.5945 20.7157C54.518 20.6824 54.457 20.6214 54.4237 20.5449L54.2286 20.0326C54.2108 19.9871 54.2037 19.9381 54.208 19.8895C54.2122 19.8408 54.2276 19.7938 54.253 19.7521C54.2813 19.7102 54.3195 19.6761 54.3641 19.6527C54.4088 19.6293 54.4587 19.6173 54.5092 19.6179C54.9361 19.6179 55.4361 19.5081 55.8386 18.7031C55.8706 18.6346 55.9278 18.5812 55.9982 18.5539C56.0687 18.5266 56.147 18.5276 56.2168 18.5567C56.2889 18.5818 56.3485 18.6341 56.3827 18.7024C56.417 18.7709 56.423 18.8498 56.3997 18.9227C56.2943 19.323 56.0973 19.6934 55.8242 20.0045C55.5512 20.3157 55.2095 20.5592 54.8263 20.7157L54.7043 20.74Z" fill="#494752"/>
<path id="Vector_34" d="M70.0094 15.2221C70.1227 14.5513 69.9183 13.9573 69.5533 13.8955C69.1876 13.8338 68.7996 14.3275 68.6863 14.9983C68.5723 15.6692 68.7767 16.2631 69.1424 16.3248C69.5074 16.3867 69.8954 15.8929 70.0094 15.2221Z" fill="#494752"/>
<path id="Vector_35" d="M63.77 14.3299C63.8862 13.6563 63.6826 13.0592 63.3154 12.9962C62.9489 12.9333 62.558 13.4282 62.4418 14.1018C62.3263 14.7753 62.5299 15.3725 62.8971 15.4355C63.2636 15.4984 63.6545 15.0035 63.77 14.3299Z" fill="#494752"/>
<path id="Vector_36" d="M52.4238 14.2145C51.8017 20.9961 54.668 22.2646 54.668 22.2646C54.668 22.2646 52.5945 17.093 55.1315 14.7755C56.0341 13.7509 59.779 7.6158 58.2662 6.23752C56.7537 4.85924 55.9854 4.82259 53.7533 7.27427C51.5212 9.72587 52.6189 12.1776 52.4238 14.2145Z" fill="#0ACC94"/>
<path id="Vector_37" d="M55.2288 22.8386L54.5458 22.5459C54.4238 22.4848 51.4843 21.1066 52.1186 14.1908C52.1546 13.6216 52.1424 13.0503 52.082 12.4832C51.9479 10.8244 51.8136 8.95819 53.5212 7.06764C55.7533 4.62818 56.7291 4.42087 58.4733 6.00646C59.2295 6.70175 59.0344 8.29955 57.8757 10.7634C57.0097 12.6173 55.8388 14.4347 55.3631 14.9714L55.3386 14.9958C52.9846 17.1425 54.9362 22.0945 54.9483 22.1555L55.2288 22.8386ZM56.5583 5.59177C55.9485 5.59177 55.2167 6.11626 53.9726 7.48233C52.4357 9.16557 52.5699 10.8244 52.6919 12.4344C52.7522 13.0342 52.7644 13.6378 52.7284 14.2396C52.3381 18.4232 53.3017 20.4236 54.0336 21.3262C53.5579 19.6429 52.9602 16.3619 54.9117 14.5689C55.9729 13.337 59.2664 7.55555 58.0586 6.45779C57.4854 5.93331 57.0585 5.59177 56.5583 5.59177Z" fill="#0ACC94"/>
<path id="Vector_38" d="M73.6712 9.20117C73.5964 10.094 73.1707 10.9205 72.4866 11.4993C71.8025 12.078 70.917 12.3613 70.0241 12.2871L60.6932 11.4943L60.2178 7.85946L59.1442 11.3722L57.3025 11.2137C56.8589 11.1792 56.4267 11.0568 56.0309 10.8538C55.6352 10.6506 55.2837 10.3708 54.9971 10.0306C54.4254 9.34266 54.1453 8.45843 54.2166 7.56679C54.2933 6.65102 54.55 5.75946 54.9718 4.94305C55.3936 4.12664 55.9723 3.40136 56.6747 2.80884C57.3771 2.21632 58.1895 1.76817 59.0653 1.49001C59.9409 1.21178 60.8634 1.10909 61.7785 1.18764L67.2795 1.65112C68.1961 1.72493 69.0883 1.97903 69.9064 2.3989C70.7238 2.81876 71.4508 3.39603 72.0446 4.09769C72.6384 4.79927 73.0878 5.61131 73.3669 6.4871C73.646 7.36297 73.7497 8.28533 73.6712 9.20117Z" fill="#0ACC94"/>
<path id="Vector_39" d="M70.3168 12.6043H69.9999L60.4254 11.7993L60.0959 9.31106L59.3637 11.7017L57.2661 11.531C56.7839 11.4895 56.3146 11.3535 55.885 11.1305C55.4554 10.9076 55.0739 10.6022 54.7625 10.2318C54.451 9.86138 54.2155 9.43322 54.0695 8.97182C53.9236 8.51034 53.87 8.02465 53.9118 7.54252C54.0764 5.61332 54.9999 3.82835 56.4795 2.57971C57.9593 1.33099 59.8738 0.720704 61.8032 0.882846L67.3042 1.34632C68.2615 1.42472 69.1929 1.69126 70.0466 2.1306C70.9002 2.57001 71.6591 3.17357 72.2788 3.90676C72.8985 4.63995 73.3679 5.48828 73.6589 6.40309C73.9506 7.31797 74.0579 8.28135 73.9765 9.23791C73.8995 10.1558 73.4812 11.0113 72.803 11.6348C72.1255 12.2584 71.2378 12.6045 70.3168 12.6043ZM60.9622 11.2138L70.0488 11.9823C70.4523 12.0186 70.858 11.9736 71.2437 11.85C71.6295 11.7264 71.9863 11.5266 72.2929 11.2626C72.6001 11.0026 72.8533 10.6845 73.0377 10.3266C73.2213 9.96873 73.3331 9.57804 73.3664 9.1769C73.4397 8.30141 73.3397 7.42006 73.0725 6.58314C72.8052 5.7463 72.3758 4.97031 71.8079 4.29968C71.24 3.62904 70.5463 3.07687 69.7652 2.67477C68.9841 2.2726 68.1312 2.02843 67.2553 1.95617L61.7543 1.49269C60.8792 1.41747 59.9974 1.51557 59.1599 1.78144C58.3223 2.04731 57.5454 2.47569 56.8736 3.04215C56.2018 3.60861 55.6483 4.30197 55.2447 5.08255C54.8412 5.86313 54.5954 6.71567 54.5217 7.59131C54.4542 8.40313 54.7117 9.20859 55.2378 9.83073C55.7638 10.4528 56.5153 10.8406 57.3271 10.9089L58.9249 11.0431L60.3395 6.43255L60.9622 11.2138Z" fill="#0ACC94"/>
<path id="Vector_40" d="M56.095 15.7279C55.5218 14.3984 54.3386 13.5934 53.2653 13.8983C52.1919 14.2033 51.4601 15.8377 51.9114 17.4843C52.3627 19.1309 53.7288 20.1921 54.9364 19.8627C55.1927 19.7841 55.4295 19.6522 55.6313 19.4756C55.8331 19.2991 55.9953 19.0818 56.1073 18.8382" fill="white"/>
<path id="Vector_41" d="M54.4846 20.2277C53.2771 20.2277 52.0574 19.1421 51.6183 17.5687C51.3865 16.7149 51.3988 15.8245 51.6793 15.0927C51.9598 14.3608 52.5087 13.7876 53.1796 13.6046C54.3871 13.2631 55.7288 14.1047 56.3752 15.6049C56.3913 15.6418 56.4001 15.6814 56.4008 15.7216C56.4016 15.7618 56.3944 15.8018 56.3796 15.8392C56.3649 15.8766 56.3429 15.9107 56.315 15.9396C56.287 15.9684 56.2536 15.9915 56.2167 16.0075C56.142 16.0369 56.0588 16.0369 55.9841 16.0075C55.9094 15.978 55.8487 15.9214 55.8141 15.8489C55.2897 14.6292 54.2529 13.9339 53.3503 14.1901C52.8624 14.3242 52.4721 14.7145 52.2526 15.3C52.0222 15.9779 52.0051 16.7101 52.2038 17.3979C52.6185 18.886 53.8138 19.8496 54.8505 19.569C55.0662 19.5009 55.2654 19.3888 55.4354 19.2397C55.6054 19.0906 55.7428 18.9079 55.8386 18.703C55.8566 18.6667 55.8818 18.6343 55.9125 18.6078C55.9433 18.5813 55.979 18.5612 56.0177 18.5487C56.0563 18.5362 56.097 18.5316 56.1375 18.535C56.178 18.5385 56.2173 18.55 56.2533 18.5689C56.2898 18.5867 56.3223 18.612 56.3485 18.6431C56.3747 18.6741 56.3942 18.7103 56.4056 18.7493C56.4171 18.7883 56.4204 18.8293 56.4151 18.8696C56.4098 18.91 56.3963 18.9488 56.3752 18.9836C56.2426 19.2616 56.0538 19.5091 55.8208 19.7107C55.5878 19.9122 55.3156 20.0633 55.0213 20.1545C54.8463 20.202 54.666 20.2266 54.4846 20.2277Z" fill="#494752"/>
<path id="Vector_42" d="M54.7653 18.9836L54.6433 18.9593C53.7407 18.5934 52.7405 17.7396 53.1187 15.7027C53.1244 15.6627 53.1384 15.6244 53.1596 15.5901C53.1808 15.5558 53.209 15.5262 53.2422 15.5034C53.2754 15.4805 53.313 15.4646 53.3526 15.457C53.3922 15.4493 53.433 15.4499 53.4724 15.4587C53.55 15.4763 53.6182 15.5224 53.6634 15.5879C53.7086 15.6534 53.7275 15.7336 53.7163 15.8124C53.4724 17.1419 53.8505 17.9835 54.8751 18.386C54.913 18.4007 54.9477 18.423 54.977 18.4513C55.0062 18.4797 55.0295 18.5137 55.0454 18.5512C55.0613 18.5887 55.0696 18.6291 55.0697 18.6698C55.0697 18.7106 55.0616 18.7509 55.0458 18.7886C55.0239 18.8453 54.9854 18.8943 54.9355 18.9291C54.8854 18.9639 54.8262 18.9829 54.7653 18.9836Z" fill="#494752"/>
<path id="Vector_43" d="M62.9012 22.131C62.6568 22.7287 62.9745 24.0582 63.877 24.4241C64.7795 24.79 65.9263 24.0582 66.1699 23.4605L62.9012 22.131Z" fill="white"/>
<path id="Vector_44" d="M64.3891 24.8258C64.1714 24.8277 63.956 24.7863 63.7546 24.7039C62.7055 24.277 62.3153 22.7767 62.6203 22.0204C62.6536 21.944 62.7144 21.883 62.7913 21.8497C62.8661 21.8254 62.9476 21.8254 63.0231 21.8497L66.2793 23.1792C66.317 23.1926 66.3518 23.2136 66.3807 23.2408C66.4096 23.268 66.4333 23.3009 66.4488 23.3375C66.4651 23.3741 66.4732 23.4135 66.474 23.4534C66.474 23.4933 66.4658 23.5328 66.4503 23.5695C66.2067 24.1794 65.2916 24.8258 64.3891 24.8258ZM63.1327 22.5571C63.1082 23.0938 63.3888 23.8988 63.9863 24.1427C64.5838 24.3867 65.3523 23.9964 65.7062 23.6061L63.1327 22.5571Z" fill="#494752"/>
<path id="Vector_45" d="M73.7933 38.4018C73.7933 38.4018 89.2228 57.576 89.4056 57.2828C92.2842 52.8065 103.066 38.17 102.554 38.829L110.007 48.4524C110.007 48.4524 102.578 66.114 91.4668 72.7123C83.1968 77.6032 60.2296 49.1839 60.2296 49.1839L73.7933 38.4018Z" fill="#494752"/>
<path id="Vector_46" d="M89.2344 73.5782C85.4777 73.5782 79.879 70.0407 72.5367 63.0034C65.8282 56.5755 60.0466 49.4523 59.9977 49.379C59.9681 49.3487 59.9459 49.3124 59.9333 49.2717C59.9207 49.2317 59.9178 49.1888 59.9244 49.1473C59.9303 49.1081 59.9437 49.0703 59.9644 49.0362C59.9859 49.0029 60.0133 48.9741 60.0466 48.9518L73.5977 38.1698C73.628 38.1431 73.6636 38.1238 73.7028 38.112C73.7413 38.1002 73.7813 38.0965 73.822 38.1009C73.862 38.1053 73.9005 38.1179 73.9353 38.1387C73.9701 38.1586 74.0004 38.186 74.0249 38.2186C79.5621 45.0856 87.8314 55.2576 89.344 56.8317C91.7961 53.0868 98.6505 43.6826 101.273 40.0844L102.286 38.6939C102.286 38.685 102.287 38.6754 102.292 38.6673C102.296 38.6584 102.302 38.651 102.309 38.6451C102.332 38.6095 102.361 38.5784 102.396 38.554C102.431 38.5303 102.471 38.5148 102.512 38.5074C102.555 38.5007 102.597 38.5029 102.637 38.514C102.679 38.5251 102.717 38.5451 102.749 38.5725C102.78 38.591 102.806 38.6162 102.827 38.6451C102.848 38.6747 102.863 38.708 102.871 38.7428L110.25 48.2692C110.286 48.3107 110.308 48.3618 110.314 48.4158C110.32 48.4698 110.311 48.5254 110.287 48.5742C110.274 48.6224 108.384 53.075 105.164 58.271C102.175 63.0767 97.4067 69.5284 91.6125 72.9681C90.9299 73.3828 90.1369 73.5782 89.2344 73.5782ZM60.6567 49.2324C61.7176 50.5251 66.9624 56.8191 72.9632 62.5644C81.7085 70.9558 88.0631 74.3712 91.3082 72.444C96.9921 69.0775 101.7 62.7102 104.639 57.9533C106.52 54.9163 108.198 51.7586 109.664 48.5009L102.566 39.341L102.541 39.3773L101.761 40.4383C99.0651 44.1342 91.9175 53.9405 89.6616 57.4536C89.6342 57.4943 89.5979 57.5291 89.5557 57.5543C89.5135 57.5794 89.4661 57.595 89.4173 57.6002C89.21 57.6002 89.1367 57.612 86.5631 54.538C85.246 52.9773 83.4528 50.7939 81.2087 48.0493C77.8911 43.9758 74.5609 39.8526 73.7443 38.8287L60.6567 49.2324Z" fill="#494752"/>
<path id="Vector_47" d="M102.383 41.2435C102.737 42.3903 103.481 43.7807 104.517 45.1467C105.122 45.9589 105.809 46.7074 106.567 47.379C108.031 48.6717 109.409 49.2447 110.08 48.7331C110.519 48.4036 110.592 47.6714 110.36 46.72C110.067 45.5125 109.274 43.9518 108.116 42.4147C107.091 41.0732 105.957 39.9996 104.969 39.3407C103.981 38.6825 103.054 38.4508 102.554 38.8284C102.053 39.2067 102.03 40.1092 102.383 41.2435Z" fill="white"/>
<path id="Vector_48" d="M109.47 49.2199C108.665 49.2199 107.567 48.6594 106.371 47.6103C105.6 46.9203 104.897 46.1562 104.274 45.3292C103.249 43.975 102.469 42.5602 102.09 41.3408C101.712 40.1214 101.773 39.0353 102.371 38.5844C102.968 38.1327 103.944 38.3156 105.139 39.0841C106.335 39.8526 107.347 40.9017 108.36 42.2315C109.506 43.7433 110.348 45.3536 110.653 46.6589C110.958 47.9642 110.628 48.6957 110.263 48.9763C110.031 49.1399 109.753 49.2258 109.47 49.2199ZM103.164 38.9501C103.011 38.942 102.862 38.9849 102.737 39.0723C102.371 39.3529 102.358 40.1332 102.676 41.1579C103.029 42.3166 103.773 43.6708 104.762 44.9635C105.36 45.7549 106.034 46.4864 106.774 47.1468C108.128 48.3418 109.384 48.8786 109.896 48.4884C110.201 48.2566 110.263 47.6347 110.067 46.7929C109.775 45.5735 108.969 44.0483 107.872 42.5972C106.896 41.3289 105.811 40.2554 104.798 39.5965C104.152 39.17 103.578 38.9501 103.164 38.9501Z" fill="#494752"/>
<path id="Vector_49" d="M102.737 42.3901C103.09 43.5369 104.408 44.7689 105.444 46.1349C106.103 47.0004 107.384 47.8666 108.079 48.4641C109.116 48.2938 108.957 46.976 110.359 46.7198C112.592 46.3296 114.958 45.8787 116.373 45.5493L116.58 45.5004H116.593C116.886 45.4308 117.175 45.3457 117.459 45.2442H117.471L117.3 43.8901L117.263 43.5613L117.166 42.8047L116.995 41.378L116.812 39.8772L116.642 38.4624C116.483 38.475 116.044 38.5483 115.421 38.6697L114.8 38.7918L113.043 39.1576L117.837 35.1692C117.95 35.1048 118.05 35.0189 118.129 34.9152C118.209 34.8123 118.267 34.6946 118.301 34.5687C118.336 34.4429 118.344 34.3111 118.327 34.1823C118.31 34.0527 118.268 33.9283 118.202 33.8158L118.019 33.5107C117.955 33.3975 117.869 33.2983 117.765 33.2183C117.663 33.1383 117.545 33.0798 117.419 33.0458C117.293 33.0117 117.162 33.0029 117.032 33.0199C116.903 33.0369 116.779 33.0791 116.666 33.145C112.446 35.3402 108.786 36.7914 104.969 39.3531C104.115 39.9143 103.334 40.7316 102.737 42.3901Z" fill="white"/>
<path id="Vector_50" d="M108.08 48.7698C108.004 48.7698 107.931 48.7439 107.872 48.6965L107.153 48.1109C106.469 47.5741 105.689 46.9648 105.201 46.3184C104.884 45.9031 104.542 45.501 104.213 45.1109C103.445 44.1958 102.713 43.3295 102.445 42.4884C102.43 42.4233 102.434 42.3559 102.456 42.293C103.14 40.3902 104.067 39.5854 104.798 39.0975C107.445 37.3169 110.007 36.0724 112.727 34.7552C113.946 34.1696 115.215 33.5477 116.52 32.8769C116.815 32.7066 117.166 32.6585 117.496 32.7429C117.662 32.7843 117.819 32.8606 117.956 32.965C118.092 33.0701 118.205 33.2019 118.289 33.3522L118.472 33.6454C118.557 33.7935 118.611 33.9571 118.632 34.1266C118.654 34.2969 118.64 34.4687 118.594 34.6331C118.507 34.9559 118.303 35.235 118.02 35.4142L114.178 38.597L114.739 38.4875L115.361 38.3653C116.386 38.158 116.569 38.158 116.63 38.1461C116.706 38.1454 116.78 38.1721 116.838 38.2209C116.897 38.2705 116.935 38.3386 116.947 38.4142L117.764 45.2078C117.774 45.2708 117.764 45.3352 117.736 45.3922C117.707 45.4492 117.662 45.4959 117.605 45.5255H117.556C117.265 45.6276 116.968 45.7128 116.667 45.7816H116.642L116.447 45.8305C115.239 46.123 113.202 46.5131 110.421 47.0136C109.787 47.1232 109.555 47.4645 109.275 47.8673C108.994 48.2693 108.738 48.6602 108.129 48.7572L108.08 48.7698ZM103.067 42.4026C103.323 43.1104 103.981 43.8907 104.689 44.7199C105.018 45.1109 105.36 45.5255 105.689 45.9519C106.018 46.3791 106.872 47.1232 107.53 47.6355L108.153 48.1353C108.409 48.0501 108.555 47.8547 108.775 47.5378C108.994 47.2209 109.433 46.5864 110.312 46.428C113.093 45.9275 115.105 45.5373 116.313 45.2567L116.508 45.2078H116.52L117.13 45.0494L116.373 38.8043L115.483 38.9754L114.861 39.0975L113.105 39.4514C113.036 39.4781 112.96 39.4781 112.891 39.4514C112.822 39.4248 112.766 39.3737 112.734 39.3071C112.702 39.2412 112.696 39.1649 112.717 39.0946C112.738 39.0242 112.785 38.9643 112.848 38.9265L117.642 34.9381L117.691 34.9137C117.848 34.8182 117.962 34.6649 118.008 34.4872C118.033 34.4013 118.038 34.311 118.026 34.2229C118.013 34.1348 117.982 34.0496 117.935 33.9749L117.764 33.6698C117.67 33.5084 117.516 33.3907 117.337 33.3404C117.163 33.3033 116.982 33.3293 116.825 33.4137C116.812 33.4137 116.812 33.4137 116.812 33.4255C115.483 34.1089 114.214 34.7189 112.995 35.3164C110.287 36.6217 107.75 37.853 105.14 39.6099C104.457 40.0608 103.677 40.7441 103.067 42.4026Z" fill="#494752"/>
<path id="Vector_51" d="M114.8 38.7803L120.752 37.1944L124.924 35.5478C125.338 35.4012 126.399 35.4745 126.644 36.3037C126.887 37.133 126.448 37.4136 125.619 38.0843C125.619 38.0843 123.972 39.4141 122.74 39.9145C121.508 40.4143 119.532 41.3168 119.532 41.3168" fill="white"/>
<path id="Vector_52" d="M119.533 41.6214C119.475 41.6199 119.418 41.6036 119.37 41.5732C119.32 41.5436 119.28 41.5014 119.252 41.4511C119.236 41.414 119.227 41.3741 119.227 41.3341C119.226 41.2941 119.233 41.2541 119.247 41.2164C119.262 41.1793 119.284 41.1453 119.313 41.1164C119.34 41.0875 119.374 41.0639 119.41 41.0483C119.423 41.0357 121.411 40.1332 122.631 39.6334C123.85 39.1329 125.412 37.8528 125.424 37.8403L125.595 37.7062C126.351 37.1088 126.509 36.9496 126.351 36.3891C126.32 36.2906 126.27 36.2003 126.203 36.1226C126.136 36.0448 126.053 35.9819 125.96 35.9375C125.674 35.7946 125.346 35.7554 125.033 35.8279L120.862 37.4863H120.825L114.873 39.0604C114.836 39.0708 114.796 39.0745 114.757 39.07C114.719 39.0656 114.681 39.053 114.647 39.0337C114.612 39.0145 114.582 38.9886 114.559 38.9575C114.535 38.9264 114.517 38.8908 114.508 38.8523C114.496 38.8146 114.493 38.7739 114.497 38.7339C114.502 38.6946 114.513 38.6561 114.533 38.6206C114.552 38.5858 114.578 38.5547 114.609 38.5295C114.64 38.5044 114.676 38.4859 114.715 38.4748L120.655 36.9015L124.814 35.2549H124.826C125.298 35.1209 125.803 35.169 126.241 35.3889C126.408 35.4725 126.555 35.5888 126.674 35.7317C126.794 35.8746 126.883 36.0397 126.936 36.2181C127.217 37.1939 126.705 37.6085 125.973 38.1816L125.802 38.3163C125.741 38.377 124.107 39.6823 122.863 40.1946C121.618 40.707 119.679 41.5851 119.667 41.5969C119.625 41.6169 119.578 41.6251 119.533 41.6214Z" fill="#494752"/>
<path id="Vector_53" d="M115.398 40.2802L121.179 38.6336L125.814 36.9018C126.192 36.6819 127.253 36.5598 127.644 37.3283C128.034 38.0968 127.326 38.7557 126.79 39.1089C126.79 39.1089 125.278 40.3534 124.18 41.0731C123.082 41.7927 117.411 43.8295 117.411 43.8295" fill="white"/>
<path id="Vector_54" d="M117.41 44.1348C117.341 44.1303 117.276 44.1022 117.226 44.0563C117.175 44.0104 117.141 43.9482 117.13 43.8808C117.119 43.8127 117.13 43.7431 117.164 43.6832C117.196 43.6232 117.249 43.5758 117.312 43.5491C117.373 43.5247 122.947 41.5124 124.008 40.8172C125.069 40.1219 126.582 38.89 126.595 38.8774H126.619C127.582 38.2436 127.509 37.7313 127.375 37.4869C127.328 37.3937 127.261 37.3107 127.179 37.2456C127.097 37.1804 127.002 37.1338 126.9 37.1094C126.588 37.0205 126.254 37.0464 125.96 37.1827H125.924L121.288 38.9144H121.265L115.47 40.561C115.43 40.5765 115.388 40.5832 115.345 40.581C115.303 40.5788 115.261 40.5677 115.223 40.5484C115.185 40.5292 115.151 40.5018 115.124 40.4692C115.097 40.4359 115.077 40.3974 115.066 40.3559C115.055 40.3152 115.053 40.2715 115.06 40.2293C115.066 40.1871 115.081 40.1471 115.105 40.1108C115.128 40.0753 115.158 40.045 115.194 40.0213C115.23 39.9976 115.27 39.982 115.312 39.9754L121.081 38.3288L125.692 36.6089C126.121 36.4023 126.613 36.3631 127.07 36.4993C127.252 36.5467 127.422 36.6318 127.57 36.7495C127.717 36.8673 127.838 37.0146 127.924 37.1827C128.29 37.9141 127.948 38.6945 126.972 39.3534C126.814 39.4756 125.411 40.6217 124.338 41.3169C123.264 42.0121 117.752 44.0252 117.52 44.1104L117.41 44.1348Z" fill="#494752"/>
<path id="Vector_55" d="M116.02 41.7194L124.984 38.5602C125.374 38.3647 126.436 38.2914 126.802 39.0844C127.168 39.8773 126.399 40.4874 125.851 40.8169L117.605 44.4151" fill="white"/>
<path id="Vector_56" d="M117.605 44.7196C117.547 44.7203 117.49 44.7033 117.442 44.6707C117.394 44.6381 117.357 44.5908 117.337 44.5367C117.304 44.4634 117.3 44.3805 117.327 44.305C117.355 44.2302 117.411 44.168 117.483 44.1339L125.704 40.5483C126.68 39.9745 126.631 39.4622 126.521 39.206C126.478 39.1112 126.416 39.0261 126.339 38.9572C126.261 38.8876 126.169 38.8358 126.07 38.804C125.764 38.7026 125.432 38.7114 125.131 38.8284L125.094 38.8529L116.117 42.0113C116.041 42.035 115.959 42.0276 115.888 41.9906C115.818 41.9543 115.764 41.8921 115.739 41.8166C115.724 41.7796 115.716 41.7403 115.718 41.7003C115.719 41.6611 115.728 41.6219 115.745 41.5863C115.763 41.5508 115.787 41.5189 115.818 41.493C115.848 41.4679 115.884 41.4493 115.922 41.4382L124.875 38.2791C125.316 38.0895 125.812 38.0718 126.265 38.2302C126.444 38.2842 126.608 38.3768 126.747 38.5012C126.886 38.6256 126.997 38.7788 127.07 38.9498C127.412 39.7065 127.021 40.4869 125.997 41.0843H125.973L117.727 44.6826C117.692 44.7085 117.649 44.7211 117.605 44.7196Z" fill="#494752"/>
<path id="Vector_57" d="M116.495 43.0237L120.715 41.6458C120.715 41.6458 122.74 40.9262 123.643 40.5604C124.545 40.194 125.216 40.4257 125.509 41.2431C125.802 42.0605 124.85 42.5121 124.265 42.7919C124.265 42.7919 122.192 43.4997 120.996 44.0609C119.801 44.6221 116.373 45.5491 116.373 45.5491" fill="white"/>
<path id="Vector_58" d="M116.373 45.8543C116.307 45.8543 116.244 45.8328 116.19 45.7928C116.138 45.7536 116.099 45.6981 116.081 45.6344C116.061 45.5552 116.074 45.4723 116.115 45.4019C116.156 45.3308 116.222 45.279 116.3 45.2561C116.337 45.2561 119.715 44.3291 120.862 43.7805C122.008 43.2319 123.935 42.573 124.143 42.4997C124.948 42.1221 125.375 41.817 125.216 41.341C125.119 41.0485 124.96 40.8531 124.753 40.7679C124.545 40.6828 124.167 40.6828 123.765 40.8412C122.863 41.2188 120.898 41.9022 120.825 41.9266L116.593 43.317C116.515 43.3415 116.431 43.3341 116.359 43.2963C116.287 43.2585 116.233 43.1934 116.209 43.1156C116.184 43.0379 116.192 42.9542 116.23 42.8817C116.267 42.8099 116.332 42.7558 116.41 42.7314L120.63 41.3536C120.642 41.341 122.643 40.6458 123.533 40.28C124.095 40.0483 124.594 40.0238 124.997 40.2067C125.186 40.3007 125.354 40.4325 125.49 40.5947C125.626 40.7561 125.729 40.9434 125.789 41.1462C126.168 42.2191 124.973 42.7928 124.387 43.0609H124.363C124.338 43.0734 122.289 43.7805 121.13 44.3291C119.971 44.8785 116.593 45.7928 116.459 45.8417L116.373 45.8543Z" fill="#494752"/>
<path id="Vector_59" d="M67.3529 75.2003L73.5373 74.7857C74.0615 74.6998 74.8418 74.4074 74.9033 73.5782C74.964 72.7489 74.1955 72.4313 73.8416 72.4683C73.8416 72.4683 69.9879 71.9804 66.9502 72.1507C63.9132 72.3217 54.5216 71.2852 54.5216 71.2852L54.4606 80.2741C54.4606 80.2741 62.6205 80.0424 66.5726 81.2625C68.7071 81.9207 71.0607 82.3597 72.2565 82.6404C73.4514 82.921 78.5867 82.5426 78.5867 82.5426C79.1479 82.5182 80.0378 82.4819 80.0867 81.7378C80.1355 80.9938 79.6846 80.5791 78.8428 80.5791C78.001 80.5791 76.1471 80.457 76.1471 80.457L72.3416 80.1519" fill="white"/>
<path id="Vector_60" d="M73.8788 83.0437C73.1347 83.0437 72.5128 83.0192 72.1952 82.946C71.8783 82.8727 71.4755 82.7757 71.012 82.6779C69.7682 82.4092 68.0609 82.0316 66.4869 81.5555C62.6206 80.3606 54.5584 80.5679 54.4729 80.5797C54.3901 80.576 54.3117 80.5412 54.2534 80.482C54.2219 80.4553 54.1968 80.4213 54.18 80.3835C54.1631 80.3458 54.1548 80.3043 54.1558 80.2628L54.2169 71.2858C54.2153 71.2428 54.2245 71.1999 54.2437 71.1621C54.2629 71.1236 54.2914 71.0903 54.3266 71.0659C54.3576 71.037 54.394 71.0148 54.4339 71C54.4736 70.9852 54.516 70.9785 54.5584 70.9807C54.656 70.9926 63.9503 72.0299 66.9385 71.847C69.9267 71.6641 73.4642 72.115 73.8418 72.1639C74.0269 72.1616 74.2105 72.1964 74.3822 72.2653C74.554 72.3342 74.7102 72.4363 74.842 72.5666C74.9782 72.6999 75.0826 72.862 75.1463 73.042C75.2092 73.2219 75.2307 73.4136 75.2085 73.6032C75.1471 74.3717 74.5614 74.9203 73.5982 75.0913H73.5619L67.3775 75.5059C67.2954 75.5096 67.2154 75.4807 67.154 75.426C67.0925 75.3712 67.0547 75.2949 67.0481 75.2135C67.0481 75.1328 67.0784 75.0558 67.1325 74.9973C67.1865 74.938 67.2613 74.9025 67.3413 74.8958L73.5004 74.4812C73.9884 74.3961 74.5614 74.1644 74.6103 73.5543C74.6214 73.4521 74.6095 73.3492 74.5762 73.2522C74.5422 73.1552 74.4874 73.0664 74.4156 72.9931C74.2667 72.8532 74.0705 72.7747 73.8662 72.7739H73.7936C73.7566 72.7739 69.9511 72.286 66.9748 72.4563C64.2309 72.6155 56.5587 71.8225 54.8267 71.6271L54.7779 79.9578C56.3391 79.9334 63.1085 79.8727 66.6705 80.9699C68.2194 81.446 69.9148 81.8117 71.1468 82.0805L72.3299 82.3485C73.208 82.5558 77.1231 82.3485 78.5624 82.2389C79.3183 82.2145 79.7574 82.1167 79.7818 81.714C79.7959 81.6111 79.7892 81.5059 79.7618 81.4052C79.7344 81.3053 79.6878 81.2105 79.6234 81.1291C79.4649 80.9699 79.1969 80.8847 78.843 80.8847C78.0012 80.8729 76.208 80.7626 76.1354 80.7626L72.3173 80.4583C72.2366 80.4516 72.1618 80.4131 72.1093 80.3517C72.0567 80.2895 72.0301 80.2095 72.0367 80.1288C72.0434 80.0474 72.0819 79.9726 72.1433 79.92C72.2055 79.8675 72.2855 79.8416 72.3662 79.8482L76.1717 80.1533C76.1843 80.1533 78.0138 80.2628 78.843 80.2747C79.3798 80.2747 79.7944 80.4213 80.0624 80.7137C80.186 80.8544 80.2793 81.0195 80.3363 81.1979C80.3926 81.3764 80.4119 81.5644 80.3919 81.751C80.3312 82.7757 79.1599 82.8245 78.5987 82.8482C78.4528 82.8608 75.7934 83.0437 73.8788 83.0437Z" fill="#494752"/>
<path id="Vector_61" d="M71.4508 78.5179L79.5987 79.3597C79.977 79.3471 80.8306 79.6766 80.8188 80.4325C80.8062 81.1892 79.9888 81.3839 79.4402 81.4327L72.5244 81.4698" fill="white"/>
<path id="Vector_62" d="M72.5241 81.7748C72.4434 81.7748 72.3656 81.7422 72.3086 81.6852C72.2516 81.6282 72.219 81.5504 72.219 81.4697C72.2176 81.4297 72.2242 81.3905 72.2383 81.3535C72.2516 81.3165 72.2731 81.2831 72.3005 81.2543C72.3279 81.2261 72.3605 81.2032 72.3975 81.1876C72.4338 81.1728 72.4723 81.1647 72.5122 81.1647L79.4281 81.1277C80.3669 81.0425 80.5135 80.6523 80.5135 80.4206C80.5142 80.3362 80.4972 80.2518 80.4631 80.1741C80.4298 80.0963 80.3802 80.0267 80.318 79.969C80.127 79.7854 79.876 79.6773 79.611 79.6647H79.5621L71.4143 78.8229C71.375 78.8199 71.3358 78.8088 71.301 78.7903C71.2654 78.7718 71.2344 78.7466 71.2092 78.7155C71.184 78.6852 71.1655 78.6496 71.1551 78.6111C71.144 78.5726 71.1411 78.5326 71.1462 78.4934C71.1492 78.4534 71.1603 78.4142 71.1781 78.3787C71.1966 78.3424 71.2218 78.3105 71.2521 78.2846C71.2832 78.2587 71.318 78.2387 71.3565 78.2261C71.395 78.2143 71.435 78.2098 71.475 78.2128L79.611 79.0546C80.0359 79.0724 80.4394 79.2456 80.7452 79.5425C80.8666 79.6565 80.9629 79.7942 81.028 79.9475C81.0932 80.1008 81.1258 80.2659 81.1235 80.4325C81.111 81.1647 80.5009 81.64 79.4644 81.7377H79.4399L72.5241 81.7748Z" fill="#494752"/>
<path id="Vector_63" d="M70.9392 77.3591L79.0989 78.1883C79.4772 78.1765 80.3309 78.5178 80.3183 79.2619C80.3065 80.0059 79.4891 80.2251 78.9405 80.274L71.6345 80.2133" fill="white"/>
<path id="Vector_64" d="M78.9402 80.5797H78.9277L71.6342 80.519C71.5528 80.519 71.4758 80.4872 71.418 80.4294C71.361 80.3724 71.3292 80.2947 71.3292 80.214C71.3292 80.1333 71.361 80.0555 71.418 79.9985C71.4758 79.9415 71.5528 79.909 71.6342 79.909L78.9158 79.9704C79.8546 79.8727 80.0012 79.4825 80.013 79.2626C80.0138 79.1782 79.9968 79.0938 79.9634 79.0168C79.9294 78.9391 79.8805 78.8687 79.8183 78.8117C79.6192 78.6296 79.3667 78.5185 79.0987 78.4941H79.0617L70.9146 77.6523C70.8701 77.656 70.8257 77.6493 70.7835 77.633C70.7421 77.6175 70.7043 77.5931 70.6739 77.5605C70.6429 77.5286 70.6192 77.4901 70.6044 77.4487C70.5903 77.4065 70.5844 77.3621 70.5896 77.3176C70.594 77.2732 70.6081 77.2303 70.631 77.1925C70.6532 77.154 70.6843 77.1214 70.7213 77.0963C70.7576 77.0711 70.7998 77.0548 70.8435 77.0474C70.8872 77.04 70.9323 77.043 70.9753 77.0548L79.1105 77.884C79.5348 77.9077 79.9368 78.0802 80.2448 78.3719C80.3662 78.4889 80.4625 78.6288 80.5276 78.7843C80.5928 78.9398 80.6253 79.1064 80.6231 79.2752C80.6113 80.0067 80.0012 80.482 78.9647 80.5797H78.9402Z" fill="#494752"/>
<path id="Vector_65" d="M67.3527 75.201C67.3527 75.201 67.6333 76.0058 69.4139 76.4693C71.1953 76.9328 76.5008 77.2015 76.5008 77.2015C76.8792 77.1889 77.7328 77.5184 77.7202 78.2625C77.7084 79.0066 76.9028 79.2257 76.3424 79.2746L69.7434 79.0798" fill="white"/>
<path id="Vector_66" d="M76.3427 79.5789H76.3301L69.7319 79.3842C69.6912 79.3842 69.6512 79.3761 69.6134 79.3598C69.5764 79.3435 69.5431 79.3198 69.5157 79.2902C69.4876 79.2598 69.4668 79.225 69.4535 79.1865C69.4402 79.148 69.4357 79.1073 69.4387 79.0666C69.4417 78.9881 69.4757 78.9133 69.5327 78.8593C69.589 78.8045 69.6653 78.7741 69.7437 78.7741L76.3301 78.9696C77.2697 78.8837 77.4155 78.4936 77.4155 78.2618C77.4185 78.1767 77.4029 78.0923 77.3689 78.0145C77.3355 77.936 77.2845 77.8664 77.2208 77.8109C77.0298 77.6266 76.778 77.5185 76.513 77.5059H76.4886C76.2694 77.5059 71.1342 77.2371 69.341 76.7737C67.5485 76.3102 67.0969 75.4077 67.0725 75.3099C67.0451 75.2344 67.0488 75.15 67.0836 75.0775C67.1176 75.0042 67.1798 74.9472 67.2553 74.9198C67.3316 74.8953 67.4145 74.9012 67.4863 74.9346C67.5589 74.9686 67.6159 75.0286 67.6455 75.1026C67.6581 75.1271 67.9505 75.786 69.4876 76.188C71.0246 76.5908 76.245 76.884 76.513 76.9077C76.9432 76.9217 77.3518 77.0957 77.6598 77.3956C77.7798 77.5103 77.8745 77.6488 77.9375 77.802C78.0004 77.9553 78.0308 78.1204 78.0256 78.2862C78.0137 79.0185 77.4155 79.4938 76.3671 79.5915L76.3427 79.5789Z" fill="#494752"/>
<path id="Vector_67" d="M57.839 81.555C57.839 81.555 29.005 78.5424 27.2486 66.8697C25.8703 57.7097 34.7864 34.6085 50.6427 33.5106L47.5446 49.5012C47.5446 49.5012 40.5435 62.0639 41.2753 63.6127C42.0071 65.1624 59.9372 70.59 59.9372 70.59C60.2296 72.9437 60.6324 79.6523 57.839 81.555Z" fill="#494752"/>
<path id="Vector_68" d="M57.8388 81.8606H57.8023C57.7291 81.848 50.484 81.0795 43.1169 78.8843C38.7747 77.5916 35.2375 76.0664 32.6029 74.3473C29.2609 72.1639 27.3582 69.6755 26.9434 66.9191C26.0896 61.2108 29.1389 50.0867 35.5547 42.0854C39.909 36.6577 45.1173 33.5963 50.6182 33.2179C50.6655 33.2135 50.7133 33.2194 50.7578 33.2365C50.8023 33.2535 50.8421 33.2809 50.8743 33.3157C50.9046 33.3505 50.926 33.3912 50.9367 33.4364C50.9474 33.4808 50.9468 33.5274 50.9353 33.5718L47.8494 49.5625L47.8128 49.6602C47.8006 49.6846 46.0442 52.8312 44.4098 56.1244C41.3971 62.174 41.4581 63.2839 41.5556 63.4793C41.885 64.1745 48.4715 66.7969 60.0221 70.2974C60.0777 70.3174 60.1273 70.3515 60.1658 70.3966C60.2043 70.4418 60.2302 70.4959 60.242 70.5536C60.3516 71.4687 61.266 79.5795 58.0097 81.8118C57.9571 81.8406 57.8987 81.8569 57.8388 81.8606ZM50.2644 33.8524C43.739 34.4625 38.9333 38.8529 36.0303 42.4638C33.1274 46.0738 30.7002 50.6723 29.1389 55.4655C27.6996 59.8567 27.1264 63.9917 27.5533 66.8332C27.9314 69.3949 29.7488 71.7612 32.9322 73.8349C35.5181 75.5178 38.9943 77.0178 43.2754 78.2987C50.0937 80.3236 56.8021 81.1284 57.7535 81.2387C60.0221 79.5551 60.0347 74.0052 59.6564 70.8216C58.7537 70.5418 54.7774 69.3216 50.7889 67.9682C41.519 64.8209 41.1409 64.0405 41.0068 63.7473C40.8726 63.4549 40.4823 62.6501 43.8609 55.8438C45.3978 52.7579 47.0444 49.7942 47.2518 49.404L50.2644 33.8524Z" fill="#494752"/>
<path id="Vector_69" d="M57.8388 81.8602H57.8145C50.711 81.2753 43.7128 79.7746 36.9939 77.3958C36.9553 77.3839 36.9195 77.3639 36.889 77.3373C36.8585 77.3106 36.8339 77.278 36.8168 77.241C36.7995 77.2047 36.7901 77.1648 36.7891 77.124C36.7882 77.0833 36.7956 77.0433 36.8109 77.0056C36.841 76.9315 36.8979 76.8716 36.9702 76.8375C37.0426 76.8042 37.1251 76.7983 37.2012 76.8227C43.8291 79.1734 50.733 80.6579 57.7413 81.2383C58.1194 80.9088 59.6808 79.3355 59.9244 76.0786C60.0947 73.816 60.0088 71.5409 59.6682 69.2975C58.7659 69.0895 54.9115 68.1996 50.9841 67.1749C41.8728 64.7961 41.2507 64.0527 41.0433 63.8084C40.6287 63.3086 40.6043 61.9663 44.1659 56.0263C46.1052 52.8064 48.2275 49.7205 48.2397 49.6842C48.2866 49.6176 48.358 49.5732 48.438 49.5591C48.518 49.5451 48.6003 49.5643 48.6666 49.6109C48.7329 49.6576 48.7779 49.7294 48.7916 49.8094C48.8053 49.8893 48.7867 49.9715 48.7398 50.0381C48.7276 50.0626 46.6175 53.1359 44.6903 56.3439C41.08 62.3691 41.4093 63.296 41.519 63.4182C41.6288 63.5404 43.0803 64.4792 51.1427 66.5774C55.5946 67.7479 59.9614 68.7363 59.9977 68.7482C60.0577 68.7585 60.1125 68.7874 60.1539 68.8318C60.1961 68.8755 60.2228 68.9318 60.2294 68.9925C60.6107 71.3506 60.7129 73.7457 60.5345 76.1275C60.2294 80.1041 58.1072 81.7262 58.0219 81.7995C57.9683 81.8373 57.9046 81.8588 57.8388 81.8602Z" fill="white"/>
<path id="Vector_70" d="M77.5743 68.5049C77.4973 68.5049 77.4232 68.476 77.3662 68.4242C77.3099 68.3723 77.2751 68.3005 77.2692 68.2242C76.671 60.2837 74.244 46.5127 73.2194 42.3659C73.2083 42.3266 73.2053 42.2859 73.2105 42.2452C73.2157 42.2045 73.229 42.166 73.2497 42.1304C73.2697 42.0949 73.2971 42.0645 73.3297 42.0401C73.3622 42.0157 73.3993 41.9979 73.4393 41.9876C73.4785 41.9787 73.5192 41.9779 73.5585 41.9846C73.5984 41.9913 73.6362 42.0061 73.6703 42.0275C73.7043 42.049 73.7339 42.0771 73.7569 42.1097C73.7798 42.143 73.7961 42.18 73.805 42.2193C74.8415 46.3787 77.2811 60.2104 77.8785 68.1754C77.8822 68.2576 77.8534 68.3375 77.7993 68.399C77.7445 68.4604 77.6683 68.4982 77.5861 68.5049H77.5743Z" fill="white"/>
<path id="Vector_71" d="M64.4623 60.8439C64.3801 60.841 64.3023 60.8062 64.2453 60.7469C64.1891 60.6877 64.1572 60.6092 64.1572 60.5271C64.2424 53.0256 61.8399 41.8533 61.8154 41.7437C61.8006 41.6645 61.8162 41.5831 61.8591 41.5149C61.902 41.4468 61.9694 41.398 62.0472 41.3772C62.0871 41.3684 62.1286 41.3684 62.1686 41.3758C62.2093 41.3832 62.2478 41.3987 62.2819 41.4217C62.3159 41.4446 62.3455 41.4735 62.3677 41.5083C62.3907 41.5423 62.4055 41.5808 62.4129 41.6216C62.4373 41.7311 64.8524 52.9649 64.7673 60.5396C64.7673 60.6203 64.7347 60.6981 64.6777 60.7551C64.6207 60.8121 64.543 60.8439 64.4623 60.8439Z" fill="white"/>
<path id="Vector_72" d="M57.156 43.952C56.4608 43.952 55.8143 43.744 55.3509 43.1709C54.18 41.7561 54.7044 40.3049 55.1679 39.4994C54.4924 39.5838 53.8111 39.6119 53.131 39.5853C51.1306 39.4994 49.6182 38.8412 48.7644 37.6825C48.2277 36.9503 48.0691 36.2306 48.2887 35.548C48.7765 34.011 51.0574 33.2551 51.1429 33.2306C51.1817 33.2114 51.2241 33.2018 51.2671 33.2003C51.3102 33.1995 51.353 33.2077 51.3927 33.224C51.4324 33.241 51.4682 33.2662 51.4976 33.2973C51.527 33.3291 51.5493 33.3661 51.5632 33.4068C51.5771 33.4476 51.5822 33.4913 51.5781 33.5342C51.5741 33.5771 51.5609 33.6186 51.5397 33.6556C51.5184 33.6934 51.4894 33.7259 51.4546 33.7511C51.4199 33.777 51.3801 33.7948 51.3379 33.8037C51.3136 33.8155 49.2645 34.4989 48.862 35.7309C48.7034 36.2306 48.8376 36.7556 49.2522 37.316C51.0696 39.7682 55.7168 38.7923 55.7655 38.7923C55.8289 38.7768 55.8957 38.782 55.9554 38.8086C56.015 38.8353 56.0641 38.8812 56.0949 38.9389C56.1269 38.9945 56.1395 39.0596 56.1307 39.124C56.1218 39.1877 56.0921 39.2469 56.0461 39.2921C55.9851 39.3654 54.4361 41.1097 55.8143 42.7807C56.3754 43.4641 57.4 43.5248 58.8514 42.9881C59.6003 42.6867 60.3192 42.3151 60.9981 41.8782C61.0307 41.8501 61.0685 41.8286 61.1099 41.816C61.1514 41.8035 61.1943 41.7998 61.2373 41.8057C61.2802 41.8109 61.321 41.8249 61.358 41.8479C61.395 41.8701 61.4261 41.9004 61.4505 41.936C61.4749 41.9715 61.4912 42.0115 61.4986 42.0544C61.5068 42.0966 61.5053 42.1403 61.4942 42.1818C61.4838 42.224 61.4646 42.2625 61.4379 42.2965C61.4113 42.3306 61.378 42.358 61.3395 42.378C61.218 42.4639 59.01 43.952 57.156 43.952Z" fill="white"/>
<path id="Vector_73" d="M65.8646 43.5848C64.4624 43.5848 63.1445 42.4017 63.0838 42.3528C63.0246 42.2995 62.989 42.2247 62.9846 42.1447C62.9794 42.0648 63.0068 41.9863 63.0593 41.9263C63.086 41.8952 63.1193 41.8693 63.1556 41.8516C63.1926 41.833 63.2326 41.8227 63.2741 41.8205C63.3148 41.8182 63.3555 41.8242 63.3947 41.8382C63.4332 41.8523 63.4688 41.8738 63.4984 41.9019C63.511 41.9137 64.7911 43.0606 65.9986 42.9754C66.2259 42.9584 66.4473 42.8925 66.6472 42.7837C66.8471 42.6741 67.0211 42.5231 67.1581 42.3409C67.4505 41.9996 67.5482 41.6457 67.475 41.28C67.2306 40.0843 65.3034 39.084 65.279 39.0722C65.2175 39.0366 65.1687 38.9811 65.1428 38.9145C65.1161 38.8479 65.1124 38.7746 65.1331 38.7064C65.1554 38.6361 65.202 38.5769 65.2649 38.5391C65.3279 38.5006 65.4019 38.4865 65.4745 38.4991C65.5722 38.511 67.9873 38.8404 68.4263 36.9251C68.4841 36.7067 68.4944 36.4779 68.4567 36.2551C68.4182 36.0322 68.333 35.8197 68.2064 35.6324C67.4505 34.4737 65.3404 34.108 65.316 34.0954C65.242 34.0754 65.1791 34.0287 65.1383 33.9636C65.0976 33.8992 65.0828 33.8214 65.0961 33.7467C65.1102 33.6711 65.1517 33.6038 65.2124 33.5579C65.2738 33.512 65.3493 33.4905 65.4256 33.4979C65.5233 33.5105 67.8044 33.9251 68.7188 35.2911C68.8891 35.5487 69.0046 35.839 69.0571 36.1433C69.1097 36.4476 69.0979 36.76 69.0238 37.0598C68.6944 38.4747 67.5238 38.987 66.4866 39.1085C67.1211 39.5845 67.8896 40.3042 68.0724 41.1578C68.182 41.7064 68.0362 42.2432 67.6334 42.7311C67.4424 42.9784 67.2017 43.1828 66.9263 43.3293C66.6509 43.4767 66.3474 43.564 66.0357 43.5848H65.8646Z" fill="white"/>
<path id="Vector_74" d="M61.1691 48.5622C61.5126 48.5622 61.791 48.2839 61.791 47.9403C61.791 47.5968 61.5126 47.3184 61.1691 47.3184C60.8256 47.3184 60.5465 47.5968 60.5465 47.9403C60.5465 48.2839 60.8256 48.5622 61.1691 48.5622Z" fill="white"/>
<path id="Vector_75" d="M61.7912 53.4285C62.1347 53.4285 62.4131 53.1501 62.4131 52.8066C62.4131 52.4631 62.1347 52.1847 61.7912 52.1847C61.4476 52.1847 61.1693 52.4631 61.1693 52.8066C61.1693 53.1501 61.4476 53.4285 61.7912 53.4285Z" fill="white"/>
<path id="Vector_76" d="M62.2301 58.234C62.5736 58.234 62.852 57.9556 62.852 57.6121C62.852 57.2686 62.5736 56.9902 62.2301 56.9902C61.8865 56.9902 61.6082 57.2686 61.6082 57.6121C61.6082 57.9556 61.8865 58.234 62.2301 58.234Z" fill="white"/>
<path id="Vector_77" d="M123.277 113.281H0.305038V116.132H123.277V113.281Z" fill="white"/>
<path id="Vector_78" d="M123.277 116.44H0.305114C0.224191 116.44 0.146672 116.407 0.0894414 116.35C0.0322844 116.293 0.000152588 116.216 0.000152588 116.135V113.281C0.000152588 113.2 0.0322844 113.122 0.0894414 113.065C0.146672 113.008 0.224191 112.976 0.305114 112.976H123.277C123.358 112.976 123.436 113.008 123.493 113.065C123.55 113.122 123.582 113.2 123.582 113.281V116.135C123.582 116.216 123.55 116.293 123.493 116.35C123.436 116.407 123.358 116.44 123.277 116.44ZM0.61 115.83H122.972V113.586H0.61V115.83Z" fill="#494752"/>
<path id="Vector_79" d="M107.335 130.064V116.183H110.25V130.064" fill="white"/>
<path id="Vector_80" d="M110.555 130.063H109.945V116.487H107.641V130.063H107.031V115.878H110.555V130.063Z" fill="#494752"/>
<path id="Vector_81" d="M14.6608 130.064V116.183H17.576V130.064" fill="white"/>
<path id="Vector_82" d="M17.8814 130.063H17.2716V116.487H14.9663V130.063H14.3565V115.878H17.8814V130.063Z" fill="#494752"/>
<path id="Vector_83" d="M46.7885 103.962C48.001 103.962 48.984 102.979 48.984 101.767C48.984 100.554 48.001 99.5714 46.7885 99.5714C45.5759 99.5714 44.593 100.554 44.593 101.767C44.593 102.979 45.5759 103.962 46.7885 103.962Z" fill="white"/>
</g>
</svg>
