<svg width="84" height="84" viewBox="0 0 84 84" fill="none" xmlns="http://www.w3.org/2000/svg">
<path id="Star 1" d="M39.9566 2.66774C40.3224 0.149819 43.956 0.149829 44.3219 2.66775L46.3991 16.9639C46.6837 18.9227 49.2047 19.544 50.367 17.9419L58.85 6.24859C60.344 4.1891 63.5614 5.87773 62.7152 8.27725L57.9107 21.9011C57.2525 23.7678 59.1959 25.4896 60.9697 24.6111L73.9151 18.1995C76.1951 17.0702 78.2593 20.0606 76.3949 21.792L65.8094 31.6226C64.359 32.9696 65.2797 35.3973 67.2585 35.4437L81.7008 35.7825C84.2444 35.8422 84.6824 39.4493 82.227 40.116L68.2854 43.9013C66.3752 44.4199 66.0623 46.9974 67.7928 47.9581L80.4234 54.9698C82.648 56.2047 81.3595 59.6022 78.8754 59.0514L64.7717 55.9241C62.8393 55.4956 61.3644 57.6325 62.4503 59.2874L70.3756 71.3656C71.7714 73.4929 69.0516 75.9024 67.1081 74.2603L56.0732 64.9369C54.5613 63.6595 52.2622 64.8661 52.4546 66.8361L53.8591 81.2139C54.1065 83.7462 50.5785 84.6158 49.6207 82.2586L44.1826 68.875C43.4375 67.0412 40.841 67.0412 40.0959 68.875L34.6578 82.2586C33.7 84.6158 30.172 83.7462 30.4194 81.2139L31.8238 66.8361C32.0163 64.8661 29.7172 63.6595 28.2053 64.9369L17.1704 74.2603C15.2269 75.9024 12.5071 73.4929 13.9029 71.3656L21.8282 59.2874C22.9141 57.6325 21.4391 55.4956 19.5067 55.9241L5.40305 59.0514C2.91902 59.6022 1.63054 56.2047 3.8551 54.9698L16.4856 47.9581C18.2162 46.9974 17.9032 44.4199 15.993 43.9013L2.05152 40.116C-0.403946 39.4493 0.034046 35.8422 2.5777 35.7825L17.02 35.4437C18.9988 35.3973 19.9195 32.9696 18.4691 31.6226L7.8836 21.792C6.01922 20.0606 8.08335 17.0702 10.3634 18.1995L23.3088 24.6111C25.0825 25.4896 27.026 23.7678 26.3677 21.9011L21.5632 8.27724C20.717 5.87772 23.9345 4.1891 25.4285 6.24859L33.9115 17.9419C35.0738 19.544 37.5948 18.9226 37.8794 16.9639L39.9566 2.66774Z" fill="#6AE586"/>
</svg>
