<svg width="18" height="18" viewBox="0 0 18 18" fill="none" xmlns="http://www.w3.org/2000/svg">
<path id="X" d="M2.01179 17.7872C0.505897 17.7872 -0.263597 15.9805 0.779877 14.8947L4.1917 11.3446C5.56371 9.917 5.55944 7.65947 4.18205 6.23706L0.955759 2.90532C-0.0969127 1.81824 0.673407 0 2.18663 0V0C2.65066 0 3.09484 0.188205 3.41761 0.521578L9.32418 6.6222C9.58918 6.89591 9.39523 7.35365 9.01426 7.35365V7.35365C8.63433 7.35365 8.43994 6.89805 8.70284 6.62377L14.5452 0.528517C14.8688 0.190897 15.3162 0 15.7839 0V0C17.2975 0 18.0696 1.81724 17.019 2.90681L13.8091 6.23558C12.4358 7.65966 12.4339 9.91453 13.8048 11.3409L17.2031 14.877C18.253 15.9694 17.4787 17.7872 15.9636 17.7872V17.7872C15.4949 17.7872 15.0464 17.5958 14.7222 17.2573L8.71339 10.984C8.4491 10.7081 8.64776 10.2502 9.02981 10.2547V10.2547C9.40834 10.2591 9.59777 10.7143 9.33415 10.986L3.238 17.2685C2.91622 17.6001 2.47386 17.7872 2.01179 17.7872V17.7872Z" fill="#456FF6"/>
</svg>
