<svg width="161" height="37" viewBox="0 0 161 37" fill="none" xmlns="http://www.w3.org/2000/svg">
<path d="M25.324 21.3282C26.3844 21.3282 27.244 22.1878 27.244 23.2482V23.9748C27.244 25.4364 26.0591 26.6213 24.5975 26.6213H24.338C21.7087 26.6213 19.8579 25.618 18.7854 23.6115C17.0556 26.0678 14.4437 27.2959 10.9495 27.2959C8.54801 27.2959 5.60449 29.0269 5.60449 31.4284V34.1978C5.60449 35.7454 4.34988 37 2.80224 37C1.25461 37 0 35.7454 0 34.1978V3.47685C0 1.92922 1.25461 0.674614 2.80224 0.674614C4.34988 0.674614 5.60449 1.92922 5.60449 3.47686V16.0351C5.60449 17.9378 6.12342 19.4254 7.16129 20.4979C8.19916 21.5358 9.60028 22.0547 11.3647 22.0547C13.3712 22.0547 14.9799 21.4493 16.1907 20.2384C17.4016 18.993 18.007 17.0902 18.007 14.5302V3.47686C18.007 1.92922 19.2616 0.674614 20.8093 0.674614C22.3569 0.674614 23.6115 1.92922 23.6115 3.47686V19.6157C23.6115 20.1346 23.7672 20.5498 24.0785 20.8611C24.3899 21.1725 24.8051 21.3282 25.324 21.3282Z" fill="white"/>
<path d="M38.1563 15.5811C38.1563 18.5258 40.5435 20.913 43.4883 20.913H50.0918C51.668 20.913 52.9459 22.1909 52.9459 23.7672C52.9459 25.3435 51.668 26.6213 50.0918 26.6213H42.5672C36.8352 26.6213 32.1885 21.9746 32.1885 16.2426V3.65841C32.1885 2.01047 33.5244 0.674543 35.1724 0.674543C36.8203 0.674543 38.1563 2.01047 38.1563 3.65841V15.5811Z" fill="white"/>
<path d="M62.7509 16.0351C61.6485 16.0351 60.8088 17.0675 61.3004 18.0542C61.8115 19.0801 62.5334 19.9293 63.4661 20.6017C64.9537 21.6395 66.7699 22.1585 68.9149 22.1585C70.9077 22.1585 72.5668 21.6773 73.8922 20.7151C75.0251 19.8926 76.542 19.4862 77.7508 20.1924C79.0908 20.9753 79.5075 22.7597 78.3846 23.8309C75.9631 26.1409 72.7892 27.2959 68.863 27.2959C64.6423 27.2959 61.2346 26.0159 58.64 23.4558C56.0453 20.8611 54.748 17.5919 54.748 13.648C54.748 9.77326 56.028 6.53857 58.5881 3.9439C61.1481 1.31463 64.4347 0 68.4478 0C72.2533 0 75.3669 1.33193 77.7886 3.99579C80.2449 6.65965 81.4731 9.89434 81.4731 13.6999C81.4731 15.0461 80.2655 16.0351 78.9193 16.0351H62.7509ZM60.56 11.4684H75.8167C75.4361 9.35811 74.5539 7.76671 73.1701 6.69425C71.8209 5.62178 70.2295 5.08555 68.3959 5.08555C66.3202 5.08555 64.5904 5.65638 63.2066 6.79803C61.8228 7.93969 60.9406 9.49649 60.56 11.4684Z" fill="white"/>
<path d="M106.802 3.47686C106.802 1.92922 108.057 0.674614 109.605 0.674614C111.152 0.674614 112.407 1.92922 112.407 3.47686V23.8191C112.407 25.3667 111.152 26.6213 109.605 26.6213C108.057 26.6213 106.802 25.3667 106.802 23.8191V22.885C104.692 25.8256 101.665 27.2959 97.721 27.2959C94.1576 27.2959 91.1132 25.9813 88.5877 23.352C86.0623 20.6882 84.7995 17.4535 84.7995 13.648C84.7995 9.80785 86.0623 6.57316 88.5877 3.9439C91.1132 1.31463 94.1576 0 97.721 0C101.665 0 104.692 1.45301 106.802 4.35904V3.47686ZM92.7392 19.6157C94.296 21.1725 96.2507 21.9509 98.6032 21.9509C100.956 21.9509 102.91 21.1725 104.467 19.6157C106.024 18.0243 106.802 16.0351 106.802 13.648C106.802 11.2609 106.024 9.28892 104.467 7.73212C102.91 6.14072 100.956 5.34502 98.6032 5.34502C96.2507 5.34502 94.296 6.14072 92.7392 7.73212C91.1824 9.28892 90.404 11.2609 90.404 13.648C90.404 16.0351 91.1824 18.0243 92.7392 19.6157Z" fill="white"/>
<path d="M124.544 5.03366C125.577 2.68968 127.272 1.19954 129.627 0.563225C131.193 0.140061 132.535 1.52293 132.535 3.14551C132.535 4.84251 131.063 6.11688 129.433 6.59078C128.534 6.85218 127.7 7.26722 126.931 7.8359C125.339 8.97756 124.544 10.8803 124.544 13.5442V23.8191C124.544 25.3667 123.289 26.6213 121.742 26.6213C120.194 26.6213 118.939 25.3667 118.939 23.8191V3.47686C118.939 1.92922 120.194 0.674614 121.742 0.674614C123.289 0.674614 124.544 1.92922 124.544 3.47686V5.03366Z" fill="white"/>
<path d="M150.324 0C153.299 0 155.704 0.951378 157.537 2.85414C159.371 4.75689 160.288 7.36886 160.288 10.69V23.8191C160.288 25.3667 159.033 26.6213 157.486 26.6213C155.938 26.6213 154.683 25.3667 154.683 23.8191V11.2609C154.683 9.32351 154.164 7.8359 153.127 6.79803C152.089 5.76016 150.67 5.24123 148.871 5.24123C146.899 5.24123 145.308 5.86395 144.097 7.1094C142.886 8.32024 142.281 10.1884 142.281 12.7139V23.8191C142.281 25.3667 141.026 26.6213 139.479 26.6213C137.931 26.6213 136.676 25.3667 136.676 23.8191V3.47685C136.676 1.92922 137.931 0.674614 139.479 0.674614C141.026 0.674614 142.281 1.92922 142.281 3.47686V3.99579C143.976 1.33193 146.657 0 150.324 0Z" fill="white"/>
</svg>
