<svg xmlns="http://www.w3.org/2000/svg" viewBox="0 0 500 500"><g id="freepik--background-complete--inject-33"><rect y="382.4" width="500" height="0.25" style="fill:#ebebeb"></rect><rect x="324.56" y="389.21" width="33.12" height="0.25" style="fill:#ebebeb"></rect><rect x="428.57" y="391.4" width="8.69" height="0.25" style="fill:#ebebeb"></rect><rect x="358.68" y="398.49" width="19.19" height="0.25" style="fill:#ebebeb"></rect><rect x="206.81" y="395.11" width="43.19" height="0.25" style="fill:#ebebeb"></rect><rect x="191.57" y="395.11" width="6.33" height="0.25" style="fill:#ebebeb"></rect><rect x="77.31" y="390.89" width="93.68" height="0.25" style="fill:#ebebeb"></rect><path d="M237,337.8H43.91a5.71,5.71,0,0,1-5.7-5.71V60.66A5.71,5.71,0,0,1,43.91,55H237a5.71,5.71,0,0,1,5.71,5.71V332.09A5.71,5.71,0,0,1,237,337.8ZM43.91,55.2a5.46,5.46,0,0,0-5.45,5.46V332.09a5.46,5.46,0,0,0,5.45,5.46H237a5.47,5.47,0,0,0,5.46-5.46V60.66A5.47,5.47,0,0,0,237,55.2Z" style="fill:#ebebeb"></path><path d="M453.31,337.8H260.21a5.72,5.72,0,0,1-5.71-5.71V60.66A5.72,5.72,0,0,1,260.21,55h193.1A5.71,5.71,0,0,1,459,60.66V332.09A5.71,5.71,0,0,1,453.31,337.8ZM260.21,55.2a5.47,5.47,0,0,0-5.46,5.46V332.09a5.47,5.47,0,0,0,5.46,5.46h193.1a5.47,5.47,0,0,0,5.46-5.46V60.66a5.47,5.47,0,0,0-5.46-5.46Z" style="fill:#ebebeb"></path><path d="M117.3,307.73c-5.22-1.77-9-6.81-5.7-12,5.5-8.54-8.25-10.36-4.39-24.65,5.44-20.18,22.33-2.69,26.53-22.06,3-14.09,26.72-23.32,27.64-4.77,1,20.32,11.2,7.05,13.46,29.63,1.56,15.62-20.66,17.89-14,22.77,4.85,3.57,7.71,9.78.95,14-9.21,5.79-.52,10.31-6.78,14.35s-7.28-2.4-17,.74c-8.69,2.8-16.06-5.79-14.33-11.16C125.27,309.63,122.55,309.51,117.3,307.73Z" style="fill:#e6e6e6"></path><path d="M167.54,317s-.71,65.38-28.12,65.38S111.31,317,111.31,317Z" style="fill:#f0f0f0"></path><rect x="280.74" y="83.9" width="155.74" height="144.13" transform="translate(717.21 311.94) rotate(180)" style="fill:#e6e6e6"></rect><rect x="276.99" y="83.9" width="157.73" height="144.13" transform="translate(711.72 311.94) rotate(180)" style="fill:#f0f0f0"></rect><rect x="289.68" y="82.34" width="132.36" height="147.25" transform="translate(511.83 -199.89) rotate(90)" style="fill:#fafafa"></rect><polygon points="343.42 222.15 369.43 89.79 403.52 89.79 377.51 222.15 343.42 222.15" style="fill:#fff"></polygon><polygon points="382.82 222.15 408.82 89.79 424.22 89.79 398.21 222.15 382.82 222.15" style="fill:#fff"></polygon><polygon points="300.79 222.15 326.8 89.79 332.45 89.79 306.44 222.15 300.79 222.15" style="fill:#fff"></polygon><rect x="216.38" y="155.64" width="132.36" height="0.67" transform="translate(438.53 -126.6) rotate(90)" style="fill:#e6e6e6"></rect><path d="M440.4,83.67V184.84H425.29S398.14,123.07,392,86.64a6.06,6.06,0,0,1,6-7.08h38.36A4.11,4.11,0,0,1,440.4,83.67Z" style="fill:#e6e6e6;opacity:0.7000000000000001"></path><path d="M440.4,242.12V189.45H425.29s-9.41,31-13,52.67Z" style="fill:#e6e6e6;opacity:0.7000000000000001"></path><rect x="424.22" y="184.84" width="17.14" height="4.61" rx="1.51" transform="translate(865.58 374.29) rotate(180)" style="fill:#e0e0e0"></rect><path d="M272.72,83.67V184.84h15.11s27.15-61.77,33.32-98.2a6.06,6.06,0,0,0-6-7.08H276.83A4.11,4.11,0,0,0,272.72,83.67Z" style="fill:#e6e6e6;opacity:0.7000000000000001"></path><path d="M272.72,242.12V189.45h15.11s9.4,31,13,52.67Z" style="fill:#e6e6e6;opacity:0.7000000000000001"></path><rect x="271.76" y="184.84" width="17.14" height="4.61" rx="1.51" style="fill:#e0e0e0"></rect><rect x="223.13" y="284.33" width="37.8" height="98.07" transform="translate(484.07 666.73) rotate(180)" style="fill:#e6e6e6"></rect><polygon points="233.23 382.4 223.13 382.4 223.13 365.48 243.81 365.48 233.23 382.4" style="fill:#f5f5f5"></polygon><rect x="403.96" y="284.33" width="37.8" height="98.07" transform="translate(845.72 666.73) rotate(180)" style="fill:#e6e6e6"></rect><rect x="223.13" y="284.33" width="189.64" height="92.24" transform="translate(635.9 660.91) rotate(180)" style="fill:#f5f5f5"></rect><rect x="230.96" y="292.9" width="173.98" height="19.33" transform="translate(635.9 605.12) rotate(180)" style="fill:#f0f0f0"></rect><polygon points="402.68 382.4 412.77 382.4 412.77 365.48 392.09 365.48 402.68 382.4" style="fill:#f5f5f5"></polygon><rect x="230.96" y="320.79" width="173.98" height="19.33" transform="translate(635.9 660.91) rotate(180)" style="fill:#f0f0f0"></rect><rect x="230.96" y="348.68" width="173.98" height="19.33" transform="translate(635.9 716.7) rotate(180)" style="fill:#f0f0f0"></rect><rect x="134.51" y="111.89" width="81.17" height="88.15" transform="translate(350.19 311.94) rotate(180)" style="fill:#e6e6e6"></rect><rect x="127.64" y="111.89" width="86.09" height="88.15" transform="translate(341.37 311.94) rotate(180)" style="fill:#f5f5f5"></rect><rect x="132.1" y="118.41" width="77.17" height="75.11" transform="translate(326.65 -14.72) rotate(90)" style="fill:#fff"></rect><path d="M195,166.16h0a20.37,20.37,0,0,0-20.38-20.38H146.35a20.38,20.38,0,0,0,20.38,20.38Z" style="fill:#f5f5f5"></path><rect x="66.35" y="85.92" width="48.3" height="53.62" transform="translate(180.99 225.46) rotate(180)" style="fill:#e6e6e6"></rect><rect x="59.47" y="85.92" width="53.22" height="53.62" transform="translate(172.17 225.46) rotate(180)" style="fill:#f5f5f5"></rect><rect x="64.76" y="91.61" width="42.65" height="42.24" transform="translate(198.81 26.64) rotate(90)" style="fill:#fff"></rect><rect x="77.26" y="103.9" width="17.65" height="17.65" transform="translate(104.93 -27.85) rotate(45)" style="fill:#f5f5f5"></rect></g><g id="freepik--Shadow--inject-33"><ellipse id="freepik--path--inject-33" cx="250" cy="416.24" rx="193.89" ry="11.32" style="fill:#f5f5f5"></ellipse></g><g id="freepik--Pyramid--inject-33"><polygon points="95 413.72 405 413.72 374 360.03 126 360.03 95 413.72" style="fill:#FE8024"></polygon><polygon points="95 413.72 405 413.72 374 360.03 126 360.03 95 413.72" style="fill:#fff;opacity:0.4"></polygon><polygon points="126 360.03 374 360.03 343 306.33 157 306.33 126 360.03" style="fill:#FE8024"></polygon><polygon points="126 360.03 374 360.03 343 306.33 157 306.33 126 360.03" style="fill:#fff;opacity:0.30000000000000004"></polygon><polygon points="188 252.64 157 306.33 343 306.33 312 252.64 188 252.64" style="fill:#FE8024"></polygon><polygon points="188 252.64 157 306.33 343 306.33 312 252.64 188 252.64" style="fill:#fff;opacity:0.2"></polygon><polygon points="281 198.95 219 198.95 188 252.64 312 252.64 281 198.95" style="fill:#FE8024"></polygon><polygon points="281 198.95 219 198.95 188 252.64 312 252.64 281 198.95" style="opacity:0.1"></polygon></g><g id="freepik--character-2--inject-33"><path d="M180.49,121.91c-.51.38-1.2.92-1.81,1.42s-1.23,1-1.84,1.59c-1.2,1.1-2.39,2.22-3.51,3.4a48.88,48.88,0,0,0-5.9,7.64c-.37.61-1,1.64-.89,1.5a2.26,2.26,0,0,0-.11,1.1,13.49,13.49,0,0,0,1.27,4,61.17,61.17,0,0,0,5.11,8.54L170,153.8a39.27,39.27,0,0,1-7.57-8.25,18,18,0,0,1-2.64-5.75,9,9,0,0,1-.06-4.12,6.71,6.71,0,0,1,.36-1.16,7.43,7.43,0,0,1,.37-.8l.63-1.29a45.36,45.36,0,0,1,6.47-9.38,53.65,53.65,0,0,1,3.95-4c.7-.63,1.42-1.25,2.15-1.85s1.45-1.14,2.38-1.78Z" style="fill:#b55b52"></path><path d="M181.16,110.32c-4.92.22-12.33,10.12-12.33,10.12l7.91,9.38s10-5.39,11.1-12.52C188.37,113.74,186,110.1,181.16,110.32Z" style="fill:#FE8024"></path><path d="M171.57,149.93l5.86,5-5.5,1.39s-3.42-2-2.42-4.79Z" style="fill:#b55b52"></path><polygon points="177.47 157.86 174.61 160.63 171.93 156.37 177.43 154.98 177.47 157.86" style="fill:#b55b52"></polygon><path d="M218.06,97.68c-.24.51-.16,1.07.18,1.24s.8-.12,1-.63.16-1.07-.17-1.24S218.3,97.16,218.06,97.68Z" style="fill:#263238"></path><path d="M218.94,97l1.41.26S219.26,97.91,218.94,97Z" style="fill:#263238"></path><path d="M218.26,98.4a15.77,15.77,0,0,0,.3,4.21,2.49,2.49,0,0,1-2-.57Z" style="fill:#a02724"></path><path d="M220.36,94.58a.29.29,0,0,1-.14-.08,2.8,2.8,0,0,0-2.34-.81.33.33,0,0,1-.4-.26.34.34,0,0,1,.26-.4,3.47,3.47,0,0,1,2.94,1,.33.33,0,0,1,0,.47A.34.34,0,0,1,220.36,94.58Z" style="fill:#263238"></path><path d="M198.63,98.15c.14,4.29-1.7,11.21-5.06,13.4,0,0,2.17,4.64,9.89,6.13,8.49,1.65,4.75-3.4,4.75-3.4-4.45-2-3.77-5.4-2.43-8.45Z" style="fill:#b55b52"></path><path d="M220.6,122.06c.39,2.18.8,4.5,1.28,6.74s.92,4.53,1.45,6.77,1.08,4.47,1.67,6.68c.29,1.11.62,2.2.94,3.29l.85,2.65a4.48,4.48,0,0,0,1.37,1.38A16.82,16.82,0,0,0,230.7,151a45.87,45.87,0,0,0,6.17,2.33c2.15.69,4.38,1.28,6.63,1.81s4.53,1,6.77,1.49l-.36,3.89a84.34,84.34,0,0,1-14.48-1.47,45.39,45.39,0,0,1-7.29-2,21.74,21.74,0,0,1-3.72-1.79,10.74,10.74,0,0,1-3.69-3.47,7.69,7.69,0,0,1-.39-.69l-.17-.38-.13-.32-.33-.86-.65-1.71c-.41-1.15-.83-2.29-1.21-3.45-.77-2.3-1.47-4.62-2.07-7a126.41,126.41,0,0,1-3-14.2Z" style="fill:#b55b52"></path><polygon points="276.23 131.28 236.74 179.08 297.88 189.38 276.23 131.28" style="fill:#FE8024"></polygon><path d="M249,157l5.61-1.91.65,5.24s-5.12,2.74-7-1Z" style="fill:#b55b52"></path><polygon points="257.51 156.79 259.37 161.72 255.22 160.34 254.57 155.1 257.51 156.79" style="fill:#b55b52"></polygon><polygon points="178.63 317.29 185.72 317.81 187.83 301.53 180.74 301.01 178.63 317.29" style="fill:#b55b52"></polygon><polygon points="133.75 297.65 140.27 300.68 149 286.86 142.48 283.83 133.75 297.65" style="fill:#b55b52"></polygon><path d="M142,299.12l-6.41-4.93a.56.56,0,0,0-.75,0l-4.51,4.37a1.14,1.14,0,0,0,.15,1.69c2.27,1.68,3.45,2.38,6.27,4.54,1.73,1.33,4.14,3.46,6.53,5.3s4.29-.37,3.46-1.34c-3.76-4.37-3.48-6.2-4-8.59A2,2,0,0,0,142,299.12Z" style="fill:#263238"></path><path d="M186.17,316.8h-8a.58.58,0,0,0-.58.49l-1.07,6.31a1.1,1.1,0,0,0,1.1,1.26c2.78-.05,4.12-.21,7.63-.21,2.16,0,6.61.22,9.59.22s3.21-2.94,2-3.21c-5.53-1.2-7.68-2.85-9.51-4.42A1.83,1.83,0,0,0,186.17,316.8Z" style="fill:#263238"></path><polygon points="187.83 301.54 186.66 310.58 179.65 309.41 180.73 301.01 187.83 301.54" style="opacity:0.2"></polygon><polygon points="142.48 283.84 149 286.87 145.13 292.99 138.75 289.73 142.48 283.84" style="opacity:0.2"></polygon><path d="M179.16,153.51,207.61,159c13.44-39.57,10.22-40.85,10.22-40.85a58.77,58.77,0,0,0-6.45-3L211,115c-1.82-.66-2.2-.76-4.64-1.47-4.19-1-8.09-1.8-12.91-2.49-.31,0-.62-.1-.92-.13-.88-.11-1.75-.2-2.58-.28-.57-.07-1.13-.1-1.67-.14l-1.84-.1c-3.11-.15-5.33-.11-5.33-.11C182.73,135,181.54,142.1,179.16,153.51Z" style="fill:#FE8024"></path><path d="M212.08,130.22a24.07,24.07,0,0,0,.83,12.41c2.36-7.74,3.71-13,4.43-16.65C215.16,125.7,212.84,126.4,212.08,130.22Z" style="opacity:0.2"></path><path d="M217.59,118.05c4.74,3.09,7.77,10,8.57,13.93l-11,9s-6-13.39-4-16.81C213.17,120.57,215.8,116.87,217.59,118.05Z" style="fill:#FE8024"></path><path d="M201.5,87.65c-2.56,6.53-3.79,9.24-2.11,14.09,2.52,7.29,11.07,9.27,15.52,3.69,4-5,7.54-14.85,2.52-20.46A9.38,9.38,0,0,0,201.5,87.65Z" style="fill:#b55b52"></path><path d="M213.59,94.8a6.3,6.3,0,0,0,.24,3.82c.65,1.72,2,1.68,2.65.46s1-3.32-.07-4.68S214,93.4,213.59,94.8Z" style="fill:#b55b52"></path><path d="M202.31,76.5a8.78,8.78,0,0,0-9.23,5.14c-2.41,4.85-4.72,11.25-8.17,9.92.65,1,2.7,2.11,3.4,1.65-2.33,2.33-2.79,4.22-3.29,9-.62,5.91-3.89,4.61-3.89,4.61s3.82,6.19,16.33,8.38c11.12,2,16.27-.54,17.77-2.62-1.54-.5-3.94-6-1.83-9.12s5.76-11.75,5.16-15.21c1.35,2.14,1.42,5.54,2.55,2.12s1.64-7-2.55-11.25C214.83,75.29,203.94,73.42,202.31,76.5Z" style="fill:#263238"></path><path d="M200.1,157.57S186.24,204,179.47,230.7C172.33,258.89,148,292,148,292l-9-5s14.76-31.63,21.68-57.94c14-53.41,7.29-64.73,18.49-75.58Z" style="fill:#263238"></path><polygon points="148.84 292.88 137.66 286.64 139.29 283.34 152.48 289.41 148.84 292.88" style="fill:#FE8024"></polygon><path d="M193.59,167.45c-9.09,7-9.7,33.73-9.49,45.8,4.62-16.87,10.09-35.64,13.29-46.51C196.52,166,195.26,166.16,193.59,167.45Z" style="opacity:0.2"></path><path d="M144.74,302.07a1,1,0,0,1-.25.06c-.9.08-2.07-1.15-2.68-1.9a.17.17,0,0,1,0-.18A.15.15,0,0,1,142,300c.3,0,2.88.27,3.3,1.07a.56.56,0,0,1,0,.57A1,1,0,0,1,144.74,302.07Zm-2.4-1.73c.85,1,1.63,1.5,2.12,1.46a.61.61,0,0,0,.48-.36.25.25,0,0,0,0-.25C144.73,300.77,143.37,300.47,142.34,300.34Z" style="fill:#FE8024"></path><path d="M207.18,159s1.77,56.15-2.2,77.29c-4.12,22-16.69,72-16.69,72L178.07,307s6.46-50.55,9.21-72.4c3-23.83-.93-79.64-.93-79.64Z" style="fill:#263238"></path><polygon points="190.47 308.93 175.89 307.05 176.07 303.59 191.93 304.28 190.47 308.93" style="fill:#FE8024"></polygon><path d="M144.12,299.93a5,5,0,0,1-2.21.36.17.17,0,0,1-.13-.1.2.2,0,0,1,0-.17c.06-.06,1.28-1.64,2.3-1.71a.89.89,0,0,1,.73.26.58.58,0,0,1,.16.72A1.61,1.61,0,0,1,144.12,299.93Zm-1.85.05c.87,0,2.21-.4,2.42-.84,0-.07.06-.18-.1-.33a.57.57,0,0,0-.46-.17C143.52,298.68,142.71,299.48,142.27,300Z" style="fill:#FE8024"></path><path d="M188.8,318a12,12,0,0,1-2.23-.25.16.16,0,0,1-.13-.14.17.17,0,0,1,.09-.17c.33-.17,3.2-1.62,4.05-1.13a.49.49,0,0,1,.27.44.92.92,0,0,1-.32.82A2.68,2.68,0,0,1,188.8,318Zm-1.66-.49c1.56.26,2.73.19,3.17-.19a.66.66,0,0,0,.21-.54.22.22,0,0,0-.1-.18C190,316.38,188.32,317,187.14,317.55Z" style="fill:#FE8024"></path><path d="M186.61,317.79a.17.17,0,0,1-.1,0,.15.15,0,0,1-.07-.15c0-.13.34-3,1.93-3h.14c.46.05.59.28.62.47.13.8-1.59,2.33-2.45,2.72Zm1.77-2.87c-1,0-1.43,1.68-1.56,2.4.89-.52,2.05-1.73,2-2.21,0,0,0-.16-.33-.19Z" style="fill:#FE8024"></path><path d="M179,151.77l-1.7,2.29c-.13.17.07.42.4.48l29.83,5.78c.26.05.49,0,.53-.19l.68-2.48c.05-.18-.15-.37-.43-.42l-28.81-5.58A.53.53,0,0,0,179,151.77Z" style="fill:#FE8024"></path><path d="M179,151.77l-1.7,2.29c-.13.17.07.42.4.48l29.83,5.78c.26.05.49,0,.53-.19l.68-2.48c.05-.18-.15-.37-.43-.42l-28.81-5.58A.53.53,0,0,0,179,151.77Z" style="opacity:0.30000000000000004"></path><path d="M182.35,155.72l-.77-.14c-.15,0-.26-.14-.23-.23l.91-3.22c0-.09.17-.15.32-.12l.78.15c.15,0,.25.13.23.23l-.91,3.22C182.65,155.7,182.51,155.75,182.35,155.72Z" style="fill:#263238"></path><path d="M201.83,159.54l-.77-.15c-.15,0-.25-.13-.23-.22l.91-3.22c0-.09.17-.15.32-.12l.78.15c.15,0,.25.13.23.23l-.91,3.22C202.14,159.52,202,159.57,201.83,159.54Z" style="fill:#263238"></path><path d="M159.22,415.5h2.48l7.08-34.88,1.24-6.11,7.72-38h29.6l16,79h2.48l-16.35-80.45a1.2,1.2,0,0,0-1.19-1H176.75a1.2,1.2,0,0,0-1.19,1l-6.78,33.38-1.24,6.1Z" style="fill:#263238"></path><path d="M111.7,415.5h2.48l16-79h29.59l7.72,38,1.24,6.09,7.08,34.88h2.48l-8.32-41-1.24-6.08L162,335.05a1.2,1.2,0,0,0-1.19-1H129.24a1.2,1.2,0,0,0-1.19,1Z" style="fill:#263238"></path><path d="M211.82,324.87H125.74a7.44,7.44,0,0,0-7.45,7.45v.25a2.71,2.71,0,0,0,2.71,2.72h95.56a2.71,2.71,0,0,0,2.71-2.72v-.25A7.44,7.44,0,0,0,211.82,324.87Z" style="fill:#FE8024"></path></g><g id="freepik--character-1--inject-33"><path d="M374,212.35c2.11,3.89,4.06,7.78,5.93,11.76s3.62,8,5.25,12.15l.6,1.56.3.79.17.46.25.79a11.66,11.66,0,0,1,.18,5.27,24.75,24.75,0,0,1-2.67,7.34,46.43,46.43,0,0,1-3.74,5.92,52,52,0,0,1-4.41,5.27l-4.48-3.21a102.79,102.79,0,0,0,4.71-11.39,19.66,19.66,0,0,0,1.05-5.08c0-.66-.11-1.19-.19-1.17h0l-.13-.28-.35-.71-.69-1.42c-1.88-3.8-3.83-7.61-5.79-11.42l-5.83-11.45Z" style="fill:#ff8b7b"></path><path d="M372.2,259.48,368,261.8l6.31,5.4s2.62-2.59,2.17-5.71Z" style="fill:#ff8b7b"></path><polygon points="363.95 265.89 369.38 270.1 374.29 267.19 367.98 261.8 363.95 265.89" style="fill:#ff8b7b"></polygon><path d="M341.51,184.44c-.09.52-.43.9-.76.84s-.55-.51-.47-1,.42-.9.76-.84S341.59,183.92,341.51,184.44Z" style="fill:#263238"></path><path d="M341.13,185.34a18.54,18.54,0,0,1-3.17,4,3,3,0,0,0,2.41.85Z" style="fill:#ff5652"></path><path d="M343.84,181.86a.31.31,0,0,1-.22-.09,2.44,2.44,0,0,0-2.1-.73.31.31,0,0,1-.36-.24.3.3,0,0,1,.23-.36,3,3,0,0,1,2.67.9.3.3,0,0,1,0,.43A.31.31,0,0,1,343.84,181.86Z" style="fill:#263238"></path><path d="M358.79,190.15c-.93,4.76-1.86,13.47,1.47,16.64,0,0-1.3,4.83-10.14,4.83-9.72,0-4.64-4.83-4.64-4.83,5.3-1.26,5.16-5.2,4.24-8.89Z" style="fill:#ff8b7b"></path><path d="M365.51,211.62a3,3,0,0,1-.28-.85c-.86-4.63-4.48-8.27-9.17-8.45-5-.18-10.53.66-13.84,4.55-1.45,1.7.16,4.19.16,4.19Z" style="fill:#FE8024"></path><path d="M380.91,405.69l-.06,0a.62.62,0,0,1-.3-.67.7.7,0,0,1,.29-.53c.77-.59,2.91-.23,3-.21a.18.18,0,0,1,.13.11.16.16,0,0,1-.06.16C383.39,404.93,381.67,406,380.91,405.69Zm2.51-1.19a4.13,4.13,0,0,0-2.39.21.4.4,0,0,0-.18.31c0,.28.1.35.14.37C381.4,405.61,382.61,405.05,383.42,404.5Z" style="fill:#FE8024"></path><path d="M382.73,404.27c-.74-.29-1.53-.77-1.64-1.23a.5.5,0,0,1,.28-.57.83.83,0,0,1,.67-.1c.94.24,1.87,1.89,1.91,2a.14.14,0,0,1,0,.15.17.17,0,0,1-.14.08A4.18,4.18,0,0,1,382.73,404.27Zm-.66-1.57-.1,0a.55.55,0,0,0-.44.06c-.17.1-.15.19-.14.23.1.43,1.3,1.06,2.12,1.24A4.13,4.13,0,0,0,382.07,402.7Z" style="fill:#FE8024"></path><path d="M331.72,409.93c-.83,0-1.64-.11-1.91-.49a.59.59,0,0,1,0-.67.77.77,0,0,1,.49-.36c1.08-.29,3.36,1,3.45,1.06a.14.14,0,0,1,.08.15.15.15,0,0,1-.13.13A11.58,11.58,0,0,1,331.72,409.93Zm-1-1.26a1,1,0,0,0-.3,0,.49.49,0,0,0-.3.21c-.11.19-.07.29,0,.34.3.42,1.95.43,3.16.26A7,7,0,0,0,330.69,408.67Z" style="fill:#FE8024"></path><path d="M333.68,409.75h-.06c-.78-.35-2.34-1.76-2.22-2.49,0-.18.15-.39.57-.43a1.12,1.12,0,0,1,.86.26,4.4,4.4,0,0,1,1,2.51.15.15,0,0,1-.07.13A.12.12,0,0,1,333.68,409.75Zm-1.58-2.63H332c-.28,0-.3.14-.3.18-.08.44,1,1.54,1.78,2a3.52,3.52,0,0,0-.86-2A.78.78,0,0,0,332.1,407.12Z" style="fill:#FE8024"></path><polygon points="340.83 409.6 334.33 409.6 333.69 394.54 340.19 394.54 340.83 409.6" style="fill:#ff8b7b"></polygon><polygon points="390.91 402.82 384.82 404.21 377.71 389.78 383.8 388.38 390.91 402.82" style="fill:#ff8b7b"></polygon><path d="M383.94,403.52l6.64-3a.57.57,0,0,1,.69.17l3.58,4.72a1,1,0,0,1-.39,1.45c-2.33,1-3.52,1.4-6.44,2.74-1.79.82-8.14,5.3-10.81,5.87s-3.58-2-2.54-2.46a18.66,18.66,0,0,0,8.48-8.64A1.58,1.58,0,0,1,383.94,403.52Z" style="fill:#263238"></path><path d="M334.38,408.85h7.1a.57.57,0,0,1,.55.44l1.28,5.78a.94.94,0,0,1-.93,1.16c-2.56-.05-6.26-.2-9.48-.2-3.77,0-7,.21-11.43.21-2.67,0-3.41-2.7-2.29-2.94,5.08-1.12,9.23-1.24,13.63-3.95A3,3,0,0,1,334.38,408.85Z" style="fill:#263238"></path><path d="M362.31,219.3c.68,1.75,1.42,3.45,2.18,5,1.29,2.76,2.58,5.17,3.52,6.84.84,1.5,1.39,2.39,1.39,2.39l14.2-7s-5.72-16.45-11.7-18.28S359.24,211.46,362.31,219.3Z" style="fill:#263238"></path><path d="M368.6,220.93c-1.23.91-2.12,3.36-2.75,6.23.81,1.58,1.56,3,2.16,4,.84,1.5,1.38,2.39,1.38,2.39l1.63-.81A31.37,31.37,0,0,0,368.6,220.93Z" style="opacity:0.2"></path><path d="M332.28,229.79c0,2.21.05,4.65.18,7.33.32,7.29,1.11,16.38,2.64,27.67h34.77c.24-5.33-3.12-31.38,2-56.53a92,92,0,0,0-11.64-1.47,130,130,0,0,0-14.78,0,66.29,66.29,0,0,0-10,1.81S332.27,212.22,332.28,229.79Z" style="fill:#263238"></path><path d="M333.3,225.1c-.32.7-.66,1.41-1,2.17,0,.81,0,1.65,0,2.52,0,.35,0,.71,0,1.07,4.32-2.63,7.15-8.15,7.15-8.15Z" style="opacity:0.2"></path><path d="M342.74,220.37l-1,.62-.88.51c-.59.35-1.14.6-1.7.91-1.12.55-2.22,1.07-3.33,1.57-2.21,1-4.47,1.84-6.74,2.64a62.2,62.2,0,0,1-14.5,3.26c-.67,0-1.29.13-2,.12h-1.79l-.37,0a15.19,15.19,0,0,1-4.74-1.14,35.37,35.37,0,0,1-6.77-3.76,67.41,67.41,0,0,1-10.8-9.37l3.48-4.28c3.86,2.14,7.8,4.38,11.65,6.16a34.76,34.76,0,0,0,5.55,2.12,6.3,6.3,0,0,0,1.92.25l1.26-.12c.44,0,.94-.14,1.41-.2a64,64,0,0,0,11.93-3.47c2-.75,4-1.59,5.94-2.44,1-.44,1.93-.88,2.85-1.34l1.32-.69.61-.32.48-.28Z" style="fill:#ff8b7b"></path><path d="M292.81,212.8l-4.06-5.24-4.12,6.93s3.79,2.82,6.82,2.31Z" style="fill:#ff8b7b"></path><polygon points="282.68 205.43 280.52 211.15 284.63 214.49 288.75 207.56 282.68 205.43" style="fill:#ff8b7b"></polygon><path d="M348.61,218.92c-3.37,5.22-21.7,10.93-21.7,10.93l-7.06-14.52a72.6,72.6,0,0,1,15.56-6.8C347.11,205.33,352.66,212.65,348.61,218.92Z" style="fill:#263238"></path><polygon points="333.69 394.55 334.02 402.31 340.52 402.31 340.19 394.55 333.69 394.55" style="opacity:0.2"></polygon><polygon points="383.8 388.39 377.71 389.79 381.38 397.23 387.47 395.83 383.8 388.39" style="opacity:0.2"></polygon><path d="M359,186.05c-1.39,6.3-1.88,10.06-5.61,12.82-5.6,4.16-13,0-13.52-6.57-.47-5.94,1.88-15.24,8.5-16.8A8.8,8.8,0,0,1,359,186.05Z" style="fill:#ff8b7b"></path><path d="M364.79,170.61c5.53.15,7.54,9.34,5.89,12.08,0,0-1.77,1-3.92,4.37-3.26,5.14-7.42,10.7-12.3,10.37-6.06-.42-7-7.42-6.79-13.93-3.2-3-4.95-3.24-6.52-7.59C336.3,162.5,345.62,155.78,364.79,170.61Z" style="fill:#263238"></path><path d="M350.28,185.44a7.44,7.44,0,0,1-2,4.34c-1.51,1.55-3,.51-3.18-1.45-.17-1.76.41-4.68,2.21-5.5S350.46,183.47,350.28,185.44Z" style="fill:#ff8b7b"></path><path d="M347.43,264.79s-.75,46.27,5.06,64.41c9.21,28.73,25,67.38,25,67.38l11.88-3s-13.09-39.18-17.34-63.38c-3.82-21.74-2.2-47.62-2.2-65.38Z" style="fill:#FE8024"></path><path d="M353.92,272.74c1.23,8.34-3.12,31.55-4.62,39.15-1.58-14.21-1.87-31.07-1.89-40.27C350.59,269.46,353.35,268.9,353.92,272.74Z" style="opacity:0.2"></path><path d="M374.35,393.08c-.05,0,2.91,3.76,2.91,3.76l13-3.31-1.44-4.41Z" style="fill:#FE8024"></path><path d="M374.35,393.08c-.05,0,2.91,3.76,2.91,3.76l13-3.31-1.44-4.41Z" style="fill:#fff;opacity:0.2"></path><path d="M335.09,264.79s-9.79,41.51-10.48,61.34c-.77,22.23,7,74.68,7,74.68h11S344,348,344.46,327.7C345,305.62,358,264.79,358,264.79Z" style="fill:#FE8024"></path><path d="M329.48,396.42c-.05,0,.62,4.57.62,4.57h13.4l.36-4.08Z" style="fill:#FE8024"></path><path d="M329.48,396.42c-.05,0,.62,4.57.62,4.57h13.4l.36-4.08Z" style="fill:#fff;opacity:0.2"></path></g></svg>