<svg xmlns="http://www.w3.org/2000/svg" viewBox="0 0 500 500"><g id="freepik--background-simple--inject-13"><path d="M436.94,419.9H65S53.19,400,45,360s30.84-25.4,40.82-59.88-33.56-27.21-29.93-74.39,63.5-48.08,92.53-41.73,25.4-15.42,59-51.71,84.37-32.66,109.77-4.53,17.23,57.15,49,57.15S427,191.29,446,252.07s-15.77,88.56-15.14,116A300.58,300.58,0,0,0,436.94,419.9Z" style="fill:#FE8024"></path><path d="M436.94,419.9H65S53.19,400,45,360s30.84-25.4,40.82-59.88-33.56-27.21-29.93-74.39,63.5-48.08,92.53-41.73,25.4-15.42,59-51.71,84.37-32.66,109.77-4.53,17.23,57.15,49,57.15S427,191.29,446,252.07s-15.77,88.56-15.14,116A300.58,300.58,0,0,0,436.94,419.9Z" style="fill:#fff;opacity:0.7000000000000001"></path></g><g id="freepik--Bulb--inject-13"><path d="M215.41,419.9c-9.11-13.87-48-72.19-59.38-73.75-11.09-1.52-50.5,57.45-61.16,73.75Z" style="fill:#2e353a;stroke:#2e353a;stroke-linecap:round;stroke-linejoin:round"></path><line x1="265.28" y1="79.13" x2="265.28" y2="213.62" style="fill:none;stroke:#2e353a;stroke-linecap:round;stroke-linejoin:round;stroke-width:3px"></line><line x1="281.26" y1="82.74" x2="281.26" y2="213.62" style="fill:none;stroke:#2e353a;stroke-linecap:round;stroke-linejoin:round;stroke-width:3px"></line><line x1="298.78" y1="154.36" x2="298.78" y2="281.13" style="fill:none;stroke:#2e353a;stroke-linecap:round;stroke-linejoin:round;stroke-width:3px"></line><line x1="317.33" y1="82.74" x2="317.33" y2="281.13" style="fill:none;stroke:#2e353a;stroke-linecap:round;stroke-linejoin:round;stroke-width:3px"></line><line x1="335.88" y1="82.74" x2="335.88" y2="217.23" style="fill:none;stroke:#2e353a;stroke-linecap:round;stroke-linejoin:round;stroke-width:3px"></line><line x1="251.37" y1="97.16" x2="336.4" y2="97.16" style="fill:none;stroke:#2e353a;stroke-linecap:round;stroke-linejoin:round;stroke-width:3px"></line><line x1="251.37" y1="127.05" x2="343.58" y2="127.05" style="fill:none;stroke:#2e353a;stroke-linecap:round;stroke-linejoin:round;stroke-width:3px"></line><line x1="249.83" y1="154.36" x2="352.37" y2="154.36" style="fill:none;stroke:#2e353a;stroke-linecap:round;stroke-linejoin:round;stroke-width:3px"></line><line x1="248.28" y1="184.77" x2="352.37" y2="184.77" style="fill:none;stroke:#2e353a;stroke-linecap:round;stroke-linejoin:round;stroke-width:3px"></line><line x1="267.86" y1="217.74" x2="346.7" y2="217.74" style="fill:none;stroke:#2e353a;stroke-linecap:round;stroke-linejoin:round;stroke-width:3px"></line><line x1="288.47" y1="249.69" x2="340" y2="249.69" style="fill:none;stroke:#2e353a;stroke-linecap:round;stroke-linejoin:round;stroke-width:3px"></line><line x1="152.81" y1="91.9" x2="171" y2="106.14" style="fill:none;stroke:#2e353a;stroke-linecap:round;stroke-linejoin:round;stroke-width:2px"></line><line x1="189.19" y1="76.88" x2="195.52" y2="86.37" style="fill:none;stroke:#2e353a;stroke-linecap:round;stroke-linejoin:round;stroke-width:2px"></line><line x1="221.62" y1="53.94" x2="227.16" y2="71.34" style="fill:none;stroke:#2e353a;stroke-linecap:round;stroke-linejoin:round;stroke-width:2px"></line><path d="M325.4,277.54h-30V206.21H254.7V79.88a100,100,0,0,0-87.42,146.73c3.26,7.59,10.92,26.18,18.59,50.22,7.09,22.19,10.79,44.5,10.79,47.87,0,.33,0,.67,0,1a7.48,7.48,0,0,0,7.47,7.74H307.38a7.49,7.49,0,0,0,7.47-7.74c0-.36,0-.7,0-1C314.83,321.37,318.46,299.49,325.4,277.54Z" style="fill:#FE8024;stroke:#2e353a;stroke-linecap:round;stroke-linejoin:round;stroke-width:2px"></path><path d="M220.81,96a80.31,80.31,0,0,1,8.89-3.39" style="fill:none;stroke:#2e353a;stroke-linecap:round;stroke-linejoin:round;stroke-width:2px"></path><path d="M187.51,121.34s8.15-13,26.06-21.75" style="fill:none;stroke:#2e353a;stroke-linecap:round;stroke-linejoin:round;stroke-width:2px"></path><path d="M189.65,265.26c3.71,12.12,8.62,28.91,10.32,38.29,2.88,15.82,1,24,7.2,25.41" style="fill:none;stroke:#2e353a;stroke-linecap:round;stroke-linejoin:round;stroke-width:2px"></path><path d="M185.11,250.8s1,3.25,2.61,8.23" style="fill:none;stroke:#2e353a;stroke-linecap:round;stroke-linejoin:round;stroke-width:2px"></path><path d="M249.42,332.47v-95.6s4-25-9-25-12,13,3,27,38,1,41-10-5-16-10-7,0,111,0,111" style="fill:none;stroke:#2e353a;stroke-linecap:round;stroke-linejoin:round;stroke-width:2px"></path><rect x="202.08" y="332.86" width="107.91" height="25.04" style="fill:#fff;stroke:#2e353a;stroke-linecap:round;stroke-linejoin:round;stroke-width:2px"></rect><rect x="202.08" y="363.86" width="107.91" height="25.04" style="fill:#fff;stroke:#2e353a;stroke-linecap:round;stroke-linejoin:round;stroke-width:2px"></rect><rect x="202.08" y="357.9" width="107.91" height="5.96" style="fill:#2e353a;stroke:#2e353a;stroke-linecap:round;stroke-linejoin:round"></rect><rect x="202.08" y="394.86" width="107.91" height="25.04" style="fill:#fff;stroke:#2e353a;stroke-linecap:round;stroke-linejoin:round;stroke-width:2px"></rect><line x1="298.7" y1="354.55" x2="306.72" y2="354.55" style="fill:none;stroke:#2e353a;stroke-linecap:round;stroke-linejoin:round"></line><line x1="206.32" y1="354.55" x2="294.84" y2="354.55" style="fill:none;stroke:#2e353a;stroke-linecap:round;stroke-linejoin:round"></line><line x1="277.9" y1="386.04" x2="303.75" y2="386.04" style="fill:none;stroke:#2e353a;stroke-linecap:round;stroke-linejoin:round"></line><line x1="222.34" y1="386.04" x2="274.93" y2="386.04" style="fill:none;stroke:#2e353a;stroke-linecap:round;stroke-linejoin:round"></line><line x1="213.73" y1="386.04" x2="218.18" y2="386.04" style="fill:none;stroke:#2e353a;stroke-linecap:round;stroke-linejoin:round"></line><rect x="202.08" y="388.9" width="107.91" height="5.96" style="fill:#2e353a;stroke:#2e353a;stroke-linecap:round;stroke-linejoin:round"></rect><rect x="216.13" y="400.35" width="36.94" height="19.23" style="fill:#FE8024;stroke:#2e353a;stroke-linecap:round;stroke-linejoin:round"></rect><rect x="264.2" y="400.35" width="36.94" height="19.23" style="fill:#FE8024;stroke:#2e353a;stroke-linecap:round;stroke-linejoin:round"></rect></g><g id="freepik--Ground--inject-13"><path d="M334.37,419.9c-7.08-6.21-37.31-32.32-46.11-33-8.62-.69-39.22,25.72-47.5,33Z" style="fill:#2e353a;stroke:#2e353a;stroke-linecap:round;stroke-linejoin:round"></path><line x1="451.08" y1="419.9" x2="459.76" y2="419.9" style="fill:#fff;stroke:#2e353a;stroke-linecap:round;stroke-linejoin:round"></line><line x1="53.74" y1="419.9" x2="442.4" y2="419.9" style="fill:#fff;stroke:#2e353a;stroke-linecap:round;stroke-linejoin:round"></line><line x1="40.24" y1="419.9" x2="46.99" y2="419.9" style="fill:#fff;stroke:#2e353a;stroke-linecap:round;stroke-linejoin:round"></line></g><g id="freepik--Trucks--inject-13"><polygon points="433.61 362.83 407.66 362.83 407.66 399.23 418.41 399.23 433.61 399.23 444.37 399.23 444.37 381.03 433.61 362.83" style="fill:#2e353a;stroke:#2e353a;stroke-linecap:round;stroke-linejoin:round"></polygon><rect x="432.48" y="399.23" width="11.89" height="8.27" style="fill:#fff;stroke:#2e353a;stroke-linecap:round;stroke-linejoin:round"></rect><path d="M388.37,398.82s13-7,8.5-42l-16.5-9-28.5-4.5-25.5,1v14.5s14.5,12.5,16,16.5a27.72,27.72,0,0,1,1.5,8.5v14Z" style="fill:#FE8024;stroke:#2e353a;stroke-linecap:round;stroke-linejoin:round"></path><line x1="396.87" y1="356.82" x2="388.37" y2="398.82" style="fill:none;stroke:#2e353a;stroke-linecap:round;stroke-linejoin:round"></line><line x1="380.37" y1="347.82" x2="370.87" y2="398.82" style="fill:none;stroke:#2e353a;stroke-linecap:round;stroke-linejoin:round"></line><line x1="351.87" y1="343.32" x2="344.87" y2="381.32" style="fill:none;stroke:#2e353a;stroke-linecap:round;stroke-linejoin:round"></line><path d="M327.37,356.82s16.5,7,23,11.5,5.5,14,5.5,14" style="fill:none;stroke:#2e353a;stroke-linecap:round;stroke-linejoin:round"></path><rect x="330.36" y="399.49" width="77.53" height="6.5" style="fill:#fff;stroke:#2e353a;stroke-linecap:round;stroke-linejoin:round"></rect><polygon points="423.37 382.82 439.56 382.82 430.87 367.82 423.37 367.82 423.37 382.82" style="fill:#fff;stroke:#2e353a;stroke-linecap:round;stroke-linejoin:round"></polygon><rect x="413.87" y="367.82" width="7" height="15" style="fill:#fff;stroke:#2e353a;stroke-linecap:round;stroke-linejoin:round"></rect><rect x="330.77" y="399.23" width="47.2" height="11.27" style="fill:#fff;stroke:#2e353a;stroke-linecap:round;stroke-linejoin:round"></rect><circle cx="420.9" cy="409.98" r="9.93" transform="translate(-66.16 81.32) rotate(-10.24)" style="fill:#2e353a;stroke:#2e353a;stroke-linecap:round;stroke-linejoin:round"></circle><circle cx="420.9" cy="409.98" r="5.79" style="fill:#fff;stroke:#2e353a;stroke-linecap:round;stroke-linejoin:round"></circle><circle cx="344.4" cy="409.98" r="9.93" transform="translate(-66.18 66.3) rotate(-10.04)" style="fill:#2e353a;stroke:#2e353a;stroke-linecap:round;stroke-linejoin:round"></circle><circle cx="344.4" cy="409.98" r="5.79" style="fill:#fff;stroke:#2e353a;stroke-linecap:round;stroke-linejoin:round"></circle><circle cx="368.37" cy="409.98" r="9.93" transform="translate(-180.25 357.11) rotate(-42.56)" style="fill:#2e353a;stroke:#2e353a;stroke-linecap:round;stroke-linejoin:round"></circle><circle cx="368.37" cy="409.98" r="5.79" style="fill:#fff;stroke:#2e353a;stroke-linecap:round;stroke-linejoin:round"></circle><rect x="336.87" y="381.82" width="31.5" height="17" rx="3.25" style="fill:#2e353a;stroke:#2e353a;stroke-linecap:round;stroke-linejoin:round"></rect><polyline points="324.37 398.82 324.37 349.37 334.37 349.37 334.37 398.82" style="fill:none;stroke:#2e353a;stroke-linecap:round;stroke-linejoin:round"></polyline><line x1="324.44" y1="355.92" x2="334.26" y2="355.92" style="fill:none;stroke:#2e353a;stroke-linecap:round;stroke-linejoin:round"></line><line x1="324.44" y1="363.64" x2="334.26" y2="363.64" style="fill:none;stroke:#2e353a;stroke-linecap:round;stroke-linejoin:round"></line><line x1="324.44" y1="371.36" x2="334.26" y2="371.36" style="fill:none;stroke:#2e353a;stroke-linecap:round;stroke-linejoin:round"></line><line x1="324.44" y1="379.09" x2="334.26" y2="379.09" style="fill:none;stroke:#2e353a;stroke-linecap:round;stroke-linejoin:round"></line><line x1="324.44" y1="386.81" x2="334.26" y2="386.81" style="fill:none;stroke:#2e353a;stroke-linecap:round;stroke-linejoin:round"></line><line x1="324.44" y1="394.53" x2="334.26" y2="394.53" style="fill:none;stroke:#2e353a;stroke-linecap:round;stroke-linejoin:round"></line><polygon points="124.36 420.87 106.36 420.87 106.36 106.87 124.36 127.8 124.36 420.87" style="fill:none;stroke:#2e353a;stroke-linecap:round;stroke-linejoin:round"></polygon><polygon points="106.54 354.87 124.19 354.87 106.54 337.8 124.19 337.8 106.54 354.87" style="fill:none;stroke:#2e353a;stroke-linecap:round;stroke-linejoin:round"></polygon><polygon points="106.54 337.37 124.19 337.37 106.54 320.3 124.19 320.3 106.54 337.37" style="fill:none;stroke:#2e353a;stroke-linecap:round;stroke-linejoin:round"></polygon><polygon points="106.54 319.87 124.19 319.87 106.54 302.8 124.19 302.8 106.54 319.87" style="fill:none;stroke:#2e353a;stroke-linecap:round;stroke-linejoin:round"></polygon><polygon points="106.54 302.37 124.19 302.37 106.54 285.3 124.19 285.3 106.54 302.37" style="fill:none;stroke:#2e353a;stroke-linecap:round;stroke-linejoin:round"></polygon><polygon points="106.54 284.87 124.19 284.87 106.54 267.8 124.19 267.8 106.54 284.87" style="fill:none;stroke:#2e353a;stroke-linecap:round;stroke-linejoin:round"></polygon><polygon points="106.54 267.37 124.19 267.37 106.54 250.3 124.19 250.3 106.54 267.37" style="fill:none;stroke:#2e353a;stroke-linecap:round;stroke-linejoin:round"></polygon><polygon points="106.54 249.87 124.19 249.87 106.54 232.8 124.19 232.8 106.54 249.87" style="fill:none;stroke:#2e353a;stroke-linecap:round;stroke-linejoin:round"></polygon><polygon points="106.54 232.37 124.19 232.37 106.54 215.3 124.19 215.3 106.54 232.37" style="fill:none;stroke:#2e353a;stroke-linecap:round;stroke-linejoin:round"></polygon><polygon points="106.54 214.87 124.19 214.87 106.54 197.8 124.19 197.8 106.54 214.87" style="fill:none;stroke:#2e353a;stroke-linecap:round;stroke-linejoin:round"></polygon><polygon points="106.54 197.37 124.19 197.37 106.54 180.3 124.19 180.3 106.54 197.37" style="fill:none;stroke:#2e353a;stroke-linecap:round;stroke-linejoin:round"></polygon><polygon points="106.54 179.87 124.19 179.87 106.54 162.8 124.19 162.8 106.54 179.87" style="fill:none;stroke:#2e353a;stroke-linecap:round;stroke-linejoin:round"></polygon><polygon points="106.54 162.37 124.19 162.37 106.54 145.3 124.19 145.3 106.54 162.37" style="fill:none;stroke:#2e353a;stroke-linecap:round;stroke-linejoin:round"></polygon><polygon points="106.54 144.87 124.19 144.87 106.54 127.8 124.19 127.8 106.54 144.87" style="fill:none;stroke:#2e353a;stroke-linecap:round;stroke-linejoin:round"></polygon><polygon points="207.93 145.34 199.21 139.85 136.98 139.85 129.38 145.34 207.93 145.34" style="fill:none;stroke:#2e353a;stroke-linecap:round;stroke-linejoin:round"></polygon><rect x="57.37" y="144.87" width="152" height="4" style="fill:#2e353a;stroke:#2e353a;stroke-linecap:round;stroke-linejoin:round"></rect><polyline points="199.21 139.85 106.36 106.87 136.98 139.85" style="fill:none;stroke:#2e353a;stroke-linecap:round;stroke-linejoin:round"></polyline><line x1="106.37" y1="106.87" x2="57.37" y2="144.87" style="fill:none;stroke:#2e353a;stroke-linecap:round;stroke-linejoin:round"></line><rect x="99.87" y="153.37" width="37.5" height="24" style="fill:#2e353a;stroke:#2e353a;stroke-linecap:round;stroke-linejoin:round"></rect><rect x="107.68" y="158.37" width="21.87" height="7" style="fill:#fff;stroke:#2e353a;stroke-linecap:round;stroke-linejoin:round"></rect><line x1="209.37" y1="148.87" x2="209.37" y2="191.99" style="fill:#fff;stroke:#2e353a;stroke-linecap:round;stroke-linejoin:round"></line><rect x="203.96" y="206.72" width="11.11" height="12.59" style="fill:#2e353a;stroke:#2e353a;stroke-linecap:round;stroke-linejoin:round"></rect><polyline points="203.96 206.72 209.52 191.17 215.08 206.72" style="fill:none;stroke:#2e353a;stroke-linecap:round;stroke-linejoin:round"></polyline><path d="M179.4,358.65l24,37.94,6-4.39-17.66-35.32a9.55,9.55,0,0,0-8.55-5.28h0A4.59,4.59,0,0,0,179.4,358.65Z" style="fill:#FE8024;stroke:#2e353a;stroke-linecap:round;stroke-linejoin:round"></path><path d="M207.29,387.26,182.6,404.82s2.2,9.32,16.46,8.77,13.72-15.36,13.72-15.36Z" style="fill:#2e353a;stroke:#fff;stroke-linecap:round;stroke-linejoin:round"></path><path d="M138.71,375.74l44.72-20.15a7.08,7.08,0,0,1,8.6,2.25h0a7.07,7.07,0,0,1-1.64,10l-48.93,34.25Z" style="fill:#FE8024;stroke:#2e353a;stroke-linecap:round;stroke-linejoin:round"></path><rect x="86.04" y="400.43" width="46.09" height="7.13" style="fill:#fff;stroke:#2e353a;stroke-linecap:round;stroke-linejoin:round"></rect><rect x="69.58" y="380.13" width="40.05" height="16.46" style="fill:#2e353a;stroke:#2e353a;stroke-linecap:round;stroke-linejoin:round"></rect><path d="M104.42,361.47h34a3,3,0,0,1,3,3v32.1a0,0,0,0,1,0,0H101.41a0,0,0,0,1,0,0v-32.1A3,3,0,0,1,104.42,361.47Z" style="fill:#FE8024;stroke:#2e353a;stroke-linecap:round;stroke-linejoin:round"></path><path d="M69.17,419.9h65.57a7.81,7.81,0,0,0,7.81-7.81h0a7.82,7.82,0,0,0-7.81-7.82H69.17a7.82,7.82,0,0,0-7.81,7.82h0A7.81,7.81,0,0,0,69.17,419.9Z" style="fill:#2e353a;stroke:#2e353a;stroke-linecap:round;stroke-linejoin:round"></path><path d="M79.05,419.9h65.56a7.82,7.82,0,0,0,7.82-7.81h0a7.82,7.82,0,0,0-7.82-7.82H79.05a7.82,7.82,0,0,0-7.82,7.82h0A7.82,7.82,0,0,0,79.05,419.9Z" style="fill:#fff;stroke:#2e353a;stroke-linecap:round;stroke-linejoin:round"></path><rect x="69.58" y="396.59" width="71.87" height="5.49" style="fill:#fff;stroke:#2e353a;stroke-linecap:round;stroke-linejoin:round"></rect><path d="M84.4,412.09a4.94,4.94,0,1,1-4.94-4.94A4.94,4.94,0,0,1,84.4,412.09Z" style="fill:#2e353a;stroke:#2e353a;stroke-linecap:round;stroke-linejoin:round"></path><circle cx="92.63" cy="412.09" r="4.94" style="fill:#2e353a;stroke:#2e353a;stroke-linecap:round;stroke-linejoin:round"></circle><circle cx="105.79" cy="412.09" r="4.94" style="fill:#2e353a;stroke:#2e353a;stroke-linecap:round;stroke-linejoin:round"></circle><path d="M123.9,412.09a4.94,4.94,0,1,1-4.94-4.94A4.94,4.94,0,0,1,123.9,412.09Z" style="fill:#2e353a;stroke:#2e353a;stroke-linecap:round;stroke-linejoin:round"></path><path d="M137.07,412.09a4.94,4.94,0,1,1-4.94-4.94A4.94,4.94,0,0,1,137.07,412.09Z" style="fill:#2e353a;stroke:#2e353a;stroke-linecap:round;stroke-linejoin:round"></path><path d="M150.23,412.09a4.94,4.94,0,1,1-4.93-4.94A4.93,4.93,0,0,1,150.23,412.09Z" style="fill:#2e353a;stroke:#2e353a;stroke-linecap:round;stroke-linejoin:round"></path><path d="M188.64,361.47a2.75,2.75,0,1,0-2.74,2.75A2.74,2.74,0,0,0,188.64,361.47Z" style="fill:#2e353a;stroke:#2e353a;stroke-linecap:round;stroke-linejoin:round"></path><rect x="106.34" y="365.86" width="29.08" height="17.56" style="fill:#fff;stroke:#2e353a;stroke-linecap:round;stroke-linejoin:round"></rect><rect x="119.51" y="365.86" width="15.91" height="17.56" style="fill:#fff;stroke:#2e353a;stroke-linecap:round;stroke-linejoin:round"></rect></g></svg>