<svg xmlns="http://www.w3.org/2000/svg" viewBox="0 0 500 500"><g id="freepik--background-complete--inject-4"><rect y="382.4" width="500" height="0.25" style="fill:#e0e0e0"></rect><rect x="385.33" y="390" width="10.48" height="0.25" style="fill:#e0e0e0"></rect><rect x="405.33" y="395" width="40.25" height="0.25" style="fill:#e0e0e0"></rect><rect x="268.17" y="394.26" width="12.04" height="0.25" style="fill:#e0e0e0"></rect><rect x="198.27" y="394.26" width="64.14" height="0.25" style="fill:#e0e0e0"></rect><rect x="88.11" y="392.68" width="51.56" height="0.25" style="fill:#e0e0e0"></rect><rect x="320.57" y="388.56" width="41.29" height="0.25" style="fill:#e0e0e0"></rect><rect x="64.93" y="392.56" width="14.31" height="0.25" style="fill:#e0e0e0"></rect><path d="M237,337.8H43.91a5.71,5.71,0,0,1-5.7-5.71V60.66A5.71,5.71,0,0,1,43.91,55H237a5.71,5.71,0,0,1,5.71,5.71V332.09A5.71,5.71,0,0,1,237,337.8ZM43.91,55.2a5.46,5.46,0,0,0-5.45,5.46V332.09a5.46,5.46,0,0,0,5.45,5.46H237a5.47,5.47,0,0,0,5.46-5.46V60.66A5.47,5.47,0,0,0,237,55.2Z" style="fill:#e0e0e0"></path><path d="M453.31,337.8H260.21a5.72,5.72,0,0,1-5.71-5.71V60.66A5.72,5.72,0,0,1,260.21,55h193.1A5.71,5.71,0,0,1,459,60.66V332.09A5.71,5.71,0,0,1,453.31,337.8ZM260.21,55.2a5.47,5.47,0,0,0-5.46,5.46V332.09a5.47,5.47,0,0,0,5.46,5.46h193.1a5.47,5.47,0,0,0,5.46-5.46V60.66a5.47,5.47,0,0,0-5.46-5.46Z" style="fill:#e0e0e0"></path><rect x="328.43" y="92.95" width="86.67" height="99.74" style="fill:#e0e0e0"></rect><rect x="331.11" y="92.95" width="93.83" height="99.74" style="fill:#f0f0f0"></rect><rect x="336.01" y="103.77" width="84.02" height="78.11" transform="translate(520.85 -235.2) rotate(90)" style="fill:#fafafa"></rect><circle cx="378.02" cy="142.82" r="24.37" transform="translate(-17.9 61.91) rotate(-9.15)" style="fill:#f0f0f0"></circle><rect x="410.24" y="295.16" width="21.99" height="87.23" style="fill:#e0e0e0"></rect><polygon points="428.06 382.4 432.23 382.4 432.23 370.52 423.68 370.52 428.06 382.4" style="fill:#ebebeb"></polygon><rect x="313.89" y="295.16" width="21.99" height="87.23" style="fill:#e0e0e0"></rect><rect x="332.23" y="295.16" width="100" height="79.94" style="fill:#ebebeb"></rect><path d="M429,298.71H335.47v21.92H429V298.71Z" style="fill:#f5f5f5"></path><polygon points="336.41 382.4 332.23 382.4 332.23 370.52 340.79 370.52 336.41 382.4" style="fill:#ebebeb"></polygon><path d="M380,309.67a2.21,2.21,0,1,0,2.21-2.21A2.21,2.21,0,0,0,380,309.67Z" style="fill:#e0e0e0"></path><path d="M429,324.17H335.47V346.1H429V324.17Z" style="fill:#f5f5f5"></path><path d="M380,335.14a2.21,2.21,0,1,0,2.21-2.22A2.21,2.21,0,0,0,380,335.14Z" style="fill:#e0e0e0"></path><path d="M429,349.64H335.47v21.92H429V349.64Z" style="fill:#f5f5f5"></path><path d="M380,360.6a2.21,2.21,0,1,0,2.21-2.21A2.21,2.21,0,0,0,380,360.6Z" style="fill:#e0e0e0"></path><path d="M253.87,272.22c5.24,4.27,12.47,12.11,19.1,23.12,4.42,7.34,7.08,15,8.24,25.19,0-11.5-.06-23.86-.1-35.52-1.33-3-4.37-9.91-6.55-15.38-7.28-18.23-10-22.71-16.53-38.44-8.73-21-17.68-45.86-15.11-43.87,5.21,4.06,25.22,41.51,27.38,46.87A150.31,150.31,0,0,1,281.09,279c0-11-.08-21-.12-28.77-.14-25.31-.57-33.47-.78-36-.81-1.28-1.76-2.77-2.32-3.58-4.7-6.79-6.51-12.58-10.94-22.71-6.27-14.36-11.67-39.85-10.09-38.56,6.57,5.35,11.76,16.86,18.58,31.53s4.86,23.09,6.22,35.62c.28,2.46.5,11.73.65,24.59,1.77-13.7,5.09-22.72,11.14-30.93,7.44-10.08,14.64-16.9,19.92-20.45s-9.12,21.22-16,32c-6.13,9.63-11.78,18.13-15,26.5.17,17.42.25,39.48.25,60,1.58-9.35,4.16-19.41,7.6-27.2,4.14-9.37,10.5-23.73,15.57-28.6,1.21-1.17-5.3,26.76-9.48,34.19s-7.25,14.43-9.88,18.64c-.61,1-2.65,4.77-3.81,6.94,0,25.07-.14,47.2-.36,54.73h-1.08c.07-2,.08-14.7.06-31.58-2.61-9.16-8.57-19.62-13.49-29.16C262.37,295.88,248.63,267.94,253.87,272.22Z" style="fill:#e0e0e0"></path><polygon points="266.04 382.4 297.38 382.4 299.75 351.68 263.67 351.68 266.04 382.4" style="fill:#ebebeb"></polygon><polygon points="261.34 355.25 302.08 355.25 303.25 344.89 260.17 344.89 261.34 355.25" style="fill:#ebebeb"></polygon><rect x="75.44" y="90.38" width="56.05" height="61.55" style="fill:#e0e0e0"></rect><rect x="79.67" y="90.38" width="57.9" height="61.55" style="fill:#f0f0f0"></rect><rect x="82.69" y="97.06" width="51.85" height="48.2" transform="translate(229.77 12.54) rotate(90)" style="fill:#fafafa"></rect><rect x="95.26" y="108.74" width="26.71" height="24.83" transform="translate(229.77 12.54) rotate(90)" style="fill:#f0f0f0"></rect><rect x="148.14" y="127.08" width="41.58" height="45.66" style="fill:#e0e0e0"></rect><rect x="151.28" y="127.08" width="42.95" height="45.66" style="fill:#f0f0f0"></rect><rect x="153.52" y="132.03" width="38.46" height="35.75" transform="translate(322.66 -22.84) rotate(90)" style="fill:#fafafa"></rect><polygon points="172.75 140.19 162.97 157.12 182.53 157.12 172.75 140.19" style="fill:#f0f0f0"></polygon><rect x="71.54" y="264.57" width="27.32" height="112.52" style="fill:#ebebeb"></rect><rect x="76.78" y="377.09" width="189.82" height="5.31" style="fill:#ebebeb"></rect><rect x="98.86" y="264.57" width="173" height="112.52" transform="translate(370.71 641.66) rotate(180)" style="fill:#f5f5f5"></rect><rect x="109.6" y="307.09" width="151.52" height="27.48" transform="translate(370.71 641.66) rotate(180)" style="fill:#ebebeb"></rect><rect x="109.6" y="339.58" width="151.52" height="27.48" transform="translate(370.71 706.65) rotate(180)" style="fill:#ebebeb"></rect><path d="M224.51,310.1H146.2a1.89,1.89,0,0,1-1.89-1.88h0a1.89,1.89,0,0,1,1.89-1.89h78.31a1.89,1.89,0,0,1,1.88,1.89h0A1.88,1.88,0,0,1,224.51,310.1Z" style="fill:#f5f5f5"></path><rect x="109.6" y="274.6" width="151.52" height="27.48" transform="translate(370.71 576.67) rotate(180)" style="fill:#ebebeb"></rect><path d="M224.51,277.61H146.2a1.89,1.89,0,0,1-1.89-1.89h0a1.89,1.89,0,0,1,1.89-1.88h78.31a1.88,1.88,0,0,1,1.88,1.88h0A1.89,1.89,0,0,1,224.51,277.61Z" style="fill:#f5f5f5"></path><path d="M224.51,342.6H146.2a1.89,1.89,0,0,1-1.89-1.89h0a1.89,1.89,0,0,1,1.89-1.88h78.31a1.88,1.88,0,0,1,1.88,1.88h0A1.89,1.89,0,0,1,224.51,342.6Z" style="fill:#f5f5f5"></path><rect x="98.86" y="255.33" width="176.64" height="9.24" style="fill:#ebebeb"></rect><rect x="67.72" y="255.33" width="31.14" height="9.24" transform="translate(166.58 519.91) rotate(180)" style="fill:#e0e0e0"></rect></g><g id="freepik--Shadow--inject-4"><ellipse cx="250" cy="416.24" rx="193.89" ry="11.32" style="fill:#f5f5f5"></ellipse></g><g id="freepik--Picture--inject-4"><rect x="293.56" y="101.49" width="1" height="6.67" transform="translate(-4.17 12.54) rotate(-2.43)" style="fill:#F96416"></rect><rect x="293.56" y="101.49" width="1" height="6.67" transform="translate(-4.17 12.54) rotate(-2.43)" style="opacity:0.30000000000000004"></rect><rect x="292.86" y="81.2" width="1" height="14.47" transform="translate(-3.48 12.49) rotate(-2.43)" style="fill:#F96416"></rect><rect x="292.86" y="81.2" width="1" height="14.47" transform="translate(-3.48 12.49) rotate(-2.43)" style="opacity:0.30000000000000004"></rect><polygon points="46.33 82.83 54.44 274.46 64.98 325.85 300 315.89 289.69 72.52 46.33 82.83" style="fill:#F96416"></polygon><polygon points="46.33 82.83 54.44 274.46 64.98 325.85 300 315.89 289.69 72.52 46.33 82.83" style="opacity:0.30000000000000004"></polygon><path d="M291.56,307.88h0l-.46-10.79h0l-.46-10.79h0l-.45-10.79h0l-.46-10.79h0l-.46-10.79h0l-.46-10.79h0l-.45-10.78h0l-.46-10.79h0l-.46-10.79h0L287,199.94h0l-.23-5.4-.23-5.39h0l-.46-10.79h0l-.46-10.79h0l-.45-10.79h0L284.7,146h0l-.46-10.79h0l-.46-10.79h0l-.45-10.79h0l-.46-10.79h0L282.41,92h0L282,81.2h0a.25.25,0,0,0-.25-.24h0l-10.79.46h0l-10.79.45h0l-10.8.46h0L55,90.56a.37.37,0,0,0-.18.08.28.28,0,0,0-.06.18l4.8,113.35,4,93.51-9.09-23.21L65,325.85l4.08-8.29,6.37-.27h0l10.79-.46h0L97,316.38h0l10.79-.46h0l10.79-.46h0l10.78-.45h0l10.79-.46h0l10.78-.46h0l10.79-.46h0l10.79-.45h0l10.78-.46h0l10.79-.46h0L205,311.8h0l10.79-.45h0l10.78-.46h0l10.79-.46h0l10.78-.45h0l10.78-.45h0l10.78-.46h0l10.78-.46h0l10.78-.45h0a.26.26,0,0,0,.17-.09A.23.23,0,0,0,291.56,307.88Zm-228-22.53,10.29-.43.44,10.29L64,295.65Zm-.46-10.79,10.3-.44.43,10.3-10.29.43Zm-.45-10.79,10.29-.44.44,10.29-10.3.44ZM62.14,253l10.29-.44.44,10.3-10.3.44Zm-.46-10.79,10.3-.44L72.41,252l-10.29.44Zm-.46-10.8,10.3-.43L72,241.24l-10.29.44Zm-.45-10.79,10.29-.44.44,10.3-10.3.43Zm-.46-10.8,10.29-.43L71,219.65l-10.29.44Zm-.24-5.64L59.85,199l10.3-.44.21,5.15.22,5.15-10.29.43Zm-.68-16,10.3-.43.44,10.29-10.3.44Zm-.45-10.79L69.23,177l.44,10.3-10.3.43Zm-.46-10.8,10.29-.43.44,10.29-10.29.44ZM58,155.82l10.3-.44.43,10.3-10.29.43ZM57.57,145l10.29-.43.44,10.29-10.3.44Zm-.46-10.79,10.29-.44.44,10.3-10.3.43Zm-.46-10.79L67,123l.43,10.29-10.29.44Zm-.46-10.8,10.3-.44.43,10.3-10.29.44Zm-.45-10.79L66,101.41l.44,10.29-10.3.44Zm-.46-10.8,10.29-.43L66,100.91l-10.29.44Zm226.62.72-10.29.43-.44-10.29,10.3-.44Zm.46,10.79-10.3.44-.43-10.3,10.29-.43Zm.46,10.79-10.3.44-.43-10.29,10.29-.44Zm.45,10.8-10.29.43-.44-10.29,10.3-.44Zm.46,10.79-10.29.44-.44-10.3,10.29-.43Zm.46,10.8-10.3.43-.43-10.29,10.29-.44Zm.46,10.79-10.3.44-.44-10.3,10.3-.43Zm.45,10.8-10.29.43-.44-10.29,10.3-.44Zm.46,10.79-10.29.44-.44-10.3,10.29-.43Zm.46,10.8-10.3.43-.43-10.29,10.29-.44Zm.24,5.64.21,5.15-10.29.44L276,195l-.22-5.15,10.3-.43Zm.67,15.95-10.29.43-.44-10.29,10.3-.44Zm.46,10.79-10.3.44-.43-10.3L287,211Zm.46,10.79-10.3.44-.43-10.29,10.29-.44Zm.45,10.8-10.29.43L277.57,233l10.3-.44Zm.46,10.79-10.29.44-.44-10.3,10.3-.43Zm.46,10.8-10.3.43-.43-10.29,10.29-.44Zm.46,10.79-10.3.44-.43-10.3,10.29-.43Zm.45,10.8-10.29.43-.44-10.29,10.3-.44Zm.46,10.79-10.29.44-.44-10.3,10.29-.43ZM70.86,203.69l-.21-5.15,10.29-.44.22,5.15.22,5.15-10.3.44ZM275.46,195l.22,5.15-10.29.43-.22-5.14-.22-5.15,10.29-.44Zm-193.8,8.21-.22-5.15,10.3-.43.21,5.14.22,5.15-10.29.44Zm183-7.75.22,5.15-10.3.43-.22-5.15-.22-5.14,10.3-.44ZM92.45,202.77l-.21-5.14,10.29-.44.22,5.15.22,5.14-10.3.44Zm161.42-6.83.22,5.14-10.29.44-.22-5.15-.22-5.15,10.29-.43Zm-150.62,6.38-.22-5.15,10.29-.44.22,5.15.22,5.15-10.29.43Zm139.83-5.93.22,5.15L233,202l-.22-5.15-.21-5.15,10.29-.43Zm-129,5.47-.22-5.15,10.3-.43.22,5.14.22,5.15-10.3.44Zm118.24-5,.22,5.15-10.29.43-.22-5.14-.22-5.15,10.3-.44ZM124.84,201.4l-.22-5.15,10.29-.43.22,5.15.22,5.14-10.29.44Zm96.65-4.09.22,5.14-10.3.44-.22-5.15L211,192.6l10.29-.44Zm-85.86,3.63-.22-5.14,10.3-.44.22,5.15.22,5.15-10.3.43Zm75.06-3.18.22,5.15-10.29.44-.22-5.15-.22-5.15,10.3-.43Zm-64.26,2.73-.22-5.15,10.29-.44.22,5.15.22,5.15-10.29.43Zm53.47-2.27.22,5.15-10.3.44-.21-5.15-.22-5.15,10.29-.44ZM168,199.57l-.22-5.14,10.29-.44.22,5.15.22,5.14-10.3.44Zm-.68-15.94,10.3-.44.43,10.3-10.29.44ZM167.28,194l-10.3.43-.43-10.29,10.29-.44Zm21.83,4.73.21,5.15-10.29.43-.22-5.14-.22-5.15,10.3-.44Zm-10.54-5.21-.43-10.3,10.29-.43.44,10.29Zm0,11.31.44,10.3-10.3.43-.43-10.29Zm.5,0,10.29-.43.44,10.29-10.29.44Zm10.79-.45,10.3-.44.44,10.29-10.3.44Zm-.47-11.3-.44-10.29,10.29-.44.44,10.29Zm-.46-10.79-.44-10.3,10.3-.43.43,10.29Zm-.5,0-10.3.43-.43-10.29,10.29-.44Zm-10.8.45-10.29.44-.44-10.29,10.3-.44Zm-10.79.46-10.3.44-.43-10.3,10.29-.43Zm-10.8.46-10.29.44-.44-10.3,10.3-.44Zm0,.5.43,10.29-10.29.44-.44-10.29ZM157.22,200l-.22-5.15,10.3-.43.22,5.14.21,5.15-10.29.44Zm10.54,5.21.43,10.3L157.9,216l-.44-10.29Zm.45,10.8.44,10.29-10.3.44-.43-10.3Zm.5,0,10.3-.43.43,10.29-10.29.44Zm10.8-.45,10.29-.44.44,10.3-10.3.43Zm10.79-.46,10.3-.44L201,225l-10.29.43Zm10.8-.46,10.29-.43.44,10.29-10.3.44Zm0-.5-.44-10.29,10.29-.44.44,10.3Zm-.92-21.59-.44-10.29,10.3-.44.44,10.3Zm-.46-10.79-.43-10.3,10.29-.43.44,10.29Zm-.45-10.8-.44-10.29,10.29-.44.44,10.3Zm-.5,0-10.3.43L188,161.13l10.29-.44Zm-10.8.45-10.29.44-.44-10.3,10.3-.43Zm-10.79.46-10.3.44-.43-10.3,10.29-.43Zm-10.8.46-10.29.43-.44-10.29,10.3-.44Zm-10.79.45-10.3.44L144.84,163l10.29-.44Zm-10.8.46-10.29.44-.44-10.3,10.3-.43Zm0,.5.44,10.3-10.29.43-.44-10.29Zm.46,10.8.44,10.29-10.3.44L135,185Zm.92,21.59.43,10.29-10.29.44-.44-10.3Zm.5,0L157,205.7,157.4,216l-10.3.44Zm10.75,10.36.43,10.3-10.29.43-.44-10.29Zm.46,10.8.43,10.29L148,238l-.44-10.3Zm.5,0,10.29-.44.44,10.29-10.3.44Zm10.79-.46,10.29-.44.44,10.3-10.29.43Zm10.79-.46,10.3-.43.44,10.29-10.3.44Zm10.8-.46,10.29-.43.44,10.29-10.29.44Zm10.79-.45,10.3-.44.43,10.3-10.29.43Zm10.8-.46,10.29-.44.44,10.3-10.3.43Zm0-.5-.44-10.29,10.3-.44.43,10.29Zm-.46-10.79-.44-10.3,10.3-.44.43,10.3ZM211,192.1l-.44-10.3,10.29-.43.44,10.29Zm-.46-10.8L210.06,171l10.3-.44.43,10.3ZM210,170.51l-.44-10.3,10.3-.43.44,10.29Zm-.46-10.8-.43-10.29,10.29-.44.44,10.3Zm-.5,0-10.29.44-.44-10.3,10.3-.43Zm-10.79.46-10.3.44-.43-10.3,10.29-.43Zm-10.8.46-10.29.43-.44-10.29,10.3-.44Zm-10.79.46-10.3.43L166,151.25l10.29-.44Zm-10.8.45-10.29.44-.44-10.3,10.3-.43Zm-10.79.46-10.29.44-.44-10.3,10.29-.43Zm-10.79.46-10.3.43-.43-10.29,10.29-.44Zm-10.8.45-10.29.44-.44-10.29,10.3-.44Zm0,.5.44,10.3-10.3.43-.43-10.29Zm.46,10.8.44,10.29-10.3.44-.43-10.3Zm.46,10.79.43,10.3-10.29.43-.44-10.29Zm.91,21.59.44,10.3-10.3.43-.43-10.29Zm.46,10.8.44,10.29-10.3.44-.44-10.3Zm.5,0,10.29-.44.44,10.29-10.29.44Zm10.75,10.35.44,10.3-10.3.44-.43-10.3Zm.46,10.8.43,10.29-10.29.44L137.24,239Zm.5,0,10.29-.44.44,10.3-10.3.43Zm10.79-.46,10.3-.44.43,10.3-10.29.44Zm10.8-.46,10.29-.43.44,10.29-10.3.44Zm10.79-.45,10.3-.44.43,10.29-10.29.44Zm10.8-.46,10.29-.44.44,10.3-10.3.43Zm10.79-.46,10.3-.43.43,10.29-10.29.44Zm10.8-.46,10.29-.43.44,10.29-10.3.44Zm10.79-.45,10.3-.44.43,10.3-10.29.43Zm0-.5-.44-10.3,10.3-.43.43,10.29Zm-.46-10.8-.43-10.29,10.29-.44.44,10.3Zm-.46-10.79-.43-10.3,10.29-.43.44,10.29Zm-.91-21.59-.44-10.3,10.3-.43L232,191.2Zm-.46-10.8-.43-10.29,10.29-.44.44,10.3Zm-.45-10.79-.44-10.3,10.29-.43.44,10.29Zm-.46-10.8L219.94,149l10.3-.44.43,10.3Zm-.46-10.79-.44-10.29,10.3-.44.44,10.29Zm-.5,0-10.29.44-.44-10.3,10.29-.43Zm-10.79.46-10.3.43-.43-10.29,10.29-.44Zm-10.8.46-10.29.43-.44-10.29,10.3-.44Zm-10.79.45-10.3.44-.43-10.3,10.29-.43Zm-10.8.46-10.29.44-.44-10.3,10.3-.43Zm-10.79.46-10.3.43-.43-10.29,10.29-.44Zm-10.8.46-10.29.43-.44-10.29,10.3-.44Zm-10.79.45-10.3.44-.43-10.3,10.29-.43Zm-10.8.46-10.29.44-.44-10.3,10.3-.43Zm-10.79.46L112,153l-.43-10.29,10.29-.44Zm0,.5.44,10.29-10.3.44-.43-10.3Zm.46,10.79.43,10.3-10.29.43-.44-10.29Zm.45,10.8.44,10.29-10.29.44-.44-10.3Zm.46,10.79.44,10.3-10.3.43-.43-10.29Zm.92,21.59.43,10.29-10.29.44-.44-10.29Zm.45,10.79.44,10.3-10.29.44-.44-10.3Zm.46,10.8.44,10.29-10.3.44-.43-10.29Zm.5,0,10.3-.44.43,10.3-10.29.43ZM136.74,239l.44,10.29-10.3.44-.43-10.3Zm.46,10.79.44,10.3-10.3.43-.43-10.29Zm.5,0,10.3-.44.43,10.3-10.29.43Zm10.8-.46,10.29-.43.44,10.29-10.3.44Zm10.79-.45,10.29-.44.44,10.29-10.29.44Zm10.79-.46,10.3-.44.44,10.3-10.3.43Zm10.8-.46,10.29-.44.44,10.3-10.29.44Zm10.79-.46,10.3-.43.43,10.29-10.29.44Zm10.8-.45,10.29-.44.44,10.29-10.3.44Zm10.79-.46,10.3-.44.43,10.3-10.29.43Zm10.8-.46,10.29-.43.44,10.29-10.3.44Zm10.79-.46,10.3-.43.43,10.29-10.29.44Zm0-.5-.43-10.29,10.29-.44.44,10.3Zm-.46-10.79-.43-10.3,10.29-.43.44,10.29Zm-.45-10.8-.44-10.29,10.29-.44.44,10.3Zm-.46-10.79L233,202.48l10.3-.44.43,10.29Zm-.92-21.59-.43-10.29,10.29-.44.44,10.3Zm-.45-10.79-.44-10.3,10.3-.43.43,10.29Zm-.46-10.8-.44-10.29,10.3-.44.43,10.3Zm-.46-10.79-.43-10.3,10.29-.43.44,10.29Zm-.45-10.8-.44-10.29,10.29-.44.44,10.3Zm-.46-10.79-.44-10.3,10.3-.43.43,10.29Zm-.5,0-10.3.44-.43-10.3,10.29-.43Zm-10.8.46-10.29.43-.44-10.29,10.3-.44Zm-10.79.45-10.3.44-.43-10.29,10.29-.44Zm-10.8.46-10.29.44-.44-10.3,10.3-.43Zm-10.79.46-10.3.43-.43-10.29,10.29-.44Zm-10.8.46-10.29.43-.44-10.29,10.3-.44ZM165,140l-10.29.44-.44-10.3,10.29-.43Zm-10.79.46-10.3.44-.43-10.3,10.29-.43Zm-10.8.46-10.29.43L132.67,131l10.3-.44Zm-10.79.46-10.3.43-.43-10.29,10.29-.44Zm-10.8.45-10.29.44-.44-10.3,10.3-.43Zm-10.79.46-10.3.44-.43-10.3,10.29-.43Zm0,.5.43,10.29-10.29.44-.44-10.29Zm.46,10.79.43,10.3-10.29.43L101.2,154Zm.45,10.8.44,10.29-10.3.44-.43-10.3Zm.46,10.79.44,10.3-10.3.43-.43-10.29Zm.46,10.8.43,10.29-10.29.44-.44-10.3Zm.91,21.59.44,10.29-10.3.44-.43-10.3Zm.46,10.79.44,10.3-10.3.43-.44-10.29Zm.46,10.8.43,10.29-10.29.44-.44-10.3Zm.45,10.79.44,10.3-10.29.43-.44-10.29Zm.5,0,10.3-.44.43,10.3-10.29.43Zm10.76,10.36.43,10.29-10.29.44-.44-10.3Zm.45,10.79.44,10.3-10.3.43-.43-10.29Zm.5,0,10.3-.43.43,10.29-10.29.44Zm10.8-.46,10.29-.43.44,10.29-10.3.44Zm10.79-.45,10.3-.44.43,10.3-10.29.43Zm10.8-.46,10.29-.44.44,10.3-10.3.43Zm10.79-.46,10.3-.43.43,10.29-10.29.44Zm10.8-.45,10.29-.44.44,10.29-10.3.44Zm10.79-.46,10.3-.44.43,10.3-10.29.43Zm10.8-.46,10.29-.44.44,10.3-10.3.44Zm10.79-.46,10.3-.43.43,10.29-10.29.44Zm10.8-.45,10.29-.44.44,10.29-10.3.44Zm10.79-.46L245.6,256l.44,10.3-10.29.43ZM246.1,256l10.3-.43.43,10.29-10.29.44Zm0-.5-.43-10.29,10.29-.44.44,10.3Zm-.45-10.79-.44-10.3,10.29-.43.44,10.29Zm-.46-10.8-.44-10.29,10.3-.44.43,10.3Zm-.46-10.79-.44-10.3,10.3-.43.44,10.29Zm-.46-10.8L243.82,202l10.29-.44.44,10.3Zm-.91-21.59-.44-10.29,10.3-.44.43,10.3Zm-.46-10.79-.43-10.3,10.29-.43.44,10.29Zm-.46-10.8L242,158.84l10.29-.44.44,10.3ZM242,158.34l-.44-10.29,10.3-.44.43,10.29Zm-.46-10.79-.44-10.3,10.3-.43.43,10.29Zm-.46-10.8-.43-10.29,10.29-.44.44,10.3ZM240.6,126l-.44-10.3,10.29-.43.44,10.29Zm-.5,0-10.3.43-.44-10.29,10.3-.44Zm-10.8.46-10.29.43-.44-10.29,10.29-.44Zm-10.79.45-10.3.44-.43-10.3,10.29-.43Zm-10.8.46-10.29.44-.44-10.3,10.3-.43Zm-10.79.46-10.3.43L186.19,118l10.29-.44Zm-10.8.45-10.29.44-.44-10.29,10.3-.44Zm-10.79.46-10.3.44-.43-10.3,10.29-.43Zm-10.8.46-10.29.43-.44-10.29,10.3-.44Zm-10.79.46-10.3.43L143,119.78l10.29-.44Zm-10.8.45-10.29.44-.44-10.3,10.3-.43Zm-10.79.46-10.3.44-.43-10.3,10.29-.43Zm-10.8.46-10.29.43-.44-10.29,10.3-.44Zm-10.79.46-10.29.43-.44-10.29,10.29-.44Zm-10.79.45-10.3.44L89,122.06l10.3-.43Zm0,.5.43,10.3-10.29.43-.44-10.29Zm.45,10.8.44,10.29L90.39,154,90,143.65ZM100.7,154l.44,10.3-10.3.43-.43-10.29Zm.46,10.8.43,10.29-10.29.44-.44-10.3Zm.46,10.79.43,10.3-10.29.43L91.32,176Zm.45,10.8.44,10.29-10.3.44-.43-10.3ZM103,208l.43,10.3-10.29.44-.44-10.3Zm.45,10.8.44,10.29-10.29.44-.44-10.29Zm.46,10.79.44,10.3L94,240.3,93.61,230Zm.46,10.8.44,10.29-10.3.44-.44-10.3Zm.46,10.79.43,10.3L95,261.89l-.44-10.29Zm.5,0,10.29-.43.44,10.29-10.3.44Zm10.75,10.36.43,10.29-10.29.44-.44-10.29Zm.46,10.79.43,10.3-10.29.44-.44-10.3Zm.5,0,10.29-.43.44,10.29-10.3.44Zm10.79-.45,10.3-.44.43,10.29-10.29.44Zm10.8-.46,10.29-.44.44,10.3-10.3.43Zm10.79-.46,10.29-.43.44,10.29-10.29.44Zm10.79-.46,10.3-.43.44,10.29-10.3.44ZM171,270l10.29-.44.44,10.3-10.29.43Zm10.79-.46,10.3-.44.43,10.3-10.29.43Zm10.8-.46,10.29-.43.44,10.29-10.3.44Zm10.79-.45,10.3-.44.43,10.29-10.29.44Zm10.8-.46,10.29-.44.44,10.3-10.3.43ZM225,267.7l10.3-.44.43,10.3-10.29.44Zm10.8-.46,10.29-.43.44,10.29-10.3.44Zm10.79-.45,10.3-.44.43,10.29-10.29.44Zm10.8-.46,10.29-.44.44,10.3-10.3.43Zm0-.5-.43-10.3,10.29-.43.44,10.29Zm-.45-10.8-.44-10.29,10.3-.44.43,10.3Zm-.46-10.79-.44-10.3,10.3-.43.43,10.29Zm-.46-10.8-.43-10.29,10.29-.44.44,10.3Zm-.45-10.79-.44-10.29,10.29-.44.44,10.29Zm-.46-10.79-.44-10.3,10.3-.43.43,10.29Zm-.92-21.59L253.7,180l10.29-.43.44,10.29Zm-.45-10.8-.44-10.29,10.29-.44L264,179Zm-.46-10.79-.44-10.3,10.3-.43.43,10.29Zm-.46-10.8-.43-10.29,10.29-.44.44,10.3Zm-.46-10.79-.43-10.3,10.29-.43.44,10.29Zm-.45-10.8L251.41,126l10.3-.44.43,10.3Zm-.46-10.79L251,115.2l10.3-.43.43,10.29Zm-.46-10.8-.43-10.29,10.29-.44.44,10.3Zm-.5,0-10.29.43-.44-10.29,10.3-.44Zm-10.79.45-10.3.44-.43-10.3,10.29-.43Zm-10.8.46-10.29.44-.44-10.3,10.3-.43Zm-10.79.46-10.3.43-.43-10.29,10.29-.44Zm-10.8.46L197,117l-.44-10.29,10.3-.44Zm-10.79.45-10.3.44-.43-10.3,10.29-.43Zm-10.8.46-10.29.44-.44-10.3,10.3-.43Zm-10.79.46-10.29.43-.44-10.29,10.29-.44Zm-10.79.45-10.3.44-.43-10.29,10.29-.44Zm-10.8.46-10.29.44-.44-10.3,10.3-.43Zm-10.79.46-10.3.43-.43-10.29,10.29-.44Zm-10.8.46-10.29.43L121,109.9l10.3-.44Zm-10.79.45-10.3.44-.43-10.3,10.29-.43Zm-10.8.46-10.29.44-.44-10.3,10.3-.43Zm-10.79.46-10.3.43-.43-10.29,10.29-.44Zm-10.8.46L78.22,122l-.44-10.29,10.3-.44Zm0,.5L89,132.38l-10.29.44-.44-10.3ZM89,132.88l.44,10.29-10.3.44-.43-10.29Zm.46,10.79.44,10.3-10.3.43-.44-10.29Zm.46,10.8.43,10.29-10.29.44-.44-10.3Zm.45,10.79.44,10.3L80.51,176l-.44-10.29Zm.46,10.8.44,10.29-10.3.44-.43-10.3Zm.46,10.79.43,10.3-10.29.43L81,187.29Zm.91,21.59.44,10.3-10.3.43-.43-10.29Zm.46,10.8.44,10.29-10.3.44-.43-10.3ZM93.11,230l.43,10.3-10.29.43-.44-10.29Zm.45,10.8L94,251.12l-10.29.44-.44-10.3ZM94,251.62l.44,10.29-10.3.44-.43-10.29Zm.46,10.79.44,10.3-10.3.44-.43-10.3Zm.5,0,10.29-.43.44,10.29-10.29.44Zm10.75,10.36.44,10.3-10.3.43-.43-10.29Zm.46,10.8.43,10.29-10.29.44L95.89,284Zm.5,0,10.29-.44.44,10.29-10.3.44Zm10.79-.46,10.3-.44.43,10.3-10.29.43Zm10.8-.46,10.29-.44.44,10.3-10.3.44Zm10.79-.46,10.3-.43L149.8,292l-10.29.44Zm10.8-.45,10.29-.44.44,10.29-10.3.44Zm10.79-.46,10.3-.44.43,10.3-10.29.43Zm10.8-.46,10.29-.43.44,10.29-10.3.44Zm10.79-.46,10.3-.43.43,10.29-10.29.44Zm10.8-.45,10.29-.44.44,10.3-10.3.43Zm10.79-.46,10.29-.44.44,10.3-10.29.43Zm10.79-.46,10.3-.43.44,10.29-10.3.44Zm10.8-.45,10.29-.44.44,10.29-10.29.44Zm10.79-.46,10.3-.44.43,10.3-10.29.43Zm10.8-.46,10.29-.44.44,10.3-10.3.44Zm10.79-.46,10.3-.43.43,10.29-10.29.44Zm10.8-.45,10.29-.44.44,10.29L269,287Zm0-.5-.44-10.3,10.3-.43.43,10.29Zm-.46-10.8-.44-10.29,10.3-.44.43,10.3Zm-.46-10.79-.43-10.3,10.29-.43.44,10.29Zm-.46-10.8-.43-10.29,10.29-.44.44,10.3ZM266.76,233l-.44-10.3,10.3-.43.43,10.29Zm-.46-10.8-.44-10.29,10.3-.44.43,10.3Zm-.46-10.79-.43-10.3,10.29-.43.44,10.29Zm-.91-21.59-.44-10.29,10.3-.44.43,10.29Zm-.46-10.8L264,168.72l10.3-.44.44,10.3ZM264,168.22l-.43-10.29,10.29-.44.44,10.29Zm-.45-10.79-.44-10.3,10.29-.43.44,10.29Zm-.46-10.8-.44-10.29,10.3-.44.43,10.3Zm-.46-10.79-.43-10.3,10.29-.43.44,10.29Zm-.46-10.8-.43-10.29,10.29-.44.44,10.3Zm-.45-10.79-.44-10.3,10.3-.43.43,10.29Zm-.46-10.8-.44-10.29,10.3-.44.43,10.3Zm-.5,0-10.29.44L250,93.62l10.29-.44Zm-10.79.46-10.3.44-.44-10.3,10.3-.43Zm-10.8.46-10.29.43-.44-10.29,10.29-.44Zm-10.79.46-10.3.43L217.66,95,228,94.55Zm-10.8.45-10.29.44-.44-10.3,10.3-.43Zm-10.79.46-10.3.44-.43-10.3,10.29-.43Zm-10.8.46-10.29.43-.44-10.29,10.3-.44Zm-10.79.46-10.3.43-.43-10.29,10.29-.44Zm-10.8.45-10.29.44-.44-10.3,10.3-.43Zm-10.79.46-10.3.44-.43-10.3,10.29-.43Zm-10.8.46-10.29.43-.44-10.29,10.3-.44ZM142,108.5l-10.3.44-.43-10.29,10.29-.44Zm-10.8.46-10.29.44-.44-10.3,10.3-.43Zm-10.79.46-10.29.43-.44-10.29L120,99.12Zm-10.79.46-10.3.43L98.91,100l10.3-.44Zm-10.8.45-10.29.44-.44-10.3L98.41,100Zm-10.79.46-10.3.44-.43-10.3,10.29-.43Zm-10.8.46L67,111.68l-.44-10.29,10.3-.44Zm0,.5L77.72,122l-10.3.44L67,112.18Zm.46,10.79.44,10.3-10.3.43L67.45,123Zm.46,10.8.43,10.29-10.29.44-.44-10.3Zm.45,10.79.44,10.3-10.29.43-.44-10.29Zm.46,10.8.44,10.29-10.3.44-.43-10.3Zm.46,10.79L80,176l-10.3.43-.44-10.29Zm.46,10.8.43,10.29-10.29.44L69.73,177Zm.45,10.79.44,10.29L70.63,198l-.44-10.29Zm.92,21.59.43,10.29-10.29.44-.44-10.29Zm.46,10.79.43,10.3L72,230.42l-.44-10.29Zm.45,10.8.44,10.29-10.3.44L72,230.92Zm.46,10.79.44,10.3-10.3.43-.43-10.29Zm.46,10.8.43,10.29-10.29.44-.44-10.3Zm.45,10.79.44,10.3-10.29.43-.44-10.29Zm.46,10.8L84.58,284l-10.3.44-.43-10.3Zm.5,0,10.3-.44.43,10.29-10.29.44ZM95.39,284l.44,10.3-10.29.43-.44-10.29Zm.46,10.8.44,10.29-10.3.44-.43-10.3Zm.5,0,10.3-.44.43,10.3-10.29.43Zm10.8-.46,10.29-.44.44,10.3-10.3.43Zm10.79-.46,10.3-.43.43,10.29-10.29.44Zm10.8-.45L139,293l.44,10.29-10.3.44Zm10.79-.46,10.29-.44.44,10.3-10.29.43Zm10.79-.46,10.3-.44.44,10.3-10.3.44Zm10.8-.46,10.29-.43.44,10.29-10.29.44Zm10.79-.45,10.3-.44.43,10.29-10.29.44Zm10.8-.46,10.29-.44.44,10.3-10.3.43Zm10.79-.46,10.3-.43.43,10.29-10.29.44Zm10.8-.46,10.29-.43.44,10.29-10.3.44Zm10.79-.45,10.3-.44.43,10.3-10.29.43Zm10.8-.46,10.29-.44.44,10.3-10.3.43Zm10.79-.46,10.3-.43.43,10.29-10.29.44Zm10.8-.45,10.29-.44.44,10.29-10.3.44Zm10.79-.46,10.3-.44.43,10.3-10.29.43Zm10.8-.46,10.29-.44.44,10.3-10.3.43Zm2-195.24-10.3.44-.43-10.3,10.29-.43Zm-10.8.46L250,93.12l-.44-10.3,10.3-.43Zm-10.79.46-10.3.43-.43-10.29,10.29-.44Zm-10.8.45L228.43,94,228,83.74l10.3-.44Zm-10.79.46-10.3.44-.43-10.3,10.29-.43Zm-10.8.46-10.29.43-.44-10.29,10.3-.44ZM206.34,95l-10.29.43-.44-10.29,10.29-.44Zm-10.79.45-10.3.44-.44-10.3,10.3-.43Zm-10.8.46-10.29.44L174,86l10.29-.43ZM174,96.34l-10.3.43-.43-10.29L173.52,86Zm-10.8.46-10.29.43-.44-10.29,10.3-.44Zm-10.79.45-10.3.44-.43-10.3L151.93,87Zm-10.8.46-10.29.44-.44-10.3,10.3-.44Zm-10.79.46-10.3.43-.43-10.29,10.29-.44Zm-10.8.45-10.29.44-.44-10.29h0l10.3-.44Zm-10.79.46-10.3.44-.43-10.27v0l10.29-.43Zm-10.8.46L88.1,100l-.44-10.25v0L98,89.24ZM87.6,100l-10.3.43-.43-10.24v0l10.29-.44Zm-10.8.45-10.29.44-.43-10.22v-.08l10.3-.43ZM74.3,284.9l10.3-.44.44,10.3-10.3.43Zm10.76,10.36.43,10.29L75.2,306l-.44-10.3Zm.45,10.79L86,316.34l-10.29.44-.44-10.29Zm.5,0,10.3-.44.43,10.3-10.29.43Zm10.8-.46,10.29-.43.44,10.29-10.3.44Zm10.79-.46,10.3-.43.43,10.29-10.29.44Zm10.8-.45,10.29-.44.44,10.3-10.3.43Zm10.79-.46,10.3-.44.43,10.3-10.29.43Zm10.8-.46,10.29-.43.44,10.29-10.3.44Zm10.79-.45,10.3-.44.43,10.29-10.29.44Zm10.8-.46,10.29-.44.44,10.3-10.3.43Zm10.79-.46,10.3-.44.43,10.3-10.29.44Zm10.8-.46,10.29-.43.44,10.29-10.3.44Zm10.79-.45,10.29-.44.44,10.29-10.29.44Zm10.79-.46,10.3-.44.44,10.3-10.3.43Zm10.8-.46,10.29-.43.44,10.29-10.29.44Zm10.79-.46,10.3-.43.43,10.29-10.29.44Zm10.8-.45,10.29-.44.44,10.3-10.3.43Zm10.79-.46,10.3-.44.43,10.3-10.29.43Zm10.8-.46,10.29-.43.44,10.29-10.3.44Zm10.79-.46,10.3-.43.43,10.29-10.29.44Zm10.8-.45,10.29-.44.44,10.3-10.3.43ZM64,296.15l10.29-.44L74.7,306l-7.78.33-2.83-7.22Zm3.14,10.68,7.61-.32.44,10.29-5.85.25,1-2Z" style="fill:#F96416"></path><path d="M291.56,307.88h0l-.46-10.79h0l-.46-10.79h0l-.45-10.79h0l-.46-10.79h0l-.46-10.79h0l-.46-10.79h0l-.45-10.78h0l-.46-10.79h0l-.46-10.79h0L287,199.94h0l-.23-5.4-.23-5.39h0l-.46-10.79h0l-.46-10.79h0l-.45-10.79h0L284.7,146h0l-.46-10.79h0l-.46-10.79h0l-.45-10.79h0l-.46-10.79h0L282.41,92h0L282,81.2h0a.25.25,0,0,0-.25-.24h0l-10.79.46h0l-10.79.45h0l-10.8.46h0L55,90.56a.37.37,0,0,0-.18.08.28.28,0,0,0-.06.18l4.8,113.35,4,93.51-9.09-23.21L65,325.85l4.08-8.29,6.37-.27h0l10.79-.46h0L97,316.38h0l10.79-.46h0l10.79-.46h0l10.78-.45h0l10.79-.46h0l10.78-.46h0l10.79-.46h0l10.79-.45h0l10.78-.46h0l10.79-.46h0L205,311.8h0l10.79-.45h0l10.78-.46h0l10.79-.46h0l10.78-.45h0l10.78-.45h0l10.78-.46h0l10.78-.46h0l10.78-.45h0a.26.26,0,0,0,.17-.09A.23.23,0,0,0,291.56,307.88Zm-228-22.53,10.29-.43.44,10.29L64,295.65Zm-.46-10.79,10.3-.44.43,10.3-10.29.43Zm-.45-10.79,10.29-.44.44,10.29-10.3.44ZM62.14,253l10.29-.44.44,10.3-10.3.44Zm-.46-10.79,10.3-.44L72.41,252l-10.29.44Zm-.46-10.8,10.3-.43L72,241.24l-10.29.44Zm-.45-10.79,10.29-.44.44,10.3-10.3.43Zm-.46-10.8,10.29-.43L71,219.65l-10.29.44Zm-.24-5.64L59.85,199l10.3-.44.21,5.15.22,5.15-10.29.43Zm-.68-16,10.3-.43.44,10.29-10.3.44Zm-.45-10.79L69.23,177l.44,10.3-10.3.43Zm-.46-10.8,10.29-.43.44,10.29-10.29.44ZM58,155.82l10.3-.44.43,10.3-10.29.43ZM57.57,145l10.29-.43.44,10.29-10.3.44Zm-.46-10.79,10.29-.44.44,10.3-10.3.43Zm-.46-10.79L67,123l.43,10.29-10.29.44Zm-.46-10.8,10.3-.44.43,10.3-10.29.44Zm-.45-10.79L66,101.41l.44,10.29-10.3.44Zm-.46-10.8,10.29-.43L66,100.91l-10.29.44Zm226.62.72-10.29.43-.44-10.29,10.3-.44Zm.46,10.79-10.3.44-.43-10.3,10.29-.43Zm.46,10.79-10.3.44-.43-10.29,10.29-.44Zm.45,10.8-10.29.43-.44-10.29,10.3-.44Zm.46,10.79-10.29.44-.44-10.3,10.29-.43Zm.46,10.8-10.3.43-.43-10.29,10.29-.44Zm.46,10.79-10.3.44-.44-10.3,10.3-.43Zm.45,10.8-10.29.43-.44-10.29,10.3-.44Zm.46,10.79-10.29.44-.44-10.3,10.29-.43Zm.46,10.8-10.3.43-.43-10.29,10.29-.44Zm.24,5.64.21,5.15-10.29.44L276,195l-.22-5.15,10.3-.43Zm.67,15.95-10.29.43-.44-10.29,10.3-.44Zm.46,10.79-10.3.44-.43-10.3L287,211Zm.46,10.79-10.3.44-.43-10.29,10.29-.44Zm.45,10.8-10.29.43L277.57,233l10.3-.44Zm.46,10.79-10.29.44-.44-10.3,10.3-.43Zm.46,10.8-10.3.43-.43-10.29,10.29-.44Zm.46,10.79-10.3.44-.43-10.3,10.29-.43Zm.45,10.8-10.29.43-.44-10.29,10.3-.44Zm.46,10.79-10.29.44-.44-10.3,10.29-.43ZM70.86,203.69l-.21-5.15,10.29-.44.22,5.15.22,5.15-10.3.44ZM275.46,195l.22,5.15-10.29.43-.22-5.14-.22-5.15,10.29-.44Zm-193.8,8.21-.22-5.15,10.3-.43.21,5.14.22,5.15-10.29.44Zm183-7.75.22,5.15-10.3.43-.22-5.15-.22-5.14,10.3-.44ZM92.45,202.77l-.21-5.14,10.29-.44.22,5.15.22,5.14-10.3.44Zm161.42-6.83.22,5.14-10.29.44-.22-5.15-.22-5.15,10.29-.43Zm-150.62,6.38-.22-5.15,10.29-.44.22,5.15.22,5.15-10.29.43Zm139.83-5.93.22,5.15L233,202l-.22-5.15-.21-5.15,10.29-.43Zm-129,5.47-.22-5.15,10.3-.43.22,5.14.22,5.15-10.3.44Zm118.24-5,.22,5.15-10.29.43-.22-5.14-.22-5.15,10.3-.44ZM124.84,201.4l-.22-5.15,10.29-.43.22,5.15.22,5.14-10.29.44Zm96.65-4.09.22,5.14-10.3.44-.22-5.15L211,192.6l10.29-.44Zm-85.86,3.63-.22-5.14,10.3-.44.22,5.15.22,5.15-10.3.43Zm75.06-3.18.22,5.15-10.29.44-.22-5.15-.22-5.15,10.3-.43Zm-64.26,2.73-.22-5.15,10.29-.44.22,5.15.22,5.15-10.29.43Zm53.47-2.27.22,5.15-10.3.44-.21-5.15-.22-5.15,10.29-.44ZM168,199.57l-.22-5.14,10.29-.44.22,5.15.22,5.14-10.3.44Zm-.68-15.94,10.3-.44.43,10.3-10.29.44ZM167.28,194l-10.3.43-.43-10.29,10.29-.44Zm21.83,4.73.21,5.15-10.29.43-.22-5.14-.22-5.15,10.3-.44Zm-10.54-5.21-.43-10.3,10.29-.43.44,10.29Zm0,11.31.44,10.3-10.3.43-.43-10.29Zm.5,0,10.29-.43.44,10.29-10.29.44Zm10.79-.45,10.3-.44.44,10.29-10.3.44Zm-.47-11.3-.44-10.29,10.29-.44.44,10.29Zm-.46-10.79-.44-10.3,10.3-.43.43,10.29Zm-.5,0-10.3.43-.43-10.29,10.29-.44Zm-10.8.45-10.29.44-.44-10.29,10.3-.44Zm-10.79.46-10.3.44-.43-10.3,10.29-.43Zm-10.8.46-10.29.44-.44-10.3,10.3-.44Zm0,.5.43,10.29-10.29.44-.44-10.29ZM157.22,200l-.22-5.15,10.3-.43.22,5.14.21,5.15-10.29.44Zm10.54,5.21.43,10.3L157.9,216l-.44-10.29Zm.45,10.8.44,10.29-10.3.44-.43-10.3Zm.5,0,10.3-.43.43,10.29-10.29.44Zm10.8-.45,10.29-.44.44,10.3-10.3.43Zm10.79-.46,10.3-.44L201,225l-10.29.43Zm10.8-.46,10.29-.43.44,10.29-10.3.44Zm0-.5-.44-10.29,10.29-.44.44,10.3Zm-.92-21.59-.44-10.29,10.3-.44.44,10.3Zm-.46-10.79-.43-10.3,10.29-.43.44,10.29Zm-.45-10.8-.44-10.29,10.29-.44.44,10.3Zm-.5,0-10.3.43L188,161.13l10.29-.44Zm-10.8.45-10.29.44-.44-10.3,10.3-.43Zm-10.79.46-10.3.44-.43-10.3,10.29-.43Zm-10.8.46-10.29.43-.44-10.29,10.3-.44Zm-10.79.45-10.3.44L144.84,163l10.29-.44Zm-10.8.46-10.29.44-.44-10.3,10.3-.43Zm0,.5.44,10.3-10.29.43-.44-10.29Zm.46,10.8.44,10.29-10.3.44L135,185Zm.92,21.59.43,10.29-10.29.44-.44-10.3Zm.5,0L157,205.7,157.4,216l-10.3.44Zm10.75,10.36.43,10.3-10.29.43-.44-10.29Zm.46,10.8.43,10.29L148,238l-.44-10.3Zm.5,0,10.29-.44.44,10.29-10.3.44Zm10.79-.46,10.29-.44.44,10.3-10.29.43Zm10.79-.46,10.3-.43.44,10.29-10.3.44Zm10.8-.46,10.29-.43.44,10.29-10.29.44Zm10.79-.45,10.3-.44.43,10.3-10.29.43Zm10.8-.46,10.29-.44.44,10.3-10.3.43Zm0-.5-.44-10.29,10.3-.44.43,10.29Zm-.46-10.79-.44-10.3,10.3-.44.43,10.3ZM211,192.1l-.44-10.3,10.29-.43.44,10.29Zm-.46-10.8L210.06,171l10.3-.44.43,10.3ZM210,170.51l-.44-10.3,10.3-.43.44,10.29Zm-.46-10.8-.43-10.29,10.29-.44.44,10.3Zm-.5,0-10.29.44-.44-10.3,10.3-.43Zm-10.79.46-10.3.44-.43-10.3,10.29-.43Zm-10.8.46-10.29.43-.44-10.29,10.3-.44Zm-10.79.46-10.3.43L166,151.25l10.29-.44Zm-10.8.45-10.29.44-.44-10.3,10.3-.43Zm-10.79.46-10.29.44-.44-10.3,10.29-.43Zm-10.79.46-10.3.43-.43-10.29,10.29-.44Zm-10.8.45-10.29.44-.44-10.29,10.3-.44Zm0,.5.44,10.3-10.3.43-.43-10.29Zm.46,10.8.44,10.29-10.3.44-.43-10.3Zm.46,10.79.43,10.3-10.29.43-.44-10.29Zm.91,21.59.44,10.3-10.3.43-.43-10.29Zm.46,10.8.44,10.29-10.3.44-.44-10.3Zm.5,0,10.29-.44.44,10.29-10.29.44Zm10.75,10.35.44,10.3-10.3.44-.43-10.3Zm.46,10.8.43,10.29-10.29.44L137.24,239Zm.5,0,10.29-.44.44,10.3-10.3.43Zm10.79-.46,10.3-.44.43,10.3-10.29.44Zm10.8-.46,10.29-.43.44,10.29-10.3.44Zm10.79-.45,10.3-.44.43,10.29-10.29.44Zm10.8-.46,10.29-.44.44,10.3-10.3.43Zm10.79-.46,10.3-.43.43,10.29-10.29.44Zm10.8-.46,10.29-.43.44,10.29-10.3.44Zm10.79-.45,10.3-.44.43,10.3-10.29.43Zm0-.5-.44-10.3,10.3-.43.43,10.29Zm-.46-10.8-.43-10.29,10.29-.44.44,10.3Zm-.46-10.79-.43-10.3,10.29-.43.44,10.29Zm-.91-21.59-.44-10.3,10.3-.43L232,191.2Zm-.46-10.8-.43-10.29,10.29-.44.44,10.3Zm-.45-10.79-.44-10.3,10.29-.43.44,10.29Zm-.46-10.8L219.94,149l10.3-.44.43,10.3Zm-.46-10.79-.44-10.29,10.3-.44.44,10.29Zm-.5,0-10.29.44-.44-10.3,10.29-.43Zm-10.79.46-10.3.43-.43-10.29,10.29-.44Zm-10.8.46-10.29.43-.44-10.29,10.3-.44Zm-10.79.45-10.3.44-.43-10.3,10.29-.43Zm-10.8.46-10.29.44-.44-10.3,10.3-.43Zm-10.79.46-10.3.43-.43-10.29,10.29-.44Zm-10.8.46-10.29.43-.44-10.29,10.3-.44Zm-10.79.45-10.3.44-.43-10.3,10.29-.43Zm-10.8.46-10.29.44-.44-10.3,10.3-.43Zm-10.79.46L112,153l-.43-10.29,10.29-.44Zm0,.5.44,10.29-10.3.44-.43-10.3Zm.46,10.79.43,10.3-10.29.43-.44-10.29Zm.45,10.8.44,10.29-10.29.44-.44-10.3Zm.46,10.79.44,10.3-10.3.43-.43-10.29Zm.92,21.59.43,10.29-10.29.44-.44-10.29Zm.45,10.79.44,10.3-10.29.44-.44-10.3Zm.46,10.8.44,10.29-10.3.44-.43-10.29Zm.5,0,10.3-.44.43,10.3-10.29.43ZM136.74,239l.44,10.29-10.3.44-.43-10.3Zm.46,10.79.44,10.3-10.3.43-.43-10.29Zm.5,0,10.3-.44.43,10.3-10.29.43Zm10.8-.46,10.29-.43.44,10.29-10.3.44Zm10.79-.45,10.29-.44.44,10.29-10.29.44Zm10.79-.46,10.3-.44.44,10.3-10.3.43Zm10.8-.46,10.29-.44.44,10.3-10.29.44Zm10.79-.46,10.3-.43.43,10.29-10.29.44Zm10.8-.45,10.29-.44.44,10.29-10.3.44Zm10.79-.46,10.3-.44.43,10.3-10.29.43Zm10.8-.46,10.29-.43.44,10.29-10.3.44Zm10.79-.46,10.3-.43.43,10.29-10.29.44Zm0-.5-.43-10.29,10.29-.44.44,10.3Zm-.46-10.79-.43-10.3,10.29-.43.44,10.29Zm-.45-10.8-.44-10.29,10.29-.44.44,10.3Zm-.46-10.79L233,202.48l10.3-.44.43,10.29Zm-.92-21.59-.43-10.29,10.29-.44.44,10.3Zm-.45-10.79-.44-10.3,10.3-.43.43,10.29Zm-.46-10.8-.44-10.29,10.3-.44.43,10.3Zm-.46-10.79-.43-10.3,10.29-.43.44,10.29Zm-.45-10.8-.44-10.29,10.29-.44.44,10.3Zm-.46-10.79-.44-10.3,10.3-.43.43,10.29Zm-.5,0-10.3.44-.43-10.3,10.29-.43Zm-10.8.46-10.29.43-.44-10.29,10.3-.44Zm-10.79.45-10.3.44-.43-10.29,10.29-.44Zm-10.8.46-10.29.44-.44-10.3,10.3-.43Zm-10.79.46-10.3.43-.43-10.29,10.29-.44Zm-10.8.46-10.29.43-.44-10.29,10.3-.44ZM165,140l-10.29.44-.44-10.3,10.29-.43Zm-10.79.46-10.3.44-.43-10.3,10.29-.43Zm-10.8.46-10.29.43L132.67,131l10.3-.44Zm-10.79.46-10.3.43-.43-10.29,10.29-.44Zm-10.8.45-10.29.44-.44-10.3,10.3-.43Zm-10.79.46-10.3.44-.43-10.3,10.29-.43Zm0,.5.43,10.29-10.29.44-.44-10.29Zm.46,10.79.43,10.3-10.29.43L101.2,154Zm.45,10.8.44,10.29-10.3.44-.43-10.3Zm.46,10.79.44,10.3-10.3.43-.43-10.29Zm.46,10.8.43,10.29-10.29.44-.44-10.3Zm.91,21.59.44,10.29-10.3.44-.43-10.3Zm.46,10.79.44,10.3-10.3.43-.44-10.29Zm.46,10.8.43,10.29-10.29.44-.44-10.3Zm.45,10.79.44,10.3-10.29.43-.44-10.29Zm.5,0,10.3-.44.43,10.3-10.29.43Zm10.76,10.36.43,10.29-10.29.44-.44-10.3Zm.45,10.79.44,10.3-10.3.43-.43-10.29Zm.5,0,10.3-.43.43,10.29-10.29.44Zm10.8-.46,10.29-.43.44,10.29-10.3.44Zm10.79-.45,10.3-.44.43,10.3-10.29.43Zm10.8-.46,10.29-.44.44,10.3-10.3.43Zm10.79-.46,10.3-.43.43,10.29-10.29.44Zm10.8-.45,10.29-.44.44,10.29-10.3.44Zm10.79-.46,10.3-.44.43,10.3-10.29.43Zm10.8-.46,10.29-.44.44,10.3-10.3.44Zm10.79-.46,10.3-.43.43,10.29-10.29.44Zm10.8-.45,10.29-.44.44,10.29-10.3.44Zm10.79-.46L245.6,256l.44,10.3-10.29.43ZM246.1,256l10.3-.43.43,10.29-10.29.44Zm0-.5-.43-10.29,10.29-.44.44,10.3Zm-.45-10.79-.44-10.3,10.29-.43.44,10.29Zm-.46-10.8-.44-10.29,10.3-.44.43,10.3Zm-.46-10.79-.44-10.3,10.3-.43.44,10.29Zm-.46-10.8L243.82,202l10.29-.44.44,10.3Zm-.91-21.59-.44-10.29,10.3-.44.43,10.3Zm-.46-10.79-.43-10.3,10.29-.43.44,10.29Zm-.46-10.8L242,158.84l10.29-.44.44,10.3ZM242,158.34l-.44-10.29,10.3-.44.43,10.29Zm-.46-10.79-.44-10.3,10.3-.43.43,10.29Zm-.46-10.8-.43-10.29,10.29-.44.44,10.3ZM240.6,126l-.44-10.3,10.29-.43.44,10.29Zm-.5,0-10.3.43-.44-10.29,10.3-.44Zm-10.8.46-10.29.43-.44-10.29,10.29-.44Zm-10.79.45-10.3.44-.43-10.3,10.29-.43Zm-10.8.46-10.29.44-.44-10.3,10.3-.43Zm-10.79.46-10.3.43L186.19,118l10.29-.44Zm-10.8.45-10.29.44-.44-10.29,10.3-.44Zm-10.79.46-10.3.44-.43-10.3,10.29-.43Zm-10.8.46-10.29.43-.44-10.29,10.3-.44Zm-10.79.46-10.3.43L143,119.78l10.29-.44Zm-10.8.45-10.29.44-.44-10.3,10.3-.43Zm-10.79.46-10.3.44-.43-10.3,10.29-.43Zm-10.8.46-10.29.43-.44-10.29,10.3-.44Zm-10.79.46-10.29.43-.44-10.29,10.29-.44Zm-10.79.45-10.3.44L89,122.06l10.3-.43Zm0,.5.43,10.3-10.29.43-.44-10.29Zm.45,10.8.44,10.29L90.39,154,90,143.65ZM100.7,154l.44,10.3-10.3.43-.43-10.29Zm.46,10.8.43,10.29-10.29.44-.44-10.3Zm.46,10.79.43,10.3-10.29.43L91.32,176Zm.45,10.8.44,10.29-10.3.44-.43-10.3ZM103,208l.43,10.3-10.29.44-.44-10.3Zm.45,10.8.44,10.29-10.29.44-.44-10.29Zm.46,10.79.44,10.3L94,240.3,93.61,230Zm.46,10.8.44,10.29-10.3.44-.44-10.3Zm.46,10.79.43,10.3L95,261.89l-.44-10.29Zm.5,0,10.29-.43.44,10.29-10.3.44Zm10.75,10.36.43,10.29-10.29.44-.44-10.29Zm.46,10.79.43,10.3-10.29.44-.44-10.3Zm.5,0,10.29-.43.44,10.29-10.3.44Zm10.79-.45,10.3-.44.43,10.29-10.29.44Zm10.8-.46,10.29-.44.44,10.3-10.3.43Zm10.79-.46,10.29-.43.44,10.29-10.29.44Zm10.79-.46,10.3-.43.44,10.29-10.3.44ZM171,270l10.29-.44.44,10.3-10.29.43Zm10.79-.46,10.3-.44.43,10.3-10.29.43Zm10.8-.46,10.29-.43.44,10.29-10.3.44Zm10.79-.45,10.3-.44.43,10.29-10.29.44Zm10.8-.46,10.29-.44.44,10.3-10.3.43ZM225,267.7l10.3-.44.43,10.3-10.29.44Zm10.8-.46,10.29-.43.44,10.29-10.3.44Zm10.79-.45,10.3-.44.43,10.29-10.29.44Zm10.8-.46,10.29-.44.44,10.3-10.3.43Zm0-.5-.43-10.3,10.29-.43.44,10.29Zm-.45-10.8-.44-10.29,10.3-.44.43,10.3Zm-.46-10.79-.44-10.3,10.3-.43.43,10.29Zm-.46-10.8-.43-10.29,10.29-.44.44,10.3Zm-.45-10.79-.44-10.29,10.29-.44.44,10.29Zm-.46-10.79-.44-10.3,10.3-.43.43,10.29Zm-.92-21.59L253.7,180l10.29-.43.44,10.29Zm-.45-10.8-.44-10.29,10.29-.44L264,179Zm-.46-10.79-.44-10.3,10.3-.43.43,10.29Zm-.46-10.8-.43-10.29,10.29-.44.44,10.3Zm-.46-10.79-.43-10.3,10.29-.43.44,10.29Zm-.45-10.8L251.41,126l10.3-.44.43,10.3Zm-.46-10.79L251,115.2l10.3-.43.43,10.29Zm-.46-10.8-.43-10.29,10.29-.44.44,10.3Zm-.5,0-10.29.43-.44-10.29,10.3-.44Zm-10.79.45-10.3.44-.43-10.3,10.29-.43Zm-10.8.46-10.29.44-.44-10.3,10.3-.43Zm-10.79.46-10.3.43-.43-10.29,10.29-.44Zm-10.8.46L197,117l-.44-10.29,10.3-.44Zm-10.79.45-10.3.44-.43-10.3,10.29-.43Zm-10.8.46-10.29.44-.44-10.3,10.3-.43Zm-10.79.46-10.29.43-.44-10.29,10.29-.44Zm-10.79.45-10.3.44-.43-10.29,10.29-.44Zm-10.8.46-10.29.44-.44-10.3,10.3-.43Zm-10.79.46-10.3.43-.43-10.29,10.29-.44Zm-10.8.46-10.29.43L121,109.9l10.3-.44Zm-10.79.45-10.3.44-.43-10.3,10.29-.43Zm-10.8.46-10.29.44-.44-10.3,10.3-.43Zm-10.79.46-10.3.43-.43-10.29,10.29-.44Zm-10.8.46L78.22,122l-.44-10.29,10.3-.44Zm0,.5L89,132.38l-10.29.44-.44-10.3ZM89,132.88l.44,10.29-10.3.44-.43-10.29Zm.46,10.79.44,10.3-10.3.43-.44-10.29Zm.46,10.8.43,10.29-10.29.44-.44-10.3Zm.45,10.79.44,10.3L80.51,176l-.44-10.29Zm.46,10.8.44,10.29-10.3.44-.43-10.3Zm.46,10.79.43,10.3-10.29.43L81,187.29Zm.91,21.59.44,10.3-10.3.43-.43-10.29Zm.46,10.8.44,10.29-10.3.44-.43-10.3ZM93.11,230l.43,10.3-10.29.43-.44-10.29Zm.45,10.8L94,251.12l-10.29.44-.44-10.3ZM94,251.62l.44,10.29-10.3.44-.43-10.29Zm.46,10.79.44,10.3-10.3.44-.43-10.3Zm.5,0,10.29-.43.44,10.29-10.29.44Zm10.75,10.36.44,10.3-10.3.43-.43-10.29Zm.46,10.8.43,10.29-10.29.44L95.89,284Zm.5,0,10.29-.44.44,10.29-10.3.44Zm10.79-.46,10.3-.44.43,10.3-10.29.43Zm10.8-.46,10.29-.44.44,10.3-10.3.44Zm10.79-.46,10.3-.43L149.8,292l-10.29.44Zm10.8-.45,10.29-.44.44,10.29-10.3.44Zm10.79-.46,10.3-.44.43,10.3-10.29.43Zm10.8-.46,10.29-.43.44,10.29-10.3.44Zm10.79-.46,10.3-.43.43,10.29-10.29.44Zm10.8-.45,10.29-.44.44,10.3-10.3.43Zm10.79-.46,10.29-.44.44,10.3-10.29.43Zm10.79-.46,10.3-.43.44,10.29-10.3.44Zm10.8-.45,10.29-.44.44,10.29-10.29.44Zm10.79-.46,10.3-.44.43,10.3-10.29.43Zm10.8-.46,10.29-.44.44,10.3-10.3.44Zm10.79-.46,10.3-.43.43,10.29-10.29.44Zm10.8-.45,10.29-.44.44,10.29L269,287Zm0-.5-.44-10.3,10.3-.43.43,10.29Zm-.46-10.8-.44-10.29,10.3-.44.43,10.3Zm-.46-10.79-.43-10.3,10.29-.43.44,10.29Zm-.46-10.8-.43-10.29,10.29-.44.44,10.3ZM266.76,233l-.44-10.3,10.3-.43.43,10.29Zm-.46-10.8-.44-10.29,10.3-.44.43,10.3Zm-.46-10.79-.43-10.3,10.29-.43.44,10.29Zm-.91-21.59-.44-10.29,10.3-.44.43,10.29Zm-.46-10.8L264,168.72l10.3-.44.44,10.3ZM264,168.22l-.43-10.29,10.29-.44.44,10.29Zm-.45-10.79-.44-10.3,10.29-.43.44,10.29Zm-.46-10.8-.44-10.29,10.3-.44.43,10.3Zm-.46-10.79-.43-10.3,10.29-.43.44,10.29Zm-.46-10.8-.43-10.29,10.29-.44.44,10.3Zm-.45-10.79-.44-10.3,10.3-.43.43,10.29Zm-.46-10.8-.44-10.29,10.3-.44.43,10.3Zm-.5,0-10.29.44L250,93.62l10.29-.44Zm-10.79.46-10.3.44-.44-10.3,10.3-.43Zm-10.8.46-10.29.43-.44-10.29,10.29-.44Zm-10.79.46-10.3.43L217.66,95,228,94.55Zm-10.8.45-10.29.44-.44-10.3,10.3-.43Zm-10.79.46-10.3.44-.43-10.3,10.29-.43Zm-10.8.46-10.29.43-.44-10.29,10.3-.44Zm-10.79.46-10.3.43-.43-10.29,10.29-.44Zm-10.8.45-10.29.44-.44-10.3,10.3-.43Zm-10.79.46-10.3.44-.43-10.3,10.29-.43Zm-10.8.46-10.29.43-.44-10.29,10.3-.44ZM142,108.5l-10.3.44-.43-10.29,10.29-.44Zm-10.8.46-10.29.44-.44-10.3,10.3-.43Zm-10.79.46-10.29.43-.44-10.29L120,99.12Zm-10.79.46-10.3.43L98.91,100l10.3-.44Zm-10.8.45-10.29.44-.44-10.3L98.41,100Zm-10.79.46-10.3.44-.43-10.3,10.29-.43Zm-10.8.46L67,111.68l-.44-10.29,10.3-.44Zm0,.5L77.72,122l-10.3.44L67,112.18Zm.46,10.79.44,10.3-10.3.43L67.45,123Zm.46,10.8.43,10.29-10.29.44-.44-10.3Zm.45,10.79.44,10.3-10.29.43-.44-10.29Zm.46,10.8.44,10.29-10.3.44-.43-10.3Zm.46,10.79L80,176l-10.3.43-.44-10.29Zm.46,10.8.43,10.29-10.29.44L69.73,177Zm.45,10.79.44,10.29L70.63,198l-.44-10.29Zm.92,21.59.43,10.29-10.29.44-.44-10.29Zm.46,10.79.43,10.3L72,230.42l-.44-10.29Zm.45,10.8.44,10.29-10.3.44L72,230.92Zm.46,10.79.44,10.3-10.3.43-.43-10.29Zm.46,10.8.43,10.29-10.29.44-.44-10.3Zm.45,10.79.44,10.3-10.29.43-.44-10.29Zm.46,10.8L84.58,284l-10.3.44-.43-10.3Zm.5,0,10.3-.44.43,10.29-10.29.44ZM95.39,284l.44,10.3-10.29.43-.44-10.29Zm.46,10.8.44,10.29-10.3.44-.43-10.3Zm.5,0,10.3-.44.43,10.3-10.29.43Zm10.8-.46,10.29-.44.44,10.3-10.3.43Zm10.79-.46,10.3-.43.43,10.29-10.29.44Zm10.8-.45L139,293l.44,10.29-10.3.44Zm10.79-.46,10.29-.44.44,10.3-10.29.43Zm10.79-.46,10.3-.44.44,10.3-10.3.44Zm10.8-.46,10.29-.43.44,10.29-10.29.44Zm10.79-.45,10.3-.44.43,10.29-10.29.44Zm10.8-.46,10.29-.44.44,10.3-10.3.43Zm10.79-.46,10.3-.43.43,10.29-10.29.44Zm10.8-.46,10.29-.43.44,10.29-10.3.44Zm10.79-.45,10.3-.44.43,10.3-10.29.43Zm10.8-.46,10.29-.44.44,10.3-10.3.43Zm10.79-.46,10.3-.43.43,10.29-10.29.44Zm10.8-.45,10.29-.44.44,10.29-10.3.44Zm10.79-.46,10.3-.44.43,10.3-10.29.43Zm10.8-.46,10.29-.44.44,10.3-10.3.43Zm2-195.24-10.3.44-.43-10.3,10.29-.43Zm-10.8.46L250,93.12l-.44-10.3,10.3-.43Zm-10.79.46-10.3.43-.43-10.29,10.29-.44Zm-10.8.45L228.43,94,228,83.74l10.3-.44Zm-10.79.46-10.3.44-.43-10.3,10.29-.43Zm-10.8.46-10.29.43-.44-10.29,10.3-.44ZM206.34,95l-10.29.43-.44-10.29,10.29-.44Zm-10.79.45-10.3.44-.44-10.3,10.3-.43Zm-10.8.46-10.29.44L174,86l10.29-.43ZM174,96.34l-10.3.43-.43-10.29L173.52,86Zm-10.8.46-10.29.43-.44-10.29,10.3-.44Zm-10.79.45-10.3.44-.43-10.3L151.93,87Zm-10.8.46-10.29.44-.44-10.3,10.3-.44Zm-10.79.46-10.3.43-.43-10.29,10.29-.44Zm-10.8.45-10.29.44-.44-10.29h0l10.3-.44Zm-10.79.46-10.3.44-.43-10.27v0l10.29-.43Zm-10.8.46L88.1,100l-.44-10.25v0L98,89.24ZM87.6,100l-10.3.43-.43-10.24v0l10.29-.44Zm-10.8.45-10.29.44-.43-10.22v-.08l10.3-.43ZM74.3,284.9l10.3-.44.44,10.3-10.3.43Zm10.76,10.36.43,10.29L75.2,306l-.44-10.3Zm.45,10.79L86,316.34l-10.29.44-.44-10.29Zm.5,0,10.3-.44.43,10.3-10.29.43Zm10.8-.46,10.29-.43.44,10.29-10.3.44Zm10.79-.46,10.3-.43.43,10.29-10.29.44Zm10.8-.45,10.29-.44.44,10.3-10.3.43Zm10.79-.46,10.3-.44.43,10.3-10.29.43Zm10.8-.46,10.29-.43.44,10.29-10.3.44Zm10.79-.45,10.3-.44.43,10.29-10.29.44Zm10.8-.46,10.29-.44.44,10.3-10.3.43Zm10.79-.46,10.3-.44.43,10.3-10.29.44Zm10.8-.46,10.29-.43.44,10.29-10.3.44Zm10.79-.45,10.29-.44.44,10.29-10.29.44Zm10.79-.46,10.3-.44.44,10.3-10.3.43Zm10.8-.46,10.29-.43.44,10.29-10.29.44Zm10.79-.46,10.3-.43.43,10.29-10.29.44Zm10.8-.45,10.29-.44.44,10.3-10.3.43Zm10.79-.46,10.3-.44.43,10.3-10.29.43Zm10.8-.46,10.29-.43.44,10.29-10.3.44Zm10.79-.46,10.3-.43.43,10.29-10.29.44Zm10.8-.45,10.29-.44.44,10.3-10.3.43ZM64,296.15l10.29-.44L74.7,306l-7.78.33-2.83-7.22Zm3.14,10.68,7.61-.32.44,10.29-5.85.25,1-2Z" style="fill:#fafafa;opacity:0.1"></path><path d="M159,136.07c-3.1,0-6.18-.06-9.22-.16a.24.24,0,0,1-.19-.11.23.23,0,0,1,0-.21,255.35,255.35,0,0,1,17.82-45.07,1.44,1.44,0,0,1,1.2-.76,1.4,1.4,0,0,1,1.25.66,255.61,255.61,0,0,1,21.57,43.39.24.24,0,0,1,0,.22.23.23,0,0,1-.18.12c-6.75.81-13.71,1.38-20.67,1.67C166.62,136,162.77,136.07,159,136.07Zm-8.88-.65c6.69.22,13.54.19,20.37-.1s13.68-.84,20.32-1.63a258,258,0,0,0-21.41-43,.92.92,0,0,0-.81-.43.94.94,0,0,0-.78.5A258.77,258.77,0,0,0,150.07,135.42Z" style="fill:#fafafa"></path><path d="M141.84,230.68a.24.24,0,0,1-.25-.22c-1-7.93-1.59-15-1.86-21.46-1-23.3,2.3-48,9.77-73.41a.27.27,0,0,1,.25-.18c6.79.24,13.75.21,20.69-.09s13.9-.85,20.64-1.66a.24.24,0,0,1,.26.15,246.08,246.08,0,0,1,12.78,44.5.25.25,0,0,1-.21.29.25.25,0,0,1-.29-.2A245.37,245.37,0,0,0,191,134.17c-6.7.81-13.59,1.36-20.48,1.65s-13.8.33-20.55.09c-7.41,25.3-10.68,49.88-9.69,73.07.27,6.5.88,13.5,1.86,21.42a.26.26,0,0,1-.22.28ZM207,227.92h0a.25.25,0,0,1-.24-.26c.3-8,.32-15,0-21.5a.25.25,0,0,1,.24-.26.24.24,0,0,1,.26.24c.28,6.51.26,13.56,0,21.54A.25.25,0,0,1,207,227.92Z" style="fill:#fafafa"></path><path d="M172.22,200.38a22.05,22.05,0,0,1-22.1-20.71l0-.19c0-.12,0-.24,0-.36a22.2,22.2,0,1,1,44.37-1.88c0,.12,0,.25,0,.38v.17a22.07,22.07,0,0,1-21.26,22.57C172.88,200.38,172.55,200.38,172.22,200.38Zm.07-43.91-.94,0a21.7,21.7,0,0,0-20.77,22.61c0,.11,0,.23,0,.35l0,.19A21.7,21.7,0,0,0,194,177.8v-.18c0-.12,0-.24,0-.36a21.7,21.7,0,0,0-21.66-20.79Zm0,37.92a16.11,16.11,0,1,1,.7,0h-.7Zm.69-.26h0Zm-.67-31.67-.67,0a15.71,15.71,0,1,0,1.33,31.4h0a15.72,15.72,0,0,0-.66-31.42Z" style="fill:#fafafa"></path><path d="M172.25,194.39a16.11,16.11,0,1,1,.7,0h-.7Zm.69-.26h0Zm-.66-31.67-.68,0a15.71,15.71,0,1,0,1.33,31.4h0a15.73,15.73,0,0,0,15-16.37,15.73,15.73,0,0,0-15.68-15Z" style="fill:#fafafa"></path><path d="M130.68,309.58a4.68,4.68,0,0,1-1.62-.3c-2.12-.8-4.16-3.27-4-7l1.77-33.47a7.89,7.89,0,0,1,.52-2.47l14.21-36a.26.26,0,0,1,.27-.16.28.28,0,0,1,.22.22c1.35,10.95,3.19,21.89,5,32.46.56,3.29,1.11,6.55,1.63,9.75l18.62-.79-1-4.28a8.14,8.14,0,0,1-.09-3.26,9.9,9.9,0,0,1,19.33-.82,8.1,8.1,0,0,1,.18,3.25l-.62,4.36,18.62-.79q.38-4.86.8-9.86c.88-10.68,1.79-21.73,2.21-32.76a.24.24,0,0,1,.2-.23.24.24,0,0,1,.27.13l17.21,34.67a7.64,7.64,0,0,1,.73,2.42l4.6,33.2c.51,3.7-1.32,6.33-3.36,7.3a4.64,4.64,0,0,1-5.57-1.26l-17.9-19.24-19.88.84-.75,5.23a5.35,5.35,0,0,1-10.52.45L170.59,286l-19.88.84L134.5,307.55A4.85,4.85,0,0,1,130.68,309.58Zm11-78.14-13.85,35.09a7.39,7.39,0,0,0-.5,2.31l-1.76,33.47h0c-.19,3.48,1.69,5.77,3.64,6.5a4.17,4.17,0,0,0,4.87-1.57l16.28-20.78a.24.24,0,0,1,.18-.09l20.2-.86a.26.26,0,0,1,.26.2l1.23,5.35a4.86,4.86,0,0,0,9.55-.41l.78-5.43a.25.25,0,0,1,.23-.22l20.21-.85a.21.21,0,0,1,.19.08l18,19.32a4.15,4.15,0,0,0,5,1.15c1.88-.89,3.56-3.33,3.08-6.78l-4.59-33.2a7.22,7.22,0,0,0-.69-2.27l-16.77-33.79c-.43,10.71-1.32,21.43-2.18,31.81q-.42,5.1-.81,10.07a.25.25,0,0,1-.24.23l-19.14.81a.28.28,0,0,1-.2-.08.25.25,0,0,1-.06-.2l.67-4.66a7.65,7.65,0,0,0-.17-3.05,9.4,9.4,0,0,0-18.36.78,7.64,7.64,0,0,0,.08,3.05l1.06,4.58a.25.25,0,0,1,0,.21.26.26,0,0,1-.19.1l-19.14.81a.23.23,0,0,1-.25-.21c-.54-3.27-1.1-6.6-1.67-10C144.84,252.68,143.05,242.07,141.71,231.44ZM125.35,302.3Z" style="fill:#fafafa"></path></g><g id="freepik--Character--inject-4"><path d="M381.26,214.79l-4.73-.21,2.14,9a24.77,24.77,0,0,0,4.58-4.05,2.27,2.27,0,0,0-.24-3.21Z" style="fill:#ebb376"></path><polygon points="371.04 219.43 373.17 226.75 378.67 223.56 376.53 214.58 371.04 219.43" style="fill:#ebb376"></polygon><rect x="295.62" y="114.09" width="6.47" height="160.18" transform="translate(556.11 -52.47) rotate(103.19)" style="fill:#F96416"></rect><rect x="295.62" y="114.09" width="6.47" height="160.18" transform="translate(556.11 -52.47) rotate(103.19)" style="opacity:0.6000000000000001"></rect><rect x="292.67" y="126.69" width="6.47" height="160.18" transform="translate(564.75 -34.13) rotate(103.19)" style="fill:#F96416"></rect><rect x="292.67" y="126.69" width="6.47" height="160.18" transform="translate(564.75 -34.13) rotate(103.19)" style="opacity:0.6000000000000001"></rect><rect x="294.15" y="120.39" width="6.47" height="160.18" transform="translate(560.43 -43.31) rotate(103.19)" style="fill:#263238"></rect><polygon points="207.8 182.48 209.13 176.81 221.62 172.76 217.19 191.65 207.8 182.48" style="fill:#e4897b"></polygon><polygon points="203.78 178.55 209.13 176.81 207.8 182.48 203.78 178.55" style="fill:#fafafa"></polygon><path d="M304.66,172.25c-3.35,4.5-6.81,8.74-10.5,12.91-1.85,2.07-3.72,4.13-5.69,6.13s-4,4-6.13,5.88l-.4.36-.55.48a10.15,10.15,0,0,1-1.77,1.16,10.81,10.81,0,0,1-3.44,1.06,17.47,17.47,0,0,1-5.54-.2,39.73,39.73,0,0,1-8.69-2.85,80.25,80.25,0,0,1-14.59-8.7l2.84-4.73c2.39,1,4.88,2.07,7.34,3s4.93,1.82,7.37,2.53a35.77,35.77,0,0,0,7,1.46,7.89,7.89,0,0,0,2.58-.15c.27-.08.42-.17.41-.19s0,0-.08,0,.09-.1.19-.21l.34-.34c3.57-3.71,7-7.76,10.4-11.86s6.75-8.32,10-12.45Z" style="fill:#ebb376"></path><polygon points="239.55 175.03 235.42 180.29 242.55 185.56 246.67 177.83 239.55 175.03" style="fill:#ebb376"></polygon><path d="M250.48,183.9l-3.81-6.07-4.12,7.73s3.51,5.2,8,3.19Z" style="fill:#ebb376"></path><path d="M345.37,164.64q4.13,7.29,7.95,14.77c1.29,2.47,2.53,5,3.8,7.47l1.85,3.77.47.93c.1.16.12.28.27.5s.24.4.41.64.32.45.51.69a70.18,70.18,0,0,0,5.13,5.88c1.85,2,3.81,3.9,5.75,5.86l11.86,11.67-3.43,4.32c-4.76-3.1-9.36-6.35-13.83-9.84-2.26-1.73-4.45-3.55-6.64-5.42a74.52,74.52,0,0,1-6.44-6.22c-.26-.29-.53-.61-.79-.95s-.54-.68-.81-1.06-.57-.85-.84-1.28l-.54-.9-2.15-3.6c-1.4-2.41-2.84-4.8-4.21-7.23q-4.2-7.24-8.08-14.65Z" style="fill:#ebb376"></path><path d="M307.55,136.22c.12.58-.09,1.13-.46,1.23s-.78-.3-.9-.88.08-1.13.45-1.23S307.42,135.64,307.55,136.22Z" style="fill:#263238"></path><path d="M307.52,137.34a22.24,22.24,0,0,1-1.7,5.65,3.39,3.39,0,0,0,2.86-.17Z" style="fill:#de5753"></path><path d="M306,132.7a.35.35,0,0,1-.29-.15.34.34,0,0,1,.09-.48,3.41,3.41,0,0,1,3.15-.24.36.36,0,0,1,.19.46.35.35,0,0,1-.45.19,2.69,2.69,0,0,0-2.49.16A.36.36,0,0,1,306,132.7Z" style="fill:#263238"></path><path d="M327.77,138.43c-1.26,5.38-2.69,15.22.93,18.81,0,0-1.68,5.45-11.67,5.45-11,0-5-5.45-5-5.45,6.05-1.43,6.07-5.88,5.19-10.05Z" style="fill:#ebb376"></path><path d="M330.06,159.11c.86-1.72,1.8-3.7,0-4.32-1.94-.68-12.71-1.37-16.48-.1a4,4,0,0,0-2.85,4.78Z" style="fill:#F96416"></path><path d="M330.06,159.11c.86-1.72,1.8-3.7,0-4.32-1.94-.68-12.71-1.37-16.48-.1a4,4,0,0,0-2.85,4.78Z" style="fill:#fafafa;opacity:0.6000000000000001"></path><path d="M346.33,409.64s-2.79-2-3.45-.85C342.1,410.12,345.15,409.93,346.33,409.64Z" style="fill:#F96416"></path><path d="M346.33,409.64s-.12-3.13-1.47-3S345.4,409.13,346.33,409.64Z" style="fill:#F96416"></path><path d="M302.56,409.64s-3.46-2-4.18-.85S301.14,409.93,302.56,409.64Z" style="fill:#F96416"></path><path d="M302.56,409.64s-.18-3.13-1.8-3S301.43,409.13,302.56,409.64Z" style="fill:#F96416"></path><polygon points="310.64 409.64 303.29 409.64 303.22 392.63 310.56 392.63 310.64 409.64" style="fill:#ebb376"></polygon><polygon points="354.75 409.64 347.4 409.64 344.37 392.63 351.71 392.63 354.75 409.64" style="fill:#ebb376"></polygon><path d="M346.91,408.79h8.25a.61.61,0,0,1,.61.51l1.2,6.53a1.13,1.13,0,0,1-1.13,1.3c-2.88-.05-4.27-.22-7.9-.22-2.23,0-6.84.24-9.92.24s-3.37-3-2.1-3.33c5.71-1.24,7.91-2.95,9.78-4.57A1.83,1.83,0,0,1,346.91,408.79Z" style="fill:#263238"></path><path d="M303.37,408.79h8a.6.6,0,0,1,.6.51l1.2,6.53a1.11,1.11,0,0,1-1.11,1.3c-2.89-.05-7.06-.22-10.7-.22-4.25,0-7.94.24-12.92.24-3,0-3.74-3-2.47-3.33,5.8-1.26,10.5-1.39,15.58-4.45A3.46,3.46,0,0,1,303.37,408.79Z" style="fill:#263238"></path><path d="M342.72,158.9c6.82,1.58,14,20.35,14,20.35l-14.19,9.48A110.51,110.51,0,0,1,334,173.2C330.23,164.61,335.74,157.29,342.72,158.9Z" style="fill:#F96416"></path><path d="M337.32,170.87l5.87,17.41-.67.45s-2.68-4-5.53-9.33Z" style="fill:#F96416"></path><path d="M337.32,170.87l5.87,17.41-.67.45s-2.68-4-5.53-9.33Z" style="opacity:0.2"></path><path d="M296.88,191.72c.06,8.2.55,18.4,1.78,31.06H338c.5-6-2.16-35.46,4.75-63.88a101.07,101.07,0,0,0-13.08-1.66,145.27,145.27,0,0,0-16.7,0,75.12,75.12,0,0,0-11.38,2s-3.36,3.64-4.38,20.71C297,183.36,296.86,187.24,296.88,191.72Z" style="fill:#F96416"></path><path d="M296.88,191.72c2.38-4.34,6.7-13.05,6.09-18l-5.8,6.28C297,183.36,296.86,187.24,296.88,191.72Z" style="fill:#F96416"></path><path d="M296.88,191.72c2.38-4.34,6.7-13.05,6.09-18l-5.8,6.28C297,183.36,296.86,187.24,296.88,191.72Z" style="opacity:0.2"></path><path d="M309.25,165.92c.62,7-15.25,23.84-15.25,23.84L281.28,179.4a82,82,0,0,1,11.89-15.5C300.61,156.71,308.56,158.08,309.25,165.92Z" style="fill:#F96416"></path><polygon points="303.22 392.64 303.26 401.4 310.61 401.4 310.57 392.64 303.22 392.64" style="fill:#da9d62"></polygon><polygon points="351.71 392.64 344.36 392.64 345.93 401.4 353.28 401.4 351.71 392.64" style="fill:#da9d62"></polygon><path d="M326.45,130.15c1.07,7.24,2.07,11.4-.72,16a9.49,9.49,0,0,1-16.79-.89c-2.87-6-4.15-16.84,2.16-21.42A9.58,9.58,0,0,1,326.45,130.15Z" style="fill:#ebb376"></path><path d="M333.67,133.72c-2.52,6.48-4.34,9.33-7.36,10.38-7.88,2.74-12.75-6.86-14.58-15.23a14.74,14.74,0,0,1-7-2.15c-3.48-2.22-4.68-6.16,1.31-9.55.05.22,1.27,2.64,5.85,1,7.68-2.75,22.39-5.67,20.08,2.72C335.61,120.94,336.18,127.25,333.67,133.72Z" style="fill:#263238"></path><path d="M317.36,134.63a8.62,8.62,0,0,1-1.76,5.09c-1.49,1.92-3.2,1-3.61-1.16-.36-1.92,0-5.24,1.86-6.4S317.37,132.43,317.36,134.63Z" style="fill:#ebb376"></path><path d="M330.66,120.78a6.17,6.17,0,0,0,4.14-4S336.17,122.52,330.66,120.78Z" style="fill:#263238"></path><path d="M312.6,222.78s6.17,56.14,9.93,77.17c4.12,23,20,99.76,20,99.76H356s-9.56-74.87-11.54-97.67c-2.15-24.75-6.54-79.26-6.54-79.26Z" style="fill:#F96416"></path><path d="M312.6,222.78s6.17,56.14,9.93,77.17c4.12,23,20,99.76,20,99.76H356s-9.56-74.87-11.54-97.67c-2.15-24.75-6.54-79.26-6.54-79.26Z" style="fill:#fafafa;opacity:0.6000000000000001"></path><path d="M340.62,394.75c-.06,0,1.19,5.17,1.19,5.17h15.13l-.09-4.61Z" style="fill:#F96416"></path><path d="M340.62,394.75c-.06,0,1.19,5.17,1.19,5.17h15.13l-.09-4.61Z" style="fill:#fafafa;opacity:0.1"></path><path d="M317.09,242.78c9.57,1.89,7.16,37.84,5.29,56.33C320.1,286,317,260.89,314.91,243A3.35,3.35,0,0,1,317.09,242.78Z" style="fill:#F96416"></path><path d="M317.09,242.78c9.57,1.89,7.16,37.84,5.29,56.33C320.1,286,317,260.89,314.91,243A3.35,3.35,0,0,1,317.09,242.78Z" style="fill:#fafafa;opacity:0.4"></path><path d="M298.66,222.78s-3.13,54.92-3.2,77.33c-.07,23.3,5.12,99.6,5.12,99.6H313s3.35-74.94,4.79-97.82c1.56-24.95,6.67-79.11,6.67-79.11Z" style="fill:#F96416"></path><path d="M298.66,222.78s-3.13,54.92-3.2,77.33c-.07,23.3,5.12,99.6,5.12,99.6H313s3.35-74.94,4.79-97.82c1.56-24.95,6.67-79.11,6.67-79.11Z" style="fill:#fafafa;opacity:0.6000000000000001"></path><path d="M303.53,390.77a.13.13,0,0,1-.13-.12c-1.38-21.12-4.58-72.22-4.52-90.54.05-18.76,2.28-60.7,3-73.11a.13.13,0,1,1,.25,0c-.68,12.41-2.91,54.35-3,73.1-.06,18.31,3.14,69.41,4.52,90.52a.13.13,0,0,1-.12.14Z" style="fill:#F96416"></path><path d="M303.53,390.77a.13.13,0,0,1-.13-.12c-1.38-21.12-4.58-72.22-4.52-90.54.05-18.76,2.28-60.7,3-73.11a.13.13,0,1,1,.25,0c-.68,12.41-2.91,54.35-3,73.1-.06,18.31,3.14,69.41,4.52,90.52a.13.13,0,0,1-.12.14Z" style="fill:#fafafa;opacity:0.4"></path><path d="M298.38,394.75c-.06,0,.5,5.17.5,5.17H314l.59-4.61Z" style="fill:#F96416"></path><path d="M298.38,394.75c-.06,0,.5,5.17.5,5.17H314l.59-4.61Z" style="fill:#fafafa;opacity:0.1"></path></g></svg>