<svg xmlns="http://www.w3.org/2000/svg" viewBox="0 0 500 500"><g id="freepik--background-complete--inject-160"><rect x="414.79" y="66.69" width="26.48" height="11.19" transform="translate(856.07 144.56) rotate(180)" style="fill:#ebebeb"></rect><rect x="429.56" y="52.58" width="26.48" height="11.19" transform="translate(885.61 116.34) rotate(180)" style="fill:#ebebeb"></rect><rect x="400.02" y="52.58" width="26.48" height="11.19" transform="translate(826.52 116.34) rotate(180)" style="fill:#ebebeb"></rect><rect x="58.73" y="52.58" width="26.48" height="11.19" transform="translate(143.93 116.34) rotate(180)" style="fill:#ebebeb"></rect><rect x="58.73" y="331.75" width="26.48" height="11.19" transform="translate(143.93 674.68) rotate(180)" style="fill:#ebebeb"></rect><rect x="43.96" y="317.64" width="26.48" height="11.19" transform="translate(114.39 646.47) rotate(180)" style="fill:#ebebeb"></rect><rect x="429.56" y="331.74" width="26.48" height="11.19" transform="translate(885.61 674.66) rotate(180)" style="fill:#ebebeb"></rect><rect x="385.75" y="172.45" width="26.48" height="11.19" style="fill:#ebebeb"></rect><rect x="370.98" y="186.56" width="26.48" height="11.19" style="fill:#ebebeb"></rect><polygon points="51.38 133.24 146.37 133.24 146.37 83.39 51.38 83.39 51.38 83.39 51.38 133.24 51.38 133.24" style="fill:#ebebeb"></polygon><polygon points="161.08 133.24 146.37 133.24 146.37 117.93 161.08 133.24" style="fill:#ebebeb"></polygon><rect x="60.47" y="92.01" width="76.81" height="0.95" style="fill:#fff"></rect><rect x="60.47" y="97.12" width="47.63" height="0.95" style="fill:#fff"></rect><rect x="60.47" y="107.35" width="65.25" height="0.95" style="fill:#fff"></rect><rect x="60.47" y="112.47" width="76.81" height="0.95" style="fill:#fff"></rect><rect x="60.47" y="117.58" width="76.81" height="0.95" style="fill:#fff"></rect><rect x="60.47" y="122.7" width="37.87" height="0.95" style="fill:#fff"></rect><rect x="346.91" y="215.98" width="95" height="43.97" style="fill:#dbdbdb"></rect><polygon points="332.21 259.95 346.91 259.95 346.91 244.64 332.21 259.95" style="fill:#dbdbdb"></polygon><rect x="356.19" y="238.94" width="68.99" height="0.95" style="fill:#fff"></rect><rect x="356.19" y="244.06" width="58.18" height="0.95" style="fill:#fff"></rect><rect x="356.19" y="228.71" width="61.33" height="0.95" style="fill:#fff"></rect><rect x="356.19" y="223.59" width="75.06" height="0.95" style="fill:#fff"></rect><rect x="356.19" y="249.17" width="62.51" height="0.95" style="fill:#fff"></rect><rect x="89.9" y="144.71" width="95" height="28.97" style="fill:#dbdbdb"></rect><polygon points="75.2 173.67 89.9 173.67 89.9 158.36 75.2 173.67" style="fill:#dbdbdb"></polygon><rect x="99.18" y="152.66" width="68.99" height="0.95" style="fill:#fff"></rect><rect x="99.18" y="157.78" width="58.18" height="0.95" style="fill:#fff"></rect><rect x="99.18" y="162.89" width="62.51" height="0.95" style="fill:#fff"></rect><path d="M412.94,312.14A19,19,0,1,0,410.29,290,19.06,19.06,0,0,0,412.94,312.14Z" style="fill:#ebebeb"></path><path d="M421.89,295.6a5.77,5.77,0,1,0,7.11-4A5.77,5.77,0,0,0,421.89,295.6Z" style="fill:#fff"></path><path d="M413.58,309.84l-.64,2.3a19,19,0,0,0,19.25,5.31l.64-2.29a10,10,0,0,0-19.25-5.32Z" style="fill:#fff"></path><path d="M43.6,201.78a17,17,0,1,1,20.54,12.47A17,17,0,0,1,43.6,201.78Z" style="fill:#ebebeb"></path><path d="M68.78,199.87c-2.57,5.18-8.68,8.25-8.68,8.25s-6.1-3.07-8.67-8.25c-2.13-4.32-.78-9,2.59-10,4.84-1.47,6.08,7,6.08,7s1.24-8.43,6.08-7C69.56,190.88,70.91,195.55,68.78,199.87Z" style="fill:#fff"></path><g id="freepik--xsrjP0--inject-160"><path d="M118.22,275.15c-1.07-.66-2-1.63-3.43-1.49-.54,0-.42-.4-.43-.7l-.06-16.08c0-.39,0-.71.44-.93,4.09-2.08,5.85-6.14,8.35-9.62A16,16,0,0,0,126,234.15c-.17-1.2.39-1.75,1.47-2a2.72,2.72,0,0,1,3.07.95,21.81,21.81,0,0,1,2.36,7c.24,2-.48,4-.73,6-.18,1.47-.52,2.93-.79,4.42.36.26.77.12,1.16.13l13.59,0c1.91,0,2.84.54,3.11,1.8a3.64,3.64,0,0,1-2,3.94c-.34.17-1,0-1,.55s.59.48.91.7c1.64,1.11,1.34,3.43-.55,4.78-.45.32-1.34.18-1.36.85s.82.52,1.2.9c1.32,1.3.67,3.75-1.3,4.74a5.52,5.52,0,0,0-.8.31c-.22.15-.44.32,0,.63,2,1.39,1.93,3.34,0,4.77l-.59.43a3.84,3.84,0,0,1-2.38.53c-7.11,0-14.21.05-21.31.07A2.47,2.47,0,0,1,118.22,275.15Z" style="fill:#ebebeb;fill-rule:evenodd"></path><path d="M98,265.76c0-3.4,0-6.81,0-10.22,0-.69.07-1,.92-1q6.23,0,12.46,0c.81,0,.94.27.94,1q0,10.29.07,20.57c0,.87-.23,1.12-1.1,1.1q-6,0-12.09.05c-1,0-1.14-.33-1.13-1.21C98,272.58,98,269.17,98,265.76Z" style="fill:#ebebeb;fill-rule:evenodd"></path></g><g id="freepik--xsrjp0--inject-160"><path d="M438.61,199.4c-.62-.39-1.17-1-2-.88-.32,0-.25-.23-.25-.41,0-3.15,0-6.29,0-9.44a.52.52,0,0,1,.26-.55c2.41-1.22,3.44-3.61,4.91-5.65a9.4,9.4,0,0,0,1.72-7.15c-.11-.71.22-1,.86-1.17a1.58,1.58,0,0,1,1.8.55,12.92,12.92,0,0,1,1.39,4.13,14.78,14.78,0,0,1-.43,3.54c-.11.86-.3,1.72-.46,2.59.21.16.45.07.68.08l8,0c1.12,0,1.67.32,1.83,1.06a2.13,2.13,0,0,1-1.15,2.31c-.2.1-.56,0-.59.33s.35.28.54.41c1,.65.79,2-.32,2.81-.27.19-.79.1-.8.5s.48.3.7.52a1.8,1.8,0,0,1-.76,2.79,3.27,3.27,0,0,0-.47.18c-.13.09-.26.19,0,.37a1.56,1.56,0,0,1,0,2.8l-.34.25a2.24,2.24,0,0,1-1.4.32l-12.52,0A1.51,1.51,0,0,1,438.61,199.4Z" style="fill:#ebebeb;fill-rule:evenodd"></path><path d="M426.74,193.88c0-2,0-4,0-6,0-.4,0-.6.53-.6q3.66,0,7.32,0c.48,0,.56.16.55.58q0,6,.05,12.08c0,.51-.14.66-.65.65-2.37,0-4.73,0-7.1,0-.59,0-.67-.2-.67-.71C426.77,197.89,426.74,195.89,426.74,193.88Z" style="fill:#ebebeb;fill-rule:evenodd"></path></g></g><g id="freepik--Shadow--inject-160"><ellipse cx="250" cy="427.8" rx="205.47" ry="26.47" style="fill:#ebebeb"></ellipse></g><g id="freepik--Floor--inject-160"><polygon points="39.97 368.19 92.48 367.95 144.99 367.86 250 367.69 355.01 367.86 407.52 367.94 460.03 368.19 407.52 368.44 355.01 368.52 250 368.69 144.99 368.52 92.48 368.43 39.97 368.19" style="fill:#263238"></polygon></g><g id="freepik--Plant--inject-160"><path d="M456.69,304c-8.8,11.92-18,25.77-20.22,40.73,0,.22.33.3.38.07a90.09,90.09,0,0,1,3.9-12c5.79-1.59,11.47-2.9,14.51-8.65s2.71-13.61,2.12-20C457.34,303.74,456.87,303.73,456.69,304Z" style="fill:#FE8024"></path><path d="M440.84,332.67c4-8.88,9-17.79,15.49-25.09,0-.05.11,0,.07.07a106.26,106.26,0,0,0-10.58,16.62c2.92-3,6.12-5.61,8.88-8.75.05-.06.14,0,.09.09-2.75,3.29-5.74,6.87-9.31,9.3-1,1.77-1.93,3.55-2.91,5.32.24-.14.49-.26.73-.38.05,0,.09,0,0,.07-.27.14-.54.28-.82.4-.47.84-.92,1.68-1.4,2.52C441,333,440.75,332.86,440.84,332.67Z" style="fill:#263238"></path><path d="M443.78,329.57a51,51,0,0,0,6.76-4.51c.06-.05.14,0,.08.08a35.53,35.53,0,0,1-6.74,4.6A.1.1,0,0,1,443.78,329.57Z" style="fill:#263238"></path><path d="M435.45,342.46c0,.18.32.18.32,0,0-4.93,0-9.88.08-14.83,1.26-2.54,4-3.95,5.85-6a26.45,26.45,0,0,0,3.51-4.89,35.08,35.08,0,0,0,4.08-13.59c.52-5.27-1.48-22.66-3.7-22.06-1.15.32-4.88,8.93-5.87,11.77a81.51,81.51,0,0,0-3.5,14.44C434.42,318.89,434.57,330.8,435.45,342.46Z" style="fill:#FE8024"></path><path d="M435.41,321.21l0,0c.27-6.23,1.68-12.53,3-18.57,1.42-6.51,3.07-12.65,6.43-18.45a.09.09,0,1,1,.16.09,68.83,68.83,0,0,0-5.16,14.17c.23-.35.5-.69.73-1,.09-.13.31,0,.22.13a9.66,9.66,0,0,1-1.05,1.48l0,0c-1.16,4.65-2,9.41-2.69,14.16l.16-.18s.09,0,.07.06l-.28.47c-.36,2.41-.69,4.81-1,7.2a33.93,33.93,0,0,0,10-13.32s0,0,0,0c-2,5.52-5.22,10.44-10.13,13.79l-.27,1.93c0,.13-.23.09-.23,0,0-.56,0-1.13.05-1.7A.14.14,0,0,1,435.41,321.21Z" style="fill:#263238"></path><path d="M437.43,312.18a99.61,99.61,0,0,0,8.75-15.06c0-.06.13,0,.11,0a49.07,49.07,0,0,1-8.69,15.15C437.52,312.4,437.37,312.28,437.43,312.18Z" style="fill:#263238"></path><path d="M441.79,295.91c1.36-2.41,2.79-4.75,4.07-7.2,0-.07.13,0,.11.06a37.59,37.59,0,0,1-4,7.26A.12.12,0,0,1,441.79,295.91Z" style="fill:#263238"></path><path d="M441.26,297a0,0,0,0,1,0,.05S441.24,297,441.26,297Z" style="fill:#263238"></path><path d="M432.11,328.22a49.34,49.34,0,0,1-1.15,9.7l.15,1.06a46.19,46.19,0,0,0,1.74-10.81.34.34,0,0,0,0-.34h0a71.49,71.49,0,0,0-1.08-14.66c-1.53-9.05-4.86-17.74-11.18-24.52a.44.44,0,0,0-.69.14c-2.55,6.48-1.66,14.21.51,20.67a37.79,37.79,0,0,0,5,9.82C427.59,322.31,430.35,324.89,432.11,328.22Z" style="fill:#FE8024"></path><path d="M421.35,291.67c6,9.71,10.15,21.22,10.66,32.69,0,.21-.34.26-.36.05-.15-1-.3-2.05-.47-3.07h0a39.39,39.39,0,0,1-6.79-7.84c0-.05.05-.11.09-.06a82.93,82.93,0,0,0,6.59,7.18c-.43-2.54-.93-5-1.53-7.5-.17-.18-.32-.37-.48-.55s.07-.3.18-.18l.14.16a84.09,84.09,0,0,0-3.13-9.93c-1.52-1.82-3.22-3.39-4.33-5.58,0-.05,0-.09.08-.05a43.15,43.15,0,0,0,2.77,3.68c.4.46.84.89,1.26,1.34a77.48,77.48,0,0,0-4.9-10.21A.13.13,0,0,1,421.35,291.67Z" style="fill:#263238"></path><path d="M422.56,303.65c1.94,2.6,4.14,5.08,5.94,7.77.05.08-.06.16-.13.1a40,40,0,0,1-5.94-7.8C422.38,303.64,422.51,303.57,422.56,303.65Z" style="fill:#263238"></path><path d="M428.77,312l.08.08a.06.06,0,0,1-.09.09l-.08-.08A.06.06,0,0,1,428.77,312Z" style="fill:#263238"></path><path d="M412,310.34a29.84,29.84,0,0,0,6.31,14.81,15.73,15.73,0,0,0,5.12,4c2.22,1.09,4.54,2.36,6.84,3.26a44.55,44.55,0,0,1,2.41,8.59c.08-.25.15-.51.23-.76-1.48-12.65-9.66-23.46-20.13-30.4A.51.51,0,0,0,412,310.34Z" style="fill:#FE8024"></path><path d="M415.59,314.07c-.07-.06,0-.19.11-.13A42.77,42.77,0,0,1,429,330.38c.08.17-.16.32-.26.15-.48-.85-1-1.68-1.49-2.5h0c-2.39-.45-4.66-2.13-6.43-3.72a0,0,0,1,1,.07-.07,14.86,14.86,0,0,0,3,2.12c1,.49,2,.81,3,1.2-.88-1.4-1.81-2.75-2.77-4.06a28,28,0,0,1-7.18-4c-.07,0,0-.16.06-.11a75.31,75.31,0,0,0,6.68,3.57,61.09,61.09,0,0,0-4.71-5.5c-.82-.43-1.64-.86-2.43-1.32a.07.07,0,0,1,.06-.12,9.06,9.06,0,0,1,1.85.91C417.61,315.94,416.64,315,415.59,314.07Z" style="fill:#263238"></path><path d="M415.82,318.44a3.69,3.69,0,0,1,.4.29s0,.08-.05.07a3.5,3.5,0,0,1-.42-.24A.07.07,0,0,1,415.82,318.44Z" style="fill:#263238"></path><polygon points="449.23 368.4 420.54 368.4 422.85 342.27 423.36 336.51 446.4 336.51 446.91 342.27 449.23 368.4" style="fill:#455a64"></polygon><polygon points="446.91 342.27 422.85 342.27 423.36 336.51 446.4 336.51 446.91 342.27" style="fill:#263238"></polygon><rect x="421.99" y="332.48" width="25.79" height="5.7" style="fill:#455a64"></rect></g><g id="freepik--Device--inject-160"><path d="M328.34,57.26H171.64A16,16,0,0,0,155.79,73.4V396a16,16,0,0,0,15.85,16.15h156.7A16,16,0,0,0,344.21,396V73.4A16,16,0,0,0,328.34,57.26Zm6,328.74c0,8.5-6.36,15.36-14.2,15.36H179.91c-7.86,0-14.22-6.86-14.22-15.36V85.63c0-17.3,6.36-18.14,14.22-18.14H208c1.63,0,3,1.85,3,4.15v1c0,5.39,3,5.41,6.58,5.41h64.94c3.65,0,6.57,0,6.57-5.41v-1c0-2.3,1.31-4.15,3-4.15H320.1c7.84,0,14.2,2.3,14.2,18.14Z" style="fill:#263238"></path><path d="M258.85,71.31H241.14a1.09,1.09,0,0,1-1.09-1.09h0a1.09,1.09,0,0,1,1.09-1.1h17.71a1.1,1.1,0,0,1,1.1,1.1h0A1.09,1.09,0,0,1,258.85,71.31Z" style="fill:#fff"></path><path d="M334.3,85.63V386c0,8.5-6.36,15.36-14.2,15.36H179.91c-7.86,0-14.22-6.86-14.22-15.36V85.63c0-17.3,6.36-18.14,14.22-18.14H208c1.63,0,3,1.85,3,4.15v1C211,78,213.9,78,217.53,78h64.94c3.65,0,6.57,0,6.57-5.41v-1c0-2.3,1.32-4.15,3-4.15H320.1C327.94,67.49,334.3,69.79,334.3,85.63Z" style="fill:#fff"></path><path d="M334.3,85.63V108H165.69V85.63c0-17.3,6.36-18.14,14.22-18.14H208c1.64,0,3,1.85,3,4.15v1C211,78,213.91,78,217.52,78h64.94c3.65,0,6.58,0,6.58-5.41v-1c0-2.3,1.32-4.15,3-4.15H320.1C327.94,67.49,334.3,69.79,334.3,85.63Z" style="fill:#FE8024"></path><polygon points="182.76 97.1 177.78 92.43 182.76 87.77 183.53 88.59 179.43 92.43 183.53 96.28 182.76 97.1" style="fill:#fff"></polygon><path d="M322.22,90.51a1,1,0,1,1-1-1A1,1,0,0,1,322.22,90.51Z" style="fill:#fff"></path><path d="M322.22,94a1,1,0,1,1-1-1A1,1,0,0,1,322.22,94Z" style="fill:#fff"></path><path d="M322.22,97.48a1,1,0,1,1-1-1A1,1,0,0,1,322.22,97.48Z" style="fill:#fff"></path><g id="freepik--u5Zjqx--inject-160"><path d="M203.15,74.24l-.28.26-.15.16a3.68,3.68,0,0,0-5.23,0l-.15-.15-.27-.27h0l0,0,.34-.3a4.1,4.1,0,0,1,.79-.51,4.47,4.47,0,0,1,1.05-.35l.53-.07h.46l.36,0a4.48,4.48,0,0,1,1.62.53,5.35,5.35,0,0,1,.62.44l.29.26Z" style="fill:#fff"></path><path d="M198.35,75.51l-.43-.42a3.09,3.09,0,0,1,4.37,0l-.43.43a2.47,2.47,0,0,0-3.51,0Z" style="fill:#fff"></path><path d="M201.43,75.94l-.43.43a1.23,1.23,0,0,0-.89-.38,1.26,1.26,0,0,0-.9.38l-.43-.43A1.86,1.86,0,0,1,201.43,75.94Z" style="fill:#fff"></path><path d="M200.49,76.75a.39.39,0,1,1-.38-.38A.38.38,0,0,1,200.49,76.75Z" style="fill:#fff"></path></g><path d="M176.69,75.06a1.12,1.12,0,1,1,1.12,1.11A1.12,1.12,0,0,1,176.69,75.06Z" style="fill:#fff"></path><path d="M180.21,75.06a1.12,1.12,0,1,1,1.11,1.11A1.12,1.12,0,0,1,180.21,75.06Z" style="fill:#fff"></path><path d="M183.73,75.06a1.12,1.12,0,1,1,1.11,1.11A1.12,1.12,0,0,1,183.73,75.06Z" style="fill:#fff"></path><path d="M187.25,75.06a1.12,1.12,0,1,1,1.11,1.11A1.12,1.12,0,0,1,187.25,75.06Z" style="fill:#fff"></path><path d="M190.77,75.06a1.12,1.12,0,1,1,1.11,1.11A1.12,1.12,0,0,1,190.77,75.06Z" style="fill:#fff"></path><path d="M321.67,77.51h-9.13V73.26h9.13ZM313,77h8.13V73.76H313Z" style="fill:#fff"></path><rect x="313.31" y="74" width="5.86" height="2.78" style="fill:#fff"></rect><rect x="321.66" y="74.26" width="0.81" height="2.25" style="fill:#fff"></rect><polygon points="191.31 383 190.03 383 190.03 388.89 187.64 388.89 187.64 385.89 183.39 385.89 183.39 388.89 181 388.89 181 383 179.72 383 185.51 377.01 191.31 383" style="fill:#ebebeb"></polygon><rect x="306.31" y="377.01" width="13.98" height="2" style="fill:#ebebeb"></rect><rect x="306.31" y="381.95" width="13.98" height="2" style="fill:#ebebeb"></rect><rect x="306.31" y="386.89" width="13.98" height="2" style="fill:#ebebeb"></rect><polygon points="253.97 382.16 250 386.4 246.03 382.16 246.73 381.5 250 384.99 253.27 381.5 253.97 382.16" style="fill:#ebebeb"></polygon><path d="M250,390.8a7.24,7.24,0,1,1,7.24-7.24A7.25,7.25,0,0,1,250,390.8Zm0-13.48a6.24,6.24,0,1,0,6.24,6.24A6.25,6.25,0,0,0,250,377.32Z" style="fill:#ebebeb"></path><path d="M234.73,94a4.55,4.55,0,0,1,4.55-4.46,4.61,4.61,0,0,1,2.86,1,.71.71,0,0,1-.87,1.12,3.11,3.11,0,0,0-2-.68,3.29,3.29,0,0,0-2.24.9,3,3,0,0,0,0,4.31,3.28,3.28,0,0,0,2.24.89,3.1,3.1,0,0,0,2-.68.75.75,0,0,1,1,.14.72.72,0,0,1-.12,1,4.61,4.61,0,0,1-2.86,1A4.54,4.54,0,0,1,234.73,94Z" style="fill:#fff"></path><path d="M244.67,97.77V90.46a.69.69,0,0,1,1.38,0v3h3.21v-3a.67.67,0,0,1,.68-.68.69.69,0,0,1,.7.68v7.31a.69.69,0,0,1-.7.69.68.68,0,0,1-.68-.69v-3h-3.21v3a.69.69,0,0,1-1.38,0Z" style="fill:#fff"></path><path d="M257.09,96.41h-3L253.47,98a.7.7,0,0,1-.65.44.85.85,0,0,1-.23,0,.7.7,0,0,1-.41-.89l2.74-7.31a.69.69,0,0,1,.66-.43.68.68,0,0,1,.65.43L259,97.53a.7.7,0,0,1-.41.89.79.79,0,0,1-.23,0,.66.66,0,0,1-.63-.44Zm-.51-1.36-1-2.67-1,2.67Z" style="fill:#fff"></path><path d="M264.74,91.15h-2v6.62a.68.68,0,1,1-1.36,0V91.15h-2a.68.68,0,0,1-.68-.69.67.67,0,0,1,.68-.68h5.29a.68.68,0,0,1,.68.68A.7.7,0,0,1,264.74,91.15Z" style="fill:#fff"></path><polygon points="184.13 233.44 304.71 233.44 304.71 195.57 184.13 195.57 184.13 195.57 184.13 233.44 184.13 233.44" style="fill:#455a64"></polygon><polygon points="315.88 233.44 304.71 233.44 304.71 221.81 315.88 233.44" style="fill:#455a64"></polygon><rect x="191.03" y="202.12" width="106.77" height="0.72" style="fill:#fff"></rect><rect x="191.03" y="206.01" width="84.61" height="0.72" style="fill:#fff"></rect><rect x="191.03" y="213.78" width="97.99" height="0.72" style="fill:#fff"></rect><rect x="191.03" y="217.66" width="106.77" height="0.72" style="fill:#fff"></rect><rect x="191.03" y="221.55" width="106.77" height="0.72" style="fill:#fff"></rect><rect x="191.03" y="225.43" width="77.2" height="0.72" style="fill:#fff"></rect><polygon points="184.13 322.86 304.71 322.86 304.71 284.99 184.13 284.99 184.13 284.99 184.13 322.86 184.13 322.86" style="fill:#455a64"></polygon><polygon points="315.88 322.86 304.71 322.86 304.71 311.23 315.88 322.86" style="fill:#455a64"></polygon><rect x="191.03" y="291.54" width="106.77" height="0.72" style="fill:#fff"></rect><rect x="191.03" y="295.42" width="84.61" height="0.72" style="fill:#fff"></rect><rect x="191.03" y="303.19" width="97.99" height="0.72" style="fill:#fff"></rect><rect x="191.03" y="307.08" width="106.77" height="0.72" style="fill:#fff"></rect><rect x="191.03" y="310.96" width="106.77" height="0.72" style="fill:#fff"></rect><rect x="191.03" y="314.85" width="77.2" height="0.72" style="fill:#fff"></rect><rect x="195.29" y="126.05" width="120.58" height="31.95" style="fill:#FE8024"></rect><polygon points="184.13 158 195.29 158 195.29 146.37 184.13 158" style="fill:#FE8024"></polygon><rect x="202.34" y="131.95" width="88.93" height="0.72" style="fill:#fff"></rect><rect x="202.34" y="135.84" width="106.77" height="0.72" style="fill:#fff"></rect><rect x="202.34" y="139.72" width="106.77" height="0.72" style="fill:#fff"></rect><rect x="202.34" y="143.61" width="98.31" height="0.72" style="fill:#fff"></rect><rect x="202.34" y="147.49" width="106.77" height="0.72" style="fill:#fff"></rect><rect x="202.34" y="151.38" width="78.89" height="0.72" style="fill:#fff"></rect><rect x="195.29" y="163.17" width="120.58" height="23.69" style="fill:#FE8024"></rect><polygon points="184.13 186.86 195.29 186.86 195.29 175.23 184.13 186.86" style="fill:#FE8024"></polygon><rect x="202.34" y="169.07" width="106.58" height="0.72" style="fill:#fff"></rect><rect x="202.34" y="172.95" width="87.72" height="0.72" style="fill:#fff"></rect><rect x="202.34" y="176.84" width="96.53" height="0.72" style="fill:#fff"></rect><rect x="202.34" y="180.72" width="74.46" height="0.72" style="fill:#fff"></rect><rect x="195.29" y="242.71" width="120.58" height="33.39" style="fill:#dbdbdb"></rect><polygon points="184.13 276.1 195.29 276.1 195.29 264.47 184.13 276.1" style="fill:#dbdbdb"></polygon><rect x="202.34" y="260.14" width="100.83" height="0.72" style="fill:#fff"></rect><rect x="202.34" y="264.03" width="92.62" height="0.72" style="fill:#fff"></rect><rect x="202.34" y="252.37" width="95.02" height="0.72" style="fill:#fff"></rect><rect x="202.34" y="248.49" width="105.44" height="0.72" style="fill:#fff"></rect><rect x="202.34" y="267.91" width="95.91" height="0.72" style="fill:#fff"></rect><rect x="195.29" y="332.71" width="120.58" height="27.81" style="fill:#FE8024"></rect><polygon points="184.13 360.52 195.29 360.52 195.29 348.89 184.13 360.52" style="fill:#FE8024"></polygon><rect x="202.34" y="338.36" width="106.77" height="0.72" style="fill:#fff"></rect><rect x="202.34" y="342.25" width="106.77" height="0.72" style="fill:#fff"></rect><rect x="202.34" y="346.13" width="98.31" height="0.72" style="fill:#fff"></rect><rect x="202.34" y="350.02" width="106.77" height="0.72" style="fill:#fff"></rect><rect x="202.34" y="353.9" width="78.89" height="0.72" style="fill:#fff"></rect></g><g id="freepik--Emojis--inject-160"><circle cx="421.92" cy="103.17" r="22.77" transform="translate(32.09 294.72) rotate(-39.91)" style="fill:#FE8024"></circle><path d="M418.29,125.65a22.78,22.78,0,1,1,19.44-38.88,19.78,19.78,0,1,0,5.9,9.49,22.78,22.78,0,0,1-25.34,29.39Z" style="opacity:0.1"></path><path d="M408.74,96.48A3.46,3.46,0,0,1,409.82,94a3.33,3.33,0,0,1,1.23-.77,3.1,3.1,0,0,1,1.48-.12,3.15,3.15,0,0,1,1.37.58,3.31,3.31,0,0,1,.93,1.11,3.48,3.48,0,0,1,.24,2.69,4.51,4.51,0,0,0-.81-2.35,2.77,2.77,0,0,0-4-.65A4.59,4.59,0,0,0,408.74,96.48Z" style="fill:#263238"></path><path d="M430.21,99.94a3.52,3.52,0,0,1,1.08-2.47,3.23,3.23,0,0,1,1.24-.76,3.06,3.06,0,0,1,1.47-.13,3.27,3.27,0,0,1,1.37.58,3.32,3.32,0,0,1,.93,1.12,3.45,3.45,0,0,1,.24,2.68,4.58,4.58,0,0,0-.8-2.34,2.88,2.88,0,0,0-1.87-1.21,2.82,2.82,0,0,0-2.15.56A4.62,4.62,0,0,0,430.21,99.94Z" style="fill:#263238"></path><path d="M427.53,98.46a4.8,4.8,0,0,1-8.9,1.65,4.86,4.86,0,0,1-.58-3.13Z" style="fill:#263238"></path><path d="M426,101.27a4.8,4.8,0,0,1-7.39-1.16,5.74,5.74,0,0,1,7.39,1.16Z" style="fill:#d3766a"></path><path d="M408.35,96.31s-3.43-1.17-5.67.12-1.55,3.85.73,4.06S408.35,96.31,408.35,96.31Z" style="fill:#fff"></path><path d="M437.08,101s3.63.26,5.18,2.33-.07,4.15-2.25,3.45S437.08,101,437.08,101Z" style="fill:#fff"></path><circle cx="72.86" cy="243.97" r="17.56" transform="translate(-53.28 22.8) rotate(-13.07)" style="fill:#FE8024"></circle><path d="M77.91,260.79a17.56,17.56,0,1,1,.41-33.51,15.22,15.22,0,1,0,7.28,4.59,17.58,17.58,0,0,1-7.69,28.92Z" style="opacity:0.1"></path><path d="M61.75,244.7a2.65,2.65,0,0,1-.12-2.09,2.49,2.49,0,0,1,.61-1,2.44,2.44,0,0,1,1-.6,2.58,2.58,0,0,1,1.17,0,2.68,2.68,0,0,1,2.07,2.3A3.72,3.72,0,0,0,65.11,242a2.1,2.1,0,0,0-2.92.87A3.62,3.62,0,0,0,61.75,244.7Z" style="fill:#263238"></path><path d="M82.27,237.52a2.47,2.47,0,1,1-3.08-1.65A2.47,2.47,0,0,1,82.27,237.52Z" style="fill:#263238"></path><path d="M68.25,242.39a4.22,4.22,0,0,0,3.8,1.26s-.38,5-3.55,3.85S68.25,242.39,68.25,242.39Z" style="fill:#d3766a"></path><path d="M67.28,240.9a5.46,5.46,0,0,0,2.3,2.13,4.3,4.3,0,0,0,3,.11A4.17,4.17,0,0,0,75,241.46a6,6,0,0,0,.9-3,4.79,4.79,0,0,1-.37,3.33,4.25,4.25,0,0,1-1.15,1.35,5.22,5.22,0,0,1-3.35,1,4,4,0,0,1-1.7-.52A4.43,4.43,0,0,1,67.28,240.9Z" style="fill:#263238"></path><path d="M69.11,246.17a4.66,4.66,0,0,1,.3-1.4,4.28,4.28,0,0,1,.66-1.27,4.73,4.73,0,0,1-.3,1.4A4.4,4.4,0,0,1,69.11,246.17Z" style="fill:#263238"></path><circle cx="406.7" cy="228.66" r="16.65" transform="translate(-41.98 100.69) rotate(-13.43)" style="fill:#FE8024"></circle><path d="M411.77,244.52a16.65,16.65,0,1,1-.19-31.77,14.44,14.44,0,1,0,7,4.23,16.66,16.66,0,0,1-6.79,27.54Z" style="opacity:0.1"></path><path d="M400.35,227.24a2.34,2.34,0,1,1-2.94-1.52A2.33,2.33,0,0,1,400.35,227.24Z" style="fill:#263238"></path><path d="M415.5,222.39a2.35,2.35,0,1,1-2.95-1.52A2.36,2.36,0,0,1,415.5,222.39Z" style="fill:#263238"></path><path d="M408.84,223.77a3.5,3.5,0,0,1-.07,2.35,3.52,3.52,0,0,1-5.24,1.68,3.58,3.58,0,0,1-1.42-1.87Z" style="fill:#263238"></path><path d="M408.77,226.12a3.52,3.52,0,0,1-5.24,1.68,4.23,4.23,0,0,1,5.24-1.68Z" style="fill:#d3766a"></path><ellipse cx="122.12" cy="197.82" rx="22.84" ry="24.06" style="fill:#FE8024"></ellipse><path d="M116.32,221.09c-12.19-3.37-19.49-16.52-16.29-29.37s15.68-20.55,27.88-17.18a22.63,22.63,0,0,1,11.57,7.65,19.53,19.53,0,0,0-9.56-6.05c-10.6-2.93-21.46,3.75-24.24,14.93s3.56,22.61,14.17,25.54,21.46-3.75,24.24-14.93a21.93,21.93,0,0,0,.36-8.92,25.25,25.25,0,0,1-.24,11.16C141,216.77,128.52,224.46,116.32,221.09Z" style="opacity:0.1"></path><path d="M136.92,197a3.21,3.21,0,0,1-3.92,2.42,3.42,3.42,0,0,1-2.3-4.14,3.21,3.21,0,0,1,3.93-2.42A3.41,3.41,0,0,1,136.92,197Z" style="fill:#263238"></path><path d="M115.83,191.16a3.21,3.21,0,0,1-3.93,2.42,3.41,3.41,0,0,1-2.29-4.14,3.21,3.21,0,0,1,3.92-2.42A3.42,3.42,0,0,1,115.83,191.16Z" style="fill:#263238"></path><path d="M118,190.24a7.82,7.82,0,0,0,1.13,4.12,5.57,5.57,0,0,0,3.2,2.22,5.15,5.15,0,0,0,3.82-.22,8,8,0,0,0,3-2.87,6.34,6.34,0,0,1-2.66,3.65,5,5,0,0,1-2.2.77,6.15,6.15,0,0,1-2.3-.24,6.74,6.74,0,0,1-2.08-1,5.43,5.43,0,0,1-1.54-1.82A6.42,6.42,0,0,1,118,190.24Z" style="fill:#263238"></path></g><g id="freepik--character-2--inject-160"><path d="M355,335.77,324.36,360.5c-5.87,4.69-10.94,8.91-13.35,11.34l0,0a5.21,5.21,0,0,0-1.47,1.88s0,0,0,.07c.21,2.69,36.36,50.71,38.19,52s5.53-3.85,5.61-6.84-5.54-27.56-5.54-27.56l30.33-25Z" style="fill:#ad6359"></path><path d="M330.63,355.42l-6.27,5.08c-5.87,4.69-10.94,8.91-13.35,11.34l0,0a9.94,9.94,0,0,0-1.47,1.88s0,0,0,.07c.21,2.69,36.36,50.71,38.19,52s5.53-3.85,5.61-6.84-5.54-27.56-5.54-27.56l6.44-5.06Z" style="fill:#ebebeb"></path><path d="M347.68,425.79c-1.83-1.25-38-49.27-38.19-52-.1-1,6.59-6.7,14.87-13.32l.26-.21L348.29,391l-.54.38S353.37,416,353.29,419,349.5,427.05,347.68,425.79Z" style="fill:#FE8024"></path><path d="M349.13,423.84c-5.9-8.24-30.45-40.93-36.9-48.63-.05-.06-.1,0-.05,0,5.66,8.29,30.48,40.79,36.82,48.69C349.13,424.11,349.25,424,349.13,423.84Z" style="fill:#263238"></path><path d="M349.62,394.07c-1.81-3.64-5.23-7.16-9.33-7.89-.16,0-.2.2-.09.28a55,55,0,0,1,9,7.9A.26.26,0,0,0,349.62,394.07Z" style="fill:#263238"></path><path d="M350,397.41c-1.8-3.64-5.22-7.16-9.32-7.89-.16,0-.2.2-.09.28a55.88,55.88,0,0,1,9,7.9A.25.25,0,0,0,350,397.41Z" style="fill:#263238"></path><path d="M350.31,400.75c-1.81-3.63-5.23-7.16-9.33-7.89-.16,0-.2.2-.09.28a55.46,55.46,0,0,1,9,7.9A.26.26,0,0,0,350.31,400.75Z" style="fill:#263238"></path><path d="M371.49,306.33c-2.17,10.69-46.55,53.38-46.55,53.38l30.94,35.71s63-62.9,59.73-86.53C412.74,288.33,382,205.66,382,205.66H346.46S373.62,295.81,371.49,306.33Z" style="fill:#37474f"></path><path d="M359.4,386.93c-4.11-5.12-2.86-3.71-7-8.78-2-2.48-15.46-18.78-17.76-20.76-.05,0-.14,0-.11.09,1.55,2.62,15.25,18.68,17.34,21.12,4.26,5,3.09,3.51,7.42,8.45A.09.09,0,1,0,359.4,386.93Z" style="fill:#263238"></path><path d="M377.59,302.8c-.51-2.67-1.09-5.33-1.65-8q-1.74-8.16-3.67-16.25-3.82-16.06-8.34-32c-3-10.62-6.22-21.23-9.91-31.65-.45-1.29-.92-2.57-1.39-3.85,0-.1-.19-.06-.16,0,3.19,10.44,6.48,20.85,9.47,31.35s5.74,21,8.34,31.52c1.31,5.3,2.52,10.62,3.71,16q.87,3.91,1.71,7.86a57.4,57.4,0,0,1,1.49,8.1,12.36,12.36,0,0,1-2.09,7.3c-1.33,2.17-2.9,4.22-4.41,6.28-3,4.11-31.94,36.32-32.87,37.19a.08.08,0,0,0,.11.11c3.88-3.48,28.4-30,31.52-34.13,1.54-2,3-4.1,4.52-6.18a24.51,24.51,0,0,0,3.52-6.22A14.59,14.59,0,0,0,377.59,302.8Z" style="fill:#263238"></path><path d="M374.67,205.66l-3.53,94.09c-3.44-23.59-24.68-94.09-24.68-94.09Z" style="fill:#263238"></path><path d="M360.6,379.85s7.66,37.33,7.66,37.35c.1,7.52.33,14.11.76,17.51a.11.11,0,0,0,0,.05,5.15,5.15,0,0,0,.59,2.32s0,0,0,0c2.26,1.49,62.35,2.42,64.46,1.75s.35-6.73-1.95-8.63S407,417.7,407,417.7l-8-37.31Z" style="fill:#ad6359"></path><path d="M434.12,438.87c-2.1.67-62.2-.26-64.46-1.75l-.05,0a5.45,5.45,0,0,1-.58-2.32.13.13,0,0,1,0-.06c-.44-3.39-.65-10-.76-17.49l-1.33-6.5H405.5l1.51,7s22.84,10.65,25.17,12.55S436.24,438.2,434.12,438.87Z" style="fill:#ebebeb"></path><path d="M434.12,438.87c-2.11.67-62.2-.26-64.46-1.75-.87-.55-1.25-9.31-1.4-19.92v-.33L407,417l0,.66s22.84,10.64,25.16,12.54S436.23,438.2,434.12,438.87Z" style="fill:#FE8024"></path><path d="M433.48,436.53c-10.13-.41-51-1.09-61.05-.72-.08,0-.08.06,0,.06,10,.62,50.91,1,61.05.82C433.69,436.69,433.69,436.54,433.48,436.53Z" style="fill:#263238"></path><path d="M410.27,417.87c-4-.81-8.86-.27-11.95,2.52-.12.11,0,.28.16.24a56.06,56.06,0,0,1,11.76-2.26A.25.25,0,0,0,410.27,417.87Z" style="fill:#263238"></path><path d="M413.12,419.64c-4-.8-8.86-.27-11.95,2.53-.12.11,0,.27.16.24a56.06,56.06,0,0,1,11.76-2.26A.26.26,0,0,0,413.12,419.64Z" style="fill:#263238"></path><path d="M416,421.42c-4-.8-8.86-.27-12,2.53-.12.1,0,.27.16.23a56.69,56.69,0,0,1,11.76-2.25A.26.26,0,0,0,416,421.42Z" style="fill:#263238"></path><path d="M378.54,205.66c0,.74-3.61,31.16-4.6,32s-7.36,5.1-9.25,6.25c0,0,17,53,21.53,70.71,6.55,25.63,22.22,102.53,22.22,102.53H366.67s-12.7-73.21-18.25-97.61c-4.76-20.92-23-83.68-23-83.68a54,54,0,0,1,1.48-30.17S378.55,205.63,378.54,205.66Z" style="fill:#37474f"></path><path d="M406.93,409c-6.56,0-4.68-.12-11.24-.08-3.21,0-24.32.16-27.32.7-.06,0-.06.13,0,.14,3,.45,24.11-.06,27.32-.14,6.56-.17,4.68-.19,11.24-.43A.1.1,0,0,0,406.93,409Z" style="fill:#263238"></path><path d="M375.79,236.1a80.13,80.13,0,0,0-11.52,7.72c-.14.11,0,.33.15.24,3.91-2.45,7.91-4.83,11.67-7.49A.28.28,0,0,0,375.79,236.1Z" style="fill:#263238"></path><path d="M372.6,207.25c0-.14-.29-.14-.27,0a139,139,0,0,1,1.47,14.09c.14,2.18.26,14.36-3.61,14.08-.65-.05-1.07-.62-1.31-1.55a15,15,0,0,1-.07-3.73c0-2.55,0-5.11-.21-7.66a69.16,69.16,0,0,0-2.34-14.07.12.12,0,0,0-.24,0,130.72,130.72,0,0,1,1.89,19.63c0,3.17-.83,8.08,2.49,8s4.3-8.17,4.37-10.37A72.44,72.44,0,0,0,372.6,207.25Z" style="fill:#263238"></path><path d="M370.34,235.74a19.13,19.13,0,0,0-.46,2.6,5.61,5.61,0,0,0,0,2.08.15.15,0,0,0,.27,0,7.15,7.15,0,0,0,.56-2.11c.17-.81.35-1.61.49-2.42A.42.42,0,0,0,370.34,235.74Z" style="fill:#263238"></path><path d="M361.82,386c-.11-1-.25-1.93-.38-2.89-.26-1.85-.57-3.7-.86-5.55-.57-3.71-1.21-7.41-1.86-11.11-1.31-7.37-2.83-14.73-4.42-22.05-.91-4.13-2-8.22-3.06-12.31-.08-.28-.48-.15-.43.13.67,3.74,1.32,7.48,2.08,11.21s1.53,7.42,2.27,11.14c1.46,7.35,2.81,14.72,4.27,22.07.41,2.07.78,4.15,1.19,6.23.2,1,.41,2.07.63,3.1s.54,2,.71,3.08c0,.1.17.05.15,0C362,388,361.93,387,361.82,386Z" style="fill:#263238"></path><path d="M390.62,330.48c-1.39-6.93-3.27-13.77-5.15-20.58-3.8-13.7-8.27-27.21-12.73-40.71q-1.92-5.85-3.85-11.68c-.64-1.94-3.79-12.43-4.18-13.43a.09.09,0,0,0-.17,0c.91,3.58,2.14,8.79,3.19,12.32s2.15,7,3.24,10.45c2.13,6.84,4.3,13.66,6.37,20.52,4.1,13.55,8.17,27.1,11.49,40.87.93,3.86,1.86,7.71,2.71,11.59s1.57,7.76,2.38,11.63c0,.11.2.08.19,0C393.41,344.42,392,337.44,390.62,330.48Z" style="fill:#263238"></path><path d="M364.65,366.74c-2.3-13.22-5-26.37-8.1-39.44s-6.48-26.18-10.25-39.13-7.93-25.79-12.4-38.51a161.45,161.45,0,0,1-5.68-18.31c-1.37-6.18-2.07-12.86-.63-19.09a31.08,31.08,0,0,1,1.42-4.64c0-.11-.11-.2-.15-.09-5,11.71-1.77,24.51,2.06,36.05,2.09,6.32,4.33,12.6,6.4,18.93q3.18,9.75,6.1,19.58c3.85,13,7.43,26.06,10.64,39.23s6.06,26.41,8.57,39.72,4.64,26.78,6.79,40.2c.28,1.75.5,3.5.73,5.25,0,.1.17.1.15,0C368.69,393.19,367,379.94,364.65,366.74Z" style="fill:#263238"></path><path d="M361.21,151.15c4,16.07,13.52,41,22,40.9,7.72-.12,24.94-13.81,32.15-18.3s-9-22.16-13.1-19.3c-6.41,4.43-16,12.35-17.62,11.83-2-.65-4.59-5.62-16.11-20.27C363.8,140,359.53,144.31,361.21,151.15Z" style="fill:#ad6359"></path><path d="M410,147.64c3.4-1.2,7.2-2.85,11-2.78s6.92,5.06,6.92,6.49-1.43,10.33-5.21,10.33-1.49-6.84-1.64-7.62-.28-1.79-1-1.72-13.2,6-13.2,6Z" style="fill:#ad6359"></path><path d="M410.24,148.16c.21,0,10.34-4,14.12-3.92s6.91,5.06,6.91,6.49-1.42,10.34-5.2,10.34-1.5-6.85-1.64-7.63-.29-1.79-1-1.72-13.19,6-13.19,6Z" style="fill:#ad6359"></path><path d="M424.79,160.59a4.44,4.44,0,0,1-.63-2.23,7.86,7.86,0,0,1,.13-2.42,12.47,12.47,0,0,0,.46-2.08,4.08,4.08,0,0,0-.52-2c-.3-.53-.85-.35-1.33-.18a17.11,17.11,0,0,0-2,.92c-.72.36-1.44.74-2.16,1.11a20.21,20.21,0,0,0-2.19,1.2.06.06,0,0,0,.05.11,19.3,19.3,0,0,0,1.91-.87l2.17-1c.67-.3,1.33-.64,2-.92a2.19,2.19,0,0,1,1-.3c.29.06.43.77.5,1a3.55,3.55,0,0,1-.14,2,11.28,11.28,0,0,0-.39,2.07,5.43,5.43,0,0,0,.16,2,7.86,7.86,0,0,0,.9,1.63C424.72,160.73,424.84,160.66,424.79,160.59Z" style="fill:#263238"></path><path d="M398.25,158.08s10.47-9.54,12.65-11.44c4.38-3.8,22.8-11.33,25.36-11.6s3.5,5-9,10.46c-6.59,2.88-7.76,6.65-7.64,8.75s2.12,6,5.64,5.89,5.8-5.23,9-5.8,1.1,5.35-1.18,8.78a21.53,21.53,0,0,1-9.47,7.38c-3,1.14-12.45,5.2-12.45,5.2Z" style="fill:#ad6359"></path><path d="M429.63,157.67c-1.33,1-2.83,2.35-4.57,2.42s-3-1.11-3.81-2.57a6.65,6.65,0,0,1-.93-4.87,8.22,8.22,0,0,1,2.41-3.94,19.53,19.53,0,0,1,4.77-3.17c.08,0,0-.15-.07-.12-1.62.73-6.65,2.79-7.66,7.23a6.83,6.83,0,0,0,1,5c.78,1.4,1.91,2.75,3.62,2.89,2.08.17,3.87-1.52,5.36-2.78C429.79,157.66,429.69,157.61,429.63,157.67Z" style="fill:#263238"></path><path d="M398.25,156.75l15.67,24.31S389.06,195,382,192.74s-17.65-22.4-22-40.09,6.48-10.91,10.69-5.44,13.36,18.1,13.86,17.93S398.25,156.75,398.25,156.75Z" style="fill:#FE8024"></path><path d="M406.78,184.8c-1.54.78-3.24,1.6-5,2.42L388.18,163c1.44-.87,3.11-1.91,4.68-2.88C397.14,167.68,402.34,176.89,406.78,184.8Z" style="fill:#ebebeb"></path><path d="M399.83,188.1l-1.64.71L384.82,165l1.49-.88C390.52,171.57,395.53,180.45,399.83,188.1Z" style="fill:#ebebeb"></path><path d="M396.4,189.55c-5.66,2.31-11.22,4-14.12,3.26l-.25-.07c-7-2.25-17.65-22.4-22-40.09a27.6,27.6,0,0,1-1-7.27c0-.09,0-.17,0-.26s0-.28,0-.42a1,1,0,0,1,0-.17c0-.13,0-.26.05-.38Z" style="fill:#263238"></path><path d="M405.17,178.67c-.49-.86-1-1.72-1.5-2.58-1-1.71-7.08-11.9-9.47-15a.09.09,0,0,0-.15.1c1.67,3.56,8,13.56,9,15.2.53.85,1.07,1.69,1.61,2.52s1.2,1.62,1.74,2.46c.06.09.19,0,.14-.07C406.06,180.45,405.67,179.54,405.17,178.67Z" style="fill:#263238"></path><path d="M323,221c.15.16,62.87-5.84,63.44-6.49.8-.93-13.74-63.65-20.3-72-1.41-1.8-6-2.25-9.87-1.73a17.65,17.65,0,0,0-3,.64l-.1,0a7.32,7.32,0,0,0-2.19,1.1c-10.73,8.75-19.52,39-21.55,48.11C326.08,205.6,322.49,220.41,323,221Z" style="fill:#FE8024"></path><path d="M385.32,207.71c-15.13,1.61-48.1,5.1-61.18,6.35.5-2.3,1.12-5.05,1.81-8.08l57.7-5.86C384.31,203,384.88,205.56,385.32,207.71Z" style="fill:#ebebeb"></path><path d="M382.94,197c-15,1.59-42.64,4.51-56.28,5.85l.59-2.58,55.13-5.65C382.57,195.46,382.76,196.25,382.94,197Z" style="fill:#ebebeb"></path><path d="M346.37,158.74c2.79,16.38,16.54,47,25.5,49.9,10.37,3.34,46.38-8.17,53.45-13.34,2.81-2.06-12.18-20.2-15.68-18.92-14.66,5.4-27.66,8.17-29.55,6.88-2.9-2-14.73-18.91-22.42-29.43C348,140.62,345.11,151.39,346.37,158.74Z" style="fill:#ad6359"></path><path d="M424.39,195.79c1.6-.57,12.63-8.58,15.88-12.34a47.9,47.9,0,0,0,8.48-13.14c3.27-7.62,4.81-13.2,4-15.7-.91-2.9-1.17-3.37-8.8,9.27-4.31,7.16-8.43,8-12,7.9a54.86,54.86,0,0,0-25.34,5.66S418.23,198,424.39,195.79Z" style="fill:#ad6359"></path><path d="M458.25,145.14l-19.05,24a2.27,2.27,0,0,1-2.3.75l-13.28-4.41a1,1,0,0,1-.4-1.65l19-24a2.25,2.25,0,0,1,2.3-.75l13.28,4.42A1,1,0,0,1,458.25,145.14Z" style="fill:#37474f"></path><path d="M456.66,143.1l-13.28-4.42a2.26,2.26,0,0,0-2.3.76l-19,24a1,1,0,0,0,.39,1.65l13.28,4.41a2.27,2.27,0,0,0,2.3-.75l19-24A1,1,0,0,0,456.66,143.1Zm-18.91,24.66a2.1,2.1,0,0,1-2.11.74l-11.88-3.95c-.66-.22-.8-.91-.3-1.55l17.74-22.37c1-1.29,1.61-1.18,2.27-1l2.38.8c.14,0,.15.22,0,.39l-.06.07c-.32.4-.07.49.24.59l5.5,1.83a.64.64,0,0,0,.88-.22l.06-.07a.55.55,0,0,1,.5-.23l2.38.8c.66.22,1.07.57.13,1.75Z" style="fill:#263238"></path><path d="M449.94,142.18l-1.5-.49a.08.08,0,0,1,0-.12h0a.19.19,0,0,1,.16,0l1.5.5a.07.07,0,0,1,0,.11h0A.15.15,0,0,1,449.94,142.18Z" style="fill:#fff"></path><line x1="424.59" y1="161.59" x2="424.54" y2="161.57" style="fill:none"></line><path d="M455.49,145.38l-17.74,22.38a2.1,2.1,0,0,1-2.11.74l-11.88-3.95c-.66-.22-.8-.91-.3-1.55l17.74-22.37c1-1.29,1.61-1.18,2.27-1l2.38.8c.14,0,.15.22,0,.39l-.06.07c-.32.4-.07.49.24.59l5.5,1.83a.64.64,0,0,0,.88-.22l.06-.07a.56.56,0,0,1,.5-.23l2.38.8C456,143.85,456.43,144.2,455.49,145.38Z" style="fill:#fff"></path><path d="M455.49,145.38l-1.32,1.67-14.3-4.76,1.33-1.67c1-1.28,1.61-1.17,2.27-1l2.38.8c.14,0,.15.22,0,.39l-.06.07c-.32.4-.07.49.24.59l5.5,1.83a.64.64,0,0,0,.88-.22l.06-.07a.53.53,0,0,1,.5-.22l2.38.79C456,143.85,456.42,144.2,455.49,145.38Z" style="fill:#FE8024"></path><polygon points="441.97 141.96 441.82 141.47 442.52 141.27 442.54 141.35 441.96 141.52 442.08 141.92 441.97 141.96" style="fill:#fff"></polygon><path d="M454.18,145.4a.16.16,0,0,1-.14,0,.06.06,0,0,1,0-.1.16.16,0,0,1,.14,0A.06.06,0,0,1,454.18,145.4Z" style="fill:#fff"></path><path d="M454,145.66a.15.15,0,0,1-.14.05s-.06-.06,0-.1a.15.15,0,0,1,.14-.05A.06.06,0,0,1,454,145.66Z" style="fill:#fff"></path><path d="M453.77,145.92a.16.16,0,0,1-.14.05.06.06,0,0,1,0-.1.13.13,0,0,1,.14-.05A.06.06,0,0,1,453.77,145.92Z" style="fill:#fff"></path><g id="freepik--u5zjqx--inject-160"><path d="M445.05,140.83H445a.22.22,0,0,0-.15-.15.48.48,0,0,0-.29,0h0v0h.05l.1,0h.16s0,0,0,0h0l.07,0,0,0,0,.05v0Z" style="fill:#fff"></path><path d="M444.56,140.79v0a.47.47,0,0,1,.2,0,.2.2,0,0,1,.17.14l-.06,0a.14.14,0,0,0-.1-.1A.34.34,0,0,0,444.56,140.79Z" style="fill:#fff"></path><path d="M444.8,140.91l-.06,0a.1.1,0,0,0-.06-.05h-.09l0,0C444.67,140.8,444.78,140.83,444.8,140.91Z" style="fill:#fff"></path><path d="M444.67,140.94s0,0-.05,0,0,0,0,0a0,0,0,0,1,.05,0S444.68,140.93,444.67,140.94Z" style="fill:#fff"></path></g><path d="M442.75,140.15a.16.16,0,0,1,.17-.05c.05,0,.06.06,0,.11a.14.14,0,0,1-.16,0A.07.07,0,0,1,442.75,140.15Z" style="fill:#fff"></path><path d="M443.05,140.25a.17.17,0,0,1,.16-.06c.06,0,.07.07,0,.12a.14.14,0,0,1-.16.05A.07.07,0,0,1,443.05,140.25Z" style="fill:#fff"></path><path d="M443.35,140.35a.17.17,0,0,1,.16-.06.07.07,0,0,1,0,.12.17.17,0,0,1-.16.05C443.33,140.44,443.31,140.39,443.35,140.35Z" style="fill:#fff"></path><path d="M443.65,140.44a.19.19,0,0,1,.16-.05.07.07,0,0,1,0,.12.17.17,0,0,1-.16.05A.07.07,0,0,1,443.65,140.44Z" style="fill:#fff"></path><path d="M444,140.54a.18.18,0,0,1,.16,0,.08.08,0,0,1,0,.12.17.17,0,0,1-.16,0C443.92,140.64,443.91,140.59,444,140.54Z" style="fill:#fff"></path><polygon points="454.98 144.69 453.74 144.27 454.3 143.58 455.53 143.99 454.98 144.69" style="fill:#fff"></polygon><polygon points="454.89 144.09 454.4 143.92 454.23 144.13 454.73 144.29 454.89 144.09" style="fill:#fff"></polygon><polygon points="455.02 144.37 454.96 144.34 455.09 144.18 455.16 144.2 455.02 144.37" style="fill:#fff"></polygon><polygon points="425.81 163.5 425.7 163.47 425.36 163.91 425.15 163.84 425.33 163.61 424.97 163.49 424.79 163.72 424.59 163.65 424.94 163.21 424.83 163.18 425.68 162.89 425.81 163.5" style="fill:#ebebeb"></polygon><polygon points="436.98 166.84 435.8 166.45 435.91 166.3 437.1 166.69 436.98 166.84" style="fill:#ebebeb"></polygon><polygon points="436.69 167.21 435.5 166.81 435.62 166.67 436.81 167.06 436.69 167.21" style="fill:#ebebeb"></polygon><polygon points="436.4 167.58 435.21 167.18 435.33 167.03 436.51 167.43 436.4 167.58" style="fill:#ebebeb"></polygon><polygon points="431.17 165.21 430.59 165.41 430.5 164.98 430.6 164.95 430.67 165.31 431.15 165.14 431.17 165.21" style="fill:#ebebeb"></polygon><path d="M430.58,166.24a1.21,1.21,0,0,1-.38-.06.94.94,0,0,1-.61-.6,1,1,0,0,1,.2-.88,1.46,1.46,0,0,1,1.52-.48.9.9,0,0,1,.6.6,1,1,0,0,1-.19.88A1.48,1.48,0,0,1,430.58,166.24Zm.21-1.06-.08,0A.11.11,0,0,0,430.79,165.18Z" style="fill:#ebebeb"></path><path d="M446.56,143.19a.64.64,0,0,1,.65-.2.31.31,0,0,1,.18.15s0,.06-.05.08-.08,0-.09,0a.17.17,0,0,0-.13-.1.33.33,0,0,0-.24,0,.46.46,0,0,0-.2.13.21.21,0,0,0-.05.19.17.17,0,0,0,.13.13.5.5,0,0,0,.21,0s.07,0,.08,0a.08.08,0,0,1-.07.07.51.51,0,0,1-.3,0A.28.28,0,0,1,446.56,143.19Z" style="fill:#fff"></path><path d="M447.18,143.76l.43-.55a.09.09,0,0,1,.1,0s0,0,0,.07l-.17.22.27.09.18-.22a.08.08,0,0,1,.09,0s.05,0,0,.07l-.43.54a.1.1,0,0,1-.1,0,0,0,0,0,1,0-.07l.18-.23-.27-.09-.18.23a.11.11,0,0,1-.1,0S447.15,143.79,447.18,143.76Z" style="fill:#fff"></path><path d="M448.31,144l-.26-.08-.14.1a.13.13,0,0,1-.08,0h0a.06.06,0,0,1,0-.08l.66-.47a.12.12,0,0,1,.08,0s0,0,0,.05l-.2.62a.1.1,0,0,1-.08.06h0s0,0,0-.05Zm0-.11.07-.23-.24.17Z" style="fill:#fff"></path><path d="M449.27,143.83l-.17-.06-.39.5a.1.1,0,0,1-.1,0,0,0,0,0,1,0-.07l.4-.49-.17-.06a0,0,0,0,1,0-.07.1.1,0,0,1,.1,0l.45.15a0,0,0,0,1,0,.07A.13.13,0,0,1,449.27,143.83Z" style="fill:#fff"></path><polygon points="434.03 152.16 444.25 155.56 446.49 152.74 436.27 149.34 436.27 149.34 434.03 152.16 434.03 152.16" style="fill:#455a64"></polygon><polygon points="445.2 155.87 444.25 155.56 444.94 154.69 445.2 155.87" style="fill:#455a64"></polygon><polygon points="445.48 153.08 436.43 150.07 436.47 150.02 445.52 153.03 445.48 153.08" style="fill:#fff"></polygon><polygon points="443.37 152.75 436.2 150.36 436.24 150.31 443.41 152.69 443.37 152.75" style="fill:#fff"></polygon><polygon points="444.04 153.7 435.74 150.94 435.78 150.89 444.09 153.65 444.04 153.7" style="fill:#fff"></polygon><polygon points="444.56 154.24 435.51 151.23 435.55 151.18 444.6 154.19 444.56 154.24" style="fill:#fff"></polygon><polygon points="444.33 154.53 435.28 151.52 435.32 151.47 444.37 154.48 444.33 154.53" style="fill:#fff"></polygon><polygon points="441.59 153.99 435.05 151.81 435.09 151.75 441.63 153.93 441.59 153.99" style="fill:#fff"></polygon><polygon points="428.75 158.82 438.98 162.22 441.21 159.4 430.99 156 430.99 156 428.75 158.82 428.75 158.82" style="fill:#455a64"></polygon><polygon points="439.92 162.53 438.98 162.22 439.66 161.35 439.92 162.53" style="fill:#455a64"></polygon><polygon points="440.2 159.74 431.15 156.73 431.19 156.68 440.24 159.69 440.2 159.74" style="fill:#fff"></polygon><polygon points="438.09 159.41 430.92 157.02 430.96 156.97 438.13 159.35 438.09 159.41" style="fill:#fff"></polygon><polygon points="438.76 160.37 430.46 157.6 430.5 157.55 438.81 160.31 438.76 160.37" style="fill:#fff"></polygon><polygon points="439.28 160.9 430.23 157.89 430.27 157.84 439.32 160.85 439.28 160.9" style="fill:#fff"></polygon><polygon points="439.05 161.19 430 158.18 430.04 158.13 439.09 161.14 439.05 161.19" style="fill:#fff"></polygon><polygon points="436.31 160.65 429.77 158.47 429.81 158.42 436.36 160.59 436.31 160.65" style="fill:#fff"></polygon><polygon points="449.65 150.25 439.43 146.85 441.32 144.47 451.54 147.87 449.65 150.25" style="fill:#FE8024"></polygon><polygon points="438.49 146.54 439.43 146.85 440.12 145.99 438.49 146.54" style="fill:#FE8024"></polygon><polygon points="449.06 147.67 441.53 145.16 441.57 145.11 449.11 147.62 449.06 147.67" style="fill:#fff"></polygon><polygon points="450.35 148.46 441.3 145.45 441.34 145.4 450.39 148.41 450.35 148.46" style="fill:#fff"></polygon><polygon points="450.12 148.75 441.07 145.74 441.11 145.69 450.16 148.7 450.12 148.75" style="fill:#fff"></polygon><polygon points="449.17 148.8 440.84 146.03 440.88 145.98 449.21 148.75 449.17 148.8" style="fill:#fff"></polygon><polygon points="449.66 149.33 440.61 146.32 440.65 146.27 449.7 149.28 449.66 149.33" style="fill:#fff"></polygon><polygon points="447.07 148.83 440.38 146.61 440.42 146.56 447.11 148.78 447.07 148.83" style="fill:#fff"></polygon><polygon points="447.95 152.4 437.73 149 439.13 147.24 449.35 150.64 447.95 152.4" style="fill:#FE8024"></polygon><polygon points="436.78 148.69 437.73 149 438.42 148.13 436.78 148.69" style="fill:#FE8024"></polygon><polygon points="448.37 150.93 439.33 147.93 439.38 147.88 448.41 150.88 448.37 150.93" style="fill:#fff"></polygon><polygon points="446.54 150.69 439.11 148.22 439.15 148.16 446.58 150.64 446.54 150.69" style="fill:#fff"></polygon><polygon points="447.06 151.23 438.88 148.51 438.92 148.45 447.1 151.18 447.06 151.23" style="fill:#fff"></polygon><polygon points="444.96 150.9 438.65 148.8 438.69 148.74 445 150.84 444.96 150.9" style="fill:#fff"></polygon><polygon points="442.68 159.05 432.46 155.65 434.43 153.16 444.65 156.56 442.68 159.05" style="fill:#dbdbdb"></polygon><polygon points="431.51 155.34 432.46 155.65 433.15 154.78 431.51 155.34" style="fill:#dbdbdb"></polygon><polygon points="442.5 157.56 433.96 154.71 434 154.66 442.55 157.5 442.5 157.56" style="fill:#fff"></polygon><polygon points="441.58 157.61 433.73 155 433.77 154.95 441.62 157.56 441.58 157.61" style="fill:#fff"></polygon><polygon points="442.47 156.81 434.42 154.13 434.46 154.08 442.51 156.76 442.47 156.81" style="fill:#fff"></polygon><polygon points="443.58 156.82 434.65 153.84 434.69 153.79 443.63 156.76 443.58 156.82" style="fill:#fff"></polygon><polygon points="441.63 158 433.5 155.29 433.54 155.24 441.67 157.94 441.63 158" style="fill:#fff"></polygon><polygon points="437.7 165.34 427.48 161.94 429.12 159.87 439.34 163.27 437.7 165.34" style="fill:#FE8024"></polygon><polygon points="426.53 161.63 427.48 161.94 428.16 161.07 426.53 161.63" style="fill:#FE8024"></polygon><polygon points="438.39 163.55 429.34 160.54 429.38 160.49 438.43 163.5 438.39 163.55" style="fill:#fff"></polygon><polygon points="438.16 163.84 429.11 160.83 429.15 160.78 438.2 163.79 438.16 163.84" style="fill:#fff"></polygon><polygon points="437.21 163.89 428.88 161.12 428.92 161.07 437.26 163.84 437.21 163.89" style="fill:#fff"></polygon><polygon points="437.7 164.42 428.65 161.41 428.69 161.35 437.74 164.37 437.7 164.42" style="fill:#fff"></polygon><polygon points="435.11 163.92 428.42 161.7 428.46 161.65 435.15 163.87 435.11 163.92" style="fill:#fff"></polygon><path d="M433.76,171.72c-3.69.05,8.29-7.42,8.47-11.61s-3.9-2.88-7.13-.51c-11.18,8.22-19.62,7.82-25.29,15.67S433.76,171.72,433.76,171.72Z" style="fill:#ad6359"></path><path d="M422.62,166.61a28.78,28.78,0,0,0-6.89,2.7,17.72,17.72,0,0,0-5,4.66c-.06.08.05.19.12.11,3-3.72,7.49-5.58,11.79-7.37A.05.05,0,0,0,422.62,166.61Z" style="fill:#263238"></path><path d="M380.88,182.25c2.86.78,22.82-4.69,22.82-4.69l11.22,27.12s-34.76,8.09-42.87,5.28-20.75-30.38-24.83-46.4c-3.84-15.06,1.28-24.88,12-9.28C359.25,154.28,379.38,181.85,380.88,182.25Z" style="fill:#FE8024"></path><path d="M408.57,206.07c-2.24.46-4.92,1-7.82,1.55l-10.21-26.77c2.61-.58,5.34-1.25,7.62-1.83C401.3,187.17,405.12,197.07,408.57,206.07Z" style="fill:#ebebeb"></path><path d="M397.71,208.16l-2.52.44L385,182c.76-.13,1.58-.28,2.44-.45C390.54,189.5,394.29,199.23,397.71,208.16Z" style="fill:#ebebeb"></path><path d="M371.62,209.13c-6.8-3.49-15.18-21.71-16.79-25.28-1-2.29-2-4.62-2.91-6.95-1.85-4.68-3.56-9.4-5.18-14.16a.07.07,0,0,0-.13,0c.89,3.67,2,7.31,3.22,10.89a39.39,39.39,0,0,1-2.22-4.15c0-.06-.15,0-.12.06a23.06,23.06,0,0,0,2.58,4.79c1.28,3.59,2.72,7.13,4.32,10.57.47,1,10.16,23.32,17.76,25.39,2.64.72,11.68.07,13.6-.37.08,0,.1-.12,0-.12C383.15,209.78,374.05,210.37,371.62,209.13Z" style="fill:#263238"></path><path d="M407.41,201.4c-.33-.94-.68-1.87-1-2.81-.7-1.87-4.88-13-6.69-16.42-.05-.1-.19,0-.17.07,1,3.8,5.46,14.75,6.2,16.55.38.93.76,1.85,1.15,2.77s.89,1.8,1.28,2.72c0,.09.18.06.15,0C408,203.31,407.75,202.33,407.41,201.4Z" style="fill:#263238"></path><path d="M403.71,177.6c-1.65.07-16.59,3.55-19.89,4.29a6.76,6.76,0,0,1-2.44.33,3.52,3.52,0,0,1-2-1.46c-1.07-1.23-12.75-16.67-13.6-17.43-.32-.29-.57-.34-.27.15.52.83,11.88,16.08,12.91,17.28s1.86,2.29,3.47,2.22c.71,0,20.86-4.55,21.85-5C404,177.93,404,177.59,403.71,177.6Z" style="fill:#263238"></path><path d="M364.54,151.75c-3-.07-9.81-5-10.79-9.66-.07-.31,1.21-3.05,2.6-6.46.84-2.07,1.72-4.39,2.37-6.57.13-.44,12.66,7.41,12.66,7.41a36,36,0,0,0-3.82,8,4.48,4.48,0,0,0-.17.92,1,1,0,0,1,0,.15C367.13,147.29,367.79,151.81,364.54,151.75Z" style="fill:#ad6359"></path><path d="M367.39,145.36l0,.15a9.66,9.66,0,0,1-1.42-.34c-8-2.59-7.09-13.28-6.74-16,2.32,1.08,12.18,7.26,12.18,7.26a36.28,36.28,0,0,0-3.82,8A4.48,4.48,0,0,0,367.39,145.36Z" style="fill:#263238"></path><path d="M361.26,111.35c-2.78,4.49-3.95,19.29-1.31,23.36,3.83,5.9,12,8.52,17.44,3.5,5.32-4.88,6.49-24.19,3.37-28.08C376.16,104.4,365.38,104.72,361.26,111.35Z" style="fill:#ad6359"></path><path d="M372.79,123.45s-.08,0-.08.09c-.06,1-.28,2.13-1.21,2.39a0,0,0,0,0,0,0C372.61,125.92,372.9,124.41,372.79,123.45Z" style="fill:#263238"></path><path d="M372,122.34c-1.59-.26-2,3-.51,3.18S373.32,122.55,372,122.34Z" style="fill:#263238"></path><path d="M378.52,124.32s.07.06.06.1c-.15,1-.16,2.15.69,2.59,0,0,0,.06,0,0C378.18,126.77,378.21,125.24,378.52,124.32Z" style="fill:#263238"></path><path d="M379.53,123.4c1.61.07,1.34,3.29-.15,3.22S378.18,123.33,379.53,123.4Z" style="fill:#263238"></path><path d="M370.9,120.72c.45-.06.86-.18,1.3-.28a2.16,2.16,0,0,0,1.26-.55.66.66,0,0,0,0-.83,1.7,1.7,0,0,0-1.67-.38,2.46,2.46,0,0,0-1.55.89A.73.73,0,0,0,370.9,120.72Z" style="fill:#263238"></path><path d="M381,121.94a13.31,13.31,0,0,1-1.24-.49,2.14,2.14,0,0,1-1.16-.74.69.69,0,0,1,.14-.82,1.69,1.69,0,0,1,1.71-.11,2.48,2.48,0,0,1,1.39,1.13A.73.73,0,0,1,381,121.94Z" style="fill:#263238"></path><path d="M370.74,132.55c.21.26.41.61.76.69a2.73,2.73,0,0,0,1.1-.12,0,0,0,0,1,0,.06,1.37,1.37,0,0,1-1.33.38,1.06,1.06,0,0,1-.67-1C370.63,132.53,370.71,132.51,370.74,132.55Z" style="fill:#263238"></path><path d="M372.15,129.71a3.41,3.41,0,0,0,2.07,1.78,4.45,4.45,0,0,0,1.21.21h.45a.24.24,0,0,0,.23-.2h0a.21.21,0,0,0,0-.11h0v-.09c.12-.76.19-1.93.19-1.93.26.17,1.6,1,1.63.58a51.45,51.45,0,0,0-.05-10.38.1.1,0,0,0-.19,0c-.32,3.19-.09,6.42-.37,9.63a5.81,5.81,0,0,0-1.53-.68c-.11,0-.09,2.26-.17,2.6a.1.1,0,0,1,0,0,4.73,4.73,0,0,1-3.37-1.52C372.19,129.57,372.1,129.62,372.15,129.71Z" style="fill:#263238"></path><path d="M375,131.25a4.08,4.08,0,0,1-1.75,1.05,1.85,1.85,0,0,1-1.11-.07c-.76-.3-.69-1-.47-1.64a4.63,4.63,0,0,1,.47-.91A5.19,5.19,0,0,0,375,131.25Z" style="fill:#263238"></path><path d="M373.27,132.3a1.85,1.85,0,0,1-1.11-.07c-.76-.3-.69-1-.47-1.64A1.88,1.88,0,0,1,373.27,132.3Z" style="fill:#ff9bbc"></path><path d="M383.5,116.47c-5.81,2.89-12.31-3.61-12.31-3.61a5.83,5.83,0,0,1-6.36,2.83s-2.29,8.82-4.65,8.47c-3.6-.52-3-12.9-1.54-15.15s4.61-2.43,4.61-2.43a6,6,0,0,1,2.95-3.22c2.73-1.54,10.88,2.18,10.88,2.18a7.92,7.92,0,0,1,2.58-2.63,2.24,2.24,0,0,1,3.17.74,5.22,5.22,0,0,0-1.17,2.09c-.79,2.56,1.35,2.86,1.67.48a3.76,3.76,0,0,0-.5-2.57c1.28-1.41,3.08-1.68,4-.7C388.54,104.73,388.33,114.07,383.5,116.47Z" style="fill:#263238"></path><path d="M361.74,124s-2.09-5.37-4.45-4.73-1.57,7.87.65,9.38a2.56,2.56,0,0,0,3.66-.52Z" style="fill:#ad6359"></path><path d="M357.57,121.3a0,0,0,0,0,0,.06,6.48,6.48,0,0,1,2.29,4.72,1.42,1.42,0,0,0-2-.87c-.06,0,0,.1,0,.1a1.56,1.56,0,0,1,1.55,1,7.34,7.34,0,0,1,.48,1.55c0,.18.34.16.32,0v0C360.81,125.56,359.86,122.09,357.57,121.3Z" style="fill:#263238"></path><path d="M368.45,145.22s-.05,0-.05,0c.38,2.86,1.06,9.49-3.3,9.37a9.12,9.12,0,0,1-4.84-2.09,25,25,0,0,1-3.95-3.62,38.33,38.33,0,0,1-3.78-4.74c0-.07-.15,0-.1.08,1.16,1.69,2.14,3.45,3.45,5a22,22,0,0,0,4.27,4,9.18,9.18,0,0,0,5.14,2,3.51,3.51,0,0,0,3.36-3A16.63,16.63,0,0,0,368.45,145.22Z" style="fill:#263238"></path></g><g id="freepik--character-1--inject-160"><path d="M90.22,281.33c-3.19-4.25-9.14-5.69-15.11-5.05s-13.21,2.91-14.68,12.2c-1.19,7.55.63,15.15-.16,23.62s-12.58,28.28,2.61,39.66C76.52,362,106.5,356.07,109,337.53c2-14.7-15.14-29.84-16.56-35.84S93.71,286,90.22,281.33Z" style="fill:#263238"></path><path d="M92.13,289.88a31.45,31.45,0,0,0,1.49,12.69,11.8,11.8,0,0,0,1.57,2.95c.64.91,1.33,1.78,2,2.64,1.38,1.7,2.75,3.4,4,5.14a43,43,0,0,1,6.14,11.19A32.28,32.28,0,0,1,109.1,337a27.23,27.23,0,0,0,.35-6.38,29.88,29.88,0,0,0-1.16-6.33,38.12,38.12,0,0,0-6-11.59c-1.31-1.78-2.71-3.48-4.11-5.17a21.67,21.67,0,0,1-3.61-5.23,25.82,25.82,0,0,1-1.7-6.07A49,49,0,0,1,92.13,289.88Z" style="fill:#263238"></path><path d="M60.29,294.89c-.27,4.32-.36,8.64-.86,12.91a49.75,49.75,0,0,1-1.12,6.32c-.51,2-1.34,4.07-2.07,6.12s-1.4,4.15-1.94,6.27a35.63,35.63,0,0,0-1,6.49,22.16,22.16,0,0,0,.71,6.53,16,16,0,0,0,3.28,5.77,16.9,16.9,0,0,1-2.68-5.9,21.76,21.76,0,0,1-.33-6.34,53.26,53.26,0,0,1,3.19-12.45,65.21,65.21,0,0,0,2-6.25,40.78,40.78,0,0,0,.92-6.48A102.35,102.35,0,0,0,60.29,294.89Z" style="fill:#263238"></path><path d="M130.2,289.68l-8.35,28.06c-.33.82.05,1.51.87,1.54l14.64.62a2.36,2.36,0,0,0,2.09-1.42l8.35-28.06a1,1,0,0,0-.87-1.55l-14.64-.62A2.37,2.37,0,0,0,130.2,289.68Z" style="fill:#a6a6a6"></path><path d="M131.94,289.73l-8.35,28.06c-.34.82,0,1.52.87,1.55l14.64.62a2.36,2.36,0,0,0,2.09-1.42l8.35-28.06c.33-.82-.06-1.52-.87-1.55L134,288.31A2.37,2.37,0,0,0,131.94,289.73Z" style="fill:#c7c7c7"></path><path d="M135.89,291.2a1.23,1.23,0,0,1-1.32,1.16,1.24,1.24,0,0,1,.16-2.48A1.23,1.23,0,0,1,135.89,291.2Z" style="fill:#263238"></path><path d="M81.15,331.35c7.38,18.06,24.8,41.9,32.48,42.4,3.66.23,10.15,1.44,15.16-2.52,11-8.64,20.61-25.73,22.91-35.69.81-3.54-16.17-12.17-18.89-9.39-6.36,6.51-14,19.52-15.09,19.38-3.92-.5-18.65-14.1-28.94-23.68C76.3,310.23,78.21,324.16,81.15,331.35Z" style="fill:#d3766a"></path><path d="M153.07,317.1c-1.47-7.35-3-9-.92-15.87,1.35-4.5-1-7.29-4.37-3.8-5.59,5.71-5.68,15.59-4.73,19Z" style="fill:#d3766a"></path><path d="M150.69,338.61s3.75-9.94,3-17.93c-.54-5.52-3.07-17.4-18.1-24.37-3.56-1.65-9.81-1.48-5,3.33,3.44,3.42,6.65,4.55,8.29,6.9,0,0-7.93,1.17-9.44,4.8a72,72,0,0,0-3.29,9.78,16.15,16.15,0,0,0,1.77.78s-1.09,3.53,1.25,8.63Z" style="fill:#d3766a"></path><path d="M152.29,315.5c-2.12-2-6.68-6.14-11.59-8.24-5.46-2.32-16.59-5.33-18.27-1.29-1.23,3,2.92,4.49,2.92,4.49s-4.86-.27-5.39,2.65c-.47,2.66,2.81,3.65,2.81,3.65s-3,.34-3,3c0,3.19,6.28,1.95,9.12,5.15C129.57,325.62,152.29,315.5,152.29,315.5Z" style="fill:#d3766a"></path><path d="M139.2,313.44a23.63,23.63,0,0,0-13.75-3.06c-.12,0-.17.12-.06.13a58.32,58.32,0,0,1,13.79,3S139.23,313.45,139.2,313.44Z" style="fill:#263238"></path><path d="M136.69,318.88a26.51,26.51,0,0,0-13.91-2.23c-.12,0-.16.12,0,.13a61.77,61.77,0,0,1,13.94,2.15A0,0,0,1,0,136.69,318.88Z" style="fill:#263238"></path><path d="M88,347.74l15.54-14.06s-10-10.63-17.68-15.06-9.3.61-6.6,8.77S88,347.74,88,347.74Z" style="fill:#ebebeb"></path><path d="M86.85,319.25l-8.39-.62a3.31,3.31,0,0,1,.52-.81l6.23.46.6.34C86.16,318.81,86.5,319,86.85,319.25Zm2.75,1.9L78,320.3c0,.26,0,.54,0,.84l12.84.95Zm3.55,2.8-15-1.11c0,.28.07.56.13.86l16,1.18Zm3.18,2.78-17.7-1.31c.07.28.14.56.23.86l18.47,1.37C97,327.34,96.67,327,96.33,326.73Zm2.94,2.75L79.42,328c.1.28.19.57.3.87l20.5,1.52Zm2.81,2.75-21.73-1.61.35.87L103,333.14C102.75,332.91,102.44,332.61,102.08,332.23Zm-20.69,1,.36.88,19.65,1.46.87-.79Zm1.09,2.63c.13.29.26.59.37.87l16,1.19.86-.79Zm1.15,2.62c.12.29.26.59.39.88l12.2.9.86-.78Zm1.17,2.63c.14.3.27.59.41.87l8.42.63.86-.78ZM86,343.74c.14.31.28.6.41.87L91,345l.86-.78Zm1.25,2.63c.17.36.32.66.42.88l.73.06.88-.79Z" style="fill:#dbdbdb"></path><path d="M99.34,331a134.48,134.48,0,0,0-13.4,11.72s.07.13.1.11c3.84-3,11-9.47,13.44-11.67C99.52,331.16,99.39,331,99.34,331Z" style="fill:#263238"></path><path d="M61.69,459.8c.67-2.18,36.6-52.53,39.18-53.58,1-.41,2.88-1.93,11.95,4.14l19.12-16.77,10.85,35.47L95.48,449.22s-22.38,13.12-25.34,14S61,462,61.69,459.8Z" style="fill:#d3766a"></path><path d="M61.69,459.8c.67-2.18,36.6-52.53,39.18-53.58,1-.41,2.88-1.93,11.95,4.14l19.12-16.77,10.85,35.47L95.48,449.22s-22.38,13.12-25.34,14S61,462,61.69,459.8Z" style="fill:#d3766a"></path><path d="M114.75,441l-19.27,8.21s-22.38,13.12-25.33,14S61,462,61.69,459.81s36.6-52.54,39.18-53.59c1-.41,2.88-1.93,11.95,4.14l2-1.78Z" style="fill:#FE8024"></path><path d="M110.52,441.14a13,13,0,0,1,3.76-3.48,12.67,12.67,0,0,1-3.76,3.48Z" style="fill:#263238"></path><path d="M110.48,437.78a13,13,0,0,1,3.76-3.48,11.25,11.25,0,0,1-1.71,1.93A11.62,11.62,0,0,1,110.48,437.78Z" style="fill:#263238"></path><path d="M110.44,434.42a12.67,12.67,0,0,1,3.76-3.48,11.69,11.69,0,0,1-1.71,1.93A12.12,12.12,0,0,1,110.44,434.42Z" style="fill:#263238"></path><path d="M110.4,431.05a11.56,11.56,0,0,1,1.7-1.92,10.9,10.9,0,0,1,2.06-1.55,11.62,11.62,0,0,1-1.71,1.92A11.15,11.15,0,0,1,110.4,431.05Z" style="fill:#263238"></path><path d="M110.36,427.69a11.63,11.63,0,0,1,1.7-1.93,11.34,11.34,0,0,1,2.06-1.55,11.3,11.3,0,0,1-1.71,1.93A11.15,11.15,0,0,1,110.36,427.69Z" style="fill:#263238"></path><path d="M110.32,424.33a11.2,11.2,0,0,1,1.7-1.93,11.62,11.62,0,0,1,2-1.55,10.84,10.84,0,0,1-1.7,1.93A11.62,11.62,0,0,1,110.32,424.33Z" style="fill:#263238"></path><path d="M110.27,421a13,13,0,0,1,3.76-3.48,11.2,11.2,0,0,1-1.7,1.93A11.34,11.34,0,0,1,110.27,421Z" style="fill:#263238"></path><path d="M110.23,417.61a13,13,0,0,1,3.76-3.48,11.63,11.63,0,0,1-1.7,1.93A11.34,11.34,0,0,1,110.23,417.61Z" style="fill:#263238"></path><path d="M110.19,414.25a11.3,11.3,0,0,1,1.71-1.93,11.15,11.15,0,0,1,2-1.55,12.67,12.67,0,0,1-3.76,3.48Z" style="fill:#263238"></path><path d="M205.9,390.39c-5.8,16-86.39,52.76-86.39,52.76l-13.65-42.38,37-15.77L64.47,373.5l40-14.93s7.59,3.22,13.19,1.6c2.49-.72,55.3-8,65.57-5.48C205.91,360.34,211.23,375.75,205.9,390.39Z" style="fill:#455a64"></path><path d="M161.3,375.33a39.81,39.81,0,0,0-4.55,2.22c-1.58.79-3.16,1.56-4.73,2.36l-.05,0,1.05-.86c1.22-.95,2.34-2,3.64-2.86.07,0,0-.18-.08-.13-1.32.84-2.72,1.55-4,2.49-.59.45-1.16.91-1.72,1.39-.3.26-.61.52-.9.79-.14.13-.29.26-.42.4-.71.38-1.42.76-2.12,1.15-1.56.88-3.05,1.89-4.62,2.75-.09.05,0,.17.08.13,1.54-.78,3.15-1.42,4.7-2.18s3.12-1.61,4.66-2.46,3-1.68,4.49-2.52a42.08,42.08,0,0,0,4.58-2.59A.06.06,0,0,0,161.3,375.33Z" style="fill:#263238"></path><path d="M123.94,433c-.34-1.21-.69-2.41-1-3.61q-1.08-3.6-2.17-7.2c-1.46-4.76-2.92-9.53-4.49-14.26-.89-2.68-1.77-5.36-2.77-8a.13.13,0,0,0-.24.07c1.21,4.86,2.73,9.66,4.23,14.43s3,9.5,4.6,14.23c.43,1.33.86,2.66,1.32,4s1,2.67,1.45,4a.05.05,0,1,0,.1,0C124.57,435.41,124.29,434.18,123.94,433Z" style="fill:#263238"></path><path d="M276.51,440.2c-2,1-63.18,10.35-65.74,9.23-1-.42-3.39-.72-5.35-11.45-.43-2.32-41.2-22.81-41.2-22.81l44.85-15.58,36.3,23.75s25,6.91,27.68,8.44S278.53,439.16,276.51,440.2Z" style="fill:#d3766a"></path><path d="M276.51,440.2c-2,1-63.18,10.36-65.75,9.24-1-.42-3.38-.73-5.34-11.46-.12-.64-3.25-2.62-7.75-5.18l40.71-14.05,7,4.59s25,6.91,27.68,8.43S278.53,439.16,276.51,440.2Z" style="fill:#FE8024"></path><path d="M200.54,433a11.83,11.83,0,0,1,2.34,1.07,10.88,10.88,0,0,1,2.09,1.51,11.28,11.28,0,0,1-2.34-1.07A10.88,10.88,0,0,1,200.54,433Z" style="fill:#263238"></path><path d="M203.74,432a11.58,11.58,0,0,1,2.35,1.06,12.11,12.11,0,0,1,2.08,1.51,11.25,11.25,0,0,1-2.34-1.06A11.81,11.81,0,0,1,203.74,432Z" style="fill:#263238"></path><path d="M206.94,431a11.92,11.92,0,0,1,2.35,1.07,10.81,10.81,0,0,1,2.08,1.51,11.83,11.83,0,0,1-2.34-1.07A10.88,10.88,0,0,1,206.94,431Z" style="fill:#263238"></path><path d="M210.15,430a11.25,11.25,0,0,1,2.34,1.06,11.73,11.73,0,0,1,2.08,1.51,11.25,11.25,0,0,1-2.34-1.06A11.73,11.73,0,0,1,210.15,430Z" style="fill:#263238"></path><path d="M213.35,428.93a11.28,11.28,0,0,1,2.34,1.07,11.61,11.61,0,0,1,2.09,1.5,11.1,11.1,0,0,1-2.35-1.06A11.25,11.25,0,0,1,213.35,428.93Z" style="fill:#263238"></path><path d="M216.55,427.91a12.87,12.87,0,0,1,4.43,2.57,11.58,11.58,0,0,1-2.35-1.06A12.11,12.11,0,0,1,216.55,427.91Z" style="fill:#263238"></path><path d="M219.75,426.88a10.79,10.79,0,0,1,2.34,1.07,11.27,11.27,0,0,1,2.09,1.5,12.87,12.87,0,0,1-4.43-2.57Z" style="fill:#263238"></path><path d="M223,425.86a11.58,11.58,0,0,1,2.35,1.06,11.13,11.13,0,0,1,2.08,1.51,10.79,10.79,0,0,1-2.34-1.07A11.27,11.27,0,0,1,223,425.86Z" style="fill:#263238"></path><path d="M226.15,424.83a11.58,11.58,0,0,1,2.35,1.06,11.73,11.73,0,0,1,2.08,1.51,11.25,11.25,0,0,1-2.34-1.06A11.81,11.81,0,0,1,226.15,424.83Z" style="fill:#263238"></path><path d="M229.36,423.8a12.1,12.1,0,0,1,2.34,1.07,10.81,10.81,0,0,1,2.08,1.51,11.28,11.28,0,0,1-2.34-1.07A10.81,10.81,0,0,1,229.36,423.8Z" style="fill:#263238"></path><path d="M232.56,422.78a11.25,11.25,0,0,1,2.34,1.06,11.73,11.73,0,0,1,2.08,1.51,11.25,11.25,0,0,1-2.34-1.06A11.73,11.73,0,0,1,232.56,422.78Z" style="fill:#263238"></path><path d="M235.76,421.75a11.83,11.83,0,0,1,2.34,1.07,10.88,10.88,0,0,1,2.09,1.51,11.37,11.37,0,0,1-2.35-1.07A10.81,10.81,0,0,1,235.76,421.75Z" style="fill:#263238"></path><path d="M239,420.73a11.25,11.25,0,0,1,2.34,1.06,11.81,11.81,0,0,1,2.09,1.51,11.58,11.58,0,0,1-2.35-1.06A12.11,12.11,0,0,1,239,420.73Z" style="fill:#263238"></path><path d="M235.16,414.47l-45.19,21-66.83-33s-15.32,11.87-31.77,15c-11.19,2.1-30.11.5-39.19-12.5-7.64-10.95-3.12-23.83-3.12-23.83l12.81-5.82s30.16-21.57,49-23.54C139.71,348.76,235.16,414.47,235.16,414.47Z" style="fill:#455a64"></path><path d="M73.13,367.84c-1.83,1.09-3.61,2.26-5.41,3.39s-3.61,2.14-5.31,3.37-3.38,2.6-5,4c-.79.65-1.58,1.31-2.35,2a19,19,0,0,0-2.25,2.14c-.06.07,0,.17.12.13a23.36,23.36,0,0,0,2.46-1.75c.87-.63,1.72-1.27,2.58-1.91,1.66-1.23,3.35-2.42,5-3.65s3.19-2.58,4.82-3.82,3.57-2.56,5.38-3.81C73.19,367.87,73.17,367.81,73.13,367.84Z" style="fill:#263238"></path><path d="M123.14,402.49A91.9,91.9,0,0,1,112,409.63l-17.59-22Z" style="fill:#263238"></path><path d="M225.4,411.32c-1.34.52-2.65,1.15-4,1.73l-3.87,1.76c-2.63,1.22-5.24,2.48-7.85,3.73-5.24,2.51-10.45,5.09-15.66,7.66-2.92,1.44-5.81,2.94-8.72,4.4a.05.05,0,0,0,0,.1c5.26-2.33,10.5-4.69,15.71-7.12s10.52-5,15.72-7.58c1.45-.72,2.88-1.47,4.31-2.22s2.93-1.5,4.33-2.33C225.51,411.41,225.47,411.3,225.4,411.32Z" style="fill:#263238"></path><path d="M203.85,394.07c-1.11-.92-24.74-15.13-29.82-18s-10.21-5.66-15.41-8.32-10.44-5.17-15.79-7.47-10.66-4.41-16.15-6.15c-.71-.23-1.41-.45-2.11-.69-.06,0-.09.08,0,.1,2.78,1,5.49,2.11,8.21,3.22s5.33,2.23,8,3.41q7.94,3.56,15.66,7.54T171.63,376q7.58,4.32,15.05,8.82c2.5,1.5,16.36,9.19,17,9.48C203.82,394.33,204,394.17,203.85,394.07Z" style="fill:#263238"></path><path d="M162.24,421.59c-2.48-1.36-5-2.65-7.55-3.95s-5.07-2.58-7.61-3.84q-7.58-3.74-15.21-7.38c-2.87-1.37-5.76-2.76-8.72-4a.06.06,0,0,0-.05.1c2.45,1.43,5,2.72,7.53,4s5.08,2.54,7.63,3.81c5,2.51,10.08,5,15.19,7.4,2.89,1.34,5.77,2.72,8.7,4A.1.1,0,0,0,162.24,421.59Z" style="fill:#263238"></path><path d="M105.55,373.17c-.86,2.35-54.71,8.55-56.64,7.9,0,0,4-26.75,10.72-48.12,7.24-22.89,19.56-17.79,24-14.54,5.3,3.86,16.31,19,17.26,22,1.57,5-2.26,11.07-2.26,11.07Z" style="fill:#ebebeb"></path><path d="M79.19,316.14l-5.76-.42A11.84,11.84,0,0,1,79.19,316.14Zm4.47,2.28-.39-.28-13.55-1a9.72,9.72,0,0,0-1.13.76l15.9,1.18A10.36,10.36,0,0,0,83.66,318.42Zm2.79,2.5-19.63-1.45c-.25.24-.5.51-.75.79l21.26,1.57ZM89,323.65l-24.16-1.79c-.18.26-.37.52-.55.8l25.49,1.89Zm2.27,2.7-28-2.07c-.15.26-.3.53-.44.81L92,327.25Zm2.14,2.7L62,326.72l-.37.82,32.42,2.4Zm2,2.69L61,329.18c-.11.27-.21.54-.31.82l35.41,2.63C95.84,332.33,95.63,332,95.41,331.74Zm1.91,2.67-37.26-2.76c-.1.28-.19.55-.28.84l38.16,2.82Zm1.78,2.68-39.84-2.95L59,335l40.64,3C99.49,337.7,99.3,337.41,99.1,337.09Zm1.81,3.32a5.81,5.81,0,0,0-.28-.67L58.5,336.62l-.24.83L101,340.61Zm.35,1.92-43.47-3.22c-.07.27-.15.55-.22.83l43.71,3.23A7.85,7.85,0,0,0,101.26,342.33Zm-44.15-.74c-.08.28-.15.56-.22.83L101,345.69c0-.28.11-.56.15-.83Zm-.66,2.49c-.07.28-.15.55-.22.84l44,3.26c.11-.26.2-.54.3-.83Zm-.64,2.5-.21.83,43.53,3.23.41-.82Zm43.1,5.73L55.2,349.07c-.07.28-.14.56-.2.83l44.18,3.28Zm.82,2.6-45.12-3.34c-.07.27-.13.55-.2.83l45.6,3.38Zm.83,2.6L54,354.06c-.07.28-.13.56-.19.83l47,3.49Zm.83,2.6-47.91-3.55-.18.83L101.67,361Zm.83,2.61-49.28-3.66c-.06.28-.11.56-.17.84l49.72,3.68Zm.82,2.6-50.61-3.76-.18.84,51.07,3.78Zm.83,2.59-51.95-3.85c-.05.28-.11.56-.16.84l52.39,3.88Zm.83,2.6-53.27-3.94-.15.83,53.7,4Zm.83,2.6-54.57-4c-.05.28-.11.55-.15.83l53.4,4c.79-.26,1.26-.49,1.34-.69Zm-55-1.53c0,.29-.11.56-.15.83l44.8,3.32c1.21-.2,2.34-.39,3.39-.59Zm-.45,2.5c0,.29-.09.57-.14.84l33.9,2.51,3.92-.55Zm-.42,2.51c-.05.29-.09.57-.14.84l21.7,1.6c1.43-.16,2.88-.34,4.34-.52Zm-.42,2.51c-.05.31-.08.6-.13.83l8.25.61c1.48-.13,3.1-.3,4.83-.48Z" style="fill:#dbdbdb"></path><path d="M101.4,341.61a14.25,14.25,0,0,0-2-4.52c-1-1.53-2-3-3.07-4.48l-.11-.15h0c-.07-.19-.15-.37-.22-.55-.15-.33-.32-.66-.49-1-.36-.67-.78-1.31-1.2-1.94a0,0,0,0,0-.07,0c.34.7.7,1.4,1.07,2.09l.22.41a48.27,48.27,0,0,0-3.2-3.94s-.1,0-.07.05c2,2.95,4.12,5.8,6,8.82a20,20,0,0,1,2.2,4.36,9.71,9.71,0,0,1,.19,5.1,17.34,17.34,0,0,1-.9,2.81c-.38.94-.73,1.91-1.14,2.84,0,.07.08.12.12.06a23.14,23.14,0,0,0,2.36-4.85A10,10,0,0,0,101.4,341.61Z" style="fill:#263238"></path><path d="M64.55,323.71c-11.3,15.22-22.37,43.51-15.08,48.71,9.83,7,29.62,10.84,53.61,10.42,3.32-.06,7.65-25.74,4.1-25.86-4.47-.15-35.76-.51-36.64-1.44s1.64-13.49,2.84-26.76C74.77,313.25,67.78,319.35,64.55,323.71Z" style="fill:#d3766a"></path><path d="M104.64,357s10.08-.7,16.7-.86c3.69-.08,10,.34,12.76,1.52,4.1,1.76,20.11,11.74,17.77,15.68-2.11,3.56-14.78-6.77-14.78-6.77s13.7,9.29,10.37,13.11-16.1-9.75-16.1-9.75,13.87,9.86,9.8,13.26c-3.07,2.56-15.31-9.08-15.31-9.08s11.85,8.56,8.81,11.33c-3.37,3.07-15.35-7-15.35-7-8.92,5.75-15.52,4.83-20.14,3.62C98.05,381.79,104.64,357,104.64,357Z" style="fill:#d3766a"></path><path d="M132.56,363c1.65,1,3.33,2.06,4.88,3.24s3.06,2.41,4.49,3.72a33.8,33.8,0,0,1,5.1,5.65c-2.89-3.48-8.38-7.78-9.93-9s-3-2.42-4.59-3.6C132.47,363.07,132.52,363,132.56,363Z" style="fill:#263238"></path><path d="M128.21,368.56c2,1.41,4.14,2.74,6.12,4.24s3.72,3.08,5.59,4.71c.15.12,0,.16-.12,0-1.93-1.55-3.83-2.83-5.79-4.36s-3.84-3.13-5.84-4.58C128.14,368.59,128.18,368.54,128.21,368.56Z" style="fill:#263238"></path><path d="M123.63,372.63a55.68,55.68,0,0,1,8.86,7.2c.14.13,0,.16-.16,0-2.9-2.45-5.16-4.38-8.77-7.11C123.5,372.7,123.56,372.59,123.63,372.63Z" style="fill:#263238"></path><path d="M100.35,356.83c1.56-.14,3.12-.22,4.68-.3s3.12-.13,4.68-.19,3.12-.09,4.68-.11,3.13-.05,4.7,0c-1.55.25-3.11.41-4.67.53s-3.13.2-4.69.26-3.13.07-4.69,0S101.91,357,100.35,356.83Z" style="fill:#263238"></path><path d="M52.4,342.08l20.53,4.15s2.59-14.41,1.62-23.17-6-7.12-11-.1S52.4,342.08,52.4,342.08Z" style="fill:#ebebeb"></path><path d="M73,318.23l-4.58-.34a5.73,5.73,0,0,1,1.66-.73l1.78.14A2.74,2.74,0,0,1,73,318.23Zm.9,1.76-7.41-.55c-.26.25-.51.51-.77.79l8.42.63A8.33,8.33,0,0,0,73.92,320Zm.63,3.06c0-.16,0-.32-.06-.48l-10.09-.75-.6.81,10.78.79Zm.16,2.08-12-.89c-.18.26-.36.53-.53.8l12.58.93C74.74,325.69,74.72,325.41,74.71,325.13Zm.06,2.54-13.65-1c-.17.27-.35.53-.51.8l14.15,1.05Zm0,2.53-15.1-1.12-.48.81L74.68,331C74.69,330.76,74.7,330.48,74.72,330.2Zm-.15,2.53-16.39-1.22-.47.82,16.81,1.25C74.54,333.3,74.56,333,74.57,332.73ZM56.79,334l-.46.81,18,1.33c0-.27.06-.55.08-.84Zm-1.35,2.43c-.16.28-.31.55-.45.82l19,1.41q0-.4.09-.84Zm-1.33,2.44-.44.82,20,1.48c0-.27.08-.55.11-.84Zm-1.29,2.44-.42.81h.07l20.88,1.55c0-.26.09-.54.13-.83Zm12.89,3.5,6.68,1.35.56,0c0-.13.07-.41.13-.85Z" style="fill:#dbdbdb"></path><path d="M72.62,342.31A132.28,132.28,0,0,0,55.15,339s-.06.13,0,.14c4.71,1.2,14.26,2.88,17.46,3.43C72.64,342.53,72.68,342.33,72.62,342.31Z" style="fill:#263238"></path><path d="M75.3,334.37s0,0,0,0c-.25.73-.46,1.45-.66,2.2.12-1.58.2-3.15.24-4.73,0-.05-.08-.05-.09,0-.64,4.69-1.4,9.37-1.94,14.07-.51.05-1,.09-1.52.1a.07.07,0,0,0,0,.13,15.84,15.84,0,0,1,1.66.25.26.26,0,0,0,.32-.17A66.6,66.6,0,0,0,74.48,338c.14-.43.28-.87.39-1.32A14.93,14.93,0,0,0,75.3,334.37Z" style="fill:#263238"></path><path d="M71.59,318.14c.25,1,5.12,7.35,9.65,7.05,1.48-.1,1.3-8.19,1.3-8.19l.12-.6,1.71-8.4-10-6.13-1.43-.8s-.32,2.33-.69,5.23c0,.14,0,.27,0,.42s0,.31-.06.47q-.1.65-.18,1.32c0,.33-.07.66-.1,1s-.07.71-.11,1.06A55,55,0,0,0,71.59,318.14Z" style="fill:#d3766a"></path><path d="M72.3,306.3a17.22,17.22,0,0,0,10.36,10.1l1.71-8.4-10-6.13-1.43-.8S72.67,303.4,72.3,306.3Z" style="fill:#263238"></path><path d="M70.34,298.44s-7.41-7.33-2.7-15.48,16-6.58,16-6.58-9.1.38-12.91,8A16.25,16.25,0,0,0,70.34,298.44Z" style="fill:#FE8024"></path><path d="M96.93,294.8c1.26,15-7.58,17.45-10.81,17.72-2.94.24-13,.7-15.78-14.08s3.77-20.12,10.45-21S95.66,279.8,96.93,294.8Z" style="fill:#d3766a"></path><path d="M94,292.75c-.36,0-.68-.13-1-.2a1.71,1.71,0,0,1-1-.4.54.54,0,0,1,0-.66,1.31,1.31,0,0,1,1.3-.33,2,2,0,0,1,1.24.67A.58.58,0,0,1,94,292.75Z" style="fill:#263238"></path><path d="M84.07,293.19c.35-.05.67-.15,1-.23a1.63,1.63,0,0,0,1-.43.53.53,0,0,0,0-.65,1.3,1.3,0,0,0-1.31-.29,1.91,1.91,0,0,0-1.22.7A.57.57,0,0,0,84.07,293.19Z" style="fill:#263238"></path><path d="M86.13,297s-.08.05-.08.09c.07,1,0,2.21-.93,2.58,0,0,0,.07,0,.06C86.25,299.49,86.36,297.92,86.13,297Z" style="fill:#263238"></path><path d="M85.17,295.92c-1.65-.06-1.66,3.25-.12,3.31S86.56,296,85.17,295.92Z" style="fill:#263238"></path><path d="M84.52,296.1c-.29.18-.57.51-.92.55s-.71-.31-1-.64c0,0-.06,0-.06,0,0,.63.24,1.28.92,1.38s1.06-.48,1.22-1.11C84.74,296.2,84.64,296,84.52,296.1Z" style="fill:#263238"></path><path d="M92,296.53s.08.05.07.09c0,1,.09,2.2,1,2.55a0,0,0,0,1,0,.06C92,299.06,91.83,297.49,92,296.53Z" style="fill:#263238"></path><path d="M93,295.47c1.65-.11,1.75,3.19.22,3.29S91.58,295.56,93,295.47Z" style="fill:#263238"></path><path d="M93.66,295.66c.26.17.53.48.84.49s.62-.35.85-.7c0,0,0,0,.05,0,0,.64-.16,1.3-.76,1.44s-1-.4-1.14-1C93.47,295.78,93.55,295.59,93.66,295.66Z" style="fill:#263238"></path><path d="M86.11,304.85c.23.25.46.59.83.64a2.5,2.5,0,0,0,1.11-.21,0,0,0,0,1,0,.06,1.38,1.38,0,0,1-1.33.49,1.08,1.08,0,0,1-.76-.94C86,304.83,86.07,304.81,86.11,304.85Z" style="fill:#263238"></path><path d="M90.36,301.1s.22,1.53.23,2.25c0,.07-.17.1-.42.12h0a3.41,3.41,0,0,1-3.34-1.25c0-.07,0-.14.1-.1a5.21,5.21,0,0,0,3.15.87c0-.2-.48-2.61-.37-2.62a6.74,6.74,0,0,1,1.65.36c-.38-3.2-1.28-6.31-1.61-9.5,0-.11.16-.15.19-.05a51.11,51.11,0,0,1,2.16,10.16C92.14,301.75,90.65,301.22,90.36,301.1Z" style="fill:#263238"></path><path d="M70.85,298.77c3.77.12,5.65-11.38,5.87-12.8-.09.9-.55,5.66-.2,5.88a3.65,3.65,0,0,0,1.2-.15h0A11.51,11.51,0,0,1,78,290c0-.27.06.58.14,1.62l.71-.15a13.85,13.85,0,0,1,.6-3.6c.14-.44.12,1.59.44,3.39a45.32,45.32,0,0,1,10-1.07c1,0,1.76.09,2.47.18.1-1.41,0-2.92.12-2.59a13.09,13.09,0,0,1,.41,2.65c.39.05.75.1,1.07.16.23-2-.5-5.22-.21-4.71a13.9,13.9,0,0,1,1.58,5c1.34.36,1.7.65,1.76.3a16.6,16.6,0,0,0-4.35-10.62c-4.4-4.75-13.72-6.5-19.48,0,0,0-4.55,2.55-5.55,7.09S68.67,298.7,70.85,298.77Z" style="fill:#263238"></path><path d="M72.82,299.39s-3.27-4.71-5.41-3.54.32,8,2.83,8.92a2.55,2.55,0,0,0,3.41-1.36Z" style="fill:#d3766a"></path><path d="M68.17,297.78s0,.06,0,.07c1.76.71,2.68,2.34,3.32,4a1.41,1.41,0,0,0-2.1-.39c-.05,0,0,.11,0,.1a1.57,1.57,0,0,1,1.72.55,8.06,8.06,0,0,1,.82,1.39c.08.16.36.08.31-.1l0,0C72.3,301.15,70.57,298,68.17,297.78Z" style="fill:#263238"></path></g></svg>