<svg width="100" height="24" viewBox="0 0 100 24" fill="" xmlns="http://www.w3.org/2000/svg">
<path d="M15.7991 14.2227C16.4606 14.2227 16.997 14.759 16.997 15.4206V15.8738C16.997 16.7857 16.2577 17.525 15.3458 17.525H15.1839C13.5436 17.525 12.3889 16.899 11.7198 15.6472C10.6406 17.1796 9.01108 17.9458 6.83116 17.9458C5.33291 17.9458 3.49652 19.0258 3.49652 20.524V22.2517C3.49652 23.2173 2.71379 24 1.74826 24C0.782722 24 0 23.2173 0 22.2517V3.08564C0 2.1201 0.782722 1.33738 1.74826 1.33738C2.71379 1.33738 3.49652 2.1201 3.49652 3.08564V10.9204C3.49652 12.1075 3.82027 13.0356 4.46777 13.7047C5.11527 14.3522 5.9894 14.6759 7.09016 14.6759C8.342 14.6759 9.34563 14.2982 10.101 13.5428C10.8565 12.7658 11.2342 11.5787 11.2342 9.98154V3.08564C11.2342 2.1201 12.0169 1.33738 12.9824 1.33738C13.948 1.33738 14.7307 2.1201 14.7307 3.08564V13.1543C14.7307 13.4781 14.8278 13.7371 15.0221 13.9313C15.2163 14.1256 15.4753 14.2227 15.7991 14.2227Z" fill="#1D1D1F"/>
<path d="M23.8048 10.6372C23.8048 12.4744 25.2942 13.9637 27.1313 13.9637H31.2511C32.2345 13.9637 33.0318 14.7609 33.0318 15.7443C33.0318 16.7277 32.2345 17.525 31.2511 17.525H26.5567C22.9807 17.525 20.0817 14.626 20.0817 11.0499V3.19891C20.0817 2.17079 20.9151 1.33734 21.9433 1.33734C22.9714 1.33734 23.8048 2.17079 23.8048 3.19891V10.6372Z" fill="#1D1D1F"/>
<path d="M39.1489 10.9204C38.4611 10.9204 37.9373 11.5645 38.2439 12.1801C38.5628 12.8202 39.0132 13.3499 39.5951 13.7694C40.5231 14.4169 41.6563 14.7407 42.9944 14.7407C44.2377 14.7407 45.2728 14.4405 46.0997 13.8402C46.8065 13.327 47.7529 13.0735 48.507 13.5141C49.343 14.0025 49.6029 15.1158 48.9024 15.7841C47.3917 17.2252 45.4116 17.9458 42.9621 17.9458C40.3289 17.9458 38.2029 17.1472 36.5842 15.5501C34.9654 13.9313 34.156 11.8917 34.156 9.43117C34.156 7.01382 34.9546 4.99577 36.5518 3.37701C38.149 1.73667 40.1994 0.916504 42.7031 0.916504C45.0772 0.916504 47.0198 1.74746 48.5306 3.40939C50.063 5.07131 50.8292 7.08936 50.8292 9.46354C50.8292 10.3034 50.0759 10.9204 49.236 10.9204H39.1489ZM37.7821 8.07141H47.3003C47.0629 6.75482 46.5125 5.76198 45.6492 5.0929C44.8075 4.42381 43.8146 4.08927 42.6707 4.08927C41.3757 4.08927 40.2965 4.44539 39.4332 5.15765C38.5698 5.8699 38.0195 6.84115 37.7821 8.07141Z" fill="#1D1D1F"/>
<path d="M66.6316 3.08564C66.6316 2.1201 67.4143 1.33738 68.3799 1.33738C69.3454 1.33738 70.1281 2.1201 70.1281 3.08564V15.7767C70.1281 16.7422 69.3454 17.525 68.3799 17.525C67.4143 17.525 66.6316 16.7422 66.6316 15.7767V15.1939C65.315 17.0285 63.4265 17.9458 60.9659 17.9458C58.7429 17.9458 56.8435 17.1257 55.2679 15.4853C53.6923 13.8234 52.9045 11.8053 52.9045 9.43117C52.9045 7.03541 53.6923 5.01735 55.2679 3.37701C56.8435 1.73667 58.7429 0.916504 60.9659 0.916504C63.4265 0.916504 65.315 1.82301 66.6316 3.63601V3.08564ZM57.8579 13.1543C58.8292 14.1256 60.0486 14.6112 61.5163 14.6112C62.984 14.6112 64.2035 14.1256 65.1747 13.1543C66.146 12.1615 66.6316 10.9204 66.6316 9.43117C66.6316 7.94191 66.146 6.71165 65.1747 5.7404C64.2035 4.74756 62.984 4.25114 61.5163 4.25114C60.0486 4.25114 58.8292 4.74756 57.8579 5.7404C56.8867 6.71165 56.401 7.94191 56.401 9.43117C56.401 10.9204 56.8867 12.1615 57.8579 13.1543Z" fill="#1D1D1F"/>
<path d="M77.7001 4.05689C78.3448 2.59454 79.4019 1.66487 80.8714 1.26789C81.8487 1.00388 82.6859 1.86663 82.6859 2.87892C82.6859 3.93764 81.7671 4.73269 80.7505 5.02835C80.1897 5.19143 79.6694 5.45036 79.1894 5.80515C78.1965 6.5174 77.7001 7.70449 77.7001 9.36642V15.7767C77.7001 16.7422 76.9174 17.525 75.9518 17.525C74.9863 17.525 74.2036 16.7422 74.2036 15.7767V3.08564C74.2036 2.1201 74.9863 1.33738 75.9518 1.33738C76.9174 1.33738 77.7001 2.1201 77.7001 3.08564V4.05689Z" fill="#1D1D1F"/>
<path d="M93.784 0.916504C95.6401 0.916504 97.1402 1.51005 98.2841 2.69714C99.428 3.88422 100 5.51377 100 7.58578V15.7767C100 16.7422 99.2173 17.525 98.2517 17.525C97.2862 17.525 96.5035 16.7422 96.5035 15.7767V7.94191C96.5035 6.73324 96.1797 5.80515 95.5322 5.15765C94.8847 4.51014 93.9998 4.18639 92.8775 4.18639C91.6472 4.18639 90.6544 4.57489 89.899 5.3519C89.1435 6.10732 88.7658 7.27282 88.7658 8.84841V15.7767C88.7658 16.7422 87.9831 17.525 87.0176 17.525C86.052 17.525 85.2693 16.7422 85.2693 15.7767V3.08564C85.2693 2.1201 86.052 1.33738 87.0176 1.33738C87.9831 1.33738 88.7658 2.1201 88.7658 3.08564V3.40939C89.8234 1.74746 91.4961 0.916504 93.784 0.916504Z" fill="#1D1D1F"/>
</svg>
