<svg width="153" height="153" viewBox="0 0 153 153" fill="none" xmlns="http://www.w3.org/2000/svg">
<g id="Flat Illustration 1">
<path id="Vector" d="M57.9641 133.451H117.747L78.3865 51.7385H63.0483C62.3806 51.7385 61.7195 51.87 61.1026 52.1255C60.4858 52.381 59.9253 52.7555 59.4532 53.2276C58.9811 53.6997 58.6066 54.2602 58.3511 54.877C58.0956 55.4939 57.9641 56.155 57.9641 56.8227V133.451Z" fill="#FFD8C5"/>
<path id="Vector_2" d="M91.7541 92.614H119.103V90.4628H91.7541V92.614Z" fill="#FFECE5"/>
<path id="Vector_3" d="M90.3465 90.4627H117.695V88.3116H90.3465V90.4627Z" fill="#FFECE5"/>
<path id="Vector_4" d="M88.9374 88.3116H116.286V86.1605H88.9374V88.3116Z" fill="#FFECE5"/>
<path id="Vector_5" d="M87.5297 86.1604H114.878V84.0092H87.5297V86.1604Z" fill="#FFECE5"/>
<path id="Vector_6" d="M86.1206 84.0092H113.469V81.8581H86.1206V84.0092Z" fill="#FFECE5"/>
<path id="Vector_7" d="M84.7131 81.8565H112.062V79.7053H84.7131V81.8565Z" fill="#FFECE5"/>
<path id="Vector_8" d="M83.3039 79.7054H110.653V77.5542H83.3039V79.7054Z" fill="#FFECE5"/>
<path id="Vector_9" d="M81.8947 77.5558H109.243V75.4046H81.8947V77.5558Z" fill="#FFECE5"/>
<path id="Vector_10" d="M80.4872 75.4045H107.836V73.2533H80.4872V75.4045Z" fill="#FFECE5"/>
<path id="Vector_11" d="M79.0781 73.2534H106.427V71.1022H79.0781V73.2534Z" fill="#FFECE5"/>
<path id="Vector_12" d="M77.6704 71.1021H105.019V68.9509H77.6704V71.1021Z" fill="#FFECE5"/>
<path id="Vector_13" d="M76.2613 68.9495H103.61V66.7983H76.2613V68.9495Z" fill="#FFECE5"/>
<path id="Vector_14" d="M74.8538 66.7982H102.203V64.6471H74.8538V66.7982Z" fill="#FFECE5"/>
<path id="Vector_15" d="M73.4446 64.6471H100.793V62.4959H73.4446V64.6471Z" fill="#FFECE5"/>
<path id="Vector_16" d="M72.037 62.4959H99.3857V60.3447H72.037V62.4959Z" fill="#FFECE5"/>
<path id="Vector_17" d="M70.6279 60.3448H97.9766V58.1936H70.6279V60.3448Z" fill="#FFECE5"/>
<path id="Vector_18" d="M69.2188 58.192H96.5675V56.0408H69.2188V58.192Z" fill="#FFECE5"/>
<path id="Vector_19" d="M67.8111 56.0409H95.1599V53.8897H67.8111V56.0409Z" fill="#FFECE5"/>
<path id="Vector_20" d="M66.402 53.8913H93.7507V51.7401H66.402V53.8913Z" fill="#FFECE5"/>
<path id="Vector_21" d="M64.6869 65.8145C64.9118 65.8137 65.1347 65.8573 65.3428 65.9429C65.5508 66.0284 65.74 66.1541 65.8993 66.3129C66.0586 66.4717 66.1851 66.6604 66.2713 66.8681C66.3576 67.0759 66.402 67.2986 66.402 67.5235V72.8433H62.9779V67.5235C62.9779 67.2991 63.0221 67.0769 63.108 66.8695C63.1939 66.6622 63.3197 66.4738 63.4784 66.3151C63.6371 66.1564 63.8255 66.0305 64.0329 65.9446C64.2402 65.8587 64.4625 65.8145 64.6869 65.8145Z" fill="#FFA97F"/>
<path id="Vector_22" d="M66.3959 72.3185H62.0951V72.8433H66.3959V72.3185Z" fill="#FFECE5"/>
<path id="Vector_23" d="M72.3506 75.5468C72.8039 75.5468 73.2386 75.7268 73.5591 76.0473C73.8796 76.3678 74.0596 76.8025 74.0596 77.2558V82.5756H70.6416V77.2573C70.6416 77.0329 70.6858 76.8106 70.7717 76.6033C70.8576 76.3959 70.9835 76.2075 71.1422 76.0488C71.3009 75.8901 71.4893 75.7643 71.6966 75.6784C71.904 75.5925 72.1262 75.5483 72.3506 75.5483V75.5468Z" fill="#FFA97F"/>
<path id="Vector_24" d="M74.0596 82.0524H69.7588V82.5772H74.0596V82.0524Z" fill="#FFECE5"/>
<path id="Vector_25" d="M80.019 85.4336C80.4723 85.4336 80.907 85.6137 81.2275 85.9342C81.548 86.2547 81.728 86.6894 81.728 87.1426V92.4624H78.3069V87.1426C78.3069 86.9179 78.3512 86.6955 78.4373 86.4879C78.5234 86.2804 78.6496 86.0918 78.8086 85.9331C78.9676 85.7744 79.1564 85.6485 79.3641 85.5628C79.5718 85.4771 79.7943 85.4332 80.019 85.4336Z" fill="#FFA97F"/>
<path id="Vector_26" d="M81.7234 91.9378H77.4226V92.4625H81.7234V91.9378Z" fill="#FFECE5"/>
<path id="Vector_27" d="M133.101 133.489H89.9885L107.17 92.614H125.419C127.456 92.614 129.41 93.4234 130.851 94.8641C132.291 96.3047 133.101 98.2587 133.101 100.296V133.489Z" fill="#FFD8C5"/>
<path id="Vector_28" d="M93.8027 131.338H66.454V133.489H93.8027V131.338Z" fill="#FFECE5"/>
<path id="Vector_29" d="M95.2104 129.187H67.8616V131.338H95.2104V129.187Z" fill="#FFECE5"/>
<path id="Vector_30" d="M96.6195 127.036H69.2708V129.187H96.6195V127.036Z" fill="#FFECE5"/>
<path id="Vector_31" d="M98.0286 124.885H70.6799V127.036H98.0286V124.885Z" fill="#FFECE5"/>
<path id="Vector_32" d="M99.4362 122.732H72.0875V124.883H99.4362V122.732Z" fill="#FFECE5"/>
<path id="Vector_33" d="M100.845 120.581H73.4966V122.732H100.845V120.581Z" fill="#FFECE5"/>
<path id="Vector_34" d="M102.253 118.43H74.9042V120.581H102.253V118.43Z" fill="#FFECE5"/>
<path id="Vector_35" d="M103.662 116.279H76.3133V118.43H103.662V116.279Z" fill="#FFECE5"/>
<path id="Vector_36" d="M105.07 114.127H77.7209V116.278H105.07V114.127Z" fill="#FFECE5"/>
<path id="Vector_37" d="M106.479 111.976H79.1301V114.127H106.479V111.976Z" fill="#FFECE5"/>
<path id="Vector_38" d="M107.888 109.825H80.5392V111.976H107.888V109.825Z" fill="#FFECE5"/>
<path id="Vector_39" d="M109.296 107.674H81.9468V109.825H109.296V107.674Z" fill="#FFECE5"/>
<path id="Vector_40" d="M110.705 105.523H83.3559V107.674H110.705V105.523Z" fill="#FFECE5"/>
<path id="Vector_41" d="M112.112 103.371H84.7635V105.523H112.112V103.371Z" fill="#FFECE5"/>
<path id="Vector_42" d="M113.521 101.22H86.1726V103.371H113.521V101.22Z" fill="#FFECE5"/>
<path id="Vector_43" d="M114.929 99.0675H87.5802V101.219H114.929V99.0675Z" fill="#FFECE5"/>
<path id="Vector_44" d="M116.338 96.9164H88.9894V99.0676H116.338V96.9164Z" fill="#FFECE5"/>
<path id="Vector_45" d="M117.746 94.7651H90.397V96.9163H117.746V94.7651Z" fill="#FFECE5"/>
<path id="Vector_46" d="M119.155 92.614H91.8061V94.7652H119.155V92.614Z" fill="#FFECE5"/>
<path id="Vector_47" d="M23.715 88.9925L21.0895 88.4937C21.0895 88.4937 21.6173 85.1645 23.3111 85.5867C25.3352 86.0932 23.715 88.9925 23.715 88.9925Z" fill="#71D2C1"/>
<path id="Vector_48" d="M21.0452 85.8069L21.3665 88.1019C21.4185 88.4783 21.9892 88.3177 21.9371 87.9489L21.6143 85.6539C21.5623 85.2776 20.9916 85.4382 21.0452 85.8069Z" fill="#71D2C1"/>
<path id="Vector_49" d="M24.633 86.0014C24.3454 86.5226 24.0735 87.052 23.8175 87.5895C23.6951 87.8465 24.0776 88.0714 24.2 87.8129C24.456 87.2753 24.7284 86.7465 25.017 86.2263C25.1547 85.9753 24.7722 85.752 24.633 86.0014Z" fill="#71D2C1"/>
<path id="Vector_50" d="M24.174 85.0787C24.0353 85.5592 23.8292 86.0176 23.562 86.4404C23.409 86.6822 23.793 86.8994 23.946 86.6638C24.2328 86.2076 24.4547 85.7138 24.6055 85.1965C24.6211 85.1397 24.6135 85.079 24.5844 85.0278C24.5553 84.9766 24.507 84.939 24.4502 84.9234C24.3934 84.9078 24.3327 84.9154 24.2815 84.9445C24.2302 84.9736 24.1927 85.0219 24.1771 85.0787H24.174Z" fill="#71D2C1"/>
<path id="Vector_51" d="M23.3708 86.0946C23.5942 85.6047 23.7839 85.1002 23.9384 84.5845C24.0195 84.3106 23.5911 84.1928 23.51 84.4666C23.3687 84.946 23.1938 85.4148 22.9868 85.8696C22.8705 86.1282 23.253 86.3547 23.3708 86.0946Z" fill="#71D2C1"/>
<path id="Vector_52" d="M22.5614 84.2862C22.4925 85.1078 22.1146 85.8728 21.749 86.5981C21.6204 86.852 22.0029 87.0769 22.1315 86.823C22.5369 86.0228 22.9301 85.192 23.0051 84.2862C23.0296 84.0016 22.5859 84.0032 22.5614 84.2862Z" fill="#71D2C1"/>
<path id="Vector_53" d="M22.2982 89.0062C22.3671 88.3942 22.5553 82.8648 22.8108 82.6154C23.0663 82.366 24.4754 84.0276 24.9176 84.0444C25.3598 84.0613 26.7077 82.1166 27.3794 82.5909C28.051 83.0652 28.6646 84.2112 29.1297 83.7124C29.5948 83.2136 30.2757 82.366 30.9076 82.8158C31.5394 83.2657 31.9372 83.9113 32.2371 83.5625C32.537 83.2136 33.9201 81.4541 34.0532 81.7357C34.1863 82.0172 34.8458 90.192 34.4388 90.7902" fill="#FFD8C5"/>
<path id="Vector_54" d="M26.4609 84.908C26.6635 84.8207 26.7453 84.5587 26.6436 84.3228C26.542 84.0869 26.2954 83.9664 26.0928 84.0537C25.8903 84.141 25.8085 84.403 25.9102 84.6389C26.0118 84.8748 26.2584 84.9953 26.4609 84.908Z" fill="#71D2C1"/>
<path id="Vector_55" d="M30.1303 84.9081C30.3329 84.8209 30.4147 84.5589 30.313 84.323C30.2114 84.0871 29.9648 83.9666 29.7622 84.0538C29.5597 84.1411 29.4779 84.4031 29.5795 84.639C29.6812 84.8749 29.9278 84.9954 30.1303 84.9081Z" fill="#71D2C1"/>
<path id="Vector_56" d="M31.4843 89.147C31.4721 89.147 31.6373 87.4426 30.9075 87.363" stroke="#CE8B42" stroke-width="1.071" stroke-miterlimit="10"/>
<path id="Vector_57" d="M36.3283 88.3498L33.7763 89.147C33.7763 89.147 32.6732 85.9615 34.3669 85.5377C36.3926 85.0282 36.3283 88.3498 36.3283 88.3498Z" fill="#71D2C1"/>
<path id="Vector_58" d="M32.436 86.7509L33.8008 88.6237C34.0226 88.9297 34.5367 88.6328 34.3118 88.3177L32.944 86.4449C32.7206 86.1389 32.2081 86.4358 32.433 86.7509H32.436Z" fill="#71D2C1"/>
<path id="Vector_59" d="M35.727 85.2898C35.7178 85.8855 35.727 86.4807 35.7545 87.0754C35.7683 87.3599 36.2135 87.3615 36.1982 87.0754C36.1707 86.4807 36.1615 85.8855 36.1707 85.2898C36.1707 85.231 36.1473 85.1746 36.1057 85.133C36.0641 85.0914 36.0077 85.068 35.9489 85.068C35.89 85.068 35.8336 85.0914 35.792 85.133C35.7504 85.1746 35.727 85.231 35.727 85.2898Z" fill="#71D2C1"/>
<path id="Vector_60" d="M34.8917 84.6916C34.9925 85.1815 35.025 85.6831 34.9881 86.1819C34.9682 86.4665 35.4119 86.4649 35.4318 86.1819C35.4692 85.6432 35.4311 85.102 35.3185 84.5738C35.2604 84.2954 34.8335 84.4208 34.8917 84.6916Z" fill="#71D2C1"/>
<path id="Vector_61" d="M34.6606 85.9477C34.6254 85.41 34.5538 84.8753 34.4465 84.3473C34.3898 84.0673 33.9614 84.1851 34.018 84.4651C34.1188 84.9541 34.1853 85.4495 34.217 85.9477C34.2353 86.2308 34.6759 86.2323 34.6606 85.9477Z" fill="#71D2C1"/>
<path id="Vector_62" d="M33.0985 84.7497C33.4259 85.5055 33.4488 86.3623 33.4672 87.1732C33.4672 87.4578 33.917 87.4593 33.9109 87.1732C33.891 86.2751 33.842 85.3602 33.4825 84.5263C33.3693 84.2647 32.9868 84.4896 33.0985 84.7497Z" fill="#71D2C1"/>
<path id="Vector_63" d="M35.0033 126.751C35.0033 126.884 35.5725 133.474 35.3705 133.483L40.9703 133.491C40.9761 133.491 40.9819 133.49 40.987 133.487C40.9921 133.484 40.9964 133.48 40.9995 133.475C41.0026 133.47 41.0043 133.465 41.0046 133.459C41.0048 133.453 41.0036 133.447 41.0009 133.442L39.9207 132.296L39.9115 132.276L39.6545 126.921" fill="#F97171"/>
<path id="Vector_64" d="M29.1297 99.5295C29.1297 99.5295 35.2497 109.101 36.0422 114.949C36.8348 120.796 37.179 128.038 37.179 128.038" stroke="#3A3144" stroke-width="6.12" stroke-miterlimit="10"/>
<path id="Vector_65" d="M30.1181 89.8676C30.3675 89.7682 34.7081 96.2783 35.5266 95.9739C36.3452 95.6694 34.731 87.975 34.731 87.975" stroke="#4F8AE0" stroke-width="3.825" stroke-miterlimit="10"/>
<path id="Vector_66" d="M22.3671 88.3928C22.3671 88.3928 19.89 93.8212 21.267 95.5256C22.644 97.23 26.0207 91.9791 26.0207 91.9791" stroke="#2A76D1" stroke-width="3.825" stroke-miterlimit="10"/>
<path id="Vector_67" d="M21.934 92.7577L20.9487 92.565C20.8379 92.5452 20.7236 92.5668 20.6277 92.6258C20.5318 92.6848 20.4609 92.7769 20.4285 92.8847C20.2051 93.688 19.7568 95.5439 19.9435 96.9622C19.9563 97.0549 19.9979 97.1413 20.0624 97.2091C20.1269 97.2769 20.2111 97.3227 20.3031 97.3401L21.4949 97.5742C21.5593 97.5869 21.6257 97.5854 21.6895 97.5698C21.7532 97.5541 21.8128 97.5247 21.864 97.4836C21.9152 97.4425 21.9567 97.3907 21.9857 97.3318C22.0147 97.2729 22.0305 97.2084 22.032 97.1427C22.0518 96.214 22.113 94.3061 22.2921 93.2749C22.3118 93.159 22.2854 93.04 22.2185 92.9433C22.1515 92.8467 22.0495 92.7801 21.934 92.7577Z" fill="#E8A54F"/>
<path id="Vector_68" d="M21.6877 126.751C21.6877 126.884 20.3597 133.468 20.3398 133.483L25.9809 133.491L25.3154 132.114L26.7444 126.926" fill="#F97171"/>
<path id="Vector_69" d="M25.8402 96.7266C25.8402 96.7266 26.6695 107.527 26.4675 112.18C26.3252 115.468 23.8573 128.044 23.8573 128.044" stroke="#3A3144" stroke-width="6.12" stroke-miterlimit="10"/>
<path id="Vector_70" d="M28.0877 84.6519L27.6042 88.3927" stroke="#71D2C1" stroke-width="2.448" stroke-miterlimit="10"/>
<path id="Vector_71" d="M27.6089 86.3471C28.8466 86.367 29.4219 86.4113 29.9329 84.7513C30.0594 84.3279 30.1218 83.888 30.1181 83.4462C30.1181 82.4946 29.2521 81.7295 28.1994 81.7357H28.0878C27.0351 81.7357 25.7132 82.6537 26.088 83.896L26.394 84.8752C26.4751 85.1532 26.5395 85.4357 26.5868 85.7213C26.6679 86.1834 26.9663 86.3517 27.6089 86.3471Z" fill="#3A3144"/>
<path id="Vector_72" d="M27.3793 102.36C29.7757 102.36 31.7184 100.417 31.7184 98.0209C31.7184 95.6245 29.7757 93.6819 27.3793 93.6819C24.9829 93.6819 23.0403 95.6245 23.0403 98.0209C23.0403 100.417 24.9829 102.36 27.3793 102.36Z" fill="#3A3144"/>
<path id="Vector_73" d="M29.1496 87.5037L26.9846 87.3706C25.9902 87.311 25.0103 87.6316 24.2433 88.2673C23.4763 88.9031 22.9795 89.8065 22.8536 90.7948L22.1131 96.6088C22.1032 96.6863 22.1098 96.7651 22.1323 96.8399C22.1549 96.9148 22.1929 96.984 22.244 97.0432C22.2951 97.1024 22.3581 97.1501 22.4289 97.1834C22.4996 97.2166 22.5766 97.2346 22.6547 97.2361L31.7032 97.4319C31.9115 97.4361 32.113 97.3582 32.2644 97.2151C32.4158 97.072 32.5049 96.8751 32.5125 96.6669L32.6655 91.3655C32.6976 90.3907 32.3482 89.4419 31.6916 88.7207C31.035 87.9996 30.1231 87.563 29.1496 87.5037Z" fill="#4F8AE0"/>
<path id="Vector_74" d="M30.906 87.363C30.1747 87.285 30.1089 89.0292 29.809 89.9931" stroke="#CE8B42" stroke-width="1.071" stroke-miterlimit="10"/>
<path id="Vector_75" d="M25.2022 89.147C25.19 89.147 25.3552 87.4426 24.6254 87.363" stroke="#CE8B42" stroke-width="1.071" stroke-miterlimit="10"/>
<path id="Vector_76" d="M24.633 87.363C23.9017 87.285 23.8359 89.0292 23.536 89.9931" stroke="#CE8B42" stroke-width="1.071" stroke-miterlimit="10"/>
<path id="Vector_77" d="M31.1339 89.8385C31.0619 89.7061 30.9801 89.5792 30.8891 89.459C30.5082 88.9618 29.8518 88.6084 29.3163 88.2962L25.9029 88.4875L24.5993 88.5594C24.0929 88.5885 23.6415 88.5778 23.2055 88.8883C22.1345 89.6533 21.752 90.8238 21.4521 92.0539C21.2198 92.9953 21.0435 93.9497 20.9242 94.912C20.8171 95.7963 20.6657 96.8489 20.9548 97.7149C21.3419 98.8792 23.0509 98.7706 24.0148 98.7859C26.0937 98.8213 28.1729 98.7366 30.2419 98.5319C30.9396 98.4677 31.2992 98.128 31.4797 97.4609C31.6667 96.6787 31.7597 95.8769 31.7566 95.0726C31.7888 93.7752 31.801 92.4563 31.573 91.1726C31.5011 90.7068 31.3527 90.256 31.1339 89.8385Z" fill="#CE8B42"/>
<path id="Vector_78" d="M24.0807 87.467C23.8236 87.672 23.7104 87.975 23.5865 88.3406C23.4711 88.655 23.4267 88.9909 23.4564 89.3244C23.5222 89.889 23.6094 90.4107 24.0868 90.6907C25.1226 91.3027 26.85 91.2492 27.9852 90.9386C28.0878 90.911 28.1887 90.8789 28.2912 90.8422C29.7906 90.2807 30.1074 88.4615 30.1747 87.672C30.1809 87.5939 30.1631 87.5157 30.1237 87.4479C30.0844 87.3801 30.0253 87.3259 29.9544 87.2926C29.8507 87.2526 29.741 87.2309 29.63 87.2283C28.7671 87.1564 27.9011 87.0845 27.029 87.0753C26.1997 87.0585 25.2756 87.0309 24.477 87.2712C24.3336 87.3106 24.1991 87.3771 24.0807 87.467Z" fill="#E8A54F"/>
<path id="Vector_79" d="M27.999 97.2208H23.1612C22.9793 97.2209 22.7995 97.1828 22.6333 97.1091C22.467 97.0354 22.3181 96.9277 22.196 96.793C22.0739 96.6582 21.9814 96.4993 21.9244 96.3266C21.8675 96.154 21.8473 95.9712 21.8653 95.7903L22.003 94.3704C22.0348 94.0484 22.1852 93.7496 22.425 93.5322C22.6648 93.3148 22.9767 93.1942 23.3004 93.1939H28.152C28.3339 93.1939 28.5138 93.2319 28.6801 93.3056C28.8464 93.3793 28.9955 93.487 29.1177 93.6217C29.2399 93.7564 29.3325 93.9153 29.3897 94.088C29.4468 94.2607 29.4672 94.4434 29.4495 94.6244L29.3102 96.0443C29.2788 96.369 29.1267 96.6701 28.8838 96.888C28.641 97.1059 28.3253 97.2247 27.999 97.2208Z" fill="#E8A54F"/>
<path id="Vector_80" d="M31.212 92.8587H32.2157C32.3289 92.8588 32.4379 92.9015 32.521 92.9783C32.6041 93.0552 32.6551 93.1605 32.664 93.2734C32.7298 94.1042 32.817 96.0121 32.358 97.3677C32.3283 97.4572 32.271 97.535 32.1943 97.59C32.1176 97.645 32.0255 97.6743 31.9311 97.6737H30.7163C30.6506 97.674 30.5857 97.6599 30.5261 97.6324C30.4665 97.6048 30.4136 97.5645 30.3713 97.5143C30.329 97.4641 30.2982 97.4052 30.2811 97.3418C30.2641 97.2784 30.2612 97.212 30.2726 97.1473C30.4256 96.2293 30.7393 94.3474 30.7607 93.3025C30.7646 93.1847 30.8136 93.073 30.8976 92.9904C30.9817 92.9078 31.0942 92.8606 31.212 92.8587Z" fill="#E8A54F"/>
<path id="Vector_81" d="M25.0017 95.1369C25.0357 95.2079 25.088 95.2686 25.1531 95.3129C25.2182 95.3571 25.2939 95.3833 25.3724 95.3887C25.451 95.3942 25.5295 95.3787 25.6002 95.3438C25.6708 95.309 25.7309 95.2561 25.7744 95.1905C25.831 95.1125 25.6994 95.0375 25.6428 95.114C25.6127 95.1569 25.5717 95.1911 25.524 95.2128C25.4763 95.2346 25.4236 95.2432 25.3715 95.2377C25.3194 95.2322 25.2696 95.2129 25.2275 95.1817C25.1853 95.1506 25.1523 95.1087 25.1318 95.0604C25.0889 94.9732 24.9589 95.0497 25.0017 95.1369Z" fill="#3A3144"/>
<path id="Vector_82" d="M23.6875 90.524C24.5165 91.118 25.515 91.429 26.5347 91.4108C27.5545 91.3927 28.5412 91.0462 29.3485 90.423C29.425 90.3649 29.3485 90.2333 29.272 90.2929C28.4874 90.9012 27.5273 91.2396 26.5348 91.2578C25.5422 91.276 24.5703 90.973 23.764 90.3939C23.6844 90.3373 23.611 90.4689 23.6875 90.524Z" fill="#3A3144"/>
<path id="Vector_83" d="M33.1016 90.8391C33.8596 91.608 34.5664 92.4258 35.2176 93.2871C35.2757 93.3636 35.4073 93.2871 35.3476 93.2106C34.6878 92.3401 33.9723 91.5132 33.2056 90.7351C33.1383 90.6662 33.0312 90.7733 33.0985 90.8422L33.1016 90.8391Z" fill="#3A3144"/>
<path id="Vector_84" d="M35.649 93.6237C35.6693 93.6237 35.6887 93.6157 35.7031 93.6013C35.7174 93.587 35.7255 93.5675 35.7255 93.5472C35.7255 93.527 35.7174 93.5075 35.7031 93.4932C35.6887 93.4788 35.6693 93.4707 35.649 93.4707C35.6287 93.4707 35.6092 93.4788 35.5949 93.4932C35.5806 93.5075 35.5725 93.527 35.5725 93.5472C35.5725 93.5675 35.5806 93.587 35.5949 93.6013C35.6092 93.6157 35.6287 93.6237 35.649 93.6237Z" fill="#3A3144"/>
<path id="Vector_85" d="M25.1716 131.695L25.4378 131.826C25.525 131.869 25.6015 131.739 25.5143 131.696L25.2481 131.563C25.1608 131.52 25.0843 131.65 25.1716 131.695Z" fill="#3A3144"/>
<path id="Vector_86" d="M25.3047 130.763L25.704 130.968C25.7912 131.011 25.8677 130.881 25.7805 130.838L25.3812 130.641C25.294 130.598 25.2175 130.728 25.3047 130.771V130.763Z" fill="#3A3144"/>
<path id="Vector_87" d="M25.6183 130.015L26.0498 130.149C26.1431 130.179 26.1829 130.033 26.0896 130.004L25.6596 129.868C25.5663 129.839 25.5265 129.984 25.6183 130.021V130.015Z" fill="#3A3144"/>
<path id="Vector_88" d="M39.6974 131.874C39.751 131.875 39.8042 131.865 39.8533 131.843C39.9025 131.822 39.9464 131.79 39.982 131.75C40.0462 131.678 39.9407 131.571 39.8749 131.643C39.8531 131.668 39.8258 131.689 39.7952 131.703C39.7645 131.717 39.7311 131.724 39.6974 131.724C39.6771 131.724 39.6576 131.732 39.6433 131.746C39.6289 131.761 39.6209 131.78 39.6209 131.8C39.6209 131.821 39.6289 131.84 39.6433 131.854C39.6576 131.869 39.6771 131.877 39.6974 131.877V131.874Z" fill="#3A3144"/>
<path id="Vector_89" d="M39.7005 130.997L39.9667 130.83C40.0493 130.78 39.9667 130.648 39.8902 130.7L39.627 130.865C39.5444 130.918 39.6194 131.049 39.702 130.997H39.7005Z" fill="#3A3144"/>
<path id="Vector_90" d="M39.552 129.877L39.9529 129.724C40.0416 129.687 40.0034 129.542 39.9131 129.571L39.5107 129.724C39.422 129.759 39.4618 129.906 39.552 129.877Z" fill="#3A3144"/>
<path id="Vector_91" d="M20.2435 94.684L20.9442 94.531C21.0406 94.5111 20.9993 94.3642 20.9044 94.378L20.2037 94.531C20.1088 94.5524 20.1486 94.6978 20.2435 94.684Z" fill="#3A3144"/>
<path id="Vector_92" d="M30.9244 94.6136C31.4746 94.6807 32.003 94.8694 32.4712 95.1659C32.5538 95.218 32.6242 95.0864 32.5477 95.0359C32.0551 94.7298 31.5006 94.537 30.9244 94.4713C30.828 94.4591 30.8295 94.6106 30.9244 94.6243V94.6136Z" fill="#3A3144"/>
<path id="Vector_93" d="M26.2808 82.3661C26.1464 82.3936 26.0249 82.4648 25.9353 82.5686C25.8456 82.6723 25.7928 82.8029 25.7851 82.9398C25.7514 83.4294 25.7346 84.1378 26.6572 84.2862C27.5798 84.4347 30.9075 84.7835 30.4944 82.9398C30.0982 81.165 26.2808 82.3661 26.2808 82.3661Z" fill="#E8A54F"/>
<path id="Vector_94" d="M26.7995 83.4539C26.0452 83.1831 26.0758 82.1993 26.365 81.4833C26.8424 80.3067 27.3258 80.218 28.0786 80.4796C28.8314 80.7412 29.8106 81.5506 29.7417 82.6216C29.6637 83.7982 27.8889 83.5901 27.104 83.5182C27.0001 83.5102 26.8978 83.4886 26.7995 83.4539Z" fill="#CE8B42"/>
<path id="Vector_95" d="M45.008 82.646L42.3688 83.0652C42.3688 83.0652 41.7384 79.7527 43.4765 79.5783C45.5542 79.3687 45.008 82.646 45.008 82.646Z" fill="#71D2C1"/>
<path id="Vector_96" d="M41.4049 80.5315L42.4851 82.5817C42.661 82.9183 43.172 82.62 42.9945 82.2757L41.922 80.2317C41.7445 79.8951 41.2335 80.1934 41.411 80.5377L41.4049 80.5315Z" fill="#71D2C1"/>
<path id="Vector_97" d="M44.8627 79.5049C44.7607 80.1108 44.6806 80.7228 44.6225 81.3409C44.5949 81.6255 45.0386 81.6225 45.0662 81.3409C45.1243 80.7687 45.1988 80.1985 45.2896 79.6304C45.3355 79.3504 44.9071 79.2295 44.8627 79.5126V79.5049Z" fill="#71D2C1"/>
<path id="Vector_98" d="M44.1145 78.7951C44.1463 79.2941 44.1088 79.7951 44.0028 80.2838C43.9416 80.5622 44.3685 80.6816 44.4297 80.4016C44.5473 79.8747 44.5906 79.3339 44.5582 78.7951C44.5414 78.512 44.0992 78.509 44.1145 78.7951Z" fill="#71D2C1"/>
<path id="Vector_99" d="M43.709 79.9945C43.7501 79.4774 43.7567 78.9581 43.7289 78.44C43.7121 78.1554 43.2699 78.1539 43.2852 78.44C43.313 78.9581 43.3064 79.4774 43.2653 79.9945C43.2424 80.2791 43.6861 80.2776 43.709 79.9945Z" fill="#71D2C1"/>
<path id="Vector_100" d="M42.3274 78.5915C42.5462 79.407 42.4468 80.2745 42.3458 81.0992C42.3106 81.3807 42.7543 81.3792 42.7895 81.0992C42.8966 80.2302 42.9853 79.3305 42.7543 78.4737C42.7359 78.4204 42.6979 78.376 42.648 78.3497C42.598 78.3234 42.54 78.3172 42.4856 78.3322C42.4312 78.3472 42.3845 78.3824 42.3551 78.4306C42.3258 78.4787 42.3159 78.5363 42.3274 78.5915Z" fill="#71D2C1"/>
<path id="Vector_101" d="M59.6837 88.4156L62.323 88.8348C62.323 88.8348 62.9518 85.5224 61.2137 85.3479C59.136 85.1399 59.6837 88.4156 59.6837 88.4156Z" fill="#71D2C1"/>
<path id="Vector_102" d="M62.7744 86.0013L61.6957 88.0531C61.5183 88.3897 62.0293 88.6896 62.2068 88.3591L63.2854 86.3073C63.4629 85.9707 62.9519 85.6724 62.7744 86.009V86.0013Z" fill="#71D2C1"/>
<path id="Vector_103" d="M59.4008 85.3923C59.4926 85.9604 59.567 86.5306 59.6241 87.1028C59.6517 87.3844 60.0969 87.3874 60.0678 87.1028C60.0066 86.4908 59.9266 85.8814 59.8276 85.2745C59.7833 84.993 59.3549 85.1123 59.4008 85.3923Z" fill="#71D2C1"/>
<path id="Vector_104" d="M60.129 84.5615C60.0967 85.0999 60.1399 85.6402 60.2575 86.1665C60.3187 86.4465 60.7456 86.3272 60.6844 86.0487C60.5788 85.5605 60.5407 85.0601 60.5712 84.5615C60.5895 84.2754 60.1458 84.277 60.129 84.5615Z" fill="#71D2C1"/>
<path id="Vector_105" d="M61.4249 85.7642C61.3831 85.247 61.3764 84.7277 61.405 84.2097C61.4203 83.9236 60.9766 83.9251 60.9613 84.2097C60.9327 84.7277 60.9394 85.247 60.9812 85.7642C61.0041 86.0472 61.4478 86.0503 61.4249 85.7642Z" fill="#71D2C1"/>
<path id="Vector_106" d="M61.936 84.2434C61.7049 85.1002 61.7937 85.9998 61.9008 86.8688C61.936 87.1488 62.3797 87.1519 62.3445 86.8688C62.2435 86.0426 62.144 85.1767 62.3628 84.3612C62.3744 84.3059 62.3645 84.2484 62.3351 84.2002C62.3057 84.152 62.2591 84.1168 62.2047 84.1018C62.1503 84.0868 62.0922 84.0931 62.0423 84.1194C61.9924 84.1457 61.9543 84.19 61.936 84.2434Z" fill="#71D2C1"/>
<path id="Vector_107" d="M43.5729 82.2314C43.5729 82.2314 43.3235 86.7189 43.8712 88.0316C44.419 89.3444 49.2186 89.6442 49.2186 89.6442" stroke="#F97171" stroke-width="3.825" stroke-miterlimit="10"/>
<path id="Vector_108" d="M61.965 78.209C61.9726 78.1211 61.9595 78.0326 61.9268 77.9506C61.8941 77.8687 61.8427 77.7955 61.7767 77.737C61.7108 77.6784 61.632 77.6361 61.5467 77.6133C61.4615 77.5906 61.3721 77.5882 61.2857 77.6061C58.3709 78.1888 55.3441 77.5901 52.8707 75.9415C51.5939 75.0896 50.1555 74.5095 48.645 74.237C47.1344 73.9646 45.584 74.0058 44.09 74.358C43.9758 74.3866 43.8734 74.4502 43.7971 74.5399C43.7209 74.6296 43.6746 74.7409 43.6647 74.8583L42.8247 84.3443C42.8171 84.4323 42.8302 84.521 42.8629 84.603C42.8957 84.6851 42.9473 84.7584 43.0134 84.817C43.0796 84.8756 43.1586 84.9179 43.2441 84.9405C43.3295 84.9631 43.4191 84.9653 43.5056 84.9471C44.9489 84.6584 46.435 84.657 47.8788 84.9429C49.3227 85.2288 50.6961 85.7964 51.9206 86.6132C53.1977 87.4644 54.6362 88.0438 56.1468 88.3155C57.6573 88.5871 59.2076 88.5451 60.7012 88.1922C60.8152 88.1638 60.9173 88.1004 60.9933 88.011C61.0694 87.9215 61.1154 87.8104 61.1251 87.6934L61.965 78.209Z" fill="#FFA97F"/>
<path id="Vector_109" d="M47.0337 78.6756C47.0603 78.4336 47.1469 78.202 47.2857 78.0019C47.4245 77.8018 47.611 77.6395 47.8283 77.5298C48.0457 77.42 48.287 77.3662 48.5304 77.3734C48.7738 77.3805 49.0116 77.4483 49.2222 77.5705C49.4327 77.6928 49.6095 77.8657 49.7363 78.0736C49.8631 78.2815 49.936 78.5177 49.9484 78.7609C49.9609 79.0041 49.9124 79.2465 49.8073 79.4662C49.7023 79.6859 49.5441 79.8759 49.3471 80.019C49.0393 80.2474 48.7702 80.5238 48.55 80.8375L48.296 81.1971C48.2881 81.2079 48.2775 81.2165 48.2653 81.2219C48.253 81.2273 48.2396 81.2295 48.2262 81.2281C48.2129 81.2267 48.2002 81.2218 48.1893 81.2139C48.1785 81.2061 48.1699 81.1955 48.1644 81.1833L47.9931 80.7763C47.8468 80.4229 47.6437 80.0957 47.3918 79.8078C47.2561 79.6547 47.1541 79.4748 47.0924 79.2798C47.0307 79.0847 47.0107 78.8789 47.0337 78.6756Z" fill="#FFECE5"/>
<path id="Vector_110" d="M48.4872 79.4132C48.8066 79.4132 49.0656 79.1543 49.0656 78.8349C49.0656 78.5155 48.8066 78.2565 48.4872 78.2565C48.1678 78.2565 47.9089 78.5155 47.9089 78.8349C47.9089 79.1543 48.1678 79.4132 48.4872 79.4132Z" fill="#FFD8C5"/>
<path id="Vector_111" d="M48.1475 82.259C48.325 82.259 48.4689 82.1151 48.4689 81.9377C48.4689 81.7602 48.325 81.6164 48.1475 81.6164C47.9701 81.6164 47.8262 81.7602 47.8262 81.9377C47.8262 82.1151 47.9701 82.259 48.1475 82.259Z" fill="#FFECE5"/>
<path id="Vector_112" d="M55.9016 90.882C55.9016 90.882 56.4662 88.6145 55.5359 87.822" stroke="#1B57AF" stroke-width="1.224" stroke-miterlimit="10"/>
<path id="Vector_113" d="M50.0632 90.8821C50.0632 90.8821 50.6277 88.6146 49.6975 87.8221C48.7673 87.0295 46.7737 87.7272 46.74 90.2854" stroke="#1B57AF" stroke-width="1.224" stroke-miterlimit="10"/>
<path id="Vector_114" d="M58.6939 126.751C58.6939 126.884 59.263 133.474 59.0611 133.483L64.6609 133.491C64.6667 133.491 64.6724 133.49 64.6775 133.487C64.6827 133.484 64.687 133.48 64.69 133.475C64.6931 133.47 64.6949 133.465 64.6951 133.459C64.6954 133.453 64.6941 133.447 64.6915 133.442L63.6113 132.296L63.6036 132.276L63.3451 126.921" fill="#CE8B42"/>
<path id="Vector_115" d="M45.3782 126.751C45.3782 126.884 44.0502 133.468 44.0303 133.483L49.6714 133.491L49.0059 132.114L50.4349 126.926" fill="#CE8B42"/>
<path id="Vector_116" d="M48.862 131.695L49.1283 131.826C49.2155 131.869 49.292 131.739 49.2048 131.696L48.9385 131.563C48.8513 131.52 48.7748 131.65 48.862 131.695Z" fill="#3A3144"/>
<path id="Vector_117" d="M48.9952 130.763L49.396 130.96C49.4817 131.003 49.5597 130.873 49.471 130.83L49.0717 130.633C48.9845 130.59 48.908 130.72 48.9952 130.763Z" fill="#3A3144"/>
<path id="Vector_118" d="M49.3104 130.015L49.7418 130.149C49.8336 130.179 49.8734 130.033 49.7816 130.004L49.3502 129.868C49.2568 129.839 49.2171 129.984 49.3104 130.021V130.015Z" fill="#3A3144"/>
<path id="Vector_119" d="M63.3879 131.874C63.4415 131.875 63.4947 131.865 63.5439 131.843C63.5931 131.822 63.6369 131.79 63.6725 131.75C63.7382 131.678 63.6311 131.571 63.5654 131.643C63.5438 131.669 63.5166 131.689 63.4859 131.703C63.4551 131.718 63.4216 131.724 63.3879 131.724C63.3676 131.724 63.3481 131.732 63.3338 131.746C63.3194 131.761 63.3114 131.78 63.3114 131.8C63.3114 131.821 63.3194 131.84 63.3338 131.854C63.3481 131.869 63.3676 131.877 63.3879 131.877V131.874Z" fill="#3A3144"/>
<path id="Vector_120" d="M63.3925 130.997L63.6572 130.83C63.7398 130.78 63.6649 130.648 63.5822 130.7L63.316 130.865C63.2334 130.918 63.316 131.049 63.3925 130.997Z" fill="#3A3144"/>
<path id="Vector_121" d="M63.2426 129.877L63.6434 129.724C63.7337 129.687 63.6939 129.542 63.6037 129.571L63.2028 129.724C63.1125 129.759 63.1523 129.906 63.2426 129.877Z" fill="#3A3144"/>
<path id="Vector_122" d="M51.6696 97.4213L56.2305 107.111C57.9277 110.717 59.1147 114.541 59.7572 118.474L61.3224 128.061" stroke="#4F8AE0" stroke-width="6.25617" stroke-miterlimit="10"/>
<path id="Vector_123" d="M49.5016 96.7266C49.5016 96.7266 50.3309 107.527 50.1289 112.18C49.9866 115.468 47.5188 128.044 47.5188 128.044" stroke="#4F8AE0" stroke-width="6.25617" stroke-miterlimit="10"/>
<path id="Vector_124" d="M51.8394 85.4674L51.5273 88.5779" stroke="#71D2C1" stroke-width="2.36691" stroke-miterlimit="10"/>
<path id="Vector_125" d="M51.4501 86.3616C51.1153 86.3777 50.7879 86.2601 50.5398 86.0348C50.2917 85.8094 50.1432 85.4947 50.1272 85.1599L50.0496 83.5461C50.0277 83.0897 50.188 82.6433 50.4952 82.3051C50.8024 81.9669 51.2314 81.7646 51.6878 81.7426L51.7886 81.7378C52.0147 81.7267 52.2408 81.7603 52.4539 81.8367C52.667 81.913 52.863 82.0306 53.0306 82.1828C53.1982 82.3349 53.3342 82.5186 53.4308 82.7233C53.5274 82.928 53.5828 83.1498 53.5936 83.3759L53.6224 83.9749C53.6515 84.5801 53.439 85.172 53.0316 85.6204C52.6243 86.0689 52.0555 86.3371 51.4503 86.3662L51.4501 86.3616Z" fill="#3A3144"/>
<path id="Vector_126" d="M52.8095 87.5037L50.643 87.3706C49.6486 87.311 48.6686 87.6316 47.9016 88.2673C47.1346 88.9031 46.6379 89.8065 46.512 90.7948L45.7715 96.6088C45.7614 96.6862 45.7677 96.765 45.7901 96.8398C45.8124 96.9147 45.8503 96.9839 45.9013 97.0432C45.9523 97.1024 46.0152 97.1501 46.0859 97.1834C46.1566 97.2166 46.2335 97.2346 46.3116 97.2361L55.36 97.4319C55.5685 97.4369 55.7705 97.3593 55.9221 97.216C56.0737 97.0727 56.1626 96.8754 56.1694 96.6669L56.3224 91.3655C56.3541 90.3913 56.005 89.4431 55.3491 88.7222C54.6933 88.0012 53.7823 87.5641 52.8095 87.5037Z" fill="#F97171"/>
<path id="Vector_127" d="M54.162 90.2853C54.162 90.2853 58.114 95.1522 59.7358 94.8156C61.3576 94.479 61.1878 87.7011 61.1878 87.7011" stroke="#F97171" stroke-width="3.825" stroke-miterlimit="10"/>
<path id="Vector_128" d="M48.6112 87.7914C48.8468 87.5879 49.0564 87.2896 48.957 86.9025C48.7566 86.1375 49.8291 85.856 49.8536 85.3572C49.878 84.8584 49.5062 83.1662 50.565 82.2314L53.625 83.9679C53.625 83.9679 53.5424 85.2822 54.2156 85.7305C54.8888 86.1788 55.0143 86.9025 54.5644 87.363C54.3609 87.5726 54.4252 87.796 54.5568 87.975C54.5938 88.0233 54.6185 88.0799 54.629 88.1398C54.6394 88.1998 54.6352 88.2614 54.6167 88.3194C54.5982 88.3774 54.566 88.43 54.5228 88.4729C54.4796 88.5158 54.4267 88.5476 54.3686 88.5656C53.2716 88.893 50.871 89.3979 48.7076 88.4126C48.6512 88.3864 48.6021 88.3467 48.5648 88.297C48.5274 88.2473 48.5028 88.1892 48.4933 88.1278C48.4838 88.0663 48.4895 88.0035 48.5101 87.9448C48.5307 87.8861 48.5654 87.8334 48.6112 87.7914Z" fill="#3A3144"/>
<path id="Vector_129" d="M53.1308 99.3306H46.229C46.0719 99.3306 45.9163 99.2997 45.7711 99.2396C45.626 99.1794 45.4941 99.0913 45.383 98.9802C45.2719 98.8691 45.1837 98.7372 45.1236 98.592C45.0635 98.4469 45.0325 98.2913 45.0325 98.1342V90.6892C45.0325 89.9848 45.3124 89.3092 45.8105 88.8111C46.3086 88.3129 46.9842 88.0331 47.6886 88.0331H52.3459C52.6947 88.0331 53.0401 88.1018 53.3624 88.2353C53.6846 88.3688 53.9774 88.5644 54.2241 88.8111C54.4707 89.0577 54.6663 89.3505 54.7998 89.6727C54.9333 89.995 55.002 90.3404 55.002 90.6892V97.4594C55.002 97.7052 54.9536 97.9485 54.8596 98.1755C54.7655 98.4025 54.6277 98.6088 54.454 98.7826C54.2802 98.9563 54.0739 99.0942 53.8469 99.1882C53.6199 99.2822 53.3766 99.3306 53.1308 99.3306Z" fill="#FFD8C5"/>
<path id="Vector_130" d="M47.6886 88.0316H52.3459C52.8723 88.0312 53.387 88.1878 53.8239 88.4815V94.1776C53.8239 94.4836 53.7023 94.777 53.486 94.9934C53.2696 95.2097 52.9762 95.3313 52.6703 95.3313H45.467C45.352 95.3313 45.2418 95.2857 45.1603 95.2045C45.0789 95.1234 45.0329 95.0132 45.0325 94.8983V90.6877C45.0329 89.9834 45.3129 89.3081 45.8109 88.81C46.3089 88.312 46.9843 88.032 47.6886 88.0316Z" fill="#1B57AF"/>
<path id="Vector_131" d="M55.539 87.8221C54.6087 87.0295 52.6152 87.7272 52.5815 90.2854" stroke="#1B57AF" stroke-width="1.224" stroke-miterlimit="10"/>
<path id="Vector_132" d="M48.4704 93.5487H49.7051C49.8775 93.5487 50.0173 93.409 50.0173 93.2366V92.7072C50.0173 92.5349 49.8775 92.3951 49.7051 92.3951H48.4704C48.2981 92.3951 48.1583 92.5349 48.1583 92.7072V93.2366C48.1583 93.409 48.2981 93.5487 48.4704 93.5487Z" fill="#4F8AE0"/>
<path id="Vector_133" d="M49.7158 103.208C50.8525 104.695 51.8974 106.25 52.8447 107.865C52.8558 107.88 52.8722 107.891 52.8908 107.895C52.9093 107.899 52.9286 107.896 52.945 107.886C52.9614 107.877 52.9736 107.861 52.9794 107.843C52.9852 107.825 52.9841 107.806 52.9763 107.788C52.028 106.174 50.9826 104.618 49.8459 103.13C49.7877 103.053 49.6562 103.13 49.7158 103.206V103.208Z" fill="#3A3144"/>
<path id="Vector_134" d="M59.7098 92.9964C59.5288 92.7778 59.3089 92.5947 59.0611 92.4563C58.977 92.4089 58.9081 92.5389 58.9846 92.5864C59.2211 92.7194 59.4311 92.8947 59.6043 93.1035C59.6655 93.1785 59.7726 93.0714 59.7098 92.9964Z" fill="#3A3144"/>
<path id="Vector_135" d="M45.5083 86.8291L44.982 86.5659C44.8963 86.5231 44.8183 86.6531 44.9055 86.696L45.4395 86.9607C45.5251 87.0035 45.6016 86.8734 45.5144 86.8291H45.5083Z" fill="#3A3144"/>
<path id="Vector_136" d="M126.361 107.386C126.813 107.386 127.247 107.565 127.567 107.885C127.888 108.204 128.069 108.637 128.07 109.089V114.409H124.652V109.089C124.654 108.637 124.835 108.204 125.155 107.885C125.475 107.565 125.909 107.386 126.361 107.386Z" fill="#FFA97F"/>
<path id="Vector_137" d="M128.069 113.89H123.768V114.415H128.069V113.89Z" fill="#FFECE5"/>
<path id="Vector_138" d="M118.189 107.386C118.642 107.386 119.075 107.565 119.396 107.885C119.716 108.204 119.897 108.637 119.898 109.089V114.409H116.48V109.089C116.482 108.637 116.663 108.204 116.983 107.885C117.303 107.565 117.737 107.386 118.189 107.386Z" fill="#FFA97F"/>
<path id="Vector_139" d="M119.897 113.89H115.596V114.415H119.897V113.89Z" fill="#FFECE5"/>
<path id="Vector_140" d="M77.6796 22.338C74.7024 22.338 71.8471 23.5207 69.7419 25.6259C67.6367 27.7311 66.454 30.5864 66.454 33.5636V51.7385H68.9341V37.1515C68.9341 36.2019 69.3113 35.2913 69.9827 34.6199C70.6542 33.9485 71.5648 33.5713 72.5143 33.5713C73.4639 33.5713 74.3745 33.9485 75.0459 34.6199C75.7173 35.2913 76.0945 36.2019 76.0945 37.1515V51.7385H79.2632V37.1515C79.2632 36.2019 79.6404 35.2913 80.3118 34.6199C80.9832 33.9485 81.8938 33.5713 82.8434 33.5713C83.793 33.5713 84.7038 33.9484 85.3755 34.6198C86.0471 35.2912 86.4247 36.2018 86.4251 37.1515V51.7385H88.9052V33.5652C88.9054 32.0909 88.6152 30.631 88.0512 29.2688C87.4871 27.9067 86.6603 26.669 85.6178 25.6265C84.5754 24.5839 83.3379 23.7569 81.9758 23.1927C80.6138 22.6284 79.1539 22.338 77.6796 22.338Z" fill="#FFECE5"/>
<path id="Vector_141" d="M78.9373 20.808C78.9416 20.4831 78.8228 20.1686 78.6049 19.9277C78.3869 19.6867 78.0859 19.5372 77.7622 19.509C77.5904 19.4975 77.418 19.5214 77.2558 19.5792C77.0936 19.637 76.9449 19.7275 76.8191 19.8452C76.6933 19.9628 76.593 20.105 76.5244 20.263C76.4559 20.421 76.4205 20.5914 76.4204 20.7636V20.808C76.4221 21.2336 76.2812 21.6476 76.0203 21.984C75.7594 22.3203 75.3934 22.5596 74.9807 22.6638C72.5467 23.267 70.3846 24.6677 68.8393 26.6426C67.2939 28.6175 66.4542 31.0529 66.454 33.5605V51.7384H68.9341V37.2325C68.9341 35.2251 70.5758 33.5345 72.5832 33.5712C73.5221 33.5873 74.4171 33.9715 75.0753 34.6412C75.7335 35.3109 76.1023 36.2124 76.1022 37.1514V51.7384H79.2708V37.1514C79.2708 36.2019 79.648 35.2912 80.3194 34.6198C80.9908 33.9484 81.9015 33.5712 82.851 33.5712C83.8007 33.5712 84.7115 33.9484 85.3831 34.6197C86.0548 35.2911 86.4323 36.2017 86.4327 37.1514V51.7384H88.9129V33.5651C88.9127 31.0574 88.073 28.622 86.5276 26.6472C84.9822 24.6723 82.8202 23.2716 80.3862 22.6684C79.971 22.5658 79.6023 22.3265 79.3396 21.9891C79.0768 21.6517 78.9351 21.2356 78.9373 20.808Z" fill="#FFECE5"/>
<path id="Vector_142" d="M82.8434 33.5712C83.793 33.5712 84.7038 33.9484 85.3755 34.6198C86.0471 35.2911 86.4247 36.2018 86.4251 37.1514V36.1156C86.4251 34.5737 85.8125 33.0949 84.7222 32.0045C83.6319 30.9142 82.153 30.3016 80.6111 30.3016H74.7481C73.2062 30.3016 71.7273 30.9142 70.637 32.0045C69.5467 33.0949 68.9341 34.5737 68.9341 36.1156V37.1514C68.9341 36.2019 69.3113 35.2913 69.9827 34.6199C70.6542 33.9484 71.5648 33.5712 72.5143 33.5712C73.4639 33.5712 74.3745 33.9484 75.0459 34.6199C75.7173 35.2913 76.0945 36.2019 76.0945 37.1514V51.7385H79.2632V37.1514C79.2632 36.2019 79.6403 35.2913 80.3118 34.6199C80.9832 33.9484 81.8938 33.5712 82.8434 33.5712Z" fill="#FFD8C5"/>
<path id="Vector_143" d="M82.7347 38.2775C82.7325 37.4383 82.5212 36.6129 82.1198 35.8759C81.7184 35.1389 81.1397 34.5136 80.4359 34.0565C79.7321 33.5994 78.9255 33.3249 78.089 33.2579C77.2525 33.1909 76.4124 33.3334 75.6448 33.6727C74.8773 34.0119 74.2063 34.5371 73.6927 35.2008C73.1791 35.8644 72.8391 36.6457 72.7033 37.4738C72.5675 38.3019 72.6403 39.1509 72.915 39.9438C73.1898 40.7368 73.6578 41.4487 74.2769 42.0153C75.2507 42.9132 76.0722 43.9632 76.7096 45.1243L77.4516 46.4584C77.4738 46.5 77.5069 46.5348 77.5473 46.5591C77.5877 46.5833 77.634 46.5961 77.6811 46.5961C77.7283 46.5961 77.7745 46.5833 77.815 46.5591C77.8554 46.5348 77.8885 46.5 77.9106 46.4584L78.6527 45.1243C79.2892 43.9643 80.1097 42.9154 81.0823 42.0184C81.6039 41.5449 82.0204 40.9674 82.305 40.3231C82.5896 39.6788 82.736 38.9819 82.7347 38.2775Z" fill="#F97171"/>
<path id="Vector_144" d="M77.6796 40.2757C78.7832 40.2757 79.6778 39.3811 79.6778 38.2776C79.6778 37.174 78.7832 36.2794 77.6796 36.2794C76.576 36.2794 75.6814 37.174 75.6814 38.2776C75.6814 39.3811 76.576 40.2757 77.6796 40.2757Z" fill="#3A3144"/>
<path id="Vector_145" d="M77.6796 50.1794C78.2922 50.1794 78.7889 49.6827 78.7889 49.0701C78.7889 48.4575 78.2922 47.9609 77.6796 47.9609C77.067 47.9609 76.5704 48.4575 76.5704 49.0701C76.5704 49.6827 77.067 50.1794 77.6796 50.1794Z" fill="#F99595"/>
<path id="Vector_146" d="M34.5122 51.8501H20.5663C20.2156 51.8501 19.9313 52.1341 19.9313 52.4843C19.9313 52.8346 20.2156 53.1185 20.5663 53.1185H34.5122C34.8629 53.1185 35.1472 52.8346 35.1472 52.4843C35.1472 52.1341 34.8629 51.8501 34.5122 51.8501Z" fill="#FFECE5"/>
<path id="Vector_147" d="M20.6121 52.5157C20.603 50.4441 21.2777 49.315 22.5552 49.3027C23.8328 49.2905 25.2312 50.4181 25.2404 52.4897" fill="#FFECE5"/>
<path id="Vector_148" d="M22.8613 52.505C22.8444 48.7611 24.0639 46.7201 26.3803 46.7109C28.6967 46.7017 31.2166 48.7259 31.2319 52.4698" fill="#FFECE5"/>
<path id="Vector_149" d="M27.7833 52.378C27.7741 50.0586 28.5284 48.7948 29.9604 48.7887C31.3925 48.7825 32.9547 50.0356 32.9654 52.3551" fill="#FFECE5"/>
<path id="Vector_150" d="M55.08 37.101H33.4856C32.9431 37.101 32.5033 37.5408 32.5033 38.0833C32.5033 38.6258 32.9431 39.0655 33.4856 39.0655H55.08C55.6225 39.0655 56.0623 38.6258 56.0623 38.0833C56.0623 37.5408 55.6225 37.101 55.08 37.101Z" fill="#FFECE5"/>
<path id="Vector_151" d="M33.559 38.1291C33.5452 34.9161 34.5902 33.1734 36.5685 33.1658C38.5468 33.1581 40.7102 34.8916 40.724 38.0985" fill="#FFECE5"/>
<path id="Vector_152" d="M37.0398 38.1139C37.0153 32.3167 38.9048 29.1572 42.482 29.1419C46.0591 29.1266 49.9683 32.2616 49.9927 38.0588" fill="#FFECE5"/>
<path id="Vector_153" d="M44.6623 37.9165C44.647 34.3256 45.8174 32.3687 48.0283 32.3595C50.2391 32.3503 52.6657 34.2904 52.681 37.8813" fill="#FFECE5"/>
<path id="Vector_154" d="M124.332 58.2746H113.979C113.719 58.2746 113.508 58.4856 113.508 58.7459C113.508 59.0061 113.719 59.2171 113.979 59.2171H124.332C124.593 59.2171 124.804 59.0061 124.804 58.7459C124.804 58.4856 124.593 58.2746 124.332 58.2746Z" fill="#FFECE5"/>
<path id="Vector_155" d="M114.014 58.7673C114.006 57.2296 114.508 56.3912 115.457 56.3881C116.405 56.3851 117.446 57.2159 117.446 58.7535" fill="#FFECE5"/>
<path id="Vector_156" d="M115.683 58.7611C115.671 55.9811 116.577 54.4664 118.284 54.4588C119.992 54.4511 121.874 55.9551 121.886 58.7336" fill="#FFECE5"/>
<path id="Vector_157" d="M119.34 58.6663C119.34 56.9435 119.894 56.0056 120.956 56.001C122.017 55.9964 123.18 56.9282 123.186 58.6494" fill="#FFECE5"/>
<path id="Vector_158" d="M116.002 43.8254H98.9467C98.5182 43.8254 98.1709 44.1727 98.1709 44.6011C98.1709 45.0295 98.5182 45.3768 98.9467 45.3768H116.002C116.43 45.3768 116.777 45.0295 116.777 44.6011C116.777 44.1727 116.43 43.8254 116.002 43.8254Z" fill="#FFECE5"/>
<path id="Vector_159" d="M99.0032 44.6378C98.9925 42.1041 99.8172 40.7241 101.381 40.7164C102.944 40.7088 104.652 42.075 104.663 44.6133" fill="#FFECE5"/>
<path id="Vector_160" d="M101.753 44.6255C101.734 40.0462 103.226 37.5508 106.05 37.5385C108.875 37.5263 111.964 40.0034 111.982 44.5765" fill="#FFECE5"/>
<path id="Vector_161" d="M107.773 44.4695C107.761 41.6328 108.691 40.0875 110.434 40.0799C112.177 40.0722 114.097 41.6099 114.106 44.4419" fill="#FFECE5"/>
</g>
</svg>
