<svg width="28" height="37" viewBox="0 0 28 37" fill="none" xmlns="http://www.w3.org/2000/svg">
<path id="&#194;&#181;" d="M26.1159 20.0329V20.0329C27.1565 20.0329 28 20.8764 28 21.917V23.2884C28 25.0227 26.5941 26.4286 24.8598 26.4286V26.4286C22.243 26.4286 20.3065 25.5476 19.0505 23.7857C17.4106 26.041 14.881 27.1686 11.4617 27.1686V27.1686C9.28652 27.1686 6.7514 28.7403 6.7514 30.9155V33.6243C6.7514 35.4886 5.24005 37 3.3757 37V37C1.51135 37 0 35.4886 0 33.6243V3.3757C0 1.51135 1.51135 0 3.3757 0V0C5.24005 0 6.7514 1.51135 6.7514 3.3757V15.3286C6.7514 17.0905 7.22243 18.4471 8.16449 19.3986C9.10654 20.35 10.3626 20.8257 11.9327 20.8257C13.6773 20.8257 15.0729 20.2795 16.1196 19.1871C17.1664 18.0948 17.6897 16.4562 17.6897 14.2714V3.3757C17.6897 1.51135 19.2011 0 21.0654 0V0C22.9298 0 24.4411 1.51135 24.4411 3.3757V18.3414C24.4411 19.469 24.9994 20.0329 26.1159 20.0329Z" fill="url(#paint0_linear_1_627)"/>
<defs>
<linearGradient id="paint0_linear_1_627" x1="-2.78961" y1="-2.93726" x2="35.5781" y2="24.9042" gradientUnits="userSpaceOnUse">
<stop stop-color="#2E85FE"/>
<stop offset="0.940047" stop-color="#AF2EE6"/>
</linearGradient>
</defs>
</svg>
