<svg width="382" height="501" viewBox="0 0 382 501" fill="none" xmlns="http://www.w3.org/2000/svg" xmlns:xlink="http://www.w3.org/1999/xlink">
<path d="M356.609 270.851V270.851C370.817 270.851 382.336 282.37 382.336 296.578V314.444C382.336 338.126 363.138 357.323 339.457 357.323V357.323C303.725 357.323 277.283 345.412 260.131 321.591C237.739 352.082 203.198 367.328 156.508 367.328V367.328C126.755 367.328 92.1894 388.844 92.1894 418.597V454.158C92.1894 479.615 71.5521 500.253 46.0947 500.253V500.253C20.6373 500.253 0 479.615 0 454.158V46.0947C0 20.6373 20.6373 0 46.0947 0V0C71.5521 0 92.1894 20.6373 92.1894 46.0947V207.247C92.1894 231.069 98.6212 249.412 111.485 262.275C124.349 275.139 141.5 281.571 162.939 281.571C186.761 281.571 205.818 274.186 220.111 259.417C234.404 244.647 241.551 222.493 241.551 192.955V46.0947C241.551 20.6373 262.188 0 287.645 0V0C313.103 0 333.74 20.6373 333.74 46.0947V247.982C333.74 263.228 341.363 270.851 356.609 270.851Z" fill="white"/>
</svg>
