<svg width="1057" height="291" viewBox="0 0 1057 291" fill="none" xmlns="http://www.w3.org/2000/svg">
<rect width="1057" height="291" fill="white"/>
<path d="M7 283.459H50.3192V233.223C54.3688 234.184 59.0494 234.503 64.0313 234.503C83.6671 234.503 100.186 227.783 113.587 208.585V230.983H160.025V66.835H113.587V154.829C113.587 177.547 104.555 195.146 83.0455 195.146C61.5451 195.146 53.4365 177.867 53.4365 155.149V66.835H7V283.459Z" fill="#FF8126"/>
<path d="M253.009 191.627V7H204.706V230.984H351.809V191.627H253.009Z" fill="#FF8126"/>
<path d="M451.69 102.033C467.277 102.033 488.155 110.032 491.273 131.151H411.176C417.099 109.073 436.735 102.033 451.69 102.033ZM503.431 175.948C492.214 187.147 475.696 195.466 459.177 195.466C429.258 195.466 411.176 180.427 410.243 159.949H538.964C538.964 94.674 496.264 63.3159 452.321 63.3159C400.892 63.3159 364.116 101.393 364.116 149.71C364.116 196.427 396.531 234.503 455.749 234.503C477.25 234.503 507.791 227.784 530.233 202.186L503.431 175.948Z" fill="#FF8126"/>
<path d="M603.229 148.43C603.229 123.152 617.563 102.033 643.123 102.033C668.362 102.033 686.133 120.272 686.133 150.99C686.133 180.427 667.119 195.786 644.366 195.786C618.505 195.786 603.229 174.988 603.229 148.43ZM684.88 66.8355V89.2344C673.975 74.1954 655.281 63.3159 633.771 63.3159C583.904 63.3159 556.791 102.033 556.791 148.11C556.791 196.107 586.089 234.503 634.703 234.503C658.389 234.503 673.353 223.944 684.88 206.986V230.984H731.319V66.8355H684.88Z" fill="#FF8126"/>
<path d="M816.472 66.8355H771.276V230.984H817.715V141.71C817.715 119.952 835.166 109.393 852.626 109.393C857.297 109.393 865.716 110.032 872.262 111.632V64.5959C867.27 63.6359 865.716 63.3159 860.414 63.3159C846.702 63.3159 821.453 72.9155 816.472 102.673V66.8355Z" fill="#FF8126"/>
<path d="M896.373 230.984H942.811V142.99C942.811 120.272 951.852 102.673 973.353 102.673C994.863 102.673 1002.96 119.952 1002.96 142.67V230.984H1049.4V141.71C1049.4 99.7934 1037.24 63.3159 992.367 63.3159C972.731 63.3159 956.213 70.0356 942.811 89.2344V66.8355H896.373V230.984Z" fill="#FF8126"/>
</svg>
