<svg width="4085" height="1056" viewBox="0 0 4085 1056" fill="none" xmlns="http://www.w3.org/2000/svg">
<path d="M0 1055.26H169.77V863.507C185.648 867.172 203.969 868.393 223.51 868.393C300.457 868.393 365.189 842.744 417.708 769.462V854.958H599.692V228.396H417.708V564.272C417.708 650.989 382.288 718.165 298.014 718.165C213.739 718.165 181.984 652.211 181.984 565.494V228.396H0V1055.26Z" fill="black"/>
<path d="M964.06 704.73V0H774.748V854.958H1351.23V704.73H964.06Z" fill="black"/>
<path d="M1742.68 362.746C1803.75 362.746 1885.58 393.281 1897.8 473.891H1583.9C1607.11 389.617 1684.06 362.746 1742.68 362.746ZM1945.43 644.883C1901.46 687.63 1836.73 719.386 1772 719.386C1654.74 719.386 1583.9 661.982 1580.24 583.814H2084.67C2084.67 334.655 1917.34 214.961 1745.13 214.961C1543.6 214.961 1399.48 360.304 1399.48 544.73C1399.48 723.05 1526.5 868.393 1758.56 868.393C1842.83 868.393 1962.53 842.744 2050.47 745.035L1945.43 644.883Z" fill="black"/>
<path d="M2336.53 539.845C2336.53 443.357 2392.71 362.746 2492.86 362.746C2591.79 362.746 2661.41 432.364 2661.41 549.616C2661.41 661.982 2586.91 720.607 2497.75 720.607C2396.37 720.607 2336.53 641.218 2336.53 539.845ZM2656.52 228.396V313.892C2613.78 256.487 2540.49 214.961 2456.22 214.961C2260.8 214.961 2154.54 362.746 2154.54 538.623C2154.54 721.829 2269.35 868.393 2459.88 868.393C2552.71 868.393 2611.33 828.088 2656.52 763.355V854.958H2838.51V228.396H2656.52Z" fill="black"/>
<path d="M3172.19 228.396H2995.09V854.958H3177.07V514.196C3177.07 431.143 3245.47 390.838 3313.87 390.838C3332.19 390.838 3365.17 393.281 3390.81 399.387V219.846C3371.27 216.182 3365.17 214.961 3344.4 214.961C3290.66 214.961 3191.73 251.602 3172.19 365.189V228.396Z" fill="black"/>
<path d="M3485.31 854.958H3667.29V519.082C3667.29 432.364 3702.71 365.189 3786.99 365.189C3871.26 365.189 3903.02 431.143 3903.02 517.86V854.958H4085V514.196C4085 354.197 4037.37 214.961 3861.49 214.961C3784.54 214.961 3719.81 240.61 3667.29 313.892V228.396H3485.31V854.958Z" fill="black"/>
</svg>
