<svg width="726" height="168" viewBox="0 0 726 168" fill="none" xmlns="http://www.w3.org/2000/svg">
<path d="M114.701 96.6028C119.504 96.6028 123.398 100.496 123.398 105.299V108.59C123.398 115.21 118.031 120.577 111.411 120.577H110.235C98.3266 120.577 89.9434 116.033 85.0858 106.945C77.251 118.07 65.4205 123.633 49.5942 123.633C38.717 123.633 25.3847 131.473 25.3847 142.35V154.894C25.3847 161.903 19.7021 167.586 12.6924 167.586C5.68256 167.586 0 161.903 0 154.894V15.7479C0 8.73808 5.68256 3.0555 12.6924 3.0555C19.7021 3.0555 25.3847 8.73806 25.3847 15.7479V72.6284C25.3847 81.2467 27.7351 87.9846 32.436 92.8421C37.1369 97.543 43.4831 99.8934 51.4745 99.8934C60.5629 99.8934 67.8492 97.1513 73.3336 91.6669C78.8179 86.0259 81.5601 77.4076 81.5601 65.8121V15.7479C81.5601 8.73807 87.2427 3.0555 94.2525 3.0555C101.262 3.0555 106.945 8.73806 106.945 15.7479V88.8464C106.945 91.1968 107.65 93.0772 109.06 94.4874C110.47 95.8977 112.351 96.6028 114.701 96.6028Z" fill="#2E85FE"/>
<path d="M172.823 70.572C172.823 83.91 183.636 94.7225 196.974 94.7225H226.883C234.023 94.7225 239.811 100.51 239.811 107.65C239.811 114.789 234.023 120.577 226.883 120.577H192.802C166.84 120.577 145.793 99.5308 145.793 73.5686V16.5702C145.793 9.10608 151.844 3.05518 159.308 3.05518C166.772 3.05518 172.823 9.10606 172.823 16.5702V70.572Z" fill="#2E85FE"/>
<path d="M284.221 72.6284C279.228 72.6284 275.425 77.3045 277.651 81.7737C279.966 86.4206 283.236 90.2668 287.46 93.3122C294.198 98.0131 302.425 100.364 312.14 100.364C321.166 100.364 328.68 98.1843 334.684 93.8258C339.815 90.1004 346.686 88.2597 352.161 91.4585C358.23 95.0045 360.117 103.087 355.031 107.938C344.063 118.401 329.688 123.633 311.905 123.633C292.788 123.633 277.353 117.835 265.601 106.24C253.849 94.4874 247.973 79.6797 247.973 61.8164C247.973 44.2665 253.771 29.6154 265.366 17.8632C276.962 5.95437 291.848 -6.10352e-05 310.024 -6.10352e-05C327.261 -6.10352e-05 341.363 6.03272 352.332 18.0983C363.458 30.1639 369.02 44.8149 369.02 62.0514C369.02 68.1491 363.551 72.6284 357.453 72.6284H284.221ZM274.298 51.9446H343.4C341.677 42.3861 337.681 35.1781 331.413 30.3206C325.302 25.463 318.094 23.0342 309.789 23.0342C300.388 23.0342 292.553 25.6197 286.285 30.7906C280.017 35.9616 276.021 43.0129 274.298 51.9446Z" fill="#2E85FE"/>
<path d="M483.745 15.7479C483.745 8.73807 489.428 3.0555 496.438 3.0555C503.448 3.0555 509.13 8.73806 509.13 15.7479V107.885C509.13 114.895 503.448 120.577 496.438 120.577C489.428 120.577 483.745 114.895 483.745 107.885V103.654C474.187 116.973 460.476 123.633 442.613 123.633C426.473 123.633 412.684 117.678 401.245 105.77C389.806 93.704 384.087 79.0529 384.087 61.8164C384.087 44.4232 389.806 29.7721 401.245 17.8632C412.684 5.95437 426.473 -6.10352e-05 442.613 -6.10352e-05C460.476 -6.10352e-05 474.187 6.58115 483.745 19.7436V15.7479ZM420.049 88.8464C427.1 95.8977 435.953 99.4233 446.608 99.4233C457.264 99.4233 466.117 95.8977 473.168 88.8464C480.22 81.6384 483.745 72.6284 483.745 61.8164C483.745 51.0044 480.22 42.0727 473.168 35.0214C466.117 27.8134 457.264 24.2094 446.608 24.2094C435.953 24.2094 427.1 27.8134 420.049 35.0214C412.997 42.0727 409.472 51.0044 409.472 61.8164C409.472 72.6284 412.997 81.6384 420.049 88.8464Z" fill="#2E85FE"/>
<path d="M564.103 22.7992C568.783 12.1825 576.458 5.43306 587.126 2.55098C594.221 0.634325 600.299 6.89783 600.299 14.2471C600.299 21.9334 593.629 27.7054 586.248 29.8519C582.177 31.0359 578.4 32.9157 574.915 35.4915C567.707 40.6625 564.103 49.2807 564.103 61.3463V107.885C564.103 114.895 558.42 120.577 551.41 120.577C544.401 120.577 538.718 114.895 538.718 107.885V15.7479C538.718 8.73806 544.401 3.0555 551.41 3.0555C558.42 3.0555 564.103 8.73806 564.103 15.7479V22.7992Z" fill="#2E85FE"/>
<path d="M680.872 -6.10352e-05C694.347 -6.10352e-05 705.238 4.30907 713.543 12.9273C721.848 21.5456 726 33.3761 726 48.4189V107.885C726 114.895 720.317 120.577 713.308 120.577C706.298 120.577 700.615 114.895 700.615 107.885V51.0044C700.615 42.2294 698.265 35.4915 693.564 30.7906C688.863 26.0898 682.439 23.7393 674.29 23.7393C665.359 23.7393 658.151 26.5599 652.666 32.2009C647.182 37.6852 644.44 46.1468 644.44 57.5856V107.885C644.44 114.895 638.757 120.577 631.748 120.577C624.738 120.577 619.055 114.895 619.055 107.885V15.7479C619.055 8.73806 624.738 3.0555 631.748 3.0555C638.757 3.0555 644.44 8.73806 644.44 15.7479V18.0983C652.118 6.03272 664.262 -6.10352e-05 680.872 -6.10352e-05Z" fill="#2E85FE"/>
</svg>
