<svg width="1080" height="1080" viewBox="0 0 1080 1080" fill="none" xmlns="http://www.w3.org/2000/svg">
<mask id="mask0_1203_483" style="mask-type:luminance" maskUnits="userSpaceOnUse" x="0" y="0" width="1080" height="1080">
<path d="M1080 0H0V1080H1080V0Z" fill="white"/>
</mask>
<g mask="url(#mask0_1203_483)">
<g opacity="0.06">
<path d="M126.23 2203.2L-54.6699 39.22L-36.2699 47.31L254.88 2106.33L126.23 2203.2Z" fill="white"/>
<path d="M366.33 1965.97L-35.8999 12.71L-14.6299 18.08L497.84 1866.37L366.33 1965.97Z" fill="white"/>
<path d="M606.43 1728.75L-17.1201 -13.79L7.00988 -11.16L740.81 1626.42L606.43 1728.75Z" fill="white"/>
<path d="M846.53 1491.52L1.66016 -40.3001L28.6502 -40.3901L983.77 1386.46L846.53 1491.52Z" fill="white"/>
<path d="M1086.63 1254.3L20.4302 -66.8101L50.3002 -69.6301L1226.74 1146.51L1086.63 1254.3Z" fill="white"/>
<path d="M1326.72 1017.07L39.21 -93.3101L71.94 -98.8601L1469.7 906.55L1326.72 1017.07Z" fill="white"/>
<path d="M1566.82 779.84L57.98 -119.82L93.58 -128.1L1712.67 666.6L1566.82 779.84Z" fill="white"/>
<path d="M1806.92 542.62L76.7603 -146.33L115.23 -157.34L1955.64 426.64L1806.92 542.62Z" fill="white"/>
<path d="M2047.02 305.39L95.54 -172.84L136.87 -186.57L2198.6 186.69L2047.02 305.39Z" fill="white"/>
</g>
</g>
</svg>
