<svg width="16" height="15" viewBox="0 0 16 15" fill="none" xmlns="http://www.w3.org/2000/svg">
<path id="&#207;&#176;" d="M2.08361 14.2657C1.6441 14.2601 1.3654 13.7841 1.54991 13.3852C1.73078 12.9941 1.90694 12.5696 2.0784 12.1117C2.38618 11.2739 2.64529 10.3694 2.85574 9.39828C3.06639 8.41065 3.17835 7.397 3.19161 6.35734C3.20424 5.36718 3.06507 4.63092 2.77413 4.14856C2.49969 3.66641 2.09018 3.42186 1.54559 3.41491C1.33106 3.41218 1.14096 3.43451 0.975303 3.48192C0.763017 3.52626 0.534619 3.40664 0.487643 3.19492L0.121323 1.54392C0.0602833 1.26881 0.206042 0.987934 0.479572 0.920182C0.611051 0.887615 0.754548 0.858216 0.910061 0.831985C1.29046 0.770815 1.6952 0.742966 2.12426 0.748437C2.9824 0.759379 3.73116 0.933979 4.37056 1.27224C5.01016 1.59399 5.50676 2.12849 5.86034 2.87574C6.21414 3.60649 6.38294 4.60721 6.36674 5.87791C6.36253 6.20796 6.35059 6.49665 6.33094 6.74398C6.31149 6.97481 6.284 7.18902 6.24847 7.38663C6.23246 7.553 6.45516 7.65988 6.56344 7.53257L12.0471 1.085C12.1591 0.953386 12.3238 0.878493 12.4966 0.880696L14.4933 0.906156C14.9328 0.91176 15.21 1.38674 15.0132 1.77976C14.8086 2.18841 14.5954 2.63944 14.3738 3.13285C13.9996 4.00285 13.6739 4.94776 13.3968 5.96755C13.1198 6.98735 12.9746 8.01707 12.9613 9.05674C12.9519 9.79936 13.0104 10.386 13.1369 10.8168C13.2802 11.2313 13.4992 11.5311 13.7939 11.7165C14.0889 11.8853 14.4509 11.9724 14.88 11.9779C15.078 11.9804 15.2762 11.9664 15.4747 11.9359C15.7141 11.8839 15.9682 12.0663 15.9651 12.3112L15.9436 13.9944C15.9405 14.2345 15.7903 14.4509 15.5563 14.5048C15.4298 14.534 15.2923 14.5593 15.1439 14.5808C14.846 14.6431 14.532 14.6721 14.2019 14.6678C13.5914 14.6601 13.0148 14.5702 12.4723 14.3982C11.9299 14.2262 11.4547 13.9479 11.047 13.563C10.6393 13.1782 10.3239 12.6708 10.1009 12.0407C9.87804 11.3942 9.77263 10.6006 9.78462 9.65994C9.7903 9.21437 9.82032 8.80212 9.87467 8.42319C9.90916 8.1732 9.54074 7.98785 9.38043 8.18274L4.53005 14.0795C4.41817 14.2155 4.25056 14.2934 4.07445 14.2911L2.08361 14.2657Z" fill="black"/>
</svg>
