<svg width="128" height="128" viewBox="0 0 128 128" fill="none" xmlns="http://www.w3.org/2000/svg">
<g clip-path="url(#clip0_4964_5274)">
<g filter="url(#filter0_f_4964_5274)">
<rect x="20" y="40" width="73" height="62" rx="30.0488" fill="white"/>
</g>
<g filter="url(#filter1_f_4964_5274)">
<path d="M75.5664 58.7637C75.5664 54.8977 78.7004 51.7637 82.5664 51.7637C86.4324 51.7637 89.5664 54.8977 89.5664 58.7637V62.7637C89.5664 66.6297 86.4324 69.7637 82.5664 69.7637C78.7004 69.7637 75.5664 66.6297 75.5664 62.7637V58.7637Z" fill="#FFFFE7"/>
</g>
<path d="M78.2061 56.6887C79.514 52.9946 83.5789 51.0313 87.2854 52.3035C90.9919 53.5757 92.9364 57.6016 91.6286 61.2957L89.7859 66.5003C89.4173 67.5416 88.2715 68.095 87.2267 67.7364L77.5876 64.428C76.5429 64.0694 75.9948 62.9346 76.3635 61.8933L78.2061 56.6887Z" fill="url(#paint0_linear_4964_5274)"/>
<g filter="url(#filter2_f_4964_5274)">
<path d="M69.8113 60.0696C70.8993 55.7209 75.314 53.0475 79.6718 54.0985C84.0296 55.1494 86.6803 59.5267 85.5923 63.8754L83.7178 71.3683C82.6298 75.717 78.2151 78.3904 73.8573 77.3394C69.4995 76.2885 66.8488 71.9112 67.9367 67.5625L69.8113 60.0696Z" fill="#FFFFE6"/>
</g>
<g style="mix-blend-mode:luminosity">
<path d="M71.3162 58.6281C73.3701 54.6571 78.2786 53.0551 82.2796 55.05C86.2806 57.0448 87.859 61.8811 85.8051 65.8521L82.2063 72.8099C80.1524 76.7809 75.2439 78.3829 71.2429 76.3881C67.2419 74.3932 65.6635 69.5569 67.7174 65.5859L71.3162 58.6281Z" fill="url(#paint1_linear_4964_5274)"/>
</g>
<g filter="url(#filter3_f_4964_5274)">
<path d="M79.5459 55.7991C80.7201 54.8055 82.4774 54.9518 83.471 56.1259L86.3941 59.5801C87.3867 60.7531 87.2405 62.5087 86.0675 63.5014C85.1459 64.2814 83.8264 64.3779 82.801 63.7404L80.0017 62L78.767 58.9786C78.3106 57.8619 78.6251 56.5784 79.5459 55.7991Z" fill="white"/>
</g>
<g filter="url(#filter4_f_4964_5274)">
<path d="M69.5664 33.7637C69.5664 29.8977 72.7004 26.7637 76.5664 26.7637C80.4324 26.7637 83.5664 29.8977 83.5664 33.7637V37.7637C83.5664 41.6297 80.4324 44.7637 76.5664 44.7637C72.7004 44.7637 69.5664 41.6297 69.5664 37.7637V33.7637Z" fill="#FFFFE7"/>
</g>
<path d="M72.2061 31.6887C73.514 27.9946 77.5789 26.0313 81.2854 27.3035C84.9919 28.5757 86.9364 32.6016 85.6286 36.2957L83.7859 41.5003C83.4173 42.5416 82.2715 43.095 81.2267 42.7364L71.5876 39.428C70.5429 39.0694 69.9948 37.9346 70.3635 36.8933L72.2061 31.6887Z" fill="url(#paint2_linear_4964_5274)"/>
<g filter="url(#filter5_f_4964_5274)">
<path d="M63.8113 35.0696C64.8993 30.7209 69.314 28.0475 73.6718 29.0985C78.0296 30.1494 80.6803 34.5267 79.5923 38.8754L77.7178 46.3683C76.6298 50.717 72.2151 53.3904 67.8573 52.3394C63.4995 51.2885 60.8488 46.9112 61.9367 42.5625L63.8113 35.0696Z" fill="#FFFFE6"/>
</g>
<g style="mix-blend-mode:luminosity">
<path d="M65.3162 33.6281C67.3701 29.6571 72.2786 28.0551 76.2796 30.05C80.2806 32.0448 81.859 36.8811 79.8051 40.8521L76.2063 47.8099C74.1524 51.7809 69.2439 53.3829 65.2429 51.3881C61.2419 49.3932 59.6635 44.5569 61.7174 40.5859L65.3162 33.6281Z" fill="url(#paint3_linear_4964_5274)"/>
</g>
<g filter="url(#filter6_f_4964_5274)">
<path d="M73.5459 30.7991C74.7201 29.8055 76.4774 29.9518 77.471 31.1259L80.3941 34.5801C81.3867 35.7531 81.2405 37.5087 80.0675 38.5014C79.1459 39.2814 77.8264 39.3779 76.801 38.7404L74.0017 37L72.767 33.9786C72.3106 32.8619 72.6251 31.5784 73.5459 30.7991Z" fill="white"/>
</g>
<g filter="url(#filter7_f_4964_5274)">
<path d="M46.4981 71C48.3075 69.7937 58.7282 64.9908 66.714 61.3689C71.7653 59.0779 77.6672 61.7012 79.3898 66.9735C81.1201 72.2693 77.8672 77.8912 72.4015 78.9711C64.3284 80.5661 54.0204 82.5 51.4981 82.5C47.2055 82.5 42.9981 81.1009 41.9981 78.9999C40.9981 76.899 43.4981 72.9999 46.4981 71Z" fill="#FFE4DB"/>
</g>
<g filter="url(#filter8_f_4964_5274)">
<path d="M61.0924 62.6564C62.6788 59.5325 66.4973 58.286 69.6212 59.8724C72.7452 61.4589 73.9916 65.2773 72.4052 68.4013L65.9308 81.1506C64.3444 84.2745 60.5259 85.521 57.4019 83.9346C54.278 82.3481 53.0316 78.5297 54.618 75.4057L61.0924 62.6564Z" fill="#C5EDFE"/>
</g>
<g filter="url(#filter9_f_4964_5274)">
<path d="M66.1027 65.7522C67.0147 64.4514 68.8084 64.1362 70.1091 65.0481C71.4099 65.96 71.7251 67.7538 70.8132 69.0545L65.1176 77.1789C64.2056 78.4796 62.4119 78.7948 61.1112 77.8829C59.8104 76.971 59.4952 75.1773 60.4071 73.8765L66.1027 65.7522Z" fill="#D4FFFF"/>
</g>
<rect x="55" y="57" width="11.9489" height="11.9489" rx="5.97443" fill="#ED392D"/>
<path d="M98.1553 53.3684C96.9975 54.5263 96.4185 56.8421 96.4185 60.3158V62.0526H85.9975V60.3158C85.9975 56.8421 85.4185 54.5263 84.2606 53.3684C80.2206 49.3285 79.7695 43.1219 83.8392 39.0523C87.9089 34.9826 94.5071 34.9826 98.5768 39.0523C102.646 43.1219 102.336 49.1881 98.1553 53.3684ZM87.7343 69H94.6817H87.7343Z" fill="#2329D6"/>
<path d="M87.7343 69H94.6817M98.1553 53.3684C96.9975 54.5263 96.4185 56.8421 96.4185 60.3158V62.0526H85.9975V60.3158C85.9975 56.8421 85.4185 54.5263 84.2606 53.3684C80.2206 49.3285 79.7695 43.1219 83.8392 39.0523C87.9089 34.9826 94.5071 34.9826 98.5768 39.0523C102.646 43.1219 102.336 49.1881 98.1553 53.3684Z" stroke="#2329D6" stroke-width="2.27368" stroke-linecap="round" stroke-linejoin="round"/>
<g filter="url(#filter10_biiii_4964_5274)">
<path d="M87.8824 47.7739H64.3298L59.6386 42.2536C59.4986 42.087 59.2888 41.9936 59.07 42.0003H40.1177C37.2808 42.0282 34.9967 44.3136 35 47.1212V80.8848C34.9999 83.6901 37.283 85.9723 40.1177 86H87.8824C90.717 85.9723 93.0001 83.6901 93 80.8848V52.8891C93.0001 50.0838 90.717 47.8018 87.8824 47.7739Z" fill="#4C50DE" fill-opacity="0.2"/>
</g>
<circle cx="55.5" cy="60.5" r="3.5" fill="#ED392D"/>
<rect x="48.875" y="60.875" width="6.25" height="6.25" stroke="#050121" stroke-width="3.75" stroke-dasharray="3.75 3.75"/>
<g filter="url(#filter11_f_4964_5274)">
<path d="M30.1506 46.6027L29.5376 50.6559C29.471 51.0966 29.6576 51.5374 30.0185 51.7916C30.38 52.0463 30.8523 52.0689 31.2352 51.8518L34.5891 49.9511L37.9897 51.7582C38.8269 52.2097 39.8289 51.4631 39.6552 50.5178L38.9427 46.4999L41.7344 43.0916C42.3559 42.3411 41.8154 41.1732 40.8499 41.1786H37.1714L35.472 37.6541C35.2773 37.2498 34.8697 36.9952 34.4269 37.0001C33.9835 37.0048 33.5821 37.2678 33.3955 37.676L31.7949 41.1786H28.1501C27.7038 41.1786 27.2978 41.4406 27.1085 41.8508C26.9193 42.2609 26.981 42.7451 27.2667 43.093L30.1506 46.6027Z" fill="#A9CFFF"/>
</g>
<g filter="url(#filter12_biii_4964_5274)">
<path d="M30.1506 43.6027L29.5376 47.6559C29.471 48.0966 29.6576 48.5374 30.0185 48.7916C30.38 49.0463 30.8523 49.0689 31.2352 48.8518L34.5891 46.9511L37.9897 48.7582C38.8269 49.2097 39.8289 48.4631 39.6552 47.5178L38.9427 43.4999L41.7344 40.0916C42.3559 39.3411 41.8154 38.1732 40.8499 38.1786H37.1714L35.472 34.6541C35.2773 34.2498 34.8697 33.9952 34.4269 34.0001C33.9835 34.0048 33.5821 34.2678 33.3955 34.676L31.7949 38.1786H28.1501C27.7038 38.1786 27.2978 38.4406 27.1085 38.8508C26.9193 39.2609 26.981 39.7451 27.2667 40.093L30.1506 43.6027Z" fill="white" fill-opacity="0.2"/>
</g>
<path d="M37.0859 90.1875H31.8125V84.875C31.8125 84.4435 31.4628 84.0938 31.0312 84.0938C30.5997 84.0938 30.25 84.4435 30.25 84.875V90.1875H28.5531C28.6399 89.9429 28.6875 89.6801 28.6875 89.4062C28.6875 88.1138 27.6362 87.0625 26.3438 87.0625C25.0513 87.0625 24 88.1138 24 89.4062C24 90.6987 25.0513 91.75 26.3438 91.75H30.25V95.6953H30.2509C30.272 96.9696 31.3145 98 32.5938 98C33.0253 98 33.375 97.6503 33.375 97.2188C33.375 96.7872 33.0253 96.4375 32.5938 96.4375C32.163 96.4375 31.8125 96.087 31.8125 95.6562C31.8125 95.2255 32.163 94.875 32.5938 94.875C33.0245 94.875 33.375 95.2255 33.375 95.6562C33.375 96.0878 33.7247 96.4375 34.1562 96.4375C34.5878 96.4375 34.9375 96.0878 34.9375 95.6562C34.9375 94.3638 33.8862 93.3125 32.5938 93.3125C32.3199 93.3125 32.0571 93.3601 31.8125 93.4469V91.75H37.0859C37.5175 91.75 37.8672 91.4003 37.8672 90.9688C37.8672 90.5372 37.5175 90.1875 37.0859 90.1875ZM25.5625 89.4062C25.5625 88.9755 25.913 88.625 26.3438 88.625C26.7745 88.625 27.125 88.9755 27.125 89.4062C27.125 89.837 26.7745 90.1875 26.3438 90.1875C25.913 90.1875 25.5625 89.837 25.5625 89.4062ZM44 87.9219C44 88.3534 43.6503 88.7031 43.2188 88.7031C42.7872 88.7031 42.4375 88.3534 42.4375 87.9219C42.4375 87.4904 42.7872 87.1406 43.2188 87.1406C43.6503 87.1406 44 87.4904 44 87.9219ZM44 90.9297C44 91.3612 43.6503 91.7109 43.2188 91.7109C42.7872 91.7109 42.4375 91.3612 42.4375 90.9297C42.4375 90.4982 42.7872 90.1484 43.2188 90.1484C43.6503 90.1484 44 90.4982 44 90.9297ZM40.9141 90.9297C40.9141 91.3612 40.5643 91.7109 40.1328 91.7109C39.7013 91.7109 39.3516 91.3612 39.3516 90.9297C39.3516 90.4982 39.7013 90.1484 40.1328 90.1484C40.5643 90.1484 40.9141 90.4982 40.9141 90.9297ZM33.2578 78.7812C33.2578 78.3497 33.6075 78 34.0391 78C34.4706 78 34.8203 78.3497 34.8203 78.7812C34.8203 79.2128 34.4706 79.5625 34.0391 79.5625C33.6075 79.5625 33.2578 79.2128 33.2578 78.7812ZM40.9141 78.7812C40.9141 79.2128 40.5643 79.5625 40.1328 79.5625C39.7013 79.5625 39.3516 79.2128 39.3516 78.7812C39.3516 78.3497 39.7013 78 40.1328 78C40.5643 78 40.9141 78.3497 40.9141 78.7812ZM44 78.7812C44 79.2128 43.6503 79.5625 43.2188 79.5625C42.7872 79.5625 42.4375 79.2128 42.4375 78.7812C42.4375 78.3497 42.7872 78 43.2188 78C43.6503 78 44 78.3497 44 78.7812ZM37.8672 78.7812C37.8672 79.2128 37.5175 79.5625 37.0859 79.5625C36.6544 79.5625 36.3047 79.2128 36.3047 78.7812C36.3047 78.3497 36.6544 78 37.0859 78C37.5175 78 37.8672 78.3497 37.8672 78.7812ZM30.25 78.7812C30.25 78.3497 30.5997 78 31.0312 78C31.4628 78 31.8125 78.3497 31.8125 78.7812C31.8125 79.2128 31.4628 79.5625 31.0312 79.5625C30.5997 79.5625 30.25 79.2128 30.25 78.7812ZM44 84.875C44 85.3065 43.6503 85.6562 43.2188 85.6562C42.7872 85.6562 42.4375 85.3065 42.4375 84.875C42.4375 84.4435 42.7872 84.0938 43.2188 84.0938C43.6503 84.0938 44 84.4435 44 84.875ZM44 81.9062C44 82.3378 43.6503 82.6875 43.2188 82.6875C42.7872 82.6875 42.4375 82.3378 42.4375 81.9062C42.4375 81.4747 42.7872 81.125 43.2188 81.125C43.6503 81.125 44 81.4747 44 81.9062ZM30.25 81.9062C30.25 81.4747 30.5997 81.125 31.0312 81.125C31.4628 81.125 31.8125 81.4747 31.8125 81.9062C31.8125 82.3378 31.4628 82.6875 31.0312 82.6875C30.5997 82.6875 30.25 82.3378 30.25 81.9062Z" fill="#2329D6"/>
<path d="M65 59H73" stroke="white" stroke-width="2" stroke-dasharray="4 4"/>
<path d="M81 74H89" stroke="white" stroke-width="2" stroke-dasharray="4 4"/>
<path d="M0 0L128 128" stroke="white" stroke-opacity="0.2" stroke-linecap="square"/>
<path d="M128 0L0 128" stroke="white" stroke-opacity="0.2" stroke-linecap="square"/>
<path d="M0 64H128" stroke="white" stroke-opacity="0.2" stroke-linecap="square"/>
<path d="M64 0V128" stroke="white" stroke-opacity="0.2" stroke-linecap="square"/>
<path fill-rule="evenodd" clip-rule="evenodd" d="M8.375 8.375V119.625H119.625V8.375H8.375Z" stroke="white" stroke-opacity="0.2" stroke-linecap="square"/>
<path d="M39.875 0V128" stroke="white" stroke-opacity="0.2" stroke-linecap="square"/>
<path d="M88.125 0V128" stroke="white" stroke-opacity="0.2" stroke-linecap="square"/>
<path d="M128 39.875H0" stroke="white" stroke-opacity="0.2" stroke-linecap="square"/>
<path d="M128 88.125H0" stroke="white" stroke-opacity="0.2" stroke-linecap="square"/>
<circle cx="64" cy="64" r="55.25" stroke="white" stroke-opacity="0.2" stroke-linecap="square"/>
<circle cx="64" cy="64" r="23.75" stroke="white" stroke-opacity="0.2" stroke-linecap="square"/>
<circle cx="64" cy="64" r="33.75" stroke="white" stroke-opacity="0.2" stroke-linecap="square"/>
</g>
<defs>
<filter id="filter0_f_4964_5274" x="-47.6097" y="-27.6097" width="208.219" height="197.219" filterUnits="userSpaceOnUse" color-interpolation-filters="sRGB">
<feFlood flood-opacity="0" result="BackgroundImageFix"/>
<feBlend mode="normal" in="SourceGraphic" in2="BackgroundImageFix" result="shape"/>
<feGaussianBlur stdDeviation="33.8049" result="effect1_foregroundBlur_4964_5274"/>
</filter>
<filter id="filter1_f_4964_5274" x="67.5664" y="43.7637" width="30" height="34" filterUnits="userSpaceOnUse" color-interpolation-filters="sRGB">
<feFlood flood-opacity="0" result="BackgroundImageFix"/>
<feBlend mode="normal" in="SourceGraphic" in2="BackgroundImageFix" result="shape"/>
<feGaussianBlur stdDeviation="4" result="effect1_foregroundBlur_4964_5274"/>
</filter>
<filter id="filter2_f_4964_5274" x="61.6914" y="47.8699" width="30.1445" height="35.698" filterUnits="userSpaceOnUse" color-interpolation-filters="sRGB">
<feFlood flood-opacity="0" result="BackgroundImageFix"/>
<feBlend mode="normal" in="SourceGraphic" in2="BackgroundImageFix" result="shape"/>
<feGaussianBlur stdDeviation="3" result="effect1_foregroundBlur_4964_5274"/>
</filter>
<filter id="filter3_f_4964_5274" x="77.5586" y="54.1399" width="10.4922" height="11.02" filterUnits="userSpaceOnUse" color-interpolation-filters="sRGB">
<feFlood flood-opacity="0" result="BackgroundImageFix"/>
<feBlend mode="normal" in="SourceGraphic" in2="BackgroundImageFix" result="shape"/>
<feGaussianBlur stdDeviation="0.5" result="effect1_foregroundBlur_4964_5274"/>
</filter>
<filter id="filter4_f_4964_5274" x="61.5664" y="18.7637" width="30" height="34" filterUnits="userSpaceOnUse" color-interpolation-filters="sRGB">
<feFlood flood-opacity="0" result="BackgroundImageFix"/>
<feBlend mode="normal" in="SourceGraphic" in2="BackgroundImageFix" result="shape"/>
<feGaussianBlur stdDeviation="4" result="effect1_foregroundBlur_4964_5274"/>
</filter>
<filter id="filter5_f_4964_5274" x="55.6914" y="22.8699" width="30.1445" height="35.698" filterUnits="userSpaceOnUse" color-interpolation-filters="sRGB">
<feFlood flood-opacity="0" result="BackgroundImageFix"/>
<feBlend mode="normal" in="SourceGraphic" in2="BackgroundImageFix" result="shape"/>
<feGaussianBlur stdDeviation="3" result="effect1_foregroundBlur_4964_5274"/>
</filter>
<filter id="filter6_f_4964_5274" x="71.5586" y="29.1399" width="10.4922" height="11.02" filterUnits="userSpaceOnUse" color-interpolation-filters="sRGB">
<feFlood flood-opacity="0" result="BackgroundImageFix"/>
<feBlend mode="normal" in="SourceGraphic" in2="BackgroundImageFix" result="shape"/>
<feGaussianBlur stdDeviation="0.5" result="effect1_foregroundBlur_4964_5274"/>
</filter>
<filter id="filter7_f_4964_5274" x="38.7734" y="57.5366" width="44.082" height="27.9634" filterUnits="userSpaceOnUse" color-interpolation-filters="sRGB">
<feFlood flood-opacity="0" result="BackgroundImageFix"/>
<feBlend mode="normal" in="SourceGraphic" in2="BackgroundImageFix" result="shape"/>
<feGaussianBlur stdDeviation="1.5" result="effect1_foregroundBlur_4964_5274"/>
</filter>
<filter id="filter8_f_4964_5274" x="48.9297" y="54.1836" width="29.1641" height="35.4399" filterUnits="userSpaceOnUse" color-interpolation-filters="sRGB">
<feFlood flood-opacity="0" result="BackgroundImageFix"/>
<feBlend mode="normal" in="SourceGraphic" in2="BackgroundImageFix" result="shape"/>
<feGaussianBlur stdDeviation="2.5" result="effect1_foregroundBlur_4964_5274"/>
</filter>
<filter id="filter9_f_4964_5274" x="57.8867" y="62.5269" width="15.4492" height="17.8774" filterUnits="userSpaceOnUse" color-interpolation-filters="sRGB">
<feFlood flood-opacity="0" result="BackgroundImageFix"/>
<feBlend mode="normal" in="SourceGraphic" in2="BackgroundImageFix" result="shape"/>
<feGaussianBlur stdDeviation="1" result="effect1_foregroundBlur_4964_5274"/>
</filter>
<filter id="filter10_biiii_4964_5274" x="31" y="38" width="66" height="52" filterUnits="userSpaceOnUse" color-interpolation-filters="sRGB">
<feFlood flood-opacity="0" result="BackgroundImageFix"/>
<feGaussianBlur in="BackgroundImageFix" stdDeviation="2"/>
<feComposite in2="SourceAlpha" operator="in" result="effect1_backgroundBlur_4964_5274"/>
<feBlend mode="normal" in="SourceGraphic" in2="effect1_backgroundBlur_4964_5274" result="shape"/>
<feColorMatrix in="SourceAlpha" type="matrix" values="0 0 0 0 0 0 0 0 0 0 0 0 0 0 0 0 0 0 127 0" result="hardAlpha"/>
<feOffset dy="1"/>
<feGaussianBlur stdDeviation="2"/>
<feComposite in2="hardAlpha" operator="arithmetic" k2="-1" k3="1"/>
<feColorMatrix type="matrix" values="0 0 0 0 1 0 0 0 0 1 0 0 0 0 1 0 0 0 0.3 0"/>
<feBlend mode="normal" in2="shape" result="effect2_innerShadow_4964_5274"/>
<feColorMatrix in="SourceAlpha" type="matrix" values="0 0 0 0 0 0 0 0 0 0 0 0 0 0 0 0 0 0 127 0" result="hardAlpha"/>
<feOffset dy="-1"/>
<feGaussianBlur stdDeviation="2"/>
<feComposite in2="hardAlpha" operator="arithmetic" k2="-1" k3="1"/>
<feColorMatrix type="matrix" values="0 0 0 0 1 0 0 0 0 1 0 0 0 0 1 0 0 0 0.5 0"/>
<feBlend mode="normal" in2="effect2_innerShadow_4964_5274" result="effect3_innerShadow_4964_5274"/>
<feColorMatrix in="SourceAlpha" type="matrix" values="0 0 0 0 0 0 0 0 0 0 0 0 0 0 0 0 0 0 127 0" result="hardAlpha"/>
<feOffset dy="1"/>
<feGaussianBlur stdDeviation="22"/>
<feComposite in2="hardAlpha" operator="arithmetic" k2="-1" k3="1"/>
<feColorMatrix type="matrix" values="0 0 0 0 1 0 0 0 0 1 0 0 0 0 1 0 0 0 0.45 0"/>
<feBlend mode="normal" in2="effect3_innerShadow_4964_5274" result="effect4_innerShadow_4964_5274"/>
<feColorMatrix in="SourceAlpha" type="matrix" values="0 0 0 0 0 0 0 0 0 0 0 0 0 0 0 0 0 0 127 0" result="hardAlpha"/>
<feOffset dx="1" dy="1"/>
<feGaussianBlur stdDeviation="1"/>
<feComposite in2="hardAlpha" operator="arithmetic" k2="-1" k3="1"/>
<feColorMatrix type="matrix" values="0 0 0 0 1 0 0 0 0 1 0 0 0 0 1 0 0 0 1 0"/>
<feBlend mode="normal" in2="effect4_innerShadow_4964_5274" result="effect5_innerShadow_4964_5274"/>
</filter>
<filter id="filter11_f_4964_5274" x="23" y="33" width="23" height="23" filterUnits="userSpaceOnUse" color-interpolation-filters="sRGB">
<feFlood flood-opacity="0" result="BackgroundImageFix"/>
<feBlend mode="normal" in="SourceGraphic" in2="BackgroundImageFix" result="shape"/>
<feGaussianBlur stdDeviation="2" result="effect1_foregroundBlur_4964_5274"/>
</filter>
<filter id="filter12_biii_4964_5274" x="21.9838" y="28.9838" width="25.0323" height="25.0323" filterUnits="userSpaceOnUse" color-interpolation-filters="sRGB">
<feFlood flood-opacity="0" result="BackgroundImageFix"/>
<feGaussianBlur in="BackgroundImageFix" stdDeviation="2.50808"/>
<feComposite in2="SourceAlpha" operator="in" result="effect1_backgroundBlur_4964_5274"/>
<feBlend mode="normal" in="SourceGraphic" in2="effect1_backgroundBlur_4964_5274" result="shape"/>
<feColorMatrix in="SourceAlpha" type="matrix" values="0 0 0 0 0 0 0 0 0 0 0 0 0 0 0 0 0 0 127 0" result="hardAlpha"/>
<feOffset dy="1.25404"/>
<feGaussianBlur stdDeviation="2.50808"/>
<feComposite in2="hardAlpha" operator="arithmetic" k2="-1" k3="1"/>
<feColorMatrix type="matrix" values="0 0 0 0 1 0 0 0 0 1 0 0 0 0 1 0 0 0 0.3 0"/>
<feBlend mode="normal" in2="shape" result="effect2_innerShadow_4964_5274"/>
<feColorMatrix in="SourceAlpha" type="matrix" values="0 0 0 0 0 0 0 0 0 0 0 0 0 0 0 0 0 0 127 0" result="hardAlpha"/>
<feOffset dy="-1.25404"/>
<feGaussianBlur stdDeviation="2.50808"/>
<feComposite in2="hardAlpha" operator="arithmetic" k2="-1" k3="1"/>
<feColorMatrix type="matrix" values="0 0 0 0 1 0 0 0 0 1 0 0 0 0 1 0 0 0 0.5 0"/>
<feBlend mode="normal" in2="effect2_innerShadow_4964_5274" result="effect3_innerShadow_4964_5274"/>
<feColorMatrix in="SourceAlpha" type="matrix" values="0 0 0 0 0 0 0 0 0 0 0 0 0 0 0 0 0 0 127 0" result="hardAlpha"/>
<feOffset dy="1.25404"/>
<feGaussianBlur stdDeviation="0.627019"/>
<feComposite in2="hardAlpha" operator="arithmetic" k2="-1" k3="1"/>
<feColorMatrix type="matrix" values="0 0 0 0 1 0 0 0 0 1 0 0 0 0 1 0 0 0 0.95 0"/>
<feBlend mode="normal" in2="effect3_innerShadow_4964_5274" result="effect4_innerShadow_4964_5274"/>
</filter>
<linearGradient id="paint0_linear_4964_5274" x1="92.2305" y1="54.0008" x2="67.6163" y2="68.6673" gradientUnits="userSpaceOnUse">
<stop offset="0.0941878" stop-color="#FFE5DC"/>
<stop offset="0.230705" stop-color="#FFFFE7" stop-opacity="0"/>
</linearGradient>
<linearGradient id="paint1_linear_4964_5274" x1="86.9648" y1="64.4707" x2="67.8059" y2="75.9986" gradientUnits="userSpaceOnUse">
<stop offset="0.0153056" stop-color="#D4FFE7"/>
<stop offset="0.312156" stop-color="#D5FFFF" stop-opacity="0"/>
</linearGradient>
<linearGradient id="paint2_linear_4964_5274" x1="86.2305" y1="29.0008" x2="61.6163" y2="43.6673" gradientUnits="userSpaceOnUse">
<stop offset="0.0941878" stop-color="#FFE5DC"/>
<stop offset="0.230705" stop-color="#FFFFE7" stop-opacity="0"/>
</linearGradient>
<linearGradient id="paint3_linear_4964_5274" x1="80.9648" y1="39.4707" x2="61.8059" y2="50.9986" gradientUnits="userSpaceOnUse">
<stop offset="0.0153056" stop-color="#D4FFE7"/>
<stop offset="0.312156" stop-color="#D5FFFF" stop-opacity="0"/>
</linearGradient>
<clipPath id="clip0_4964_5274">
<rect width="128" height="128" fill="white"/>
</clipPath>
</defs>
</svg>
