<svg width="133" height="133" viewBox="0 0 133 133" fill="none" xmlns="http://www.w3.org/2000/svg">
<g clip-path="url(#clip0_4964_4940)">
<g filter="url(#filter0_f_4964_4940)">
<circle cx="66.5" cy="70.6562" r="40.5234" fill="white"/>
</g>
<path d="M56.8232 72.4311C56.5993 72.4523 56.3705 72.4223 56.1586 72.3374L49.3295 69.6014C47.3916 68.824 45.845 67.8922 44.5985 66.7541C41.8706 64.2653 40.1655 60.9006 39.8008 57.2775L38.596 45.353C38.4566 43.9767 39.2336 42.6562 40.5259 42.0643L52.0912 36.7881C52.7774 36.4688 53.569 36.3904 54.3148 36.5654L66.6963 39.4345C68.0821 39.7535 69.1066 40.8948 69.244 42.2694L70.4497 54.2028C70.8157 57.8204 69.8204 61.4548 67.6484 64.4372C66.6518 65.8052 65.3216 67.0251 63.5837 68.1679L57.454 72.206C57.2639 72.3325 57.0469 72.4081 56.8232 72.4311Z" fill="#F84031"/>
<path d="M57.8428 71.9161C57.6077 72.0519 57.3417 72.1339 57.0664 72.1472L48.1978 72.5754C45.6806 72.6958 43.5153 72.4502 41.5757 71.8275C37.3318 70.4667 33.7704 67.6309 31.5501 63.8381L24.2374 51.3576C23.3932 49.9173 23.5824 48.0778 24.7032 46.7791L34.7443 35.1791C35.3369 34.484 36.1662 34.0003 37.0725 33.8176L52.1013 30.7461C53.7822 30.4001 55.4799 31.1378 56.3212 32.5773L63.6392 45.0671C65.8582 48.8532 66.5917 53.3415 65.7065 57.7055C65.3001 59.7074 64.4531 61.7144 63.12 63.8415L58.422 71.3522C58.2769 71.5865 58.0769 71.7785 57.8428 71.9161Z" fill="#2329D6"/>
<g filter="url(#filter1_f_4964_4940)">
<path d="M83.8491 84.2644C78.841 86.8466 72.8231 84.8133 70.4076 79.7227L63.2258 64.5877C60.8103 59.4971 62.9119 53.2771 67.92 50.6949C72.928 48.1127 78.9459 50.146 81.3614 55.2366L88.5432 70.3716C90.9587 75.4622 88.8571 81.6822 83.8491 84.2644Z" fill="#FFE4DB"/>
</g>
<g filter="url(#filter2_f_4964_4940)">
<path d="M87.4773 79.7879C85.4037 80.8571 82.9118 80.0151 81.9117 77.9073L69.6045 51.9709C68.6044 49.8631 69.4746 47.2876 71.5482 46.2184C73.6219 45.1492 76.1137 45.9911 77.1139 48.099L89.421 74.0353C90.4212 76.1432 89.551 78.7187 87.4773 79.7879Z" fill="#FFFFE7"/>
</g>
<g filter="url(#filter3_biiii_4964_4940)">
<path d="M66.8184 100.633C66.3949 100.633 65.9713 100.536 65.589 100.339L53.2685 93.9713C49.7724 92.1626 47.0372 90.132 44.9009 87.7656C40.2251 82.5905 37.6211 75.945 37.5752 69.0497L37.4157 46.3549C37.3967 43.7356 39.0858 41.3835 41.6125 40.4964L64.2222 32.5969C65.5647 32.1164 67.0625 32.1087 68.4298 32.5706L91.1358 40.1721C93.6774 41.0189 95.3971 43.352 95.4126 45.9679L95.5721 68.6795C95.6214 75.5648 93.1157 82.2404 88.5191 87.4787C86.41 89.8814 83.7015 91.9457 80.2423 93.7926L68.0405 100.32C67.6619 100.525 67.2419 100.629 66.8184 100.633Z" fill="#2329D6" fill-opacity="0.2"/>
</g>
<g filter="url(#filter4_f_4964_4940)">
<path d="M90.5664 66.7637C90.5664 62.8977 93.7004 59.7637 97.5664 59.7637C101.432 59.7637 104.566 62.8977 104.566 66.7637V70.7637C104.566 74.6297 101.432 77.7637 97.5664 77.7637C93.7004 77.7637 90.5664 74.6297 90.5664 70.7637V66.7637Z" fill="#FFFFE7"/>
</g>
<path d="M93.2061 64.6887C94.514 60.9946 98.5789 59.0313 102.285 60.3035C105.992 61.5757 107.936 65.6016 106.629 69.2957L104.786 74.5003C104.417 75.5416 103.271 76.095 102.227 75.7364L92.5876 72.428C91.5429 72.0694 90.9948 70.9346 91.3635 69.8933L93.2061 64.6887Z" fill="url(#paint0_linear_4964_4940)"/>
<g filter="url(#filter5_f_4964_4940)">
<path d="M84.8113 68.0696C85.8993 63.7209 90.314 61.0475 94.6718 62.0985C99.0296 63.1494 101.68 67.5267 100.592 71.8754L98.7178 79.3683C97.6298 83.717 93.2151 86.3904 88.8573 85.3394C84.4995 84.2885 81.8488 79.9112 82.9367 75.5625L84.8113 68.0696Z" fill="url(#paint1_linear_4964_4940)"/>
</g>
<g style="mix-blend-mode:luminosity">
<path d="M86.3162 66.6281C88.3701 62.6571 93.2786 61.0551 97.2796 63.05C101.281 65.0448 102.859 69.8811 100.805 73.8521L97.2063 80.8099C95.1524 84.7809 90.2439 86.3829 86.2429 84.3881C82.2419 82.3932 80.6635 77.5569 82.7174 73.5859L86.3162 66.6281Z" fill="url(#paint2_linear_4964_4940)"/>
</g>
<g filter="url(#filter6_f_4964_4940)">
<path d="M94.5459 63.7991C95.7201 62.8055 97.4774 62.9518 98.471 64.1259L101.394 67.5801C102.387 68.7531 102.241 70.5087 101.068 71.5014C100.146 72.2814 98.8264 72.3779 97.801 71.7404L95.0017 70L93.767 66.9786C93.3106 65.8619 93.6251 64.5784 94.5459 63.7991Z" fill="white"/>
</g>
<g filter="url(#filter7_f_4964_4940)">
<path d="M64.177 78.4545C63.5159 78.4583 62.8547 78.2206 62.3448 77.7313L55.7848 71.4305C54.7718 70.4519 54.7605 68.8622 55.7618 67.8756C56.7631 66.8855 58.3986 66.8744 59.415 67.8497L64.1352 72.3809L75.6452 61.0174C76.6499 60.0274 78.2854 60.0163 79.2984 60.9916C80.3148 61.9702 80.3261 63.5632 79.3248 64.5465L65.998 77.7054C65.4956 78.2021 64.8381 78.4507 64.177 78.4545Z" fill="#A9CFFF"/>
</g>
<g filter="url(#filter8_biiii_4964_4940)">
<path d="M64.177 74.3717C63.5159 74.3755 62.8547 74.1378 62.3448 73.6485L55.7848 67.3478C54.7718 66.3691 54.7605 64.7795 55.7618 63.7928C56.7631 62.8028 58.3986 62.7916 59.415 63.7669L64.1352 68.2981L75.6452 56.9347C76.6499 55.9446 78.2854 55.9335 79.2984 56.9088C80.3148 57.8874 80.3261 59.4804 79.3248 60.4638L65.998 73.6226C65.4956 74.1193 64.8381 74.3679 64.177 74.3717Z" fill="white" fill-opacity="0.2"/>
</g>
<g filter="url(#filter9_biii_4964_4940)">
<path d="M89 62C89 75.8071 72 92 64 92C56 92 39 75.8071 39 62C39 48.1929 41 37 64 37C85.6017 37 89 48.1929 89 62Z" stroke="#6D2323" stroke-opacity="0.2" stroke-width="1.75" stroke-linecap="round" stroke-linejoin="round" stroke-dasharray="3.5 3.5"/>
</g>
<rect x="37" y="78" width="4" height="4" fill="#ED392D"/>
<path d="M97.281 38.8025H95.901V35.1484C95.901 32.9557 94.0802 31.1719 91.8422 31.1719H90.9898C88.7517 31.1719 86.931 32.9557 86.931 35.1484V38.8025H85.5916C84.2486 38.8025 83.1562 39.8949 83.1562 41.2378V43.6731C83.1562 48.2387 86.8707 51.9531 91.4363 51.9531C92.7667 51.9531 94.0896 51.6298 95.2619 51.0182C95.6594 50.8108 95.8133 50.3204 95.6059 49.9229C95.3986 49.5254 94.9082 49.3713 94.5107 49.5789C93.5559 50.077 92.5215 50.3296 91.4363 50.3296C87.7659 50.3296 84.7798 47.3435 84.7798 43.6731V41.2378C84.7798 40.7902 85.144 40.426 85.5916 40.426H97.281C97.7286 40.426 98.0928 40.7902 98.0928 41.2378V43.6731C98.0928 44.8581 97.7777 46.0214 97.1818 47.0369C96.9547 47.4236 97.0842 47.9209 97.4709 48.1478C97.8576 48.3748 98.355 48.2453 98.5819 47.8586C99.3241 46.5942 99.7163 45.1468 99.7163 43.6731V41.2378C99.7163 39.8949 98.6239 38.8025 97.281 38.8025ZM88.5545 35.1484C88.5545 33.851 89.6469 32.7954 90.9898 32.7954H91.8422C93.1851 32.7954 94.2775 33.851 94.2775 35.1484V38.8025H88.5545V35.1484ZM90.6231 47.0013V45.2194C90.209 44.9521 89.9345 44.4868 89.9345 43.9572C89.9345 43.1278 90.6069 42.4554 91.4363 42.4554C92.2656 42.4554 92.938 43.1278 92.938 43.9572C92.938 44.488 92.6623 44.9543 92.2466 45.2213V47.0013C92.2466 47.4497 91.8831 47.8131 91.4349 47.8131C90.9865 47.8131 90.6231 47.4497 90.6231 47.0013Z" fill="#2329D6"/>
<path d="M0 0L133 133" stroke="white" stroke-opacity="0.2" stroke-linecap="square"/>
<path d="M133 0L0 133" stroke="white" stroke-opacity="0.2" stroke-linecap="square"/>
<path d="M0 66.5H133" stroke="white" stroke-opacity="0.2" stroke-linecap="square"/>
<path d="M66.502 0V133" stroke="white" stroke-opacity="0.2" stroke-linecap="square"/>
<path fill-rule="evenodd" clip-rule="evenodd" d="M8.70312 8.70215V124.298H124.299V8.70215H8.70312Z" stroke="white" stroke-opacity="0.2" stroke-linecap="square"/>
<path d="M41.4316 0V133" stroke="white" stroke-opacity="0.2" stroke-linecap="square"/>
<path d="M91.5684 0V133" stroke="white" stroke-opacity="0.2" stroke-linecap="square"/>
<path d="M133 41.4326H0" stroke="white" stroke-opacity="0.2" stroke-linecap="square"/>
<path d="M133 91.5674H0" stroke="white" stroke-opacity="0.2" stroke-linecap="square"/>
<circle cx="66.498" cy="66.5" r="57.4277" stroke="white" stroke-opacity="0.2" stroke-linecap="square"/>
<circle cx="66.502" cy="66.5" r="24.6973" stroke="white" stroke-opacity="0.2" stroke-linecap="square"/>
<circle cx="66.502" cy="66.5" r="35.0879" stroke="white" stroke-opacity="0.2" stroke-linecap="square"/>
<path d="M57.1548 89.6505H52.1316L47.1084 77.9297L38.7364 94.6737L33.7132 84.6273L30.3644 89.6505H27.0156" stroke="#2329D6" stroke-width="1.8" stroke-linecap="round" stroke-linejoin="round"/>
<g filter="url(#filter10_biii_4964_4940)">
<path d="M74 83.25C73.4477 83.25 73 83.6977 73 84.25V96.5C73 97.0523 73.4477 97.5 74 97.5H77C77.5523 97.5 78 97.0523 78 96.5V84.25C78 83.6977 77.5523 83.25 77 83.25H74Z" fill="white" fill-opacity="0.2"/>
<path d="M88 75.3335C87.4477 75.3335 87 75.7812 87 76.3335V96.5002C87 97.0524 87.4477 97.5002 88 97.5002H91C91.5523 97.5002 92 97.0524 92 96.5002V76.3335C92 75.7812 91.5523 75.3335 91 75.3335H88Z" fill="white" fill-opacity="0.2"/>
<path d="M81 69C80.4477 69 80 69.4477 80 70V96.5C80 97.0523 80.4477 97.5 81 97.5H84C84.5523 97.5 85 97.0523 85 96.5V70C85 69.4477 84.5523 69 84 69H81Z" fill="white" fill-opacity="0.2"/>
</g>
<g filter="url(#filter11_biii_4964_4940)">
<path d="M33.9104 52.0029H33.1548C32.1129 52.0029 31.2656 52.8441 31.2656 53.8784V57.6293C31.2656 58.6636 32.1129 59.5048 33.1548 59.5048H33.9104C34.5353 59.5048 35.0439 58.9998 35.0439 58.3795V53.1282C35.0439 52.5079 34.5353 52.0029 33.9104 52.0029Z" fill="white" fill-opacity="0.25"/>
</g>
<g filter="url(#filter12_bii_4964_4940)">
<path d="M30.4305 53.5034H30.1335C29.5075 53.5034 29 54.0072 29 54.6287V56.8793C29 57.5007 29.5075 58.0045 30.1335 58.0045H30.4317C30.4872 58.0045 30.5314 57.9571 30.5256 57.9023C30.516 57.8127 30.5113 57.7217 30.5113 57.6294C30.5113 54.203 30.5032 53.8061 30.5244 53.6068C30.5303 53.5514 30.4865 53.5034 30.4305 53.5034Z" fill="white" fill-opacity="0.25"/>
</g>
<g filter="url(#filter13_biii_4964_4940)">
<path d="M38.8184 40C33.4181 40.0028 29 44.4755 29 49.8368V50.1275C29 50.6163 29.316 51.0333 29.7557 51.1882V52.6794C29.7557 52.7362 29.8063 52.7803 29.863 52.7721C30.0244 52.7491 30.1637 52.7521 30.4163 52.753C30.4686 52.7532 30.5113 52.7111 30.5113 52.6592V51.2528H30.8892C31.5152 51.2528 32.0226 50.749 32.0226 50.1275V49.8178C32.0226 46.0858 35.0449 43.0113 38.8041 43.0007C42.563 42.9902 45.6245 46.0231 45.6245 49.7524V50.1275C45.6245 50.749 46.132 51.2528 46.758 51.2528H47.1359V52.6591C47.1359 52.7111 47.1787 52.7532 47.231 52.7529C47.4719 52.752 47.6193 52.749 47.7845 52.7723C47.841 52.7803 47.8915 52.7362 47.8915 52.6795V51.1882C48.3312 51.0333 48.6471 50.6163 48.6471 50.1275V49.7524C48.6472 44.3733 44.2375 39.9972 38.8184 40Z" fill="white" fill-opacity="0.25"/>
</g>
<g filter="url(#filter14_biii_4964_4940)">
<path d="M43.7351 59.5048H44.4907C45.5326 59.5048 46.3799 58.6636 46.3799 57.6293V53.8784C46.3799 52.8441 45.5326 52.0029 44.4907 52.0029H43.7351C43.1102 52.0029 42.6016 52.5079 42.6016 53.1282V58.3795C42.6016 58.9998 43.1102 59.5048 43.7351 59.5048Z" fill="white" fill-opacity="0.25"/>
</g>
<g filter="url(#filter15_bii_4964_4940)">
<path d="M47.5137 53.5034H47.2155C47.16 53.5034 47.1158 53.5508 47.1216 53.6056C47.1312 53.6952 47.1359 53.7862 47.1359 53.8785C47.1359 57.3049 47.144 57.7019 47.1228 57.9011C47.1169 57.9565 47.1607 58.0045 47.2167 58.0045H47.5137C48.1397 58.0045 48.6472 57.5007 48.6472 56.8793V54.6287C48.6472 54.0072 48.1397 53.5034 47.5137 53.5034Z" fill="white" fill-opacity="0.25"/>
</g>
</g>
<defs>
<filter id="filter0_f_4964_4940" x="-41.6332" y="-37.4769" width="216.266" height="216.266" filterUnits="userSpaceOnUse" color-interpolation-filters="sRGB">
<feFlood flood-opacity="0" result="BackgroundImageFix"/>
<feBlend mode="normal" in="SourceGraphic" in2="BackgroundImageFix" result="shape"/>
<feGaussianBlur stdDeviation="33.8049" result="effect1_foregroundBlur_4964_4940"/>
</filter>
<filter id="filter1_f_4964_4940" x="52.2227" y="39.5747" width="47.3242" height="55.8101" filterUnits="userSpaceOnUse" color-interpolation-filters="sRGB">
<feFlood flood-opacity="0" result="BackgroundImageFix"/>
<feBlend mode="normal" in="SourceGraphic" in2="BackgroundImageFix" result="shape"/>
<feGaussianBlur stdDeviation="5" result="effect1_foregroundBlur_4964_4940"/>
</filter>
<filter id="filter2_f_4964_4940" x="59.1914" y="35.7546" width="40.6445" height="54.4971" filterUnits="userSpaceOnUse" color-interpolation-filters="sRGB">
<feFlood flood-opacity="0" result="BackgroundImageFix"/>
<feBlend mode="normal" in="SourceGraphic" in2="BackgroundImageFix" result="shape"/>
<feGaussianBlur stdDeviation="5" result="effect1_foregroundBlur_4964_4940"/>
</filter>
<filter id="filter3_biiii_4964_4940" x="33.4141" y="28.2302" width="66.1602" height="76.4028" filterUnits="userSpaceOnUse" color-interpolation-filters="sRGB">
<feFlood flood-opacity="0" result="BackgroundImageFix"/>
<feGaussianBlur in="BackgroundImageFix" stdDeviation="2"/>
<feComposite in2="SourceAlpha" operator="in" result="effect1_backgroundBlur_4964_4940"/>
<feBlend mode="normal" in="SourceGraphic" in2="effect1_backgroundBlur_4964_4940" result="shape"/>
<feColorMatrix in="SourceAlpha" type="matrix" values="0 0 0 0 0 0 0 0 0 0 0 0 0 0 0 0 0 0 127 0" result="hardAlpha"/>
<feOffset dy="1"/>
<feGaussianBlur stdDeviation="2"/>
<feComposite in2="hardAlpha" operator="arithmetic" k2="-1" k3="1"/>
<feColorMatrix type="matrix" values="0 0 0 0 1 0 0 0 0 1 0 0 0 0 1 0 0 0 0.3 0"/>
<feBlend mode="normal" in2="shape" result="effect2_innerShadow_4964_4940"/>
<feColorMatrix in="SourceAlpha" type="matrix" values="0 0 0 0 0 0 0 0 0 0 0 0 0 0 0 0 0 0 127 0" result="hardAlpha"/>
<feOffset dy="-1"/>
<feGaussianBlur stdDeviation="2"/>
<feComposite in2="hardAlpha" operator="arithmetic" k2="-1" k3="1"/>
<feColorMatrix type="matrix" values="0 0 0 0 1 0 0 0 0 1 0 0 0 0 1 0 0 0 0.5 0"/>
<feBlend mode="normal" in2="effect2_innerShadow_4964_4940" result="effect3_innerShadow_4964_4940"/>
<feColorMatrix in="SourceAlpha" type="matrix" values="0 0 0 0 0 0 0 0 0 0 0 0 0 0 0 0 0 0 127 0" result="hardAlpha"/>
<feOffset dy="1"/>
<feGaussianBlur stdDeviation="22"/>
<feComposite in2="hardAlpha" operator="arithmetic" k2="-1" k3="1"/>
<feColorMatrix type="matrix" values="0 0 0 0 1 0 0 0 0 1 0 0 0 0 1 0 0 0 0.45 0"/>
<feBlend mode="normal" in2="effect3_innerShadow_4964_4940" result="effect4_innerShadow_4964_4940"/>
<feColorMatrix in="SourceAlpha" type="matrix" values="0 0 0 0 0 0 0 0 0 0 0 0 0 0 0 0 0 0 127 0" result="hardAlpha"/>
<feOffset dx="1" dy="1"/>
<feGaussianBlur stdDeviation="1"/>
<feComposite in2="hardAlpha" operator="arithmetic" k2="-1" k3="1"/>
<feColorMatrix type="matrix" values="0 0 0 0 1 0 0 0 0 1 0 0 0 0 1 0 0 0 1 0"/>
<feBlend mode="normal" in2="effect4_innerShadow_4964_4940" result="effect5_innerShadow_4964_4940"/>
</filter>
<filter id="filter4_f_4964_4940" x="82.5664" y="51.7637" width="30" height="34" filterUnits="userSpaceOnUse" color-interpolation-filters="sRGB">
<feFlood flood-opacity="0" result="BackgroundImageFix"/>
<feBlend mode="normal" in="SourceGraphic" in2="BackgroundImageFix" result="shape"/>
<feGaussianBlur stdDeviation="4" result="effect1_foregroundBlur_4964_4940"/>
</filter>
<filter id="filter5_f_4964_4940" x="76.6914" y="55.8699" width="30.1445" height="35.698" filterUnits="userSpaceOnUse" color-interpolation-filters="sRGB">
<feFlood flood-opacity="0" result="BackgroundImageFix"/>
<feBlend mode="normal" in="SourceGraphic" in2="BackgroundImageFix" result="shape"/>
<feGaussianBlur stdDeviation="3" result="effect1_foregroundBlur_4964_4940"/>
</filter>
<filter id="filter6_f_4964_4940" x="92.5586" y="62.1399" width="10.4922" height="11.02" filterUnits="userSpaceOnUse" color-interpolation-filters="sRGB">
<feFlood flood-opacity="0" result="BackgroundImageFix"/>
<feBlend mode="normal" in="SourceGraphic" in2="BackgroundImageFix" result="shape"/>
<feGaussianBlur stdDeviation="0.5" result="effect1_foregroundBlur_4964_4940"/>
</filter>
<filter id="filter7_f_4964_4940" x="51.0195" y="56.2673" width="33.0469" height="26.1873" filterUnits="userSpaceOnUse" color-interpolation-filters="sRGB">
<feFlood flood-opacity="0" result="BackgroundImageFix"/>
<feBlend mode="normal" in="SourceGraphic" in2="BackgroundImageFix" result="shape"/>
<feGaussianBlur stdDeviation="2" result="effect1_foregroundBlur_4964_4940"/>
</filter>
<filter id="filter8_biiii_4964_4940" x="51.0195" y="52.1846" width="33.0469" height="26.1873" filterUnits="userSpaceOnUse" color-interpolation-filters="sRGB">
<feFlood flood-opacity="0" result="BackgroundImageFix"/>
<feGaussianBlur in="BackgroundImageFix" stdDeviation="2"/>
<feComposite in2="SourceAlpha" operator="in" result="effect1_backgroundBlur_4964_4940"/>
<feBlend mode="normal" in="SourceGraphic" in2="effect1_backgroundBlur_4964_4940" result="shape"/>
<feColorMatrix in="SourceAlpha" type="matrix" values="0 0 0 0 0 0 0 0 0 0 0 0 0 0 0 0 0 0 127 0" result="hardAlpha"/>
<feOffset dy="1"/>
<feGaussianBlur stdDeviation="2"/>
<feComposite in2="hardAlpha" operator="arithmetic" k2="-1" k3="1"/>
<feColorMatrix type="matrix" values="0 0 0 0 1 0 0 0 0 1 0 0 0 0 1 0 0 0 0.3 0"/>
<feBlend mode="normal" in2="shape" result="effect2_innerShadow_4964_4940"/>
<feColorMatrix in="SourceAlpha" type="matrix" values="0 0 0 0 0 0 0 0 0 0 0 0 0 0 0 0 0 0 127 0" result="hardAlpha"/>
<feOffset dy="-1"/>
<feGaussianBlur stdDeviation="2"/>
<feComposite in2="hardAlpha" operator="arithmetic" k2="-1" k3="1"/>
<feColorMatrix type="matrix" values="0 0 0 0 1 0 0 0 0 1 0 0 0 0 1 0 0 0 0.5 0"/>
<feBlend mode="normal" in2="effect2_innerShadow_4964_4940" result="effect3_innerShadow_4964_4940"/>
<feColorMatrix in="SourceAlpha" type="matrix" values="0 0 0 0 0 0 0 0 0 0 0 0 0 0 0 0 0 0 127 0" result="hardAlpha"/>
<feOffset dy="1"/>
<feGaussianBlur stdDeviation="22"/>
<feComposite in2="hardAlpha" operator="arithmetic" k2="-1" k3="1"/>
<feColorMatrix type="matrix" values="0 0 0 0 1 0 0 0 0 1 0 0 0 0 1 0 0 0 0.45 0"/>
<feBlend mode="normal" in2="effect3_innerShadow_4964_4940" result="effect4_innerShadow_4964_4940"/>
<feColorMatrix in="SourceAlpha" type="matrix" values="0 0 0 0 0 0 0 0 0 0 0 0 0 0 0 0 0 0 127 0" result="hardAlpha"/>
<feOffset dx="1" dy="1"/>
<feGaussianBlur stdDeviation="1"/>
<feComposite in2="hardAlpha" operator="arithmetic" k2="-1" k3="1"/>
<feColorMatrix type="matrix" values="0 0 0 0 1 0 0 0 0 1 0 0 0 0 1 0 0 0 1 0"/>
<feBlend mode="normal" in2="effect4_innerShadow_4964_4940" result="effect5_innerShadow_4964_4940"/>
</filter>
<filter id="filter9_biii_4964_4940" x="34.125" y="32.125" width="59.75" height="64.75" filterUnits="userSpaceOnUse" color-interpolation-filters="sRGB">
<feFlood flood-opacity="0" result="BackgroundImageFix"/>
<feGaussianBlur in="BackgroundImageFix" stdDeviation="2"/>
<feComposite in2="SourceAlpha" operator="in" result="effect1_backgroundBlur_4964_4940"/>
<feBlend mode="normal" in="SourceGraphic" in2="effect1_backgroundBlur_4964_4940" result="shape"/>
<feColorMatrix in="SourceAlpha" type="matrix" values="0 0 0 0 0 0 0 0 0 0 0 0 0 0 0 0 0 0 127 0" result="hardAlpha"/>
<feOffset dy="1"/>
<feGaussianBlur stdDeviation="2"/>
<feComposite in2="hardAlpha" operator="arithmetic" k2="-1" k3="1"/>
<feColorMatrix type="matrix" values="0 0 0 0 1 0 0 0 0 1 0 0 0 0 1 0 0 0 0.3 0"/>
<feBlend mode="normal" in2="shape" result="effect2_innerShadow_4964_4940"/>
<feColorMatrix in="SourceAlpha" type="matrix" values="0 0 0 0 0 0 0 0 0 0 0 0 0 0 0 0 0 0 127 0" result="hardAlpha"/>
<feOffset dy="-1"/>
<feGaussianBlur stdDeviation="2"/>
<feComposite in2="hardAlpha" operator="arithmetic" k2="-1" k3="1"/>
<feColorMatrix type="matrix" values="0 0 0 0 1 0 0 0 0 1 0 0 0 0 1 0 0 0 0.5 0"/>
<feBlend mode="normal" in2="effect2_innerShadow_4964_4940" result="effect3_innerShadow_4964_4940"/>
<feColorMatrix in="SourceAlpha" type="matrix" values="0 0 0 0 0 0 0 0 0 0 0 0 0 0 0 0 0 0 127 0" result="hardAlpha"/>
<feOffset dy="1"/>
<feGaussianBlur stdDeviation="0.5"/>
<feComposite in2="hardAlpha" operator="arithmetic" k2="-1" k3="1"/>
<feColorMatrix type="matrix" values="0 0 0 0 1 0 0 0 0 1 0 0 0 0 1 0 0 0 0.95 0"/>
<feBlend mode="normal" in2="effect3_innerShadow_4964_4940" result="effect4_innerShadow_4964_4940"/>
</filter>
<filter id="filter10_biii_4964_4940" x="68" y="65" width="28" height="41" filterUnits="userSpaceOnUse" color-interpolation-filters="sRGB">
<feFlood flood-opacity="0" result="BackgroundImageFix"/>
<feGaussianBlur in="BackgroundImageFix" stdDeviation="2"/>
<feComposite in2="SourceAlpha" operator="in" result="effect1_backgroundBlur_4964_4940"/>
<feBlend mode="normal" in="SourceGraphic" in2="effect1_backgroundBlur_4964_4940" result="shape"/>
<feColorMatrix in="SourceAlpha" type="matrix" values="0 0 0 0 0 0 0 0 0 0 0 0 0 0 0 0 0 0 127 0" result="hardAlpha"/>
<feOffset dy="1"/>
<feGaussianBlur stdDeviation="2"/>
<feComposite in2="hardAlpha" operator="arithmetic" k2="-1" k3="1"/>
<feColorMatrix type="matrix" values="0 0 0 0 1 0 0 0 0 1 0 0 0 0 1 0 0 0 0.3 0"/>
<feBlend mode="normal" in2="shape" result="effect2_innerShadow_4964_4940"/>
<feColorMatrix in="SourceAlpha" type="matrix" values="0 0 0 0 0 0 0 0 0 0 0 0 0 0 0 0 0 0 127 0" result="hardAlpha"/>
<feOffset dy="-1"/>
<feGaussianBlur stdDeviation="2"/>
<feComposite in2="hardAlpha" operator="arithmetic" k2="-1" k3="1"/>
<feColorMatrix type="matrix" values="0 0 0 0 1 0 0 0 0 1 0 0 0 0 1 0 0 0 0.5 0"/>
<feBlend mode="normal" in2="effect2_innerShadow_4964_4940" result="effect3_innerShadow_4964_4940"/>
<feColorMatrix in="SourceAlpha" type="matrix" values="0 0 0 0 0 0 0 0 0 0 0 0 0 0 0 0 0 0 127 0" result="hardAlpha"/>
<feOffset dy="1"/>
<feGaussianBlur stdDeviation="0.5"/>
<feComposite in2="hardAlpha" operator="arithmetic" k2="-1" k3="1"/>
<feColorMatrix type="matrix" values="0 0 0 0 1 0 0 0 0 1 0 0 0 0 1 0 0 0 0.95 0"/>
<feBlend mode="normal" in2="effect3_innerShadow_4964_4940" result="effect4_innerShadow_4964_4940"/>
</filter>
<filter id="filter11_biii_4964_4940" x="27.2656" y="48.0029" width="11.7773" height="15.502" filterUnits="userSpaceOnUse" color-interpolation-filters="sRGB">
<feFlood flood-opacity="0" result="BackgroundImageFix"/>
<feGaussianBlur in="BackgroundImageFix" stdDeviation="2"/>
<feComposite in2="SourceAlpha" operator="in" result="effect1_backgroundBlur_4964_4940"/>
<feBlend mode="normal" in="SourceGraphic" in2="effect1_backgroundBlur_4964_4940" result="shape"/>
<feColorMatrix in="SourceAlpha" type="matrix" values="0 0 0 0 0 0 0 0 0 0 0 0 0 0 0 0 0 0 127 0" result="hardAlpha"/>
<feOffset dy="1"/>
<feGaussianBlur stdDeviation="2"/>
<feComposite in2="hardAlpha" operator="arithmetic" k2="-1" k3="1"/>
<feColorMatrix type="matrix" values="0 0 0 0 1 0 0 0 0 1 0 0 0 0 1 0 0 0 0.3 0"/>
<feBlend mode="normal" in2="shape" result="effect2_innerShadow_4964_4940"/>
<feColorMatrix in="SourceAlpha" type="matrix" values="0 0 0 0 0 0 0 0 0 0 0 0 0 0 0 0 0 0 127 0" result="hardAlpha"/>
<feOffset dy="-1"/>
<feGaussianBlur stdDeviation="2"/>
<feComposite in2="hardAlpha" operator="arithmetic" k2="-1" k3="1"/>
<feColorMatrix type="matrix" values="0 0 0 0 1 0 0 0 0 1 0 0 0 0 1 0 0 0 0.5 0"/>
<feBlend mode="normal" in2="effect2_innerShadow_4964_4940" result="effect3_innerShadow_4964_4940"/>
<feColorMatrix in="SourceAlpha" type="matrix" values="0 0 0 0 0 0 0 0 0 0 0 0 0 0 0 0 0 0 127 0" result="hardAlpha"/>
<feOffset dy="-1"/>
<feGaussianBlur stdDeviation="0.5"/>
<feComposite in2="hardAlpha" operator="arithmetic" k2="-1" k3="1"/>
<feColorMatrix type="matrix" values="0 0 0 0 1 0 0 0 0 1 0 0 0 0 1 0 0 0 0.9 0"/>
<feBlend mode="normal" in2="effect3_innerShadow_4964_4940" result="effect4_innerShadow_4964_4940"/>
</filter>
<filter id="filter12_bii_4964_4940" x="25" y="49.5034" width="9.52734" height="12.5012" filterUnits="userSpaceOnUse" color-interpolation-filters="sRGB">
<feFlood flood-opacity="0" result="BackgroundImageFix"/>
<feGaussianBlur in="BackgroundImageFix" stdDeviation="2"/>
<feComposite in2="SourceAlpha" operator="in" result="effect1_backgroundBlur_4964_4940"/>
<feBlend mode="normal" in="SourceGraphic" in2="effect1_backgroundBlur_4964_4940" result="shape"/>
<feColorMatrix in="SourceAlpha" type="matrix" values="0 0 0 0 0 0 0 0 0 0 0 0 0 0 0 0 0 0 127 0" result="hardAlpha"/>
<feOffset dy="-1"/>
<feGaussianBlur stdDeviation="2"/>
<feComposite in2="hardAlpha" operator="arithmetic" k2="-1" k3="1"/>
<feColorMatrix type="matrix" values="0 0 0 0 1 0 0 0 0 1 0 0 0 0 1 0 0 0 0.5 0"/>
<feBlend mode="normal" in2="shape" result="effect2_innerShadow_4964_4940"/>
<feColorMatrix in="SourceAlpha" type="matrix" values="0 0 0 0 0 0 0 0 0 0 0 0 0 0 0 0 0 0 127 0" result="hardAlpha"/>
<feOffset dy="-1"/>
<feComposite in2="hardAlpha" operator="arithmetic" k2="-1" k3="1"/>
<feColorMatrix type="matrix" values="0 0 0 0 1 0 0 0 0 1 0 0 0 0 1 0 0 0 0.6 0"/>
<feBlend mode="normal" in2="effect2_innerShadow_4964_4940" result="effect3_innerShadow_4964_4940"/>
</filter>
<filter id="filter13_biii_4964_4940" x="25" y="36" width="27.6484" height="20.7732" filterUnits="userSpaceOnUse" color-interpolation-filters="sRGB">
<feFlood flood-opacity="0" result="BackgroundImageFix"/>
<feGaussianBlur in="BackgroundImageFix" stdDeviation="2"/>
<feComposite in2="SourceAlpha" operator="in" result="effect1_backgroundBlur_4964_4940"/>
<feBlend mode="normal" in="SourceGraphic" in2="effect1_backgroundBlur_4964_4940" result="shape"/>
<feColorMatrix in="SourceAlpha" type="matrix" values="0 0 0 0 0 0 0 0 0 0 0 0 0 0 0 0 0 0 127 0" result="hardAlpha"/>
<feOffset dy="1"/>
<feGaussianBlur stdDeviation="2"/>
<feComposite in2="hardAlpha" operator="arithmetic" k2="-1" k3="1"/>
<feColorMatrix type="matrix" values="0 0 0 0 1 0 0 0 0 1 0 0 0 0 1 0 0 0 0.3 0"/>
<feBlend mode="normal" in2="shape" result="effect2_innerShadow_4964_4940"/>
<feColorMatrix in="SourceAlpha" type="matrix" values="0 0 0 0 0 0 0 0 0 0 0 0 0 0 0 0 0 0 127 0" result="hardAlpha"/>
<feOffset dy="-1"/>
<feGaussianBlur stdDeviation="2"/>
<feComposite in2="hardAlpha" operator="arithmetic" k2="-1" k3="1"/>
<feColorMatrix type="matrix" values="0 0 0 0 1 0 0 0 0 1 0 0 0 0 1 0 0 0 0.5 0"/>
<feBlend mode="normal" in2="effect2_innerShadow_4964_4940" result="effect3_innerShadow_4964_4940"/>
<feColorMatrix in="SourceAlpha" type="matrix" values="0 0 0 0 0 0 0 0 0 0 0 0 0 0 0 0 0 0 127 0" result="hardAlpha"/>
<feOffset dy="1"/>
<feGaussianBlur stdDeviation="0.5"/>
<feComposite in2="hardAlpha" operator="arithmetic" k2="-1" k3="1"/>
<feColorMatrix type="matrix" values="0 0 0 0 1 0 0 0 0 1 0 0 0 0 1 0 0 0 0.95 0"/>
<feBlend mode="normal" in2="effect3_innerShadow_4964_4940" result="effect4_innerShadow_4964_4940"/>
</filter>
<filter id="filter14_biii_4964_4940" x="38.6016" y="48.0029" width="11.7773" height="15.502" filterUnits="userSpaceOnUse" color-interpolation-filters="sRGB">
<feFlood flood-opacity="0" result="BackgroundImageFix"/>
<feGaussianBlur in="BackgroundImageFix" stdDeviation="2"/>
<feComposite in2="SourceAlpha" operator="in" result="effect1_backgroundBlur_4964_4940"/>
<feBlend mode="normal" in="SourceGraphic" in2="effect1_backgroundBlur_4964_4940" result="shape"/>
<feColorMatrix in="SourceAlpha" type="matrix" values="0 0 0 0 0 0 0 0 0 0 0 0 0 0 0 0 0 0 127 0" result="hardAlpha"/>
<feOffset dy="1"/>
<feGaussianBlur stdDeviation="2"/>
<feComposite in2="hardAlpha" operator="arithmetic" k2="-1" k3="1"/>
<feColorMatrix type="matrix" values="0 0 0 0 1 0 0 0 0 1 0 0 0 0 1 0 0 0 0.3 0"/>
<feBlend mode="normal" in2="shape" result="effect2_innerShadow_4964_4940"/>
<feColorMatrix in="SourceAlpha" type="matrix" values="0 0 0 0 0 0 0 0 0 0 0 0 0 0 0 0 0 0 127 0" result="hardAlpha"/>
<feOffset dy="-1"/>
<feGaussianBlur stdDeviation="2"/>
<feComposite in2="hardAlpha" operator="arithmetic" k2="-1" k3="1"/>
<feColorMatrix type="matrix" values="0 0 0 0 1 0 0 0 0 1 0 0 0 0 1 0 0 0 0.5 0"/>
<feBlend mode="normal" in2="effect2_innerShadow_4964_4940" result="effect3_innerShadow_4964_4940"/>
<feColorMatrix in="SourceAlpha" type="matrix" values="0 0 0 0 0 0 0 0 0 0 0 0 0 0 0 0 0 0 127 0" result="hardAlpha"/>
<feOffset dy="-1"/>
<feGaussianBlur stdDeviation="0.5"/>
<feComposite in2="hardAlpha" operator="arithmetic" k2="-1" k3="1"/>
<feColorMatrix type="matrix" values="0 0 0 0 1 0 0 0 0 1 0 0 0 0 1 0 0 0 0.9 0"/>
<feBlend mode="normal" in2="effect3_innerShadow_4964_4940" result="effect4_innerShadow_4964_4940"/>
</filter>
<filter id="filter15_bii_4964_4940" x="43.1211" y="49.5034" width="9.52734" height="12.5012" filterUnits="userSpaceOnUse" color-interpolation-filters="sRGB">
<feFlood flood-opacity="0" result="BackgroundImageFix"/>
<feGaussianBlur in="BackgroundImageFix" stdDeviation="2"/>
<feComposite in2="SourceAlpha" operator="in" result="effect1_backgroundBlur_4964_4940"/>
<feBlend mode="normal" in="SourceGraphic" in2="effect1_backgroundBlur_4964_4940" result="shape"/>
<feColorMatrix in="SourceAlpha" type="matrix" values="0 0 0 0 0 0 0 0 0 0 0 0 0 0 0 0 0 0 127 0" result="hardAlpha"/>
<feOffset dy="-1"/>
<feGaussianBlur stdDeviation="2"/>
<feComposite in2="hardAlpha" operator="arithmetic" k2="-1" k3="1"/>
<feColorMatrix type="matrix" values="0 0 0 0 1 0 0 0 0 1 0 0 0 0 1 0 0 0 0.5 0"/>
<feBlend mode="normal" in2="shape" result="effect2_innerShadow_4964_4940"/>
<feColorMatrix in="SourceAlpha" type="matrix" values="0 0 0 0 0 0 0 0 0 0 0 0 0 0 0 0 0 0 127 0" result="hardAlpha"/>
<feOffset dy="-1"/>
<feComposite in2="hardAlpha" operator="arithmetic" k2="-1" k3="1"/>
<feColorMatrix type="matrix" values="0 0 0 0 1 0 0 0 0 1 0 0 0 0 1 0 0 0 0.6 0"/>
<feBlend mode="normal" in2="effect2_innerShadow_4964_4940" result="effect3_innerShadow_4964_4940"/>
</filter>
<linearGradient id="paint0_linear_4964_4940" x1="107.231" y1="62.0008" x2="82.6163" y2="76.6673" gradientUnits="userSpaceOnUse">
<stop offset="0.0941878" stop-color="#FFE5DC"/>
<stop offset="0.230705" stop-color="#FFFFE7" stop-opacity="0"/>
</linearGradient>
<linearGradient id="paint1_linear_4964_4940" x1="101.23" y1="69.3274" x2="81.6528" y2="66.0258" gradientUnits="userSpaceOnUse">
<stop stop-color="#FFFFE6"/>
<stop offset="0.360807" stop-color="#D5FFFF"/>
<stop offset="0.977083" stop-color="#D5FFFF" stop-opacity="0"/>
</linearGradient>
<linearGradient id="paint2_linear_4964_4940" x1="101.965" y1="72.4707" x2="82.8059" y2="83.9986" gradientUnits="userSpaceOnUse">
<stop offset="0.0153056" stop-color="#D4FFE7"/>
<stop offset="0.312156" stop-color="#D5FFFF" stop-opacity="0"/>
</linearGradient>
<clipPath id="clip0_4964_4940">
<rect width="133" height="133" fill="white"/>
</clipPath>
</defs>
</svg>
