<svg width="133" height="133" viewBox="0 0 133 133" fill="none" xmlns="http://www.w3.org/2000/svg">
<g clip-path="url(#clip0_4972_4208)">
<g filter="url(#filter0_f_4972_4208)">
<rect x="21" y="24" width="82" height="82" rx="30.0488" fill="white"/>
</g>
<path d="M55.4035 69.392C48.8919 68.5983 44.2567 62.6762 45.0504 56.1646C45.8441 49.653 51.7662 45.0178 58.2778 45.8115L76.6863 48.0553C83.1978 48.849 87.8331 54.7711 87.0394 61.2827C86.2457 67.7942 80.3236 72.4295 73.812 71.6358L55.4035 69.392Z" fill="#F84031"/>
<path d="M52.7237 60.9178C46.7214 58.1082 44.1331 50.9647 46.9427 44.9623L51.712 34.7734C54.5216 28.7711 61.6651 26.1828 67.6675 28.9924L84.2415 36.7504C90.2439 39.5601 92.8321 46.7036 90.0225 52.706L85.2532 62.8948C82.4436 68.8972 75.3001 71.4855 69.2977 68.6758L52.7237 60.9178Z" fill="#2329D6"/>
<g filter="url(#filter1_biiii_4972_4208)">
<path d="M46 89C39.3726 89 34 83.6274 34 77L34 51C34 44.3726 39.3726 39 46 39L82 39C88.6274 39 94 44.3726 94 51L94 77C94 83.6274 88.6274 89 82 89L46 89Z" fill="#8C8FE9"/>
</g>
<g filter="url(#filter2_f_4972_4208)">
<path d="M75.9844 70.0207C76.7273 73.4799 79.6895 75.9137 83.0715 75.8504H98.2405C99.6476 75.8504 100.789 74.6572 100.789 73.1824V63.9758C100.786 62.5042 99.6476 61.3079 98.2405 61.3047H82.7998C78.9527 61.3173 75.8455 64.5866 75.8516 68.6155C75.8516 69.0871 75.8969 69.5586 75.9844 70.0207Z" fill="#A9CFFF"/>
</g>
<g filter="url(#filter3_biii_4972_4208)">
<path d="M75.9844 67.9426C76.7273 71.4018 79.6895 73.8355 83.0715 73.7722H98.2405C99.6476 73.7722 100.789 72.5791 100.789 71.1043V61.8977C100.786 60.426 99.6476 59.2297 98.2405 59.2266H82.7998C78.9527 59.2392 75.8455 62.5085 75.8516 66.5374C75.8516 67.0089 75.8969 67.4805 75.9844 67.9426Z" fill="white" fill-opacity="0.2"/>
</g>
<g filter="url(#filter4_f_4972_4208)">
<circle cx="82.0859" cy="67.5391" r="3.11719" fill="#A9CFFF"/>
</g>
<g filter="url(#filter5_biii_4972_4208)">
<circle cx="82.0859" cy="66.5" r="3.11719" fill="white" fill-opacity="0.2"/>
</g>
<g filter="url(#filter6_f_4972_4208)">
<path d="M68.6747 61.3047H46.6196C44.9685 61.2974 43.6337 59.8963 43.6407 58.1767C43.6476 56.4642 44.9789 55.0776 46.6196 55.0703H68.6886C70.3397 55.0631 71.6883 56.4533 71.6953 58.173C71.7022 59.8963 70.3675 61.2974 68.7164 61.3047H68.6886H68.6747Z" fill="#A9CFFF"/>
</g>
<g filter="url(#filter7_biii_4972_4208)">
<path d="M68.6747 59.2266H46.6196C44.9685 59.2193 43.6337 57.8182 43.6407 56.0985C43.6476 54.3861 44.9789 52.9995 46.6196 52.9922H68.6886C70.3397 52.985 71.6883 54.3752 71.6953 56.0949C71.7022 57.8182 70.3675 59.2193 68.7164 59.2266H68.6886H68.6747Z" fill="white" fill-opacity="0.2"/>
</g>
<g filter="url(#filter8_f_4972_4208)">
<path d="M44.8491 72.2644C39.841 74.8466 33.8231 72.8133 31.4076 67.7227L24.2258 52.5877C21.8103 47.4971 23.9119 41.2771 28.92 38.6949C33.928 36.1127 39.9459 38.146 42.3614 43.2366L49.5432 58.3716C51.9587 63.4622 49.8571 69.6822 44.8491 72.2644Z" fill="#FFE4DB"/>
</g>
<g filter="url(#filter9_f_4972_4208)">
<path d="M48.4773 67.7879C46.4037 68.8571 43.9118 68.0151 42.9117 65.9073L30.6045 39.9709C29.6044 37.8631 30.4746 35.2876 32.5482 34.2184C34.6219 33.1492 37.1137 33.9911 38.1139 36.099L50.421 62.0353C51.4212 64.1432 50.551 66.7187 48.4773 67.7879Z" fill="#FFFFE7"/>
</g>
<path d="M45.0815 75.3393L44.5575 74.8155C44.3537 74.6118 44.2373 74.3354 44.2373 74.0451V73.295C44.2373 72.0874 43.2548 71.106 42.0467 71.106H41.2971C41.006 71.106 40.7294 70.9888 40.5256 70.7851L39.9943 70.2548C39.1356 69.4036 37.7455 69.4036 36.894 70.2613L36.37 70.7851C36.1662 70.9888 35.8897 71.106 35.5986 71.106H34.849C33.6409 71.106 32.6584 72.0874 32.6584 73.295V74.0371C32.6584 74.3354 32.5419 74.6118 32.3381 74.8155L31.8069 75.3473C30.9554 76.2051 30.9627 77.5954 31.8141 78.4458L32.3381 78.9624C32.5419 79.1733 32.6584 79.4498 32.6584 79.7415V80.4901C32.6584 81.6978 33.6409 82.6807 34.849 82.6807H35.5986C35.8897 82.6807 36.1662 82.7963 36.37 83L36.9013 83.5319C37.3307 83.9538 37.8911 84.1641 38.4515 84.1641C39.0119 84.1641 39.5722 83.9538 40.0016 83.5239L40.5256 83C40.7294 82.7963 41.006 82.6807 41.2971 82.6807H42.0467C43.2548 82.6807 44.2373 81.6978 44.2373 80.4901V79.7415C44.2373 79.4498 44.3537 79.1733 44.5575 78.9696L45.0742 78.4531C45.0815 78.4458 45.0888 78.4393 45.0961 78.4313C45.5036 78.0173 45.7292 77.4637 45.7219 76.8817C45.7219 76.2997 45.4963 75.7468 45.0815 75.3393Z" fill="#E9E74C"/>
<g filter="url(#filter10_biii_4972_4208)">
<path d="M47.921 74.6726L47.1726 73.9245C46.8815 73.6336 46.7152 73.2387 46.7152 72.8241V71.7529C46.7152 70.028 45.312 68.6263 43.5865 68.6263H42.5159C42.1001 68.6263 41.7051 68.459 41.4141 68.1681L40.6553 67.4106C39.4288 66.1949 37.4434 66.1949 36.2273 67.42L35.4789 68.1681C35.1879 68.459 34.7929 68.6263 34.3771 68.6263H33.3065C31.581 68.6263 30.1778 70.028 30.1778 71.7529V72.8127C30.1778 73.2387 30.0114 73.6336 29.7204 73.9245L28.9616 74.684C27.7455 75.9091 27.7559 77.8948 28.972 79.1094L29.7204 79.8472C30.0114 80.1485 30.1778 80.5433 30.1778 80.96V82.0292C30.1778 83.754 31.581 85.1578 33.3065 85.1578H34.3771C34.7929 85.1578 35.1879 85.323 35.4789 85.6139L36.2377 86.3735C36.851 86.9762 37.6513 87.2764 38.4517 87.2764C39.2521 87.2764 40.0524 86.9762 40.6657 86.3621L41.4141 85.6139C41.7051 85.323 42.1001 85.1578 42.5159 85.1578H43.5865C45.312 85.1578 46.7152 83.754 46.7152 82.0292V80.96C46.7152 80.5433 46.8815 80.1485 47.1726 79.8575L47.9106 79.1198C47.921 79.1094 47.9314 79.1001 47.9418 79.0886C48.5239 78.4974 48.8461 77.7067 48.8357 76.8754C48.8357 76.0442 48.5135 75.2545 47.921 74.6726Z" fill="white" fill-opacity="0.2"/>
</g>
<rect x="84.875" y="36.875" width="6.25" height="6.25" stroke="#050121" stroke-width="3.75" stroke-dasharray="3.75 3.75"/>
<mask id="mask0_4972_4208" style="mask-type:alpha" maskUnits="userSpaceOnUse" x="58" y="70" width="37" height="20">
<path d="M91.5 84C95 78.5 94.5 71.5 94.5 71.5L58.5 70V89C58.5 89 88 89.5 91.5 84Z" fill="#050121"/>
</mask>
<g mask="url(#mask0_4972_4208)">
<path d="M98 97C98 108.046 89.0457 117 78 117C66.9543 117 58 108.046 58 97C58 85.9543 66.9543 77 78 77C89.0457 77 98 85.9543 98 97Z" stroke="white" stroke-width="1.75" stroke-linecap="round" stroke-linejoin="round" stroke-dasharray="3.5 3.5"/>
</g>
<path d="M54.7823 88.3423C54.7677 88.3269 54.7525 88.312 54.7366 88.2977L46.2459 80.6049C46.2389 80.5988 46.2318 80.5924 46.2246 80.5864C45.4925 79.9679 44.4974 79.8346 43.6281 80.2382C42.7588 80.6419 42.2188 81.4882 42.2188 82.4466V94.4589C42.2188 95.1327 42.4799 95.7669 42.9539 96.2446C43.4104 96.7046 44.0281 96.9708 44.6483 96.9749H44.6618C45.2167 96.9749 45.9664 96.7502 46.422 96.1179C46.4344 96.1008 46.4461 96.0831 46.4572 96.0648L47.1593 94.9092L49.2399 99.3907C49.2413 99.3939 49.2428 99.397 49.2442 99.4001C49.6639 100.274 50.5473 100.789 51.4635 100.789C51.8065 100.789 52.1542 100.717 52.4836 100.565C53.0855 100.286 53.5399 99.7888 53.763 99.1641C53.986 98.5395 53.9496 97.8669 53.6612 97.2719L52.5272 94.9182C52.3327 94.5144 51.8475 94.3447 51.4437 94.5393C51.0399 94.7338 50.8703 95.2188 51.0648 95.6228L52.1997 97.9784C52.2973 98.1799 52.3097 98.4071 52.2342 98.6183C52.1589 98.8291 52.0055 98.9972 51.802 99.0912C51.3947 99.2797 50.9056 99.105 50.7096 98.7016L48.1737 93.2392L48.6409 92.4702H53.0712C53.0814 92.4702 53.0915 92.4701 53.1015 92.4697C54.0655 92.4338 54.8931 91.8527 55.2614 90.9534C55.6319 90.0492 55.4482 89.0486 54.7823 88.3423ZM53.7593 90.3382C53.7127 90.4522 53.5247 90.8231 53.0538 90.847H48.1843C47.9008 90.847 47.6378 90.9951 47.4906 91.2374L45.0923 95.1849C45.01 95.2807 44.825 95.3534 44.659 95.3515C44.2726 95.349 43.842 94.9818 43.842 94.4587V82.4466C43.842 81.9659 44.2016 81.7617 44.3117 81.7105C44.3688 81.684 44.5006 81.6328 44.6653 81.6328C44.8159 81.6328 44.994 81.6756 45.1681 81.8188L53.6195 89.4759C53.9325 89.8274 53.8063 90.2236 53.7593 90.3382Z" fill="#2329D6"/>
<path d="M0 0L133 133" stroke="white" stroke-opacity="0.2" stroke-linecap="square"/>
<path d="M133 0L0 133" stroke="white" stroke-opacity="0.2" stroke-linecap="square"/>
<path d="M0 66.5H133" stroke="white" stroke-opacity="0.2" stroke-linecap="square"/>
<path d="M66.502 0V133" stroke="white" stroke-opacity="0.2" stroke-linecap="square"/>
<path fill-rule="evenodd" clip-rule="evenodd" d="M8.70312 8.70215V124.298H124.299V8.70215H8.70312Z" stroke="white" stroke-opacity="0.2" stroke-linecap="square"/>
<path d="M12.7831 28.2165C11.8757 27.3402 11.152 26.2919 10.6541 25.1329C10.1562 23.9738 9.89413 22.7273 9.88317 21.4658C9.87221 20.2044 10.1126 18.9535 10.5902 17.786C11.0679 16.6185 11.7733 15.5578 12.6653 14.6658C13.5573 13.7738 14.618 13.0684 15.7855 12.5907C16.953 12.1131 18.204 11.8727 19.4654 11.8837C20.7268 11.8946 21.9734 12.1567 23.1324 12.6546C24.2914 13.1525 25.3397 13.8762 26.2161 14.7835C27.9466 16.5753 28.9041 18.975 28.8825 21.4658C28.8608 23.9567 27.8617 26.3394 26.1003 28.1008C24.3389 29.8622 21.9562 30.8613 19.4654 30.8829C16.9745 30.9046 14.5748 29.947 12.7831 28.2165ZM24.8766 26.877C26.3026 25.451 27.1038 23.5168 27.1038 21.5C27.1038 19.4833 26.3026 17.5491 24.8766 16.123C23.4505 14.697 21.5163 13.8958 19.4995 13.8958C17.4828 13.8958 15.5486 14.697 14.1226 16.123C12.6965 17.5491 11.8953 19.4833 11.8953 21.5C11.8953 23.5168 12.6965 25.451 14.1226 26.877C15.5486 28.3031 17.4828 29.1043 19.4995 29.1043C21.5163 29.1043 23.4505 28.3031 24.8766 26.877ZM18.5496 16.75H20.4496V22.45H18.5496V16.75ZM18.5496 24.35H20.4496V26.25H18.5496V24.35Z" stroke="white" stroke-opacity="0.2" stroke-linecap="square"/>
<path d="M41.4316 0V133" stroke="white" stroke-opacity="0.2" stroke-linecap="square"/>
<path d="M91.5684 0V133" stroke="white" stroke-opacity="0.2" stroke-linecap="square"/>
<path d="M133 41.4326H0" stroke="white" stroke-opacity="0.2" stroke-linecap="square"/>
<path d="M133 91.5674H0" stroke="white" stroke-opacity="0.2" stroke-linecap="square"/>
<circle cx="66.498" cy="66.5" r="57.4277" stroke="white" stroke-opacity="0.2" stroke-linecap="square"/>
<circle cx="66.502" cy="66.5" r="24.6973" stroke="white" stroke-opacity="0.2" stroke-linecap="square"/>
<circle cx="66.502" cy="66.5" r="35.0879" stroke="white" stroke-opacity="0.2" stroke-linecap="square"/>
</g>
<defs>
<filter id="filter0_f_4972_4208" x="-46.6097" y="-43.6097" width="217.219" height="217.219" filterUnits="userSpaceOnUse" color-interpolation-filters="sRGB">
<feFlood flood-opacity="0" result="BackgroundImageFix"/>
<feBlend mode="normal" in="SourceGraphic" in2="BackgroundImageFix" result="shape"/>
<feGaussianBlur stdDeviation="33.8049" result="effect1_foregroundBlur_4972_4208"/>
</filter>
<filter id="filter1_biiii_4972_4208" x="30" y="35" width="68" height="58" filterUnits="userSpaceOnUse" color-interpolation-filters="sRGB">
<feFlood flood-opacity="0" result="BackgroundImageFix"/>
<feGaussianBlur in="BackgroundImageFix" stdDeviation="2"/>
<feComposite in2="SourceAlpha" operator="in" result="effect1_backgroundBlur_4972_4208"/>
<feBlend mode="normal" in="SourceGraphic" in2="effect1_backgroundBlur_4972_4208" result="shape"/>
<feColorMatrix in="SourceAlpha" type="matrix" values="0 0 0 0 0 0 0 0 0 0 0 0 0 0 0 0 0 0 127 0" result="hardAlpha"/>
<feOffset dy="1"/>
<feGaussianBlur stdDeviation="2"/>
<feComposite in2="hardAlpha" operator="arithmetic" k2="-1" k3="1"/>
<feColorMatrix type="matrix" values="0 0 0 0 1 0 0 0 0 1 0 0 0 0 1 0 0 0 0.3 0"/>
<feBlend mode="normal" in2="shape" result="effect2_innerShadow_4972_4208"/>
<feColorMatrix in="SourceAlpha" type="matrix" values="0 0 0 0 0 0 0 0 0 0 0 0 0 0 0 0 0 0 127 0" result="hardAlpha"/>
<feOffset dy="-1"/>
<feGaussianBlur stdDeviation="2"/>
<feComposite in2="hardAlpha" operator="arithmetic" k2="-1" k3="1"/>
<feColorMatrix type="matrix" values="0 0 0 0 1 0 0 0 0 1 0 0 0 0 1 0 0 0 0.5 0"/>
<feBlend mode="normal" in2="effect2_innerShadow_4972_4208" result="effect3_innerShadow_4972_4208"/>
<feColorMatrix in="SourceAlpha" type="matrix" values="0 0 0 0 0 0 0 0 0 0 0 0 0 0 0 0 0 0 127 0" result="hardAlpha"/>
<feOffset dy="1"/>
<feGaussianBlur stdDeviation="22"/>
<feComposite in2="hardAlpha" operator="arithmetic" k2="-1" k3="1"/>
<feColorMatrix type="matrix" values="0 0 0 0 1 0 0 0 0 1 0 0 0 0 1 0 0 0 0.45 0"/>
<feBlend mode="normal" in2="effect3_innerShadow_4972_4208" result="effect4_innerShadow_4972_4208"/>
<feColorMatrix in="SourceAlpha" type="matrix" values="0 0 0 0 0 0 0 0 0 0 0 0 0 0 0 0 0 0 127 0" result="hardAlpha"/>
<feOffset dx="1" dy="1"/>
<feGaussianBlur stdDeviation="1"/>
<feComposite in2="hardAlpha" operator="arithmetic" k2="-1" k3="1"/>
<feColorMatrix type="matrix" values="0 0 0 0 1 0 0 0 0 1 0 0 0 0 1 0 0 0 1 0"/>
<feBlend mode="normal" in2="effect4_innerShadow_4972_4208" result="effect5_innerShadow_4972_4208"/>
</filter>
<filter id="filter2_f_4972_4208" x="71.8516" y="57.3047" width="32.9375" height="22.5469" filterUnits="userSpaceOnUse" color-interpolation-filters="sRGB">
<feFlood flood-opacity="0" result="BackgroundImageFix"/>
<feBlend mode="normal" in="SourceGraphic" in2="BackgroundImageFix" result="shape"/>
<feGaussianBlur stdDeviation="2" result="effect1_foregroundBlur_4972_4208"/>
</filter>
<filter id="filter3_biii_4972_4208" x="70.8354" y="54.2104" width="34.9698" height="24.5792" filterUnits="userSpaceOnUse" color-interpolation-filters="sRGB">
<feFlood flood-opacity="0" result="BackgroundImageFix"/>
<feGaussianBlur in="BackgroundImageFix" stdDeviation="2.50808"/>
<feComposite in2="SourceAlpha" operator="in" result="effect1_backgroundBlur_4972_4208"/>
<feBlend mode="normal" in="SourceGraphic" in2="effect1_backgroundBlur_4972_4208" result="shape"/>
<feColorMatrix in="SourceAlpha" type="matrix" values="0 0 0 0 0 0 0 0 0 0 0 0 0 0 0 0 0 0 127 0" result="hardAlpha"/>
<feOffset dy="1.25404"/>
<feGaussianBlur stdDeviation="2.50808"/>
<feComposite in2="hardAlpha" operator="arithmetic" k2="-1" k3="1"/>
<feColorMatrix type="matrix" values="0 0 0 0 1 0 0 0 0 1 0 0 0 0 1 0 0 0 0.3 0"/>
<feBlend mode="normal" in2="shape" result="effect2_innerShadow_4972_4208"/>
<feColorMatrix in="SourceAlpha" type="matrix" values="0 0 0 0 0 0 0 0 0 0 0 0 0 0 0 0 0 0 127 0" result="hardAlpha"/>
<feOffset dy="-1.25404"/>
<feGaussianBlur stdDeviation="2.50808"/>
<feComposite in2="hardAlpha" operator="arithmetic" k2="-1" k3="1"/>
<feColorMatrix type="matrix" values="0 0 0 0 1 0 0 0 0 1 0 0 0 0 1 0 0 0 0.5 0"/>
<feBlend mode="normal" in2="effect2_innerShadow_4972_4208" result="effect3_innerShadow_4972_4208"/>
<feColorMatrix in="SourceAlpha" type="matrix" values="0 0 0 0 0 0 0 0 0 0 0 0 0 0 0 0 0 0 127 0" result="hardAlpha"/>
<feOffset dy="1.25404"/>
<feGaussianBlur stdDeviation="0.627019"/>
<feComposite in2="hardAlpha" operator="arithmetic" k2="-1" k3="1"/>
<feColorMatrix type="matrix" values="0 0 0 0 1 0 0 0 0 1 0 0 0 0 1 0 0 0 0.95 0"/>
<feBlend mode="normal" in2="effect3_innerShadow_4972_4208" result="effect4_innerShadow_4972_4208"/>
</filter>
<filter id="filter4_f_4972_4208" x="74.9688" y="60.4219" width="14.2344" height="14.2344" filterUnits="userSpaceOnUse" color-interpolation-filters="sRGB">
<feFlood flood-opacity="0" result="BackgroundImageFix"/>
<feBlend mode="normal" in="SourceGraphic" in2="BackgroundImageFix" result="shape"/>
<feGaussianBlur stdDeviation="2" result="effect1_foregroundBlur_4972_4208"/>
</filter>
<filter id="filter5_biii_4972_4208" x="73.9526" y="58.3667" width="16.2667" height="16.2667" filterUnits="userSpaceOnUse" color-interpolation-filters="sRGB">
<feFlood flood-opacity="0" result="BackgroundImageFix"/>
<feGaussianBlur in="BackgroundImageFix" stdDeviation="2.50808"/>
<feComposite in2="SourceAlpha" operator="in" result="effect1_backgroundBlur_4972_4208"/>
<feBlend mode="normal" in="SourceGraphic" in2="effect1_backgroundBlur_4972_4208" result="shape"/>
<feColorMatrix in="SourceAlpha" type="matrix" values="0 0 0 0 0 0 0 0 0 0 0 0 0 0 0 0 0 0 127 0" result="hardAlpha"/>
<feOffset dy="1.25404"/>
<feGaussianBlur stdDeviation="2.50808"/>
<feComposite in2="hardAlpha" operator="arithmetic" k2="-1" k3="1"/>
<feColorMatrix type="matrix" values="0 0 0 0 1 0 0 0 0 1 0 0 0 0 1 0 0 0 0.3 0"/>
<feBlend mode="normal" in2="shape" result="effect2_innerShadow_4972_4208"/>
<feColorMatrix in="SourceAlpha" type="matrix" values="0 0 0 0 0 0 0 0 0 0 0 0 0 0 0 0 0 0 127 0" result="hardAlpha"/>
<feOffset dy="-1.25404"/>
<feGaussianBlur stdDeviation="2.50808"/>
<feComposite in2="hardAlpha" operator="arithmetic" k2="-1" k3="1"/>
<feColorMatrix type="matrix" values="0 0 0 0 1 0 0 0 0 1 0 0 0 0 1 0 0 0 0.5 0"/>
<feBlend mode="normal" in2="effect2_innerShadow_4972_4208" result="effect3_innerShadow_4972_4208"/>
<feColorMatrix in="SourceAlpha" type="matrix" values="0 0 0 0 0 0 0 0 0 0 0 0 0 0 0 0 0 0 127 0" result="hardAlpha"/>
<feOffset dy="1.25404"/>
<feGaussianBlur stdDeviation="0.627019"/>
<feComposite in2="hardAlpha" operator="arithmetic" k2="-1" k3="1"/>
<feColorMatrix type="matrix" values="0 0 0 0 1 0 0 0 0 1 0 0 0 0 1 0 0 0 0.95 0"/>
<feBlend mode="normal" in2="effect3_innerShadow_4972_4208" result="effect4_innerShadow_4972_4208"/>
</filter>
<filter id="filter6_f_4972_4208" x="39.6406" y="51.0703" width="36.0547" height="14.2344" filterUnits="userSpaceOnUse" color-interpolation-filters="sRGB">
<feFlood flood-opacity="0" result="BackgroundImageFix"/>
<feBlend mode="normal" in="SourceGraphic" in2="BackgroundImageFix" result="shape"/>
<feGaussianBlur stdDeviation="2" result="effect1_foregroundBlur_4972_4208"/>
</filter>
<filter id="filter7_biii_4972_4208" x="38.6245" y="47.976" width="38.087" height="16.2667" filterUnits="userSpaceOnUse" color-interpolation-filters="sRGB">
<feFlood flood-opacity="0" result="BackgroundImageFix"/>
<feGaussianBlur in="BackgroundImageFix" stdDeviation="2.50808"/>
<feComposite in2="SourceAlpha" operator="in" result="effect1_backgroundBlur_4972_4208"/>
<feBlend mode="normal" in="SourceGraphic" in2="effect1_backgroundBlur_4972_4208" result="shape"/>
<feColorMatrix in="SourceAlpha" type="matrix" values="0 0 0 0 0 0 0 0 0 0 0 0 0 0 0 0 0 0 127 0" result="hardAlpha"/>
<feOffset dy="1.25404"/>
<feGaussianBlur stdDeviation="2.50808"/>
<feComposite in2="hardAlpha" operator="arithmetic" k2="-1" k3="1"/>
<feColorMatrix type="matrix" values="0 0 0 0 1 0 0 0 0 1 0 0 0 0 1 0 0 0 0.3 0"/>
<feBlend mode="normal" in2="shape" result="effect2_innerShadow_4972_4208"/>
<feColorMatrix in="SourceAlpha" type="matrix" values="0 0 0 0 0 0 0 0 0 0 0 0 0 0 0 0 0 0 127 0" result="hardAlpha"/>
<feOffset dy="-1.25404"/>
<feGaussianBlur stdDeviation="2.50808"/>
<feComposite in2="hardAlpha" operator="arithmetic" k2="-1" k3="1"/>
<feColorMatrix type="matrix" values="0 0 0 0 1 0 0 0 0 1 0 0 0 0 1 0 0 0 0.5 0"/>
<feBlend mode="normal" in2="effect2_innerShadow_4972_4208" result="effect3_innerShadow_4972_4208"/>
<feColorMatrix in="SourceAlpha" type="matrix" values="0 0 0 0 0 0 0 0 0 0 0 0 0 0 0 0 0 0 127 0" result="hardAlpha"/>
<feOffset dy="1.25404"/>
<feGaussianBlur stdDeviation="0.627019"/>
<feComposite in2="hardAlpha" operator="arithmetic" k2="-1" k3="1"/>
<feColorMatrix type="matrix" values="0 0 0 0 1 0 0 0 0 1 0 0 0 0 1 0 0 0 0.95 0"/>
<feBlend mode="normal" in2="effect3_innerShadow_4972_4208" result="effect4_innerShadow_4972_4208"/>
</filter>
<filter id="filter8_f_4972_4208" x="13.2227" y="27.5747" width="47.3242" height="55.8101" filterUnits="userSpaceOnUse" color-interpolation-filters="sRGB">
<feFlood flood-opacity="0" result="BackgroundImageFix"/>
<feBlend mode="normal" in="SourceGraphic" in2="BackgroundImageFix" result="shape"/>
<feGaussianBlur stdDeviation="5" result="effect1_foregroundBlur_4972_4208"/>
</filter>
<filter id="filter9_f_4972_4208" x="20.1914" y="23.7546" width="40.6445" height="54.4971" filterUnits="userSpaceOnUse" color-interpolation-filters="sRGB">
<feFlood flood-opacity="0" result="BackgroundImageFix"/>
<feBlend mode="normal" in="SourceGraphic" in2="BackgroundImageFix" result="shape"/>
<feGaussianBlur stdDeviation="5" result="effect1_foregroundBlur_4972_4208"/>
</filter>
<filter id="filter10_biii_4972_4208" x="26.8166" y="65.2619" width="23.2575" height="23.2526" filterUnits="userSpaceOnUse" color-interpolation-filters="sRGB">
<feFlood flood-opacity="0" result="BackgroundImageFix"/>
<feGaussianBlur in="BackgroundImageFix" stdDeviation="0.619053"/>
<feComposite in2="SourceAlpha" operator="in" result="effect1_backgroundBlur_4972_4208"/>
<feBlend mode="normal" in="SourceGraphic" in2="effect1_backgroundBlur_4972_4208" result="shape"/>
<feColorMatrix in="SourceAlpha" type="matrix" values="0 0 0 0 0 0 0 0 0 0 0 0 0 0 0 0 0 0 127 0" result="hardAlpha"/>
<feOffset dy="0.309527"/>
<feGaussianBlur stdDeviation="0.619053"/>
<feComposite in2="hardAlpha" operator="arithmetic" k2="-1" k3="1"/>
<feColorMatrix type="matrix" values="0 0 0 0 1 0 0 0 0 1 0 0 0 0 1 0 0 0 0.3 0"/>
<feBlend mode="normal" in2="shape" result="effect2_innerShadow_4972_4208"/>
<feColorMatrix in="SourceAlpha" type="matrix" values="0 0 0 0 0 0 0 0 0 0 0 0 0 0 0 0 0 0 127 0" result="hardAlpha"/>
<feOffset dy="-0.309527"/>
<feGaussianBlur stdDeviation="0.619053"/>
<feComposite in2="hardAlpha" operator="arithmetic" k2="-1" k3="1"/>
<feColorMatrix type="matrix" values="0 0 0 0 1 0 0 0 0 1 0 0 0 0 1 0 0 0 0.5 0"/>
<feBlend mode="normal" in2="effect2_innerShadow_4972_4208" result="effect3_innerShadow_4972_4208"/>
<feColorMatrix in="SourceAlpha" type="matrix" values="0 0 0 0 0 0 0 0 0 0 0 0 0 0 0 0 0 0 127 0" result="hardAlpha"/>
<feOffset dy="0.309527"/>
<feGaussianBlur stdDeviation="0.154763"/>
<feComposite in2="hardAlpha" operator="arithmetic" k2="-1" k3="1"/>
<feColorMatrix type="matrix" values="0 0 0 0 1 0 0 0 0 1 0 0 0 0 1 0 0 0 0.95 0"/>
<feBlend mode="normal" in2="effect3_innerShadow_4972_4208" result="effect4_innerShadow_4972_4208"/>
</filter>
<clipPath id="clip0_4972_4208">
<rect width="133" height="133" fill="white"/>
</clipPath>
</defs>
</svg>
