<svg width="133" height="133" viewBox="0 0 133 133" fill="none" xmlns="http://www.w3.org/2000/svg">
<g clip-path="url(#clip0_4964_5229)">
<g filter="url(#filter0_f_4964_5229)">
<circle cx="65.9805" cy="65.9805" r="46.2383" fill="white"/>
</g>
<path d="M43.9632 56.153L43.4961 59.2415C43.4454 59.5773 43.5875 59.9131 43.8625 60.1068C44.138 60.3009 44.4979 60.3181 44.7896 60.1527L47.3452 58.7044L49.9364 60.0814C50.5744 60.4254 51.3378 59.8565 51.2055 59.1362L50.6626 56.0747L52.7898 53.4776C53.2634 52.9058 52.8516 52.0159 52.1158 52.02H49.3129L48.018 49.3343C47.8696 49.0263 47.5591 48.8323 47.2217 48.836C46.8837 48.8396 46.5779 49.04 46.4357 49.351L45.2161 52.02H42.4389C42.0988 52.02 41.7894 52.2196 41.6452 52.5322C41.501 52.8446 41.548 53.2136 41.7657 53.4787L43.9632 56.153Z" fill="#F84031"/>
<path d="M46.9747 62.9654C46.9747 62.1907 46.3444 61.5603 45.5696 61.5603H37.5575C36.7827 61.5603 36.1523 62.1907 36.1523 62.9654V80.0077H46.9748V62.9654H46.9747Z" fill="#2329D6"/>
<path d="M58.859 70.8362H49.1641V80.0079H58.859C59.6338 80.0079 60.2641 79.3776 60.2641 78.6028V72.2414C60.2641 71.4665 59.6338 70.8362 58.859 70.8362Z" fill="#2329D6"/>
<path d="M33.9595 80.0078V68.2998H24.2646C23.4897 68.2998 22.8594 68.9302 22.8594 69.7049V78.6026C22.8594 79.3775 23.4897 80.0078 24.2645 80.0078H33.9595Z" fill="#2329D6"/>
<path d="M37.4161 51.619L36.832 55.4252C36.7686 55.839 36.9463 56.2529 37.2902 56.4916C37.6347 56.7308 38.0847 56.752 38.4496 56.5482L41.6453 54.7633L44.8856 56.4603C45.6833 56.8842 46.638 56.1832 46.4725 55.2954L45.7936 51.5224L48.4537 48.3219C49.0459 47.6171 48.5309 46.5204 47.6109 46.5255H44.1059L42.4866 43.2158C42.301 42.8361 41.9127 42.597 41.4908 42.6016C41.0682 42.6061 40.6858 42.853 40.508 43.2364L38.9828 46.5255H35.51C35.0847 46.5255 34.6978 46.7715 34.5175 47.1567C34.3371 47.5418 34.396 47.9965 34.6682 48.3232L37.4161 51.619Z" fill="#2329D6"/>
<rect x="80.0078" y="72.7344" width="9.35156" height="9.35156" fill="#ED392D"/>
<g filter="url(#filter1_f_4964_5229)">
<path d="M61.7008 81.7494C62.2305 80.0385 66.3951 71.5559 69.6171 65.0928C71.6551 61.0046 76.7895 59.6153 80.6292 62.0898V62.0898C84.4861 64.5753 85.3277 69.8579 82.3957 73.3873C78.065 78.6005 72.482 85.1911 70.8701 86.5014C68.1268 88.7313 64.7112 90.0228 62.9807 89.1996C61.2503 88.3764 60.8225 84.586 61.7008 81.7494Z" fill="#FFE4DB"/>
</g>
<g filter="url(#filter2_f_4964_5229)">
<path d="M66.6925 68.8375C66.0835 66.0169 67.8763 63.2368 70.6968 62.6278V62.6278C73.5174 62.0188 76.2975 63.8116 76.9065 66.6321L79.3919 78.1432C80.0008 80.9637 78.208 83.7438 75.3875 84.3528V84.3528C72.567 84.9618 69.7869 83.169 69.1779 80.3485L66.6925 68.8375Z" fill="#C5EDFE"/>
</g>
<g filter="url(#filter3_f_4964_5229)">
<path d="M71.5042 68.2118C71.4113 66.9068 72.3938 65.7735 73.6988 65.6806V65.6806C75.0038 65.5877 76.1371 66.5702 76.23 67.8752L76.8105 76.026C76.9034 77.331 75.9209 78.4642 74.6159 78.5572V78.5572C73.3109 78.6501 72.1776 77.6675 72.0847 76.3626L71.5042 68.2118Z" fill="#D4FFFF"/>
</g>
<g filter="url(#filter4_biiii_4964_5229)">
<circle cx="66.5" cy="66.5" r="28.0547" fill="white" fill-opacity="0.2"/>
</g>
<g filter="url(#filter5_f_4964_5229)">
<path d="M84.7621 94.8669H79.85V92.9842C81.8818 92.7643 83.8402 91.7849 85.5632 90.1185C89.2412 86.5579 91.4375 80.3896 91.4375 73.6181C91.4375 73.1307 91.0423 72.7348 90.5559 72.7348H86.4018C85.9157 72.7348 85.5205 73.1307 85.5205 73.6181V74.8084H72.4171V73.6177C72.4171 73.1303 72.0218 72.7344 71.5355 72.7344H67.3818C66.8952 72.7344 66.5 73.1303 66.5 73.6177C66.5 80.3896 68.6963 86.5575 72.3741 90.1174C74.0949 91.7833 76.0544 92.7635 78.0861 92.9834V94.8661H73.1739C72.6877 94.8661 72.2923 95.2621 72.2923 95.7495C72.2923 96.2373 72.6877 96.6328 73.1739 96.6328H84.7613C85.2493 96.6328 85.6429 96.2373 85.6429 95.7495C85.643 95.2621 85.2502 94.8669 84.7621 94.8669ZM87.2835 74.5008H89.6597C89.481 80.2229 87.5739 85.5312 84.578 88.6071C84.5964 88.5737 84.611 88.536 84.6286 88.5021C84.812 88.1493 84.9866 87.7826 85.1535 87.3978C85.1826 87.3294 85.2106 87.2582 85.2402 87.189C85.4012 86.8043 85.5551 86.4088 85.6983 85.9967C85.709 85.9662 85.7205 85.9367 85.7305 85.9063C85.8785 85.4758 86.0143 85.028 86.1418 84.5707C86.1671 84.4806 86.1924 84.3918 86.2161 84.3007C86.3382 83.8492 86.4494 83.3869 86.55 82.9133C86.5687 82.8268 86.586 82.7397 86.6033 82.6529C86.7031 82.1689 86.794 81.6769 86.8722 81.1736C86.8753 81.1551 86.8791 81.1375 86.881 81.1188C86.9605 80.6045 87.0234 80.0786 87.0798 79.5468C87.0909 79.4467 87.1016 79.3479 87.112 79.2471C87.1611 78.7292 87.2014 78.2041 87.229 77.6726C87.2352 77.5731 87.2382 77.4732 87.2428 77.3736C87.2674 76.8174 87.2835 76.2577 87.2835 75.6907V74.5008H87.2835ZM68.2772 74.5008H70.6535V75.6911C70.6535 76.258 70.6696 76.8178 70.6948 77.374C70.6996 77.4735 70.703 77.5735 70.7086 77.6731C70.7361 78.2045 70.7754 78.7296 70.8256 79.2476C70.8346 79.3483 70.8466 79.4471 70.8567 79.5468C70.9134 80.079 70.9774 80.6048 71.0566 81.1192C71.0591 81.1378 71.0625 81.1547 71.0656 81.1731C71.1435 81.6783 71.2346 82.1703 71.3343 82.6548C71.3516 82.7405 71.3677 82.8272 71.3859 82.9118C71.4884 83.3869 71.5997 83.8507 71.7214 84.3029C71.7458 84.3923 71.7695 84.4795 71.7953 84.5673C71.9236 85.0265 72.0592 85.4762 72.2073 85.9079C72.2163 85.9356 72.2269 85.9613 72.2372 85.9887C72.3817 86.4057 72.5368 86.8062 72.6999 87.1945C72.7274 87.2606 72.7538 87.3287 72.7824 87.3932C72.9502 87.7803 73.1269 88.1508 73.3116 88.506C73.3277 88.5375 73.3427 88.574 73.3588 88.6052C70.3615 85.5308 68.4564 80.2225 68.2772 74.5008Z" fill="#A9CFFF"/>
</g>
<path d="M79.4828 90.3984C80.668 90.2856 81.8104 89.783 82.8155 88.928C84.961 87.1009 86.2422 83.9359 86.2422 80.4613C86.2422 80.2112 86.0117 80.008 85.7279 80.008H83.3047C83.0212 80.008 82.7906 80.2112 82.7906 80.4613V81.072H75.147V80.4611C75.147 80.211 74.9163 80.0078 74.6327 80.0078H72.2097C71.9258 80.0078 71.6953 80.211 71.6953 80.4611C71.6953 83.9359 72.9765 87.1008 75.1219 88.9274C76.1257 89.7823 77.2687 90.2852 78.4539 90.398C78.4539 90.398 79.3307 90.398 79.4828 90.3984ZM83.819 80.9142H85.2051C85.1009 83.8503 83.9884 86.5741 82.2408 88.1525C82.2516 88.1353 82.2601 88.116 82.2703 88.0986C82.3773 87.9175 82.4792 87.7294 82.5765 87.5319C82.5935 87.4968 82.6099 87.4603 82.6271 87.4248C82.721 87.2274 82.8108 87.0244 82.8943 86.813C82.9006 86.7974 82.9073 86.7822 82.9131 86.7666C82.9995 86.5457 83.0787 86.3159 83.153 86.0813C83.1678 86.0351 83.1825 85.9895 83.1964 85.9428C83.2676 85.7111 83.3325 85.4738 83.3911 85.2308C83.4021 85.1865 83.4121 85.1418 83.4222 85.0972C83.4805 84.8489 83.5335 84.5964 83.5791 84.3381C83.5809 84.3287 83.5831 84.3196 83.5843 84.31C83.6306 84.0461 83.6673 83.7763 83.7002 83.5034C83.7067 83.452 83.7129 83.4013 83.719 83.3496C83.7476 83.0839 83.7711 82.8144 83.7873 82.5417C83.7908 82.4907 83.7926 82.4394 83.7953 82.3883C83.8096 82.1029 83.819 81.8157 83.819 81.5248L83.819 80.9142ZM72.732 80.9142H74.1182V81.525C74.1182 81.8159 74.1276 82.1031 74.1423 82.3885C74.1451 82.4396 74.1471 82.4909 74.1503 82.542C74.1663 82.8146 74.1893 83.0841 74.2186 83.3499C74.2239 83.4015 74.2308 83.4523 74.2367 83.5034C74.2698 83.7765 74.3071 84.0463 74.3533 84.3102C74.3548 84.3198 74.3568 84.3285 74.3586 84.3379C74.404 84.5971 74.4572 84.8496 74.5153 85.0982C74.5254 85.1422 74.5348 85.1867 74.5454 85.2301C74.6052 85.4739 74.6701 85.7118 74.7411 85.9439C74.7553 85.9897 74.7692 86.0345 74.7842 86.0796C74.8591 86.3152 74.9382 86.5459 75.0246 86.7675C75.0298 86.7816 75.036 86.7948 75.042 86.8089C75.1263 87.0229 75.2168 87.2284 75.3119 87.4276C75.3279 87.4615 75.3434 87.4965 75.36 87.5296C75.4579 87.7282 75.561 87.9183 75.6688 88.1006C75.6782 88.1167 75.6869 88.1355 75.6963 88.1515C73.9479 86.574 72.8365 83.8501 72.732 80.9142Z" fill="#E9E74C"/>
<g filter="url(#filter6_bii_4964_5229)">
<path d="M84.7621 96.945H79.85V95.0623C81.8818 94.8424 83.8402 93.863 85.5632 92.1967C89.2412 88.636 91.4375 82.4677 91.4375 75.6962C91.4375 75.2088 91.0423 74.8129 90.5559 74.8129H86.4018C85.9157 74.8129 85.5205 75.2088 85.5205 75.6962V76.8865H72.4171V75.6958C72.4171 75.2084 72.0218 74.8125 71.5355 74.8125H67.3818C66.8952 74.8125 66.5 75.2084 66.5 75.6958C66.5 82.4677 68.6963 88.6356 72.3741 92.1955C74.0949 93.8615 76.0544 94.8417 78.0861 95.0615V96.9443H73.1739C72.6877 96.9443 72.2923 97.3402 72.2923 97.8276C72.2923 98.3154 72.6877 98.7109 73.1739 98.7109H84.7613C85.2493 98.7109 85.6429 98.3154 85.6429 97.8276C85.643 97.3402 85.2502 96.945 84.7621 96.945ZM87.2835 76.579H89.6597C89.481 82.301 87.5739 87.6093 84.578 90.6852C84.5964 90.6518 84.611 90.6142 84.6286 90.5802C84.812 90.2274 84.9866 89.8607 85.1535 89.4759C85.1826 89.4075 85.2106 89.3364 85.2402 89.2672C85.4012 88.8824 85.5551 88.4869 85.6983 88.0748C85.709 88.0444 85.7205 88.0148 85.7305 87.9845C85.8785 87.5539 86.0143 87.1061 86.1418 86.6489C86.1671 86.5587 86.1924 86.4699 86.2161 86.3789C86.3382 85.9274 86.4494 85.465 86.55 84.9914C86.5687 84.9049 86.586 84.8179 86.6033 84.731C86.7031 84.247 86.794 83.755 86.8722 83.2517C86.8753 83.2332 86.8791 83.2156 86.881 83.1969C86.9605 82.6826 87.0234 82.1567 87.0798 81.6249C87.0909 81.5248 87.1016 81.426 87.112 81.3252C87.1611 80.8073 87.2014 80.2822 87.229 79.7508C87.2352 79.6512 87.2382 79.5513 87.2428 79.4517C87.2674 78.8955 87.2835 78.3358 87.2835 77.7689V76.579H87.2835ZM68.2772 76.579H70.6535V77.7693C70.6535 78.3362 70.6696 78.8959 70.6948 79.4521C70.6996 79.5517 70.703 79.6517 70.7086 79.7512C70.7361 80.2826 70.7754 80.8077 70.8256 81.3257C70.8346 81.4264 70.8466 81.5252 70.8567 81.6249C70.9134 82.1571 70.9774 82.6829 71.0566 83.1973C71.0591 83.216 71.0625 83.2328 71.0656 83.2512C71.1435 83.7564 71.2346 84.2484 71.3343 84.7329C71.3516 84.8186 71.3677 84.9053 71.3859 84.9899C71.4884 85.465 71.5997 85.9288 71.7214 86.381C71.7458 86.4704 71.7695 86.5576 71.7953 86.6455C71.9236 87.1046 72.0592 87.5543 72.2073 87.9861C72.2163 88.0137 72.2269 88.0394 72.2372 88.0668C72.3817 88.4838 72.5368 88.8844 72.6999 89.2726C72.7274 89.3387 72.7538 89.4068 72.7824 89.4713C72.9502 89.8584 73.1269 90.2289 73.3116 90.5841C73.3277 90.6156 73.3427 90.6521 73.3588 90.6833C70.3615 87.6089 68.4564 82.3006 68.2772 76.579Z" fill="white" fill-opacity="0.2"/>
</g>
<g filter="url(#filter7_f_4964_5229)">
<path d="M87.8711 34.0435C87.8711 30.0264 91.1275 26.77 95.1445 26.77V26.77C99.1615 26.77 102.418 30.0264 102.418 34.0435V38.1997C102.418 42.2167 99.1615 45.4731 95.1445 45.4731V45.4731C91.1275 45.4731 87.8711 42.2167 87.8711 38.1997V34.0435Z" fill="#FFFFE7"/>
</g>
<path d="M90.6136 31.8875C91.9726 28.0491 96.1963 26.0091 100.048 27.331V27.331C103.899 28.6528 105.919 32.836 104.56 36.6744L102.646 42.0824C102.263 43.1643 101.072 43.7393 99.9866 43.3667L89.971 39.929C88.8854 39.5565 88.3159 38.3773 88.699 37.2954L90.6136 31.8875Z" fill="url(#paint0_linear_4964_5229)"/>
<g filter="url(#filter8_f_4964_5229)">
<path d="M81.8906 35.4004C83.0211 30.8818 87.6082 28.104 92.1362 29.196V29.196C96.6643 30.288 99.4185 34.8362 98.2881 39.3548L96.3403 47.1404C95.2098 51.659 90.6227 54.4368 86.0947 53.3448V53.3448C81.5666 52.2528 78.8124 47.7046 79.9428 43.186L81.8906 35.4004Z" fill="url(#paint1_linear_4964_5229)"/>
</g>
<g style="mix-blend-mode:luminosity">
<path d="M83.4522 33.9026C85.5863 29.7765 90.6866 28.112 94.8439 30.1847V30.1847C99.0011 32.2575 100.641 37.2827 98.5071 41.4088L94.7677 48.6384C92.6335 52.7645 87.5333 54.4291 83.376 52.3563V52.3563C79.2187 50.2836 77.5786 45.2584 79.7128 41.1322L83.4522 33.9026Z" fill="url(#paint2_linear_4964_5229)"/>
</g>
<g filter="url(#filter9_f_4964_5229)">
<path d="M92.0059 30.9631C93.2258 29.9307 95.0518 30.0827 96.0842 31.3027L99.1215 34.8918C100.153 36.1106 100.001 37.9348 98.7822 38.9663V38.9663C97.8245 39.7767 96.4535 39.877 95.3881 39.2147L92.4794 37.4063L91.1965 34.2668C90.7223 33.1065 91.049 31.7728 92.0059 30.9631V30.9631Z" fill="white"/>
</g>
<path d="M47.7969 52.9922H56.1094" stroke="white" stroke-width="2.07812" stroke-dasharray="4.16 4.16"/>
<path d="M56.1094 85.2031H64.4219" stroke="url(#paint3_linear_4964_5229)" stroke-width="2.07812" stroke-dasharray="4.16 4.16"/>
<circle cx="93.3457" cy="76.7203" r="7.96357" transform="rotate(7.45291 93.3457 76.7203)" stroke="#050121" stroke-width="4.15625" stroke-dasharray="2.72 2.72"/>
<rect x="42.6016" y="83.125" width="6.23438" height="7.27344" stroke="#050121" stroke-width="2.07812" stroke-dasharray="4.16 4.16"/>
<path d="M91.0236 42.0196C90.5768 41.5625 89.9849 41.5627 89.008 41.5625H88.9931C86.4748 41.5625 82.7738 42.6993 80.1821 45.2391C80.1798 45.2415 80.1775 45.2437 80.1752 45.2461L79.6602 45.7633L72.9501 46.4674C71.6593 46.6028 70.6899 47.6869 70.6953 48.9891C70.6971 49.4074 70.6985 50.1747 70.6985 50.1749C70.6993 50.5781 70.9959 50.9194 71.395 50.9765C71.4204 50.98 73.7566 51.3285 75.2392 52.6795L74.1703 55.1998C74.0422 55.502 74.1087 55.8518 74.339 56.0856L76.854 58.6413C77.0099 58.7997 77.2193 58.8835 77.4324 58.8835C77.5453 58.8835 77.6591 58.8599 77.7663 58.8114L80.2105 57.7065C81.1698 58.8485 81.8655 60.9352 82.07 61.723C82.1599 62.0712 82.4683 62.3187 82.8277 62.3309C82.851 62.3318 83.2093 62.3437 83.5941 62.3437C83.8137 62.3437 84.0417 62.3397 84.2209 62.3277C85.4495 62.2443 86.4339 61.2981 86.5615 60.0779L87.2631 53.37C87.2653 53.3483 87.266 53.3267 87.2666 53.3053L87.7223 52.8553C87.7256 52.8522 87.7286 52.849 87.7318 52.8458C90.3123 50.2126 91.4675 46.5446 91.4675 44.0774C91.4675 43.0773 91.4675 42.4735 91.0236 42.0196V42.0196ZM72.3179 48.9824C72.3162 48.5766 72.591 48.1366 73.1194 48.0811L77.8461 47.5852L74.9411 50.5023C73.9583 49.962 72.9612 49.6625 72.3195 49.5093C72.319 49.3229 72.3184 49.1308 72.3179 48.9824ZM77.6136 57.0999L75.8758 55.3341L76.4879 53.8907L79.0312 56.459L77.6136 57.0999ZM84.9478 59.9092C84.8941 60.4234 84.4763 60.6842 84.111 60.7089C83.9437 60.7203 83.6994 60.7225 83.467 60.7208C83.2716 60.0996 82.9136 59.086 82.3982 58.1111L85.4509 55.0975L84.9478 59.9092ZM86.5776 51.7055L81.5357 56.6824L76.3211 51.416L81.3215 46.3946C83.5738 44.1893 86.8766 43.1851 88.9931 43.1851H89.008C89.3195 43.1856 89.636 43.1851 89.8247 43.2017C89.8449 43.4099 89.8449 43.7724 89.8449 44.0776C89.8449 46.1443 88.8225 49.412 86.5776 51.7055ZM74.3296 58.6495C74.6492 58.9634 74.6538 59.4771 74.3399 59.7968L72.0885 62.0888C71.9298 62.2505 71.7197 62.3315 71.5098 62.3315C71.3045 62.3315 71.0992 62.2541 70.9412 62.0989C70.6216 61.785 70.617 61.2713 70.9309 60.9516L73.1823 58.6598C73.4964 58.3402 74.01 58.3356 74.3296 58.6495V58.6495ZM70.9362 57.9563C70.6194 57.6394 70.6194 57.1259 70.9362 56.8089L71.6663 56.0788C71.9831 55.762 72.4968 55.762 72.8137 56.0788C73.1305 56.3957 73.1305 56.9093 72.8137 57.2262L72.0834 57.9563C71.925 58.1147 71.7173 58.194 71.5098 58.194C71.3021 58.194 71.0946 58.1147 70.9362 57.9563V57.9563ZM76.9512 60.2165C77.268 60.5332 77.268 61.0469 76.9512 61.3637L76.2211 62.0938C76.0627 62.2522 75.855 62.3315 75.6473 62.3315C75.4398 62.3315 75.2321 62.2522 75.0737 62.0938C74.7569 61.7771 74.7569 61.2634 75.0737 60.9466L75.8038 60.2165C76.1207 59.8995 76.6344 59.8995 76.9512 60.2165ZM82.8933 52.2043C83.2101 52.5211 83.2101 53.0348 82.8933 53.3516C82.735 53.5101 82.5273 53.5893 82.3196 53.5893C82.112 53.5893 81.9043 53.5101 81.7459 53.3516L79.6772 51.2828C79.3604 50.9661 79.3604 50.4524 79.6772 50.1356C79.9939 49.8186 80.5076 49.8186 80.8244 50.1356L82.8933 52.2043ZM87.1246 47.2681C87.4459 47.5802 87.4534 48.0939 87.1412 48.4153C86.9822 48.5789 86.7707 48.6612 86.5592 48.6612C86.3554 48.6612 86.1515 48.5851 85.9939 48.432L84.5741 47.0527C84.2527 46.7406 84.2453 46.2269 84.5575 45.9055C84.8697 45.5841 85.3834 45.5767 85.7047 45.8888L87.1246 47.2681ZM85.1858 49.913C85.5026 50.2298 85.5026 50.7435 85.1858 51.0604C85.0274 51.2188 84.8197 51.2979 84.6122 51.2979C84.4045 51.2979 84.1969 51.2188 84.0384 51.0604L81.9696 48.9915C81.6529 48.6747 81.6529 48.161 81.9696 47.8442C82.2864 47.5274 82.8001 47.5274 83.1171 47.8442L85.1858 49.913Z" fill="#2329D6"/>
</g>
<defs>
<filter id="filter0_f_4964_5229" x="-50.5086" y="-50.5086" width="232.978" height="232.978" filterUnits="userSpaceOnUse" color-interpolation-filters="sRGB">
<feFlood flood-opacity="0" result="BackgroundImageFix"/>
<feBlend mode="normal" in="SourceGraphic" in2="BackgroundImageFix" result="shape"/>
<feGaussianBlur stdDeviation="35.1254" result="effect1_foregroundBlur_4964_5229"/>
</filter>
<filter id="filter1_f_4964_5229" x="58.7871" y="58.3892" width="27.8359" height="33.531" filterUnits="userSpaceOnUse" color-interpolation-filters="sRGB">
<feFlood flood-opacity="0" result="BackgroundImageFix"/>
<feBlend mode="normal" in="SourceGraphic" in2="BackgroundImageFix" result="shape"/>
<feGaussianBlur stdDeviation="1.23535" result="effect1_foregroundBlur_4964_5229"/>
</filter>
<filter id="filter2_f_4964_5229" x="62.4564" y="58.3912" width="21.1732" height="30.1983" filterUnits="userSpaceOnUse" color-interpolation-filters="sRGB">
<feFlood flood-opacity="0" result="BackgroundImageFix"/>
<feBlend mode="normal" in="SourceGraphic" in2="BackgroundImageFix" result="shape"/>
<feGaussianBlur stdDeviation="2.05892" result="effect1_foregroundBlur_4964_5229"/>
</filter>
<filter id="filter3_f_4964_5229" x="69.8529" y="64.0274" width="8.61068" height="16.1829" filterUnits="userSpaceOnUse" color-interpolation-filters="sRGB">
<feFlood flood-opacity="0" result="BackgroundImageFix"/>
<feBlend mode="normal" in="SourceGraphic" in2="BackgroundImageFix" result="shape"/>
<feGaussianBlur stdDeviation="0.823569" result="effect1_foregroundBlur_4964_5229"/>
</filter>
<filter id="filter4_biiii_4964_5229" x="34.2891" y="34.2891" width="64.4219" height="64.4219" filterUnits="userSpaceOnUse" color-interpolation-filters="sRGB">
<feFlood flood-opacity="0" result="BackgroundImageFix"/>
<feGaussianBlur in="BackgroundImageFix" stdDeviation="2.07812"/>
<feComposite in2="SourceAlpha" operator="in" result="effect1_backgroundBlur_4964_5229"/>
<feBlend mode="normal" in="SourceGraphic" in2="effect1_backgroundBlur_4964_5229" result="shape"/>
<feColorMatrix in="SourceAlpha" type="matrix" values="0 0 0 0 0 0 0 0 0 0 0 0 0 0 0 0 0 0 127 0" result="hardAlpha"/>
<feOffset dy="1.03906"/>
<feGaussianBlur stdDeviation="2.07812"/>
<feComposite in2="hardAlpha" operator="arithmetic" k2="-1" k3="1"/>
<feColorMatrix type="matrix" values="0 0 0 0 1 0 0 0 0 1 0 0 0 0 1 0 0 0 0.3 0"/>
<feBlend mode="normal" in2="shape" result="effect2_innerShadow_4964_5229"/>
<feColorMatrix in="SourceAlpha" type="matrix" values="0 0 0 0 0 0 0 0 0 0 0 0 0 0 0 0 0 0 127 0" result="hardAlpha"/>
<feOffset dy="-1.03906"/>
<feGaussianBlur stdDeviation="2.07812"/>
<feComposite in2="hardAlpha" operator="arithmetic" k2="-1" k3="1"/>
<feColorMatrix type="matrix" values="0 0 0 0 1 0 0 0 0 1 0 0 0 0 1 0 0 0 0.5 0"/>
<feBlend mode="normal" in2="effect2_innerShadow_4964_5229" result="effect3_innerShadow_4964_5229"/>
<feColorMatrix in="SourceAlpha" type="matrix" values="0 0 0 0 0 0 0 0 0 0 0 0 0 0 0 0 0 0 127 0" result="hardAlpha"/>
<feOffset dy="1.03906"/>
<feGaussianBlur stdDeviation="22.8594"/>
<feComposite in2="hardAlpha" operator="arithmetic" k2="-1" k3="1"/>
<feColorMatrix type="matrix" values="0 0 0 0 1 0 0 0 0 1 0 0 0 0 1 0 0 0 0.45 0"/>
<feBlend mode="normal" in2="effect3_innerShadow_4964_5229" result="effect4_innerShadow_4964_5229"/>
<feColorMatrix in="SourceAlpha" type="matrix" values="0 0 0 0 0 0 0 0 0 0 0 0 0 0 0 0 0 0 127 0" result="hardAlpha"/>
<feOffset dx="1.03906" dy="1.03906"/>
<feGaussianBlur stdDeviation="1.03906"/>
<feComposite in2="hardAlpha" operator="arithmetic" k2="-1" k3="1"/>
<feColorMatrix type="matrix" values="0 0 0 0 1 0 0 0 0 1 0 0 0 0 1 0 0 0 1 0"/>
<feBlend mode="normal" in2="effect4_innerShadow_4964_5229" result="effect5_innerShadow_4964_5229"/>
</filter>
<filter id="filter5_f_4964_5229" x="62.3438" y="68.5781" width="33.25" height="32.2109" filterUnits="userSpaceOnUse" color-interpolation-filters="sRGB">
<feFlood flood-opacity="0" result="BackgroundImageFix"/>
<feBlend mode="normal" in="SourceGraphic" in2="BackgroundImageFix" result="shape"/>
<feGaussianBlur stdDeviation="2.07812" result="effect1_foregroundBlur_4964_5229"/>
</filter>
<filter id="filter6_bii_4964_5229" x="64.4219" y="72.7344" width="29.0938" height="28.0547" filterUnits="userSpaceOnUse" color-interpolation-filters="sRGB">
<feFlood flood-opacity="0" result="BackgroundImageFix"/>
<feGaussianBlur in="BackgroundImageFix" stdDeviation="1.03906"/>
<feComposite in2="SourceAlpha" operator="in" result="effect1_backgroundBlur_4964_5229"/>
<feBlend mode="normal" in="SourceGraphic" in2="effect1_backgroundBlur_4964_5229" result="shape"/>
<feColorMatrix in="SourceAlpha" type="matrix" values="0 0 0 0 0 0 0 0 0 0 0 0 0 0 0 0 0 0 127 0" result="hardAlpha"/>
<feOffset dy="1.30302"/>
<feGaussianBlur stdDeviation="2.60605"/>
<feComposite in2="hardAlpha" operator="arithmetic" k2="-1" k3="1"/>
<feColorMatrix type="matrix" values="0 0 0 0 1 0 0 0 0 1 0 0 0 0 1 0 0 0 0.3 0"/>
<feBlend mode="normal" in2="shape" result="effect2_innerShadow_4964_5229"/>
<feColorMatrix in="SourceAlpha" type="matrix" values="0 0 0 0 0 0 0 0 0 0 0 0 0 0 0 0 0 0 127 0" result="hardAlpha"/>
<feOffset dy="1.30302"/>
<feGaussianBlur stdDeviation="0.651512"/>
<feComposite in2="hardAlpha" operator="arithmetic" k2="-1" k3="1"/>
<feColorMatrix type="matrix" values="0 0 0 0 1 0 0 0 0 1 0 0 0 0 1 0 0 0 0.95 0"/>
<feBlend mode="normal" in2="effect2_innerShadow_4964_5229" result="effect3_innerShadow_4964_5229"/>
</filter>
<filter id="filter7_f_4964_5229" x="79.5586" y="18.4575" width="31.1719" height="35.3281" filterUnits="userSpaceOnUse" color-interpolation-filters="sRGB">
<feFlood flood-opacity="0" result="BackgroundImageFix"/>
<feBlend mode="normal" in="SourceGraphic" in2="BackgroundImageFix" result="shape"/>
<feGaussianBlur stdDeviation="4.15625" result="effect1_foregroundBlur_4964_5229"/>
</filter>
<filter id="filter8_f_4964_5229" x="73.4531" y="22.7241" width="31.3242" height="37.0925" filterUnits="userSpaceOnUse" color-interpolation-filters="sRGB">
<feFlood flood-opacity="0" result="BackgroundImageFix"/>
<feBlend mode="normal" in="SourceGraphic" in2="BackgroundImageFix" result="shape"/>
<feGaussianBlur stdDeviation="3.11719" result="effect1_foregroundBlur_4964_5229"/>
</filter>
<filter id="filter9_f_4964_5229" x="89.9414" y="29.2393" width="10.9023" height="11.4502" filterUnits="userSpaceOnUse" color-interpolation-filters="sRGB">
<feFlood flood-opacity="0" result="BackgroundImageFix"/>
<feBlend mode="normal" in="SourceGraphic" in2="BackgroundImageFix" result="shape"/>
<feGaussianBlur stdDeviation="0.519531" result="effect1_foregroundBlur_4964_5229"/>
</filter>
<linearGradient id="paint0_linear_4964_5229" x1="105.186" y1="29.0946" x2="79.6101" y2="44.3339" gradientUnits="userSpaceOnUse">
<stop offset="0.0941878" stop-color="#FFE5DC"/>
<stop offset="0.230705" stop-color="#FFFFE7" stop-opacity="0"/>
</linearGradient>
<linearGradient id="paint1_linear_4964_5229" x1="98.9504" y1="36.7073" x2="78.6087" y2="33.2768" gradientUnits="userSpaceOnUse">
<stop stop-color="#FFFFE6"/>
<stop offset="0.360807" stop-color="#D5FFFF"/>
<stop offset="0.977083" stop-color="#D5FFFF" stop-opacity="0"/>
</linearGradient>
<linearGradient id="paint2_linear_4964_5229" x1="99.7121" y1="39.9735" x2="79.8048" y2="51.9516" gradientUnits="userSpaceOnUse">
<stop offset="0.0153056" stop-color="#D4FFE7"/>
<stop offset="0.312156" stop-color="#D5FFFF" stop-opacity="0"/>
</linearGradient>
<linearGradient id="paint3_linear_4964_5229" x1="60.2656" y1="85.2031" x2="60.2656" y2="86.2031" gradientUnits="userSpaceOnUse">
<stop stop-color="#E4EBFF"/>
<stop offset="0.60706" stop-color="#FFE2D9"/>
</linearGradient>
<clipPath id="clip0_4964_5229">
<rect width="133" height="133" fill="white"/>
</clipPath>
</defs>
</svg>
