<svg width="36" height="39" viewBox="0 0 36 39" fill="none" xmlns="http://www.w3.org/2000/svg">
<mask id="mask0_1517_784" style="mask-type:alpha" maskUnits="userSpaceOnUse" x="0" y="0" width="36" height="39">
<path d="M20.1102 17.8235C20.5875 18.0119 21.0522 18.2192 21.5044 18.4453C21.9566 18.6714 22.3962 18.9288 22.8233 19.2177C22.5469 19.5192 22.2957 19.8332 22.0696 20.1598C21.8435 20.4864 21.6363 20.8381 21.4479 21.2149C20.4807 20.5868 19.4508 20.1095 18.358 19.783C17.2652 19.4564 16.141 19.2931 14.9855 19.2931C13.8801 19.2931 12.8125 19.4375 11.7825 19.7264C10.7525 20.0153 9.79164 20.4173 8.89984 20.9323C8.00803 21.4472 7.19787 22.0753 6.46936 22.8164C5.74084 23.5574 5.11281 24.3739 4.58526 25.2657C4.05772 26.1575 3.6495 27.1184 3.3606 28.1483C3.07171 29.1783 2.92726 30.246 2.92726 31.3513H0.515625C0.515625 29.844 0.735436 28.3933 1.17506 26.999C1.61468 25.6048 2.24899 24.3173 3.07799 23.1367C3.90699 21.956 4.88672 20.9071 6.01717 19.9902C7.14763 19.0733 8.42881 18.3511 9.86072 17.8235C8.44137 16.894 7.33604 15.7259 6.54472 14.3191C5.7534 12.9123 5.35146 11.3548 5.3389 9.64655C5.3389 8.31513 5.59011 7.06535 6.09254 5.89721C6.59496 4.72907 7.27952 3.70538 8.1462 2.82614C9.01288 1.9469 10.0366 1.25606 11.2173 0.753637C12.398 0.251212 13.654 0 14.9855 0C16.3169 0 17.5667 0.251212 18.7348 0.753637C19.9029 1.25606 20.9266 1.94061 21.8059 2.8073C22.6851 3.67398 23.3759 4.69767 23.8784 5.87837C24.3808 7.05906 24.632 8.31513 24.632 9.64655C24.632 10.4756 24.5315 11.2857 24.3306 12.077C24.1296 12.8683 23.8281 13.6157 23.4262 14.3191C23.0242 15.0225 22.5532 15.6694 22.0131 16.2597C21.473 16.8501 20.8387 17.3713 20.1102 17.8235ZM7.75054 9.64655C7.75054 10.6514 7.93895 11.5872 8.31577 12.4538C8.69258 13.3205 9.20757 14.0867 9.86072 14.7524C10.5139 15.4182 11.2801 15.9394 12.1593 16.3162C13.0386 16.6931 13.9806 16.8815 14.9855 16.8815C15.9777 16.8815 16.9135 16.6931 17.7928 16.3162C18.672 15.9394 19.4382 15.4244 20.0913 14.7713C20.7445 14.1181 21.2658 13.3519 21.6551 12.4727C22.0445 11.5934 22.2329 10.6514 22.2204 9.64655C22.2204 8.65426 22.032 7.7185 21.6551 6.83925C21.2783 5.96001 20.7633 5.19381 20.1102 4.54066C19.457 3.88751 18.6846 3.36624 17.7928 2.97687C16.9009 2.58749 15.9652 2.39908 14.9855 2.41164C13.9806 2.41164 13.0448 2.60005 12.1782 2.97687C11.3115 3.35368 10.5453 3.86867 9.87956 4.52182C9.21385 5.17497 8.69258 5.94745 8.31577 6.83925C7.93895 7.73106 7.75054 8.66682 7.75054 9.64655ZM35.4844 25.3222C35.4844 25.9753 35.3839 26.6097 35.1829 27.2251C34.982 27.8406 34.6805 28.4121 34.2786 28.9397V38.5862L29.4553 36.1746L24.632 38.5862V28.9397C24.2426 28.4121 23.9475 27.8406 23.7465 27.2251C23.5455 26.6097 23.4387 25.9753 23.4262 25.3222C23.4262 24.4932 23.5832 23.7144 23.8972 22.9859C24.2112 22.2574 24.6383 21.6231 25.1784 21.083C25.7185 20.5429 26.3591 20.1095 27.1002 19.783C27.8412 19.4564 28.6263 19.2931 29.4553 19.2931C30.2843 19.2931 31.063 19.4501 31.7916 19.7641C32.5201 20.0781 33.1544 20.5115 33.6945 21.0641C34.2346 21.6168 34.6679 22.2574 34.9945 22.9859C35.3211 23.7144 35.4844 24.4932 35.4844 25.3222ZM29.4553 21.7047C28.9529 21.7047 28.4818 21.7989 28.0422 21.9874C27.6026 22.1758 27.2195 22.4333 26.8929 22.7598C26.5663 23.0864 26.3088 23.4695 26.1204 23.9091C25.932 24.3487 25.8378 24.8198 25.8378 25.3222C25.8378 25.8246 25.932 26.2956 26.1204 26.7353C26.3088 27.1749 26.5663 27.558 26.8929 27.8846C27.2195 28.2111 27.6026 28.4686 28.0422 28.657C28.4818 28.8454 28.9529 28.9397 29.4553 28.9397C29.9577 28.9397 30.4287 28.8454 30.8684 28.657C31.308 28.4686 31.6911 28.2111 32.0176 27.8846C32.3442 27.558 32.6017 27.1749 32.7901 26.7353C32.9785 26.2956 33.0727 25.8246 33.0727 25.3222C33.0727 24.8198 32.9785 24.3487 32.7901 23.9091C32.6017 23.4695 32.3442 23.0864 32.0176 22.7598C31.6911 22.4333 31.308 22.1758 30.8684 21.9874C30.4287 21.7989 29.9577 21.7047 29.4553 21.7047ZM31.8669 34.6861V30.8426C31.1133 31.1817 30.3094 31.3513 29.4553 31.3513C28.6012 31.3513 27.7973 31.1817 27.0436 30.8426V34.6861C27.4456 34.4852 27.8475 34.2905 28.2495 34.1021C28.6514 33.9137 29.0533 33.7064 29.4553 33.4803C29.8572 33.6938 30.2592 33.8948 30.6611 34.0832C31.063 34.2716 31.465 34.4726 31.8669 34.6861Z" fill="#444444"/>
</mask>
<g mask="url(#mask0_1517_784)">
<rect x="23.0168" y="18.1741" width="14.7123" height="25.0974" rx="5.19258" fill="#456FF6"/>
<rect x="7.92407" y="-7.78882" width="26.8283" height="40.6752" rx="5.19258" transform="rotate(25.9417 7.92407 -7.78882)" fill="#444444"/>
</g>
</svg>
