<svg width="512" height="512" viewBox="0 0 512 512" fill="none" xmlns="http://www.w3.org/2000/svg">
<path d="M473 475L369.35 371.165M426.79 232.395C426.79 284.482 406.098 334.436 369.267 371.267C332.436 408.098 282.482 428.79 230.395 428.79C178.308 428.79 128.354 408.098 91.5227 371.267C54.6915 334.436 34 284.482 34 232.395C34 180.308 54.6915 130.354 91.5227 93.5227C128.354 56.6915 178.308 36 230.395 36C282.482 36 332.436 56.6915 369.267 93.5227C406.098 130.354 426.79 180.308 426.79 232.395Z" stroke="white" stroke-width="50" stroke-linecap="round"/>
<path d="M311 234C311 225.163 303.837 218 295 218H262C253.716 218 247 211.284 247 203V170C247 161.163 239.837 154 231 154V154C222.163 154 215 161.163 215 170V203C215 211.284 208.284 218 200 218H167C158.163 218 151 225.163 151 234V234C151 242.837 158.163 250 167 250H200C208.284 250 215 256.716 215 265V298C215 306.837 222.163 314 231 314V314C239.837 314 247 306.837 247 298V265C247 256.716 253.716 250 262 250H295C303.837 250 311 242.837 311 234V234Z" fill="white"/>
</svg>
