<svg width="490" height="595" viewBox="0 0 490 595" fill="none" xmlns="http://www.w3.org/2000/svg">
<path d="M489.004 276.493C489.004 407.66 382.672 513.993 251.504 513.993C120.336 513.993 14.0039 407.66 14.0039 276.493C14.0039 145.325 120.336 38.9927 251.504 38.9927C382.672 38.9927 489.004 145.325 489.004 276.493Z" fill="#FA5252"/>
<path d="M319.862 345.359C319.862 357.073 315.331 366.411 306.27 373.373C298.092 379.672 288.091 382.821 276.266 382.821C264.773 382.821 255.104 379.727 247.258 373.539C238.472 366.632 234.079 357.239 234.079 345.359V280.379H256.043V341.712C256.043 347.016 258.308 351.271 262.839 354.476C266.983 357.404 271.984 358.869 277.841 358.869C283.477 358.869 288.229 357.46 292.097 354.642C296.407 351.492 298.562 347.182 298.562 341.712V280.379H319.862V345.359ZM408.961 331.103C411.005 333.755 412.524 336.739 413.519 340.054C414.569 343.37 415.094 346.906 415.094 350.663C415.094 358.951 412.801 366.024 408.215 371.881C403.131 378.401 396.28 381.661 387.66 381.661H330.057V360.526H383.93C386.417 360.526 388.406 359.559 389.898 357.625C391.224 355.912 391.887 353.785 391.887 351.243C391.887 348.757 391.251 346.713 389.981 345.11C388.544 343.287 386.527 342.375 383.93 342.375H330.057V319.831H383.93C386.472 319.831 388.433 318.975 389.815 317.262C391.196 315.494 391.887 313.422 391.887 311.046C391.887 308.504 391.224 306.377 389.898 304.664C388.406 302.73 386.417 301.763 383.93 301.763H330.057V280.379H387.66C396.224 280.379 403.104 283.694 408.298 290.325C412.994 296.348 415.342 303.531 415.342 311.874C415.342 315.576 414.79 319.085 413.685 322.4C412.635 325.716 411.06 328.617 408.961 331.103Z" fill="white"/>
<path d="M366.016 435.934C366.127 431.329 367.952 425.432 370.01 418.809C374.254 405.213 379.55 388.284 369.306 374.411C367.338 371.689 364.003 370.432 360.402 371.058C357.741 371.52 354.98 372.958 352.06 374.507C351.789 372.067 351.62 369.283 351.532 367.78C351.308 364.194 351.13 361.358 350.434 359.17C349.55 356.312 349.339 350.733 349.173 346.204C348.812 337.05 348.478 328.421 344.208 322.95C342.732 321.055 341.205 319.564 339.733 318.177C337.26 315.821 336.76 315.222 336.521 313.544C335.149 303.843 332.891 298.495 328.949 295.628C326.527 293.869 323.55 293.184 320.556 293.705C315.956 294.505 312.231 297.881 308.247 301.505C305.288 304.2 301.247 307.894 298.367 308.395C297.893 308.477 297.552 308.448 297.356 308.409C295.608 308.087 294.121 306.965 292.918 305.083C290.652 301.525 289.865 296.046 291.135 290.933C292.894 277.433 284.961 272.12 280.204 269.673C280.309 269.602 280.413 269.528 280.51 269.458C290.604 262.293 288.836 255.306 285.594 250.685C284.49 249.121 283.586 247.308 282.496 245.201C281.296 242.87 279.931 240.221 278.169 237.843C273.112 231.072 263.226 227.991 256.322 227.407C256.241 227.405 256.167 227.398 256.101 227.393C256.445 225.84 257.216 223.611 257.77 222.012C258.362 220.262 258.956 218.48 259.376 216.788C259.971 214.335 261.797 206.843 256.9 201.619C253.787 198.272 249.145 197.117 243.134 198.163C239.729 198.755 236.209 199.944 233.127 200.997C233.042 201.02 232.947 201.056 232.862 201.079C233.025 199.25 233.257 197.519 233.444 196.784C235.441 190.114 234.928 184.725 231.902 180.746C227.128 174.467 218.653 174.669 211.178 174.839C203.107 175.023 199.839 174.594 198.441 173.263C198.683 173.148 198.919 173.042 199.102 172.958C200.892 172.13 202.753 171.274 204.402 169.937C204.677 169.708 204.946 169.463 205.184 169.188L216.016 156.956C217.56 155.223 217.934 152.291 217.262 150.075C213.884 138.914 202.359 128.125 188.94 129.38C183.565 129.879 177.824 128.165 171.184 126.174C165.023 124.335 158.662 122.438 151.626 122.071C147.566 121.872 145.049 120.493 141.528 118.562C137.837 116.535 133.238 114.001 126.704 113.453C124.647 113.278 122.353 113.342 119.918 113.43C117.157 113.523 112.544 113.671 111.307 112.804C108.533 110.852 105.328 108.834 101.936 106.719C94.5468 102.09 85.3616 96.3271 81.6564 91.0371C80.5164 89.4267 79.5913 87.9606 78.4957 86.2335C75.5926 81.6113 72.8463 77.2403 66.071 72.1972C61.7412 68.9817 57.0815 67.2123 52.873 65.6228C49.8912 64.4942 47.0739 63.4298 45.2493 62.0839C44.5559 61.5787 43.7771 61.2095 42.9438 60.9911L9.38203 52.4153C6.42109 51.6625 3.31804 53.0177 1.8578 55.6938C0.399526 58.3818 0.942854 61.7148 3.18524 63.7915L5.95683 66.3575C16.5851 76.193 32.6242 97.7551 38.9665 110.734C41.1399 115.176 55.0438 138.394 68.5711 141.495C70.9544 142.038 72.7481 142.416 74.1028 142.685C74.1703 142.702 74.2318 142.707 74.2993 142.724C75.1726 144.635 76.6768 147.457 79.6611 151.549C84.3088 157.939 90.1818 162.553 95.8626 167.015C97.9384 168.644 100.085 170.334 102.135 172.093C104.645 174.244 106.705 176.272 108.438 178.276C110.026 180.115 111.374 181.996 112.545 183.993C115.978 189.899 120.746 195.635 124.963 200.707C131.415 208.491 138.101 216.545 140.163 224.668C140.266 225.094 140.592 225.877 140.785 226.268C140.999 226.711 141.261 227.125 141.563 227.517C143.661 230.18 145.361 231.947 146.893 233.51C149.292 235.979 150.194 236.896 151.55 241.254C154.95 252.076 161.229 259.837 167.609 267.715C169.438 269.972 171.316 272.298 173.109 274.736C179.437 283.312 184.603 293.31 189.7 303.166C194.715 312.875 199.909 322.913 206.484 332.125C209.471 336.301 212.663 340.61 215.904 344.992C221.992 353.211 228.214 361.6 233.681 369.89C232.433 370.603 231.378 371.619 230.668 372.856C228.419 376.566 228.471 381.115 234.599 399.617L235.821 403.321C240.613 418.087 246.586 436.462 260.028 446.688C261.325 447.811 264.525 453.258 266.244 456.18C269.866 462.332 272.854 467.4 276.43 469.972C276.228 470.576 276.077 471.216 275.979 471.903C275.695 474.169 276.015 477.614 279.2 481.165C282.747 485.078 286.889 487.305 290.92 489.475C294.37 491.325 297.63 493.056 300.084 495.838C309.784 506.74 320.737 518.355 329.231 522.946C336.47 531.073 347.573 539.505 360.003 546.242L361.298 546.929C362.624 547.639 364.128 547.858 365.566 547.608C366.275 547.485 366.968 547.247 367.615 546.9C369.58 545.828 370.882 543.845 371.07 541.604L371.194 540.182C372.802 522.756 374.587 519.229 374.642 519.126C375.002 518.503 375.667 517.729 376.518 516.656C379.556 512.818 383.355 508.035 382.626 502.381C381.566 494.055 376.278 490.066 373.093 487.653C372.292 487.041 371.187 486.212 371.072 486.179C371.071 486.171 370.993 485.305 371.99 482.935C377.977 468.681 368.595 462.529 362.889 458.782C362.012 458.22 361.094 457.612 360.155 456.944C358.837 456.027 361.093 450.729 362.671 447.011C364.035 443.669 365.479 440.225 366.017 435.937L366.016 435.934ZM352.434 467.876C353.524 468.643 354.612 469.37 355.619 470.007C361.215 473.68 361.292 473.82 359.634 477.754C354.383 490.25 361.029 495.291 365.038 498.336C367.783 500.398 369.013 501.435 369.353 503.435C369.093 504.449 367.095 506.985 365.839 508.56C364.721 509.974 363.695 511.319 363.08 512.358C362.329 513.655 360.525 516.747 358.817 530.071C350.445 524.781 343.248 518.85 338.451 513.222C337.825 512.479 337.044 511.884 336.159 511.485C328.864 508.123 314.679 492.177 310.036 486.952C305.999 482.402 301.102 479.778 297.195 477.692C294.65 476.318 292.367 475.096 290.489 473.513C290.724 473.355 290.962 473.213 291.165 473.081C292.729 472.094 294.504 470.97 295.797 469.445C300.606 463.926 299.053 460.034 298.1 458.827C297.091 457.084 294.457 454.313 288.25 455.392C286.326 455.727 284.366 456.366 282.591 457.228C281.054 455.053 279.002 451.567 277.731 449.41C273.739 442.635 271.105 438.354 268.136 436.093C260.767 430.491 255.975 420.464 252.292 410.406C256.145 410.624 260.039 408.869 261.531 406.329C262.598 404.714 263 402.194 262.477 400.323C260.849 394.493 258.533 387.997 255.404 380.544C247.866 365.751 237.062 351.15 226.604 337.046C223.401 332.718 220.257 328.473 217.318 324.365C211.304 315.944 206.343 306.335 201.441 296.86C196.206 286.721 190.796 276.249 183.837 266.826C181.929 264.235 179.934 261.744 177.676 258.955C171.906 251.82 166.919 245.662 164.286 237.275C161.98 229.889 159.416 227.262 156.406 224.16C155.349 223.076 154.162 221.866 152.764 220.163C149.726 209.658 142.357 200.786 135.206 192.163C131.148 187.281 126.951 182.23 124.064 177.282C122.468 174.556 120.664 172.032 118.535 169.564C116.362 167.047 113.837 164.556 110.811 161.965C108.611 160.087 106.318 158.277 104.097 156.532C98.6818 152.274 94.01 148.601 90.455 143.713C87.3167 139.386 86.4671 137.309 85.9081 135.929C83.9397 131.063 80.7637 130.421 76.7417 129.602C75.4655 129.344 73.7872 129.002 71.5577 128.485C66.0489 127.219 54.9881 113.083 50.9661 104.884C46.243 95.205 37.3146 82.0747 28.3285 71.0742L38.473 73.6702C41.4907 75.6322 44.8692 76.9058 48.2289 78.1867C51.8421 79.5568 55.2568 80.8523 58.0931 82.9549C62.8509 86.4957 64.567 89.2372 67.4283 93.7821C68.401 95.3125 69.4478 96.9674 70.7165 98.7613C75.9617 106.242 85.9891 112.529 94.8482 118.085C98.0224 120.064 101.017 121.942 103.601 123.753C108.505 127.204 114.799 126.997 120.41 126.809C122.26 126.742 124.002 126.665 125.572 126.8C129.278 127.104 131.959 128.591 135.12 130.331C139.199 132.569 143.826 135.103 150.94 135.456C156.362 135.733 161.948 137.401 167.356 139.012C174.663 141.197 182.217 143.452 190.185 142.721C195.337 142.241 200.535 146.294 203.25 151.248L195.692 159.789C195.175 160.089 194.195 160.537 193.493 160.865C189.751 162.582 183.468 165.459 184.091 171.754C185.799 188.8 201.878 188.447 211.497 188.231C214.526 188.165 220.156 188.037 221.212 188.774C221.214 188.782 221.59 189.855 220.641 192.987C220.599 193.12 217.439 206.867 221.007 212.666C222.014 214.299 223.904 215.654 225.797 215.975C228.528 216.449 231.947 215.519 237.393 213.704C240.843 212.535 245.022 211.283 246.817 211.205C246.774 211.746 246.678 212.541 246.408 213.638C246.076 214.951 245.581 216.378 245.022 218.037C243.18 223.347 240.888 229.951 244.4 235.311C246.499 238.49 250.12 240.319 255.196 240.769C260.344 241.194 265.616 243.397 267.46 245.871C268.569 247.349 269.609 249.385 270.808 251.707C271.809 253.657 272.848 255.64 274.132 257.613C273.675 257.955 273.169 258.321 272.785 258.598C269.595 260.844 263.664 265.02 265.006 272.736C265.844 277.556 269.895 279.536 272.88 280.987C276.81 282.879 278.613 283.753 278.059 288.415C276.018 296.267 277.429 305.634 281.65 312.288C284.88 317.35 289.472 320.568 294.94 321.571C296.8 321.918 298.726 321.918 300.666 321.581C307.382 320.413 312.858 315.407 317.283 311.368C318.562 310.205 320.313 308.617 321.57 307.675C322.045 308.941 322.701 311.277 323.283 315.435C324.205 321.876 327.712 325.21 330.552 327.918C331.588 328.884 332.654 329.902 333.663 331.204C335.278 333.273 335.609 341.717 335.803 346.783C336.019 352.595 336.241 358.609 337.664 363.197C337.891 363.989 338.062 366.692 338.204 369.062C338.725 377.978 339.429 390.201 348.663 389.952C351.386 389.959 354.346 388.459 358.092 386.459C358.699 386.144 359.483 385.729 360.247 385.341C363.885 393.562 360.488 404.415 357.105 415.279C354.878 422.44 352.789 429.206 352.707 434.909C352.45 436.709 351.396 439.234 350.227 442.033C347.274 449.006 342.29 460.741 352.437 467.878L352.434 467.876Z" fill="#262626"/>
<path d="M237.645 78.1661C239.183 78.1661 240.431 76.9188 240.431 75.3801C240.431 73.8415 239.183 72.5942 237.645 72.5942C236.106 72.5942 234.859 73.8415 234.859 75.3801C234.859 76.9188 236.106 78.1661 237.645 78.1661Z" fill="white"/>
<path d="M266.247 81.8814C267.786 81.8814 269.033 80.6341 269.033 79.0955C269.033 77.5569 267.786 76.3096 266.247 76.3096C264.709 76.3096 263.461 77.5569 263.461 79.0955C263.461 80.6341 264.709 81.8814 266.247 81.8814Z" fill="white"/>
<path d="M303.762 132.4C305.3 132.4 306.548 131.153 306.548 129.614C306.548 128.075 305.3 126.828 303.762 126.828C302.223 126.828 300.976 128.075 300.976 129.614C300.976 131.153 302.223 132.4 303.762 132.4Z" fill="white"/>
<path d="M97.9744 392.418C99.513 392.418 100.76 391.171 100.76 389.632C100.76 388.093 99.513 386.846 97.9744 386.846C96.4358 386.846 95.1885 388.093 95.1885 389.632C95.1885 391.171 96.4358 392.418 97.9744 392.418Z" fill="white"/>
<path d="M105.217 414.706C106.756 414.706 108.003 413.459 108.003 411.92C108.003 410.382 106.756 409.134 105.217 409.134C103.679 409.134 102.431 410.382 102.431 411.92C102.431 413.459 103.679 414.706 105.217 414.706Z" fill="white"/>
<path d="M70.6732 395.061C71.8255 395.061 72.7596 394.127 72.7596 392.975C72.7596 391.822 71.8255 390.888 70.6732 390.888C69.521 390.888 68.5869 391.822 68.5869 392.975C68.5869 394.127 69.521 395.061 70.6732 395.061Z" fill="white"/>
<path d="M183.966 438.848C185.121 438.848 186.058 437.911 186.058 436.755C186.058 435.599 185.121 434.663 183.966 434.663C182.81 434.663 181.873 435.599 181.873 436.755C181.873 437.911 182.81 438.848 183.966 438.848Z" fill="white"/>
<path d="M361.658 401.932C362.81 401.932 363.744 400.998 363.744 399.846C363.744 398.693 362.81 397.759 361.658 397.759C360.506 397.759 359.572 398.693 359.572 399.846C359.572 400.998 360.506 401.932 361.658 401.932Z" fill="white"/>
<path d="M413.295 345.848C414.451 345.848 415.388 344.911 415.388 343.756C415.388 342.6 414.451 341.663 413.295 341.663C412.14 341.663 411.203 342.6 411.203 343.756C411.203 344.911 412.14 345.848 413.295 345.848Z" fill="white"/>
<path d="M160.194 147.992C161.346 147.992 162.28 147.058 162.28 145.906C162.28 144.754 161.346 143.82 160.194 143.82C159.041 143.82 158.107 144.754 158.107 145.906C158.107 147.058 159.041 147.992 160.194 147.992Z" fill="white"/>
<path d="M217.03 106.255C218.182 106.255 219.117 105.321 219.117 104.169C219.117 103.017 218.182 102.083 217.03 102.083C215.878 102.083 214.944 103.017 214.944 104.169C214.944 105.321 215.878 106.255 217.03 106.255Z" fill="white"/>
<path d="M210.857 102.168C212.01 102.168 212.944 101.234 212.944 100.082C212.944 98.9297 212.01 97.9956 210.857 97.9956C209.705 97.9956 208.771 98.9297 208.771 100.082C208.771 101.234 209.705 102.168 210.857 102.168Z" fill="white"/>
<path d="M205.283 98.0843C206.435 98.0843 207.37 97.1502 207.37 95.998C207.37 94.8457 206.435 93.9116 205.283 93.9116C204.131 93.9116 203.197 94.8457 203.197 95.998C203.197 97.1502 204.131 98.0843 205.283 98.0843Z" fill="white"/>
<path d="M169.111 158.772C170.263 158.772 171.197 157.838 171.197 156.686C171.197 155.534 170.263 154.6 169.111 154.6C167.959 154.6 167.025 155.534 167.025 156.686C167.025 157.838 167.959 158.772 169.111 158.772Z" fill="white"/>
<path d="M252.821 50.1653C253.974 50.1653 254.908 49.2313 254.908 48.079C254.908 46.9268 253.974 45.9927 252.821 45.9927C251.669 45.9927 250.735 46.9268 250.735 48.079C250.735 49.2313 251.669 50.1653 252.821 50.1653Z" fill="white"/>
<path d="M266.576 110.342C267.728 110.342 268.662 109.408 268.662 108.256C268.662 107.104 267.728 106.169 266.576 106.169C265.423 106.169 264.489 107.104 264.489 108.256C264.489 109.408 265.423 110.342 266.576 110.342Z" fill="white"/>
<path d="M244.889 98.5892C246.042 98.5892 246.976 97.6551 246.976 96.5028C246.976 95.3506 246.042 94.4165 244.889 94.4165C243.737 94.4165 242.803 95.3506 242.803 96.5028C242.803 97.6551 243.737 98.5892 244.889 98.5892Z" fill="white"/>
<path d="M207.744 114.568C208.896 114.568 209.83 113.634 209.83 112.482C209.83 111.33 208.896 110.396 207.744 110.396C206.592 110.396 205.657 111.33 205.657 112.482C205.657 113.634 206.592 114.568 207.744 114.568Z" fill="white"/>
<path d="M371.555 457.052C372.707 457.052 373.641 456.118 373.641 454.965C373.641 453.813 372.707 452.879 371.555 452.879C370.403 452.879 369.469 453.813 369.469 454.965C369.469 456.118 370.403 457.052 371.555 457.052Z" fill="white"/>
<path d="M94.4456 405.841C95.6012 405.841 96.5381 404.904 96.5381 403.748C96.5381 402.593 95.6012 401.656 94.4456 401.656C93.2899 401.656 92.353 402.593 92.353 403.748C92.353 404.904 93.2899 405.841 94.4456 405.841Z" fill="white"/>
<path d="M239.684 432.769C240.84 432.769 241.776 431.832 241.776 430.676C241.776 429.52 240.84 428.583 239.684 428.583C238.528 428.583 237.591 429.52 237.591 430.676C237.591 431.832 238.528 432.769 239.684 432.769Z" fill="white"/>
<path d="M137.673 404.169C138.829 404.169 139.766 403.232 139.766 402.076C139.766 400.921 138.829 399.984 137.673 399.984C136.517 399.984 135.581 400.921 135.581 402.076C135.581 403.232 136.517 404.169 137.673 404.169Z" fill="white"/>
<path d="M155.738 433.654C156.894 433.654 157.83 432.717 157.83 431.562C157.83 430.406 156.894 429.469 155.738 429.469C154.582 429.469 153.645 430.406 153.645 431.562C153.645 432.717 154.582 433.654 155.738 433.654Z" fill="white"/>
<path d="M288.715 415.076C289.868 415.076 290.802 414.141 290.802 412.989C290.802 411.837 289.868 410.903 288.715 410.903C287.563 410.903 286.629 411.837 286.629 412.989C286.629 414.141 287.563 415.076 288.715 415.076Z" fill="white"/>
<path d="M362.033 373.701C363.185 373.701 364.119 372.767 364.119 371.615C364.119 370.462 363.185 369.528 362.033 369.528C360.881 369.528 359.947 370.462 359.947 371.615C359.947 372.767 360.881 373.701 362.033 373.701Z" fill="white"/>
<path d="M417.612 399.096C418.764 399.096 419.698 398.162 419.698 397.01C419.698 395.857 418.764 394.923 417.612 394.923C416.46 394.923 415.526 395.857 415.526 397.01C415.526 398.162 416.46 399.096 417.612 399.096Z" fill="white"/>
<path d="M436.559 411.218C437.712 411.218 438.646 410.284 438.646 409.132C438.646 407.98 437.712 407.045 436.559 407.045C435.407 407.045 434.473 407.98 434.473 409.132C434.473 410.284 435.407 411.218 436.559 411.218Z" fill="white"/>
<path d="M439.673 378.159C440.825 378.159 441.76 377.225 441.76 376.073C441.76 374.921 440.825 373.987 439.673 373.987C438.521 373.987 437.587 374.921 437.587 376.073C437.587 377.225 438.521 378.159 439.673 378.159Z" fill="white"/>
<path d="M163.301 331.356C164.453 331.356 165.387 330.422 165.387 329.269C165.387 328.117 164.453 327.183 163.301 327.183C162.149 327.183 161.215 328.117 161.215 329.269C161.215 330.422 162.149 331.356 163.301 331.356Z" fill="white"/>
<path d="M164.097 379.973C165.636 379.973 166.883 378.725 166.883 377.187C166.883 375.648 165.636 374.401 164.097 374.401C162.559 374.401 161.312 375.648 161.312 377.187C161.312 378.725 162.559 379.973 164.097 379.973Z" fill="white"/>
<path d="M180.808 415.262C182.347 415.262 183.594 414.015 183.594 412.476C183.594 410.938 182.347 409.69 180.808 409.69C179.269 409.69 178.022 410.938 178.022 412.476C178.022 414.015 179.269 415.262 180.808 415.262Z" fill="white"/>
<path d="M381.027 378.489C382.566 378.489 383.813 377.242 383.813 375.703C383.813 374.164 382.566 372.917 381.027 372.917C379.488 372.917 378.241 374.164 378.241 375.703C378.241 377.242 379.488 378.489 381.027 378.489Z" fill="white"/>
<path d="M453.087 374.402C454.626 374.402 455.873 373.155 455.873 371.616C455.873 370.077 454.626 368.83 453.087 368.83C451.549 368.83 450.301 370.077 450.301 371.616C450.301 373.155 451.549 374.402 453.087 374.402Z" fill="white"/>
<path d="M417.429 359.172C418.968 359.172 420.215 357.925 420.215 356.386C420.215 354.848 418.968 353.601 417.429 353.601C415.89 353.601 414.643 354.848 414.643 356.386C414.643 357.925 415.89 359.172 417.429 359.172Z" fill="white"/>
<path d="M381.027 360.657C382.566 360.657 383.813 359.409 383.813 357.871C383.813 356.332 382.566 355.085 381.027 355.085C379.488 355.085 378.241 356.332 378.241 357.871C378.241 359.409 379.488 360.657 381.027 360.657Z" fill="white"/>
<path d="M305.933 73.6354L312.86 72.9729L305.945 72.5829C305.728 71.2457 304.657 70.1994 303.308 70.0261L302.645 63.1294L302.249 70.0818C300.999 70.3604 300.039 71.4066 299.884 72.7067L292.802 73.3506L299.934 73.7344C300.194 74.9293 301.159 75.8641 302.373 76.087L303.017 83.1941L303.394 76.0993C304.676 75.8827 305.691 74.8983 305.933 73.6354Z" fill="white"/>
<path d="M189.013 150.762L195.941 150.099L189.025 149.709C188.815 148.372 187.738 147.326 186.388 147.153L185.726 140.256L185.335 147.208C184.079 147.487 183.119 148.533 182.964 149.833L175.882 150.477L183.014 150.861C183.274 152.056 184.24 152.991 185.453 153.213L186.097 160.321L186.481 153.226C187.762 153.015 188.778 152.025 189.013 150.762Z" fill="white"/>
<path d="M448.009 354.678L454.937 354.015L448.021 353.625C447.811 352.288 446.734 351.242 445.384 351.069L444.722 344.172L444.332 351.124C443.081 351.403 442.121 352.449 441.967 353.749L434.884 354.393L442.016 354.777C442.276 355.972 443.242 356.907 444.455 357.129L445.099 364.237L445.483 357.142C446.752 356.931 447.768 355.947 448.009 354.678Z" fill="white"/>
<path d="M165.609 461.299L172.537 460.636L165.622 460.246C165.405 458.909 164.334 457.863 162.984 457.689L162.322 450.799L161.932 457.745C160.675 458.024 159.716 459.07 159.561 460.37L152.479 461.014L159.61 461.398C159.87 462.592 160.836 463.534 162.05 463.75L162.694 470.857L163.077 463.763C164.353 463.552 165.374 462.562 165.609 461.299Z" fill="white"/>
<path d="M426.002 409.293L432.93 408.63L426.015 408.24C425.804 406.903 424.727 405.857 423.377 405.683L422.715 398.787L422.325 405.733C421.074 406.011 420.115 407.058 419.96 408.358L412.878 409.002L420.01 409.385C420.27 410.58 421.235 411.515 422.449 411.738L423.093 418.845L423.477 411.75C424.746 411.546 425.767 410.556 426.002 409.293Z" fill="white"/>
<path d="M209.398 159.125L168.288 222.779V259.661H145.827V222.779L105.132 159.125H131.157L155.441 196.339C155.607 197.168 156.187 197.582 157.182 197.582C158.177 197.582 158.895 197.168 159.337 196.339L183.124 159.125H209.398ZM234.179 259.661H211.801V158.379H234.179V259.661ZM301.811 219.712H280.262C274.736 219.712 270.786 221.563 268.41 225.265C266.807 227.807 266.006 230.984 266.006 234.797C266.006 236.178 266.006 237.007 266.006 237.283C266.061 237.559 266.144 237.836 266.255 238.112V259.661H244.208C244.208 258.004 244.208 255.71 244.208 252.782C244.208 249.853 244.208 246.013 244.208 241.261C244.208 236.509 244.208 231.454 244.208 226.094C244.208 218.027 246.197 211.507 250.176 206.534C254.817 200.732 261.641 197.831 270.648 197.831H298.082C300.623 197.831 302.585 196.975 303.966 195.262C305.348 193.494 306.038 191.422 306.038 189.046C306.038 186.504 305.375 184.377 304.049 182.664C302.557 180.73 300.568 179.763 298.082 179.763H244.208V158.379H301.811C310.431 158.379 317.255 161.556 322.283 167.911C326.814 173.657 329.08 180.702 329.08 189.046C329.08 197.334 326.814 204.351 322.283 210.098C317.255 216.507 310.431 219.712 301.811 219.712ZM121.294 381.661H71.8134C59.9336 381.661 50.5403 376.495 43.6334 366.162C37.4449 356.879 34.3506 345.442 34.3506 331.849C34.3506 318.035 37.5002 306.266 43.7992 296.541C50.7613 285.767 60.0993 280.379 71.8134 280.379H121.294V301.763H75.5431C70.0176 301.763 65.6801 304.691 62.5306 310.548C59.7126 315.797 58.3036 322.29 58.3036 330.026C58.3036 337.982 59.7678 344.779 62.6963 350.415C65.9011 356.603 70.1833 359.697 75.5431 359.697H121.294V381.661ZM215.945 381.661H175.582C162.818 381.661 152.706 378.456 145.247 372.047C139.39 367.019 135.246 360.167 132.815 351.492C131.212 345.801 130.411 339.612 130.411 332.926C130.411 331.379 130.411 330.302 130.411 329.694C130.466 329.031 130.549 328.451 130.66 327.954V280.379H153.038V327.954C153.038 336.518 154.834 343.729 158.425 349.586C162.569 356.327 168.288 359.697 175.582 359.697H215.945V381.661ZM399.612 331.103C401.657 333.755 403.176 336.739 404.171 340.054C405.221 343.37 405.745 346.906 405.745 350.663C405.745 358.951 403.452 366.024 398.866 371.881C393.783 378.401 386.931 381.661 378.311 381.661H320.708V360.526H374.582C377.068 360.526 379.057 359.559 380.549 357.625C381.875 355.912 382.538 353.785 382.538 351.243C382.538 348.757 381.903 346.713 380.632 345.11C379.196 343.287 377.179 342.375 374.582 342.375H320.708V319.831H374.582C377.124 319.831 379.085 318.975 380.466 317.262C381.848 315.494 382.538 313.422 382.538 311.046C382.538 308.504 381.875 306.377 380.549 304.664C379.057 302.73 377.068 301.763 374.582 301.763H320.708V280.379H378.311C386.876 280.379 393.755 283.694 398.949 290.325C403.646 296.348 405.994 303.531 405.994 311.874C405.994 315.576 405.442 319.085 404.336 322.4C403.287 325.716 401.712 328.617 399.612 331.103Z" fill="white"/>
</svg>
