<svg width="578" height="595" viewBox="0 0 578 595" fill="none" xmlns="http://www.w3.org/2000/svg">
<g filter="url(#filter0_d_448_262)">
<mask id="path-1-outside-1_448_262" maskUnits="userSpaceOnUse" x="26.0039" y="37.9924" width="477" height="477" fill="black">
<rect fill="white" x="26.0039" y="37.9924" width="477" height="477"/>
<path d="M502.004 276.492C502.004 407.66 395.672 513.992 264.504 513.992C133.336 513.992 27.0039 407.66 27.0039 276.492C27.0039 145.325 133.336 38.9924 264.504 38.9924C395.672 38.9924 502.004 145.325 502.004 276.492Z"/>
</mask>
<path d="M502.004 276.492C502.004 407.66 395.672 513.992 264.504 513.992C133.336 513.992 27.0039 407.66 27.0039 276.492C27.0039 145.325 133.336 38.9924 264.504 38.9924C395.672 38.9924 502.004 145.325 502.004 276.492Z" fill="#262626"/>
<path d="M501.004 276.492C501.004 407.108 395.119 512.992 264.504 512.992V514.992C396.224 514.992 503.004 408.212 503.004 276.492H501.004ZM264.504 512.992C133.889 512.992 28.0039 407.108 28.0039 276.492H26.0039C26.0039 408.212 132.784 514.992 264.504 514.992V512.992ZM28.0039 276.492C28.0039 145.877 133.889 39.9924 264.504 39.9924V37.9924C132.784 37.9924 26.0039 144.773 26.0039 276.492H28.0039ZM264.504 39.9924C395.119 39.9924 501.004 145.877 501.004 276.492H503.004C503.004 144.773 396.224 37.9924 264.504 37.9924V39.9924Z" fill="white" mask="url(#path-1-outside-1_448_262)"/>
</g>
<path d="M350.362 345.359C350.362 357.073 345.831 366.411 336.77 373.373C328.592 379.672 318.591 382.821 306.766 382.821C295.273 382.821 285.604 379.727 277.758 373.539C268.972 366.632 264.579 357.238 264.579 345.359V280.379H286.543V341.712C286.543 347.016 288.808 351.271 293.339 354.476C297.483 357.404 302.484 358.868 308.341 358.868C313.977 358.868 318.729 357.459 322.597 354.641C326.907 351.492 329.062 347.182 329.062 341.712V280.379H350.362V345.359ZM439.461 331.103C441.505 333.755 443.024 336.739 444.019 340.054C445.069 343.369 445.594 346.906 445.594 350.663C445.594 358.951 443.301 366.024 438.715 371.881C433.631 378.401 426.78 381.661 418.16 381.661H360.557V360.526H414.43C416.917 360.526 418.906 359.559 420.398 357.625C421.724 355.912 422.387 353.785 422.387 351.243C422.387 348.757 421.751 346.712 420.481 345.11C419.044 343.287 417.027 342.375 414.43 342.375H360.557V319.831H414.43C416.972 319.831 418.933 318.975 420.315 317.262C421.696 315.493 422.387 313.421 422.387 311.045C422.387 308.504 421.724 306.376 420.398 304.664C418.906 302.73 416.917 301.763 414.43 301.763H360.557V280.379H418.16C426.724 280.379 433.604 283.694 438.798 290.325C443.494 296.348 445.842 303.531 445.842 311.874C445.842 315.576 445.29 319.085 444.185 322.4C443.135 325.716 441.56 328.616 439.461 331.103Z" fill="white"/>
<path d="M379.016 435.934C379.127 431.329 380.952 425.432 383.01 418.809C387.254 405.213 392.55 388.284 382.306 374.41C380.339 371.688 377.003 370.432 373.402 371.058C370.741 371.52 367.98 372.958 365.06 374.507C364.789 372.067 364.62 369.283 364.532 367.78C364.308 364.194 364.13 361.358 363.434 359.17C362.55 356.312 362.339 350.733 362.173 346.204C361.812 337.05 361.478 328.42 357.208 322.95C355.732 321.055 354.205 319.564 352.733 318.177C350.26 315.821 349.76 315.222 349.521 313.544C348.149 303.843 345.891 298.495 341.949 295.628C339.527 293.869 336.55 293.184 333.556 293.705C328.956 294.505 325.231 297.881 321.247 301.505C318.288 304.2 314.247 307.894 311.367 308.395C310.893 308.477 310.552 308.448 310.356 308.409C308.608 308.087 307.121 306.965 305.918 305.083C303.652 301.525 302.865 296.046 304.135 290.933C305.894 277.433 297.961 272.12 293.204 269.673C293.309 269.602 293.413 269.528 293.51 269.458C303.604 262.293 301.836 255.305 298.594 250.685C297.49 249.121 296.586 247.308 295.496 245.201C294.296 242.87 292.931 240.221 291.169 237.843C286.112 231.072 276.226 227.991 269.322 227.407C269.241 227.405 269.167 227.398 269.101 227.393C269.445 225.84 270.216 223.61 270.77 222.012C271.362 220.262 271.956 218.479 272.376 216.788C272.971 214.335 274.797 206.843 269.9 201.619C266.787 198.272 262.145 197.117 256.134 198.163C252.729 198.755 249.209 199.944 246.127 200.997C246.042 201.02 245.947 201.056 245.862 201.079C246.025 199.25 246.257 197.519 246.444 196.784C248.441 190.114 247.928 184.725 244.902 180.746C240.128 174.467 231.653 174.669 224.178 174.839C216.107 175.023 212.839 174.594 211.441 173.263C211.683 173.148 211.919 173.042 212.102 172.958C213.892 172.13 215.753 171.273 217.402 169.937C217.677 169.708 217.946 169.463 218.184 169.187L229.016 156.956C230.56 155.223 230.934 152.291 230.262 150.075C226.884 138.914 215.359 128.125 201.94 129.38C196.565 129.879 190.824 128.164 184.184 126.174C178.023 124.335 171.662 122.438 164.626 122.071C160.566 121.872 158.049 120.493 154.528 118.562C150.837 116.535 146.238 114 139.704 113.453C137.647 113.278 135.353 113.342 132.918 113.43C130.157 113.523 125.544 113.671 124.307 112.804C121.533 110.852 118.328 108.834 114.936 106.719C107.547 102.09 98.3616 96.327 94.6564 91.037C93.5164 89.4266 92.5913 87.9606 91.4957 86.2334C88.5926 81.6112 85.8463 77.2402 79.071 72.1971C74.7412 68.9816 70.0815 67.2122 65.873 65.6227C62.8912 64.4941 60.0739 63.4297 58.2493 62.0838C57.5559 61.5787 56.7771 61.2094 55.9438 60.991L22.382 52.4153C19.4211 51.6625 16.318 53.0176 14.8578 55.6938C13.3995 58.3818 13.9429 61.7148 16.1852 63.7915L18.9568 66.3575C29.5851 76.1929 45.6242 97.755 51.9665 110.733C54.1399 115.176 68.0438 138.394 81.5711 141.495C83.9544 142.038 85.7481 142.416 87.1028 142.685C87.1703 142.701 87.2318 142.707 87.2993 142.723C88.1726 144.635 89.6768 147.457 92.6611 151.549C97.3088 157.939 103.182 162.553 108.863 167.015C110.938 168.644 113.085 170.334 115.135 172.093C117.645 174.244 119.705 176.272 121.438 178.276C123.026 180.115 124.374 181.996 125.545 183.993C128.978 189.899 133.746 195.635 137.963 200.707C144.415 208.491 151.101 216.545 153.163 224.668C153.266 225.094 153.592 225.877 153.785 226.267C153.999 226.711 154.261 227.125 154.563 227.517C156.661 230.18 158.361 231.947 159.893 233.51C162.292 235.979 163.194 236.896 164.55 241.254C167.95 252.076 174.229 259.837 180.609 267.715C182.438 269.972 184.316 272.298 186.109 274.736C192.437 283.312 197.603 293.31 202.7 303.166C207.715 312.875 212.909 322.913 219.484 332.125C222.471 336.301 225.663 340.61 228.904 344.992C234.992 353.211 241.214 361.6 246.681 369.89C245.433 370.603 244.378 371.618 243.668 372.856C241.419 376.566 241.471 381.114 247.599 399.617L248.821 403.321C253.613 418.087 259.586 436.462 273.028 446.688C274.325 447.811 277.525 453.258 279.244 456.18C282.865 462.332 285.854 467.4 289.43 469.972C289.228 470.576 289.077 471.216 288.979 471.903C288.695 474.169 289.015 477.614 292.2 481.165C295.747 485.078 299.889 487.305 303.92 489.475C307.37 491.325 310.63 493.056 313.084 495.838C322.784 506.739 333.737 518.355 342.231 522.945C349.47 531.073 360.573 539.505 373.003 546.242L374.298 546.929C375.624 547.639 377.128 547.858 378.566 547.608C379.275 547.485 379.968 547.247 380.615 546.9C382.58 545.828 383.882 543.845 384.07 541.604L384.194 540.182C385.802 522.756 387.587 519.229 387.642 519.126C388.002 518.502 388.667 517.729 389.518 516.656C392.556 512.818 396.355 508.035 395.626 502.381C394.566 494.055 389.278 490.066 386.093 487.653C385.292 487.041 384.187 486.212 384.072 486.179C384.071 486.171 383.993 485.305 384.99 482.935C390.977 468.681 381.595 462.529 375.889 458.782C375.012 458.22 374.094 457.612 373.155 456.944C371.837 456.027 374.093 450.729 375.671 447.011C377.035 443.669 378.479 440.225 379.017 435.937L379.016 435.934ZM365.434 467.876C366.524 468.643 367.612 469.37 368.619 470.007C374.215 473.68 374.292 473.82 372.634 477.754C367.383 490.249 374.029 495.291 378.038 498.336C380.783 500.398 382.013 501.435 382.353 503.435C382.093 504.449 380.095 506.985 378.839 508.56C377.721 509.973 376.695 511.319 376.08 512.358C375.329 513.655 373.525 516.747 371.817 530.071C363.445 524.781 356.248 518.85 351.451 513.222C350.825 512.479 350.044 511.884 349.159 511.485C341.864 508.123 327.679 492.177 323.036 486.952C318.999 482.402 314.102 479.778 310.195 477.692C307.65 476.318 305.367 475.096 303.489 473.513C303.724 473.355 303.962 473.213 304.165 473.081C305.729 472.094 307.504 470.97 308.797 469.445C313.606 463.926 312.053 460.033 311.1 458.827C310.091 457.084 307.457 454.313 301.25 455.392C299.326 455.727 297.366 456.366 295.591 457.228C294.054 455.053 292.002 451.566 290.731 449.41C286.739 442.635 284.105 438.354 281.136 436.093C273.767 430.491 268.975 420.464 265.292 410.406C269.145 410.624 273.039 408.869 274.531 406.329C275.598 404.714 276 402.194 275.477 400.323C273.849 394.493 271.533 387.997 268.404 380.544C260.866 365.75 250.062 351.15 239.604 337.046C236.401 332.718 233.257 328.472 230.318 324.365C224.304 315.944 219.343 306.334 214.441 296.86C209.206 286.721 203.796 276.249 196.837 266.826C194.929 264.235 192.934 261.744 190.676 258.955C184.906 251.82 179.919 245.662 177.286 237.275C174.98 229.889 172.416 227.262 169.406 224.16C168.349 223.076 167.162 221.866 165.764 220.163C162.726 209.658 155.357 200.786 148.206 192.163C144.148 187.281 139.951 182.23 137.064 177.282C135.468 174.556 133.664 172.032 131.535 169.564C129.362 167.047 126.837 164.556 123.811 161.965C121.611 160.087 119.318 158.277 117.097 156.532C111.682 152.274 107.01 148.601 103.455 143.713C100.317 139.386 99.4671 137.309 98.9081 135.929C96.9397 131.063 93.7637 130.421 89.7417 129.602C88.4655 129.344 86.7872 129.002 84.5577 128.485C79.0489 127.219 67.9881 113.083 63.9661 104.884C59.243 95.2049 50.3146 82.0747 41.3285 71.0741L51.473 73.6701C54.4907 75.6322 57.8692 76.9058 61.2289 78.1867C64.8421 79.5567 68.2568 80.8523 71.0931 82.9549C75.8509 86.4957 77.567 89.2372 80.4283 93.782C81.401 95.3125 82.4478 96.9674 83.7165 98.7612C88.9617 106.242 98.9891 112.529 107.848 118.085C111.022 120.064 114.017 121.942 116.601 123.753C121.505 127.204 127.799 126.997 133.41 126.809C135.26 126.742 137.002 126.665 138.572 126.799C142.278 127.104 144.959 128.591 148.12 130.331C152.199 132.569 156.826 135.102 163.94 135.456C169.362 135.732 174.948 137.401 180.356 139.012C187.663 141.197 195.217 143.452 203.185 142.721C208.337 142.241 213.535 146.294 216.25 151.248L208.692 159.789C208.175 160.088 207.195 160.537 206.493 160.865C202.751 162.582 196.468 165.459 197.091 171.753C198.799 188.799 214.878 188.447 224.497 188.231C227.526 188.165 233.156 188.037 234.212 188.774C234.214 188.782 234.59 189.855 233.641 192.987C233.599 193.12 230.439 206.867 234.007 212.666C235.014 214.299 236.904 215.654 238.797 215.975C241.528 216.448 244.947 215.519 250.393 213.704C253.843 212.535 258.022 211.283 259.817 211.205C259.774 211.745 259.678 212.541 259.408 213.638C259.076 214.951 258.581 216.378 258.022 218.037C256.18 223.347 253.888 229.951 257.4 235.311C259.499 238.49 263.12 240.319 268.196 240.769C273.344 241.193 278.616 243.397 280.46 245.871C281.569 247.349 282.609 249.385 283.808 251.707C284.809 253.657 285.848 255.64 287.132 257.613C286.675 257.955 286.169 258.321 285.785 258.598C282.595 260.844 276.664 265.02 278.006 272.736C278.844 277.556 282.895 279.536 285.88 280.987C289.81 282.879 291.613 283.753 291.059 288.415C289.018 296.267 290.429 305.634 294.65 312.288C297.88 317.35 302.472 320.568 307.94 321.571C309.8 321.918 311.726 321.918 313.666 321.581C320.382 320.413 325.858 315.407 330.283 311.368C331.562 310.205 333.313 308.617 334.57 307.675C335.045 308.941 335.701 311.277 336.283 315.435C337.205 321.876 340.712 325.21 343.552 327.918C344.588 328.884 345.654 329.902 346.663 331.204C348.278 333.273 348.609 341.717 348.803 346.783C349.019 352.595 349.241 358.608 350.664 363.197C350.891 363.989 351.062 366.692 351.204 369.062C351.725 377.978 352.429 390.2 361.663 389.952C364.386 389.959 367.346 388.459 371.092 386.459C371.699 386.143 372.483 385.729 373.247 385.341C376.885 393.562 373.488 404.415 370.105 415.278C367.878 422.44 365.789 429.206 365.707 434.909C365.45 436.709 364.396 439.234 363.227 442.033C360.274 449.006 355.29 460.741 365.437 467.878L365.434 467.876Z" fill="#FA5252"/>
<path d="M250.645 78.1658C252.183 78.1658 253.431 76.9185 253.431 75.3799C253.431 73.8413 252.183 72.594 250.645 72.594C249.106 72.594 247.859 73.8413 247.859 75.3799C247.859 76.9185 249.106 78.1658 250.645 78.1658Z" fill="white"/>
<path d="M279.247 81.881C280.786 81.881 282.033 80.6337 282.033 79.0951C282.033 77.5564 280.786 76.3091 279.247 76.3091C277.709 76.3091 276.461 77.5564 276.461 79.0951C276.461 80.6337 277.709 81.881 279.247 81.881Z" fill="white"/>
<path d="M316.762 132.4C318.3 132.4 319.548 131.152 319.548 129.614C319.548 128.075 318.3 126.828 316.762 126.828C315.223 126.828 313.976 128.075 313.976 129.614C313.976 131.152 315.223 132.4 316.762 132.4Z" fill="white"/>
<path d="M110.974 392.418C112.513 392.418 113.76 391.171 113.76 389.632C113.76 388.093 112.513 386.846 110.974 386.846C109.436 386.846 108.188 388.093 108.188 389.632C108.188 391.171 109.436 392.418 110.974 392.418Z" fill="white"/>
<path d="M118.217 414.706C119.756 414.706 121.003 413.459 121.003 411.92C121.003 410.381 119.756 409.134 118.217 409.134C116.679 409.134 115.431 410.381 115.431 411.92C115.431 413.459 116.679 414.706 118.217 414.706Z" fill="white"/>
<path d="M83.6732 395.06C84.8255 395.06 85.7596 394.126 85.7596 392.974C85.7596 391.822 84.8255 390.888 83.6732 390.888C82.521 390.888 81.5869 391.822 81.5869 392.974C81.5869 394.126 82.521 395.06 83.6732 395.06Z" fill="white"/>
<path d="M196.966 438.847C198.121 438.847 199.058 437.911 199.058 436.755C199.058 435.599 198.121 434.662 196.966 434.662C195.81 434.662 194.873 435.599 194.873 436.755C194.873 437.911 195.81 438.847 196.966 438.847Z" fill="white"/>
<path d="M374.658 401.932C375.81 401.932 376.744 400.997 376.744 399.845C376.744 398.693 375.81 397.759 374.658 397.759C373.506 397.759 372.572 398.693 372.572 399.845C372.572 400.997 373.506 401.932 374.658 401.932Z" fill="white"/>
<path d="M426.295 345.848C427.451 345.848 428.388 344.911 428.388 343.755C428.388 342.6 427.451 341.663 426.295 341.663C425.14 341.663 424.203 342.6 424.203 343.755C424.203 344.911 425.14 345.848 426.295 345.848Z" fill="white"/>
<path d="M173.194 147.992C174.346 147.992 175.28 147.058 175.28 145.906C175.28 144.754 174.346 143.82 173.194 143.82C172.041 143.82 171.107 144.754 171.107 145.906C171.107 147.058 172.041 147.992 173.194 147.992Z" fill="white"/>
<path d="M230.03 106.255C231.182 106.255 232.117 105.321 232.117 104.169C232.117 103.017 231.182 102.082 230.03 102.082C228.878 102.082 227.944 103.017 227.944 104.169C227.944 105.321 228.878 106.255 230.03 106.255Z" fill="white"/>
<path d="M223.857 102.168C225.01 102.168 225.944 101.234 225.944 100.082C225.944 98.9296 225.01 97.9955 223.857 97.9955C222.705 97.9955 221.771 98.9296 221.771 100.082C221.771 101.234 222.705 102.168 223.857 102.168Z" fill="white"/>
<path d="M218.283 98.0842C219.435 98.0842 220.369 97.1501 220.369 95.9978C220.369 94.8456 219.435 93.9115 218.283 93.9115C217.131 93.9115 216.197 94.8456 216.197 95.9978C216.197 97.1501 217.131 98.0842 218.283 98.0842Z" fill="white"/>
<path d="M182.111 158.772C183.264 158.772 184.198 157.838 184.198 156.686C184.198 155.533 183.264 154.599 182.111 154.599C180.959 154.599 180.025 155.533 180.025 156.686C180.025 157.838 180.959 158.772 182.111 158.772Z" fill="white"/>
<path d="M265.821 50.1651C266.974 50.1651 267.908 49.231 267.908 48.0788C267.908 46.9265 266.974 45.9924 265.821 45.9924C264.669 45.9924 263.735 46.9265 263.735 48.0788C263.735 49.231 264.669 50.1651 265.821 50.1651Z" fill="white"/>
<path d="M279.576 110.342C280.728 110.342 281.662 109.408 281.662 108.256C281.662 107.103 280.728 106.169 279.576 106.169C278.423 106.169 277.489 107.103 277.489 108.256C277.489 109.408 278.423 110.342 279.576 110.342Z" fill="white"/>
<path d="M257.889 98.589C259.042 98.589 259.976 97.6549 259.976 96.5027C259.976 95.3504 259.042 94.4163 257.889 94.4163C256.737 94.4163 255.803 95.3504 255.803 96.5027C255.803 97.6549 256.737 98.589 257.889 98.589Z" fill="white"/>
<path d="M220.744 114.568C221.896 114.568 222.83 113.634 222.83 112.482C222.83 111.33 221.896 110.395 220.744 110.395C219.592 110.395 218.657 111.33 218.657 112.482C218.657 113.634 219.592 114.568 220.744 114.568Z" fill="white"/>
<path d="M384.555 457.051C385.707 457.051 386.641 456.117 386.641 454.965C386.641 453.813 385.707 452.878 384.555 452.878C383.403 452.878 382.469 453.813 382.469 454.965C382.469 456.117 383.403 457.051 384.555 457.051Z" fill="white"/>
<path d="M107.446 405.84C108.601 405.84 109.538 404.904 109.538 403.748C109.538 402.592 108.601 401.655 107.446 401.655C106.29 401.655 105.353 402.592 105.353 403.748C105.353 404.904 106.29 405.84 107.446 405.84Z" fill="white"/>
<path d="M252.684 432.768C253.84 432.768 254.777 431.832 254.777 430.676C254.777 429.52 253.84 428.583 252.684 428.583C251.528 428.583 250.592 429.52 250.592 430.676C250.592 431.832 251.528 432.768 252.684 432.768Z" fill="white"/>
<path d="M150.673 404.169C151.829 404.169 152.766 403.232 152.766 402.076C152.766 400.921 151.829 399.984 150.673 399.984C149.517 399.984 148.581 400.921 148.581 402.076C148.581 403.232 149.517 404.169 150.673 404.169Z" fill="white"/>
<path d="M168.738 433.654C169.894 433.654 170.831 432.717 170.831 431.562C170.831 430.406 169.894 429.469 168.738 429.469C167.582 429.469 166.646 430.406 166.646 431.562C166.646 432.717 167.582 433.654 168.738 433.654Z" fill="white"/>
<path d="M301.715 415.075C302.868 415.075 303.802 414.141 303.802 412.989C303.802 411.836 302.868 410.902 301.715 410.902C300.563 410.902 299.629 411.836 299.629 412.989C299.629 414.141 300.563 415.075 301.715 415.075Z" fill="white"/>
<path d="M375.033 373.701C376.185 373.701 377.119 372.766 377.119 371.614C377.119 370.462 376.185 369.528 375.033 369.528C373.881 369.528 372.947 370.462 372.947 371.614C372.947 372.766 373.881 373.701 375.033 373.701Z" fill="white"/>
<path d="M430.612 399.096C431.764 399.096 432.698 398.162 432.698 397.01C432.698 395.857 431.764 394.923 430.612 394.923C429.46 394.923 428.526 395.857 428.526 397.01C428.526 398.162 429.46 399.096 430.612 399.096Z" fill="white"/>
<path d="M449.559 411.218C450.712 411.218 451.646 410.284 451.646 409.132C451.646 407.979 450.712 407.045 449.559 407.045C448.407 407.045 447.473 407.979 447.473 409.132C447.473 410.284 448.407 411.218 449.559 411.218Z" fill="white"/>
<path d="M452.673 378.159C453.825 378.159 454.76 377.225 454.76 376.073C454.76 374.921 453.825 373.987 452.673 373.987C451.521 373.987 450.587 374.921 450.587 376.073C450.587 377.225 451.521 378.159 452.673 378.159Z" fill="white"/>
<path d="M176.301 331.356C177.453 331.356 178.388 330.422 178.388 329.269C178.388 328.117 177.453 327.183 176.301 327.183C175.149 327.183 174.215 328.117 174.215 329.269C174.215 330.422 175.149 331.356 176.301 331.356Z" fill="white"/>
<path d="M177.097 379.973C178.636 379.973 179.883 378.725 179.883 377.187C179.883 375.648 178.636 374.401 177.097 374.401C175.559 374.401 174.312 375.648 174.312 377.187C174.312 378.725 175.559 379.973 177.097 379.973Z" fill="white"/>
<path d="M193.808 415.262C195.347 415.262 196.594 414.015 196.594 412.476C196.594 410.937 195.347 409.69 193.808 409.69C192.27 409.69 191.022 410.937 191.022 412.476C191.022 414.015 192.27 415.262 193.808 415.262Z" fill="white"/>
<path d="M394.027 378.488C395.566 378.488 396.813 377.241 396.813 375.702C396.813 374.164 395.566 372.917 394.027 372.917C392.488 372.917 391.241 374.164 391.241 375.702C391.241 377.241 392.488 378.488 394.027 378.488Z" fill="white"/>
<path d="M466.087 374.401C467.626 374.401 468.873 373.154 468.873 371.616C468.873 370.077 467.626 368.83 466.087 368.83C464.549 368.83 463.301 370.077 463.301 371.616C463.301 373.154 464.549 374.401 466.087 374.401Z" fill="white"/>
<path d="M430.429 359.172C431.968 359.172 433.215 357.925 433.215 356.386C433.215 354.848 431.968 353.6 430.429 353.6C428.89 353.6 427.643 354.848 427.643 356.386C427.643 357.925 428.89 359.172 430.429 359.172Z" fill="white"/>
<path d="M394.027 360.656C395.566 360.656 396.813 359.409 396.813 357.87C396.813 356.332 395.566 355.084 394.027 355.084C392.488 355.084 391.241 356.332 391.241 357.87C391.241 359.409 392.488 360.656 394.027 360.656Z" fill="white"/>
<path d="M318.933 73.6352L325.86 72.9728L318.945 72.5828C318.728 71.2456 317.657 70.1993 316.308 70.0259L315.645 63.1293L315.249 70.0817C313.999 70.3603 313.039 71.4065 312.884 72.7066L305.802 73.3505L312.934 73.7343C313.194 74.9291 314.159 75.864 315.373 76.0868L316.017 83.194L316.394 76.0992C317.676 75.8825 318.691 74.8982 318.933 73.6352Z" fill="white"/>
<path d="M202.013 150.762L208.94 150.099L202.025 149.709C201.815 148.372 200.737 147.326 199.388 147.152L198.725 140.256L198.335 147.208C197.079 147.487 196.119 148.533 195.964 149.833L188.882 150.477L196.014 150.861C196.274 152.056 197.24 152.99 198.453 153.213L199.097 160.32L199.481 153.226C200.762 153.015 201.778 152.025 202.013 150.762Z" fill="white"/>
<path d="M461.009 354.678L467.937 354.015L461.021 353.625C460.811 352.288 459.734 351.242 458.384 351.068L457.722 344.172L457.332 351.124C456.081 351.403 455.121 352.449 454.967 353.749L447.884 354.393L455.016 354.777C455.276 355.972 456.242 356.906 457.455 357.129L458.099 364.237L458.483 357.142C459.752 356.931 460.768 355.947 461.009 354.678Z" fill="white"/>
<path d="M178.609 461.298L185.537 460.636L178.622 460.246C178.405 458.909 177.334 457.863 175.984 457.689L175.322 450.799L174.932 457.745C173.675 458.024 172.716 459.07 172.561 460.37L165.479 461.014L172.61 461.398C172.87 462.592 173.836 463.533 175.05 463.75L175.694 470.857L176.077 463.762C177.353 463.552 178.374 462.561 178.609 461.298Z" fill="white"/>
<path d="M439.002 409.293L445.93 408.63L439.015 408.24C438.804 406.903 437.727 405.857 436.377 405.683L435.715 398.787L435.325 405.733C434.074 406.011 433.115 407.058 432.96 408.358L425.878 409.002L433.01 409.385C433.27 410.58 434.235 411.515 435.449 411.738L436.093 418.845L436.477 411.75C437.746 411.546 438.767 410.556 439.002 409.293Z" fill="white"/>
<path d="M248.398 159.125L207.288 222.778V259.661H184.827V222.778L144.132 159.125H170.157L194.441 196.339C194.607 197.168 195.187 197.582 196.182 197.582C197.177 197.582 197.895 197.168 198.337 196.339L222.124 159.125H248.398ZM273.179 259.661H250.801V158.379H273.179V259.661ZM340.811 219.712H319.262C313.736 219.712 309.786 221.563 307.41 225.265C305.807 227.807 305.006 230.984 305.006 234.796C305.006 236.178 305.006 237.006 305.006 237.283C305.061 237.559 305.144 237.835 305.255 238.112V259.661H283.208C283.208 258.003 283.208 255.71 283.208 252.782C283.208 249.853 283.208 246.013 283.208 241.261C283.208 236.509 283.208 231.453 283.208 226.094C283.208 218.026 285.197 211.506 289.176 206.533C293.817 200.732 300.641 197.831 309.648 197.831H337.082C339.623 197.831 341.585 196.974 342.966 195.261C344.348 193.493 345.038 191.421 345.038 189.045C345.038 186.504 344.375 184.376 343.049 182.663C341.557 180.729 339.568 179.763 337.082 179.763H283.208V158.379H340.811C349.431 158.379 356.255 161.556 361.283 167.91C365.814 173.657 368.08 180.702 368.08 189.045C368.08 197.334 365.814 204.351 361.283 210.097C356.255 216.507 349.431 219.712 340.811 219.712ZM160.294 381.661H110.813C98.9336 381.661 89.5403 376.495 82.6334 366.162C76.4449 356.879 73.3506 345.441 73.3506 331.849C73.3506 318.035 76.5002 306.266 82.7992 296.541C89.7613 285.766 99.0993 280.379 110.813 280.379H160.294V301.763H114.543C109.018 301.763 104.68 304.691 101.531 310.548C98.7126 315.797 97.3036 322.29 97.3036 330.025C97.3036 337.982 98.7678 344.778 101.696 350.414C104.901 356.603 109.183 359.697 114.543 359.697H160.294V381.661ZM254.945 381.661H214.582C201.818 381.661 191.706 378.456 184.247 372.047C178.39 367.018 174.246 360.167 171.815 351.492C170.212 345.801 169.411 339.612 169.411 332.926C169.411 331.379 169.411 330.302 169.411 329.694C169.466 329.031 169.549 328.451 169.66 327.953V280.379H192.038V327.953C192.038 336.518 193.834 343.729 197.425 349.586C201.569 356.327 207.288 359.697 214.582 359.697H254.945V381.661ZM438.612 331.103C440.657 333.755 442.176 336.739 443.171 340.054C444.221 343.369 444.745 346.906 444.745 350.663C444.745 358.951 442.452 366.024 437.866 371.881C432.783 378.401 425.931 381.661 417.311 381.661H359.708V360.526H413.582C416.068 360.526 418.057 359.559 419.549 357.625C420.875 355.912 421.538 353.785 421.538 351.243C421.538 348.757 420.903 346.712 419.632 345.11C418.196 343.286 416.179 342.375 413.582 342.375H359.708V319.831H413.582C416.124 319.831 418.085 318.974 419.466 317.261C420.848 315.493 421.538 313.421 421.538 311.045C421.538 308.504 420.875 306.376 419.549 304.663C418.057 302.729 416.068 301.763 413.582 301.763H359.708V280.379H417.311C425.876 280.379 432.755 283.694 437.949 290.325C442.646 296.348 444.994 303.531 444.994 311.874C444.994 315.576 444.442 319.085 443.336 322.4C442.287 325.715 440.712 328.616 438.612 331.103Z" fill="white"/>
<path d="M250.645 78.1658C252.183 78.1658 253.431 76.9185 253.431 75.3799C253.431 73.8413 252.183 72.594 250.645 72.594C249.106 72.594 247.859 73.8413 247.859 75.3799C247.859 76.9185 249.106 78.1658 250.645 78.1658Z" fill="white"/>
<path d="M279.247 81.881C280.786 81.881 282.033 80.6337 282.033 79.0951C282.033 77.5564 280.786 76.3091 279.247 76.3091C277.709 76.3091 276.461 77.5564 276.461 79.0951C276.461 80.6337 277.709 81.881 279.247 81.881Z" fill="white"/>
<path d="M316.762 132.4C318.3 132.4 319.548 131.152 319.548 129.614C319.548 128.075 318.3 126.828 316.762 126.828C315.223 126.828 313.976 128.075 313.976 129.614C313.976 131.152 315.223 132.4 316.762 132.4Z" fill="white"/>
<path d="M110.974 392.418C112.513 392.418 113.76 391.171 113.76 389.632C113.76 388.093 112.513 386.846 110.974 386.846C109.436 386.846 108.188 388.093 108.188 389.632C108.188 391.171 109.436 392.418 110.974 392.418Z" fill="white"/>
<path d="M118.217 414.706C119.756 414.706 121.003 413.459 121.003 411.92C121.003 410.381 119.756 409.134 118.217 409.134C116.679 409.134 115.431 410.381 115.431 411.92C115.431 413.459 116.679 414.706 118.217 414.706Z" fill="white"/>
<path d="M83.6732 395.06C84.8255 395.06 85.7596 394.126 85.7596 392.974C85.7596 391.822 84.8255 390.888 83.6732 390.888C82.521 390.888 81.5869 391.822 81.5869 392.974C81.5869 394.126 82.521 395.06 83.6732 395.06Z" fill="white"/>
<path d="M196.966 438.847C198.121 438.847 199.058 437.911 199.058 436.755C199.058 435.599 198.121 434.662 196.966 434.662C195.81 434.662 194.873 435.599 194.873 436.755C194.873 437.911 195.81 438.847 196.966 438.847Z" fill="white"/>
<path d="M374.658 401.932C375.81 401.932 376.744 400.997 376.744 399.845C376.744 398.693 375.81 397.759 374.658 397.759C373.506 397.759 372.572 398.693 372.572 399.845C372.572 400.997 373.506 401.932 374.658 401.932Z" fill="white"/>
<path d="M426.295 345.848C427.451 345.848 428.388 344.911 428.388 343.755C428.388 342.6 427.451 341.663 426.295 341.663C425.14 341.663 424.203 342.6 424.203 343.755C424.203 344.911 425.14 345.848 426.295 345.848Z" fill="white"/>
<path d="M173.194 147.992C174.346 147.992 175.28 147.058 175.28 145.906C175.28 144.754 174.346 143.82 173.194 143.82C172.041 143.82 171.107 144.754 171.107 145.906C171.107 147.058 172.041 147.992 173.194 147.992Z" fill="white"/>
<path d="M230.03 106.255C231.182 106.255 232.117 105.321 232.117 104.169C232.117 103.017 231.182 102.082 230.03 102.082C228.878 102.082 227.944 103.017 227.944 104.169C227.944 105.321 228.878 106.255 230.03 106.255Z" fill="white"/>
<path d="M223.857 102.168C225.01 102.168 225.944 101.234 225.944 100.082C225.944 98.9296 225.01 97.9955 223.857 97.9955C222.705 97.9955 221.771 98.9296 221.771 100.082C221.771 101.234 222.705 102.168 223.857 102.168Z" fill="white"/>
<path d="M218.283 98.0842C219.435 98.0842 220.369 97.1501 220.369 95.9978C220.369 94.8456 219.435 93.9115 218.283 93.9115C217.131 93.9115 216.197 94.8456 216.197 95.9978C216.197 97.1501 217.131 98.0842 218.283 98.0842Z" fill="white"/>
<path d="M182.111 158.772C183.264 158.772 184.198 157.838 184.198 156.686C184.198 155.533 183.264 154.599 182.111 154.599C180.959 154.599 180.025 155.533 180.025 156.686C180.025 157.838 180.959 158.772 182.111 158.772Z" fill="white"/>
<path d="M265.821 50.1651C266.974 50.1651 267.908 49.231 267.908 48.0788C267.908 46.9265 266.974 45.9924 265.821 45.9924C264.669 45.9924 263.735 46.9265 263.735 48.0788C263.735 49.231 264.669 50.1651 265.821 50.1651Z" fill="white"/>
<path d="M279.576 110.342C280.728 110.342 281.662 109.408 281.662 108.256C281.662 107.103 280.728 106.169 279.576 106.169C278.423 106.169 277.489 107.103 277.489 108.256C277.489 109.408 278.423 110.342 279.576 110.342Z" fill="white"/>
<path d="M257.889 98.589C259.042 98.589 259.976 97.6549 259.976 96.5027C259.976 95.3504 259.042 94.4163 257.889 94.4163C256.737 94.4163 255.803 95.3504 255.803 96.5027C255.803 97.6549 256.737 98.589 257.889 98.589Z" fill="white"/>
<path d="M220.744 114.568C221.896 114.568 222.83 113.634 222.83 112.482C222.83 111.33 221.896 110.395 220.744 110.395C219.592 110.395 218.657 111.33 218.657 112.482C218.657 113.634 219.592 114.568 220.744 114.568Z" fill="white"/>
<path d="M384.555 457.051C385.707 457.051 386.641 456.117 386.641 454.965C386.641 453.813 385.707 452.878 384.555 452.878C383.403 452.878 382.469 453.813 382.469 454.965C382.469 456.117 383.403 457.051 384.555 457.051Z" fill="white"/>
<path d="M107.446 405.84C108.601 405.84 109.538 404.904 109.538 403.748C109.538 402.592 108.601 401.655 107.446 401.655C106.29 401.655 105.353 402.592 105.353 403.748C105.353 404.904 106.29 405.84 107.446 405.84Z" fill="white"/>
<path d="M252.684 432.768C253.84 432.768 254.777 431.832 254.777 430.676C254.777 429.52 253.84 428.583 252.684 428.583C251.528 428.583 250.592 429.52 250.592 430.676C250.592 431.832 251.528 432.768 252.684 432.768Z" fill="white"/>
<path d="M150.673 404.169C151.829 404.169 152.766 403.232 152.766 402.076C152.766 400.921 151.829 399.984 150.673 399.984C149.517 399.984 148.581 400.921 148.581 402.076C148.581 403.232 149.517 404.169 150.673 404.169Z" fill="white"/>
<path d="M168.738 433.654C169.894 433.654 170.831 432.717 170.831 431.562C170.831 430.406 169.894 429.469 168.738 429.469C167.582 429.469 166.646 430.406 166.646 431.562C166.646 432.717 167.582 433.654 168.738 433.654Z" fill="white"/>
<path d="M301.715 415.075C302.868 415.075 303.802 414.141 303.802 412.989C303.802 411.836 302.868 410.902 301.715 410.902C300.563 410.902 299.629 411.836 299.629 412.989C299.629 414.141 300.563 415.075 301.715 415.075Z" fill="white"/>
<path d="M375.033 373.701C376.185 373.701 377.119 372.766 377.119 371.614C377.119 370.462 376.185 369.528 375.033 369.528C373.881 369.528 372.947 370.462 372.947 371.614C372.947 372.766 373.881 373.701 375.033 373.701Z" fill="white"/>
<path d="M430.612 399.096C431.764 399.096 432.698 398.162 432.698 397.01C432.698 395.857 431.764 394.923 430.612 394.923C429.46 394.923 428.526 395.857 428.526 397.01C428.526 398.162 429.46 399.096 430.612 399.096Z" fill="white"/>
<path d="M449.559 411.218C450.712 411.218 451.646 410.284 451.646 409.132C451.646 407.979 450.712 407.045 449.559 407.045C448.407 407.045 447.473 407.979 447.473 409.132C447.473 410.284 448.407 411.218 449.559 411.218Z" fill="white"/>
<path d="M452.673 378.159C453.825 378.159 454.76 377.225 454.76 376.073C454.76 374.921 453.825 373.987 452.673 373.987C451.521 373.987 450.587 374.921 450.587 376.073C450.587 377.225 451.521 378.159 452.673 378.159Z" fill="white"/>
<path d="M176.301 331.356C177.453 331.356 178.388 330.422 178.388 329.269C178.388 328.117 177.453 327.183 176.301 327.183C175.149 327.183 174.215 328.117 174.215 329.269C174.215 330.422 175.149 331.356 176.301 331.356Z" fill="white"/>
<path d="M177.097 379.973C178.636 379.973 179.883 378.725 179.883 377.187C179.883 375.648 178.636 374.401 177.097 374.401C175.559 374.401 174.312 375.648 174.312 377.187C174.312 378.725 175.559 379.973 177.097 379.973Z" fill="white"/>
<path d="M193.808 415.262C195.347 415.262 196.594 414.015 196.594 412.476C196.594 410.937 195.347 409.69 193.808 409.69C192.27 409.69 191.022 410.937 191.022 412.476C191.022 414.015 192.27 415.262 193.808 415.262Z" fill="white"/>
<path d="M394.027 378.488C395.566 378.488 396.813 377.241 396.813 375.702C396.813 374.164 395.566 372.917 394.027 372.917C392.488 372.917 391.241 374.164 391.241 375.702C391.241 377.241 392.488 378.488 394.027 378.488Z" fill="white"/>
<path d="M466.087 374.401C467.626 374.401 468.873 373.154 468.873 371.616C468.873 370.077 467.626 368.83 466.087 368.83C464.549 368.83 463.301 370.077 463.301 371.616C463.301 373.154 464.549 374.401 466.087 374.401Z" fill="white"/>
<path d="M430.429 359.172C431.968 359.172 433.215 357.925 433.215 356.386C433.215 354.848 431.968 353.6 430.429 353.6C428.89 353.6 427.643 354.848 427.643 356.386C427.643 357.925 428.89 359.172 430.429 359.172Z" fill="white"/>
<path d="M394.027 360.656C395.566 360.656 396.813 359.409 396.813 357.87C396.813 356.332 395.566 355.084 394.027 355.084C392.488 355.084 391.241 356.332 391.241 357.87C391.241 359.409 392.488 360.656 394.027 360.656Z" fill="white"/>
<path d="M318.933 73.6352L325.86 72.9728L318.945 72.5828C318.728 71.2456 317.657 70.1993 316.308 70.0259L315.645 63.1293L315.249 70.0817C313.999 70.3603 313.039 71.4065 312.884 72.7066L305.802 73.3505L312.934 73.7343C313.194 74.9291 314.159 75.864 315.373 76.0868L316.017 83.194L316.394 76.0992C317.676 75.8825 318.691 74.8982 318.933 73.6352Z" fill="white"/>
<path d="M202.013 150.762L208.94 150.099L202.025 149.709C201.815 148.372 200.737 147.326 199.388 147.152L198.725 140.256L198.335 147.208C197.079 147.487 196.119 148.533 195.964 149.833L188.882 150.477L196.014 150.861C196.274 152.056 197.24 152.99 198.453 153.213L199.097 160.32L199.481 153.226C200.762 153.015 201.778 152.025 202.013 150.762Z" fill="white"/>
<path d="M461.009 354.678L467.937 354.015L461.021 353.625C460.811 352.288 459.734 351.242 458.384 351.068L457.722 344.172L457.332 351.124C456.081 351.403 455.121 352.449 454.967 353.749L447.884 354.393L455.016 354.777C455.276 355.972 456.242 356.906 457.455 357.129L458.099 364.237L458.483 357.142C459.752 356.931 460.768 355.947 461.009 354.678Z" fill="white"/>
<path d="M178.609 461.298L185.537 460.636L178.622 460.246C178.405 458.909 177.334 457.863 175.984 457.689L175.322 450.799L174.932 457.745C173.675 458.024 172.716 459.07 172.561 460.37L165.479 461.014L172.61 461.398C172.87 462.592 173.836 463.533 175.05 463.75L175.694 470.857L176.077 463.762C177.353 463.552 178.374 462.561 178.609 461.298Z" fill="white"/>
<path d="M439.002 409.293L445.93 408.63L439.015 408.24C438.804 406.903 437.727 405.857 436.377 405.683L435.715 398.787L435.325 405.733C434.074 406.011 433.115 407.058 432.96 408.358L425.878 409.002L433.01 409.385C433.27 410.58 434.235 411.515 435.449 411.738L436.093 418.845L436.477 411.75C437.746 411.546 438.767 410.556 439.002 409.293Z" fill="white"/>
<path d="M248.398 159.125L207.288 222.778V259.661H184.827V222.778L144.132 159.125H170.157L194.441 196.339C194.607 197.168 195.187 197.582 196.182 197.582C197.177 197.582 197.895 197.168 198.337 196.339L222.124 159.125H248.398ZM273.179 259.661H250.801V158.379H273.179V259.661ZM340.811 219.712H319.262C313.736 219.712 309.786 221.563 307.41 225.265C305.807 227.807 305.006 230.984 305.006 234.796C305.006 236.178 305.006 237.006 305.006 237.283C305.061 237.559 305.144 237.835 305.255 238.112V259.661H283.208C283.208 258.003 283.208 255.71 283.208 252.782C283.208 249.853 283.208 246.013 283.208 241.261C283.208 236.509 283.208 231.453 283.208 226.094C283.208 218.026 285.197 211.506 289.176 206.533C293.817 200.732 300.641 197.831 309.648 197.831H337.082C339.623 197.831 341.585 196.974 342.966 195.261C344.348 193.493 345.038 191.421 345.038 189.045C345.038 186.504 344.375 184.376 343.049 182.663C341.557 180.729 339.568 179.763 337.082 179.763H283.208V158.379H340.811C349.431 158.379 356.255 161.556 361.283 167.91C365.814 173.657 368.08 180.702 368.08 189.045C368.08 197.334 365.814 204.351 361.283 210.097C356.255 216.507 349.431 219.712 340.811 219.712ZM160.294 381.661H110.813C98.9336 381.661 89.5403 376.495 82.6334 366.162C76.4449 356.879 73.3506 345.441 73.3506 331.849C73.3506 318.035 76.5002 306.266 82.7992 296.541C89.7613 285.766 99.0993 280.379 110.813 280.379H160.294V301.763H114.543C109.018 301.763 104.68 304.691 101.531 310.548C98.7126 315.797 97.3036 322.29 97.3036 330.025C97.3036 337.982 98.7678 344.778 101.696 350.414C104.901 356.603 109.183 359.697 114.543 359.697H160.294V381.661ZM254.945 381.661H214.582C201.818 381.661 191.706 378.456 184.247 372.047C178.39 367.018 174.246 360.167 171.815 351.492C170.212 345.801 169.411 339.612 169.411 332.926C169.411 331.379 169.411 330.302 169.411 329.694C169.466 329.031 169.549 328.451 169.66 327.953V280.379H192.038V327.953C192.038 336.518 193.834 343.729 197.425 349.586C201.569 356.327 207.288 359.697 214.582 359.697H254.945V381.661ZM438.612 331.103C440.657 333.755 442.176 336.739 443.171 340.054C444.221 343.369 444.745 346.906 444.745 350.663C444.745 358.951 442.452 366.024 437.866 371.881C432.783 378.401 425.931 381.661 417.311 381.661H359.708V360.526H413.582C416.068 360.526 418.057 359.559 419.549 357.625C420.875 355.912 421.538 353.785 421.538 351.243C421.538 348.757 420.903 346.712 419.632 345.11C418.196 343.286 416.179 342.375 413.582 342.375H359.708V319.831H413.582C416.124 319.831 418.085 318.974 419.466 317.261C420.848 315.493 421.538 313.421 421.538 311.045C421.538 308.504 420.875 306.376 419.549 304.663C418.057 302.729 416.068 301.763 413.582 301.763H359.708V280.379H417.311C425.876 280.379 432.755 283.694 437.949 290.325C442.646 296.348 444.994 303.531 444.994 311.874C444.994 315.576 444.442 319.085 443.336 322.4C442.287 325.715 440.712 328.616 438.612 331.103Z" fill="white"/>
<defs>
<filter id="filter0_d_448_262" x="0.00390625" y="1.99243" width="577" height="577" filterUnits="userSpaceOnUse" color-interpolation-filters="sRGB">
<feFlood flood-opacity="0" result="BackgroundImageFix"/>
<feColorMatrix in="SourceAlpha" type="matrix" values="0 0 0 0 0 0 0 0 0 0 0 0 0 0 0 0 0 0 127 0" result="hardAlpha"/>
<feOffset dx="24" dy="14"/>
<feGaussianBlur stdDeviation="25"/>
<feComposite in2="hardAlpha" operator="out"/>
<feColorMatrix type="matrix" values="0 0 0 0 0 0 0 0 0 0 0 0 0 0 0 0 0 0 0.25 0"/>
<feBlend mode="normal" in2="BackgroundImageFix" result="effect1_dropShadow_448_262"/>
<feBlend mode="normal" in="SourceGraphic" in2="effect1_dropShadow_448_262" result="shape"/>
</filter>
</defs>
</svg>
